; Version : LOCAL
; Job     : X:\MG\projects\L02-0101\PCB\L02-0101.pcb
; User    : DESKTOP-LPE9H33:User
; Date    : Tue Mar 14 15:43:56 2017
; Format  : 3.3 / Absolute / MM / Leading
; Contents: Thru / Drill / Plated
M48
METRIC,TZ
FMAT,2
ICI,OFF
T05C0.4000
T04C0.7000
T01C0.9500
T02C1.0000
T03C1.2000
T07C1.8000
%
M71
G90
G93X0Y0
T05
X-19034Y-26028
X-22700Y-23255
X2538Y-24500
X9932Y-23534
X33240Y-20450
X6392Y-22431
X-16162Y-21860
X-20135Y-22243
X-20708Y-18672
X7146Y-18330
X10482Y-19832
X12572Y-19734
X15724Y-20284
X23282Y-19990
X40650Y-19106
X43618Y-19186
X32514Y-15589
X25720Y-15599
X4172Y-16123
X-41997Y-16843
X-41911Y-14671
X8419Y-13116
X15979Y-14980
X17435Y-14877
X18762Y-14300
X22975Y-15210
X30668Y-13417
X34358Y-13356
X37121Y-13836
X45383Y-10431
X29663Y-12009
X20565Y-10963
X15990Y-11138
X7971Y-10608
X-60298Y-10797
X-19385Y-7729
X-14264Y-9076
X-11169Y-8535
X-10410Y-9331
X-9336Y-8105
X-656Y-8086
X7091Y-9928
X9811Y-9145
X12028Y-9945
X17344Y-9536
X17380Y-8082
X17922Y-5486
X15371Y-5793
X8570Y-7284
X556Y-5897
X-2544Y-5973
X-8601
X-58642Y-5771
X-2544Y-4254
X3645Y-3375
X5987Y-4953
X8357Y-3061
X9640Y-4861
X11881Y-4136
X12858Y-4813
X13151Y-2949
X13940Y-4615
X25851Y-3374
X36698Y551
X35927Y-1968
X23081Y-604
X20052Y315
X17242Y1225
X15338Y2267
X14355Y-320
X12809Y866
X11464Y164
X10825Y1059
X10740Y-1508
X10181Y148
X7661Y1733
X5714Y1140
X2748Y-1388
X1754Y-588
X-1841Y1923
X-7245Y806
X-7812Y-1510
X-11256Y-11
X-15265Y-371
X-16154Y2450
X-57663Y2370
X-84176Y2328
X-76586Y4900
X-71043Y4914
X-65619Y4890
X-59857Y3275
X-58674Y4517
X-12198Y4533
X-10626Y4253
X-7346Y3777
X-1868Y3082
X1420Y4307
X2236Y3507
X9325Y4016
X21833Y3789
X31504Y3681
X37789Y4339
X36785Y7012
X36498Y5916
X22414Y5087
X12598Y6666
X11462
X7917Y5815
X7221Y6666
X-58150Y6446
X-59731Y5590
X-76550Y7671
X-71068Y7710
X-65602Y7642
X-18126Y10050
X-10653Y10103
X-1166Y7716
X13314Y8766
X13316Y9962
X19672Y8532
X31005Y9576
X32755Y9587
X36482Y9573
X36851Y8415
X25645Y10449
Y11750
X23174Y11206
X15888Y12639
X-17453Y11987
X-59668Y10646
X-65574Y10509
X-71076Y10599
X-76581Y10600
X-84142Y10555
X-26124Y14760
X-20012Y14268
X-10664Y14429
X14144Y13231
X15366Y13620
X16566Y13959
X17919Y13951
X19438Y13849
X22367Y13494
X23223Y14445
X24056Y13655
X24382Y14718
X26681Y13542
X42913Y16059
X21055Y15352
X6206Y17244
X-1963Y15717
X-4556Y17672
X-10321Y17523
X-11908Y17234
X-13719Y17243
X-15651Y17234
X-17125Y17771
X-22243Y17601
X-35446Y16219
X-39694Y15857
X-38490Y17881
X-36349Y19801
X-31345Y19950
X-27675Y19946
X-26078Y19950
X-23793Y19391
X-4538Y18913
X7039Y19468
X8015Y20295
X41871Y19141
X43017Y18714
X23387Y22667
X9452Y20336
X7052Y22787
X6127Y20707
X5183Y21352
X-3600Y22000
X-5790Y22249
X-6234Y21214
X-7211Y22279
X-7841Y21200
X-8799Y22193
X-4661Y23526
X9068Y23694
X9935Y24501
X10188Y23236
X12890Y24506
X13950Y23828
T04
X-31820Y-23500
X-29280
X-3491Y-20559
X-10209
X-2100Y-17200
X-11600
X-32730Y-16050
X-35270
X-10209Y-13841
X-3491
X-51050Y-9200
X-40950
X-38450
Y-1600
Y1650
X-40950Y-1600
Y1650
X-51050Y-1600
Y1650
Y9250
X-40950
X-38450
T01
X-76525Y-11455
Y-6375
Y-1295
T02
X6875Y-13225
X11875
X20850Y-13900
X-74300Y-11500
X-13850Y-5610
X-74300Y-6300
X-21300Y-2980
X-18760
X-13850Y-3070
Y-530
Y2010
X-18760Y-440
Y2100
X-21300Y-440
Y2100
X-74300Y-1300
X-13850Y4550
X12750Y5000
X42040Y17315
X39500
X34420
X31880
X26800Y17310
X24260
X21720
T03
X42070Y-22000
X38260
X34450
X30640
X26830
X23020
X19210
X15400
X-31300Y-10200
Y-6390
Y-2580
X47050Y-4280
Y-470
X-31300Y2500
X47050Y3340
Y7150
X-31300Y6310
Y10120
T07
X-80225Y-9575
Y-3175
T00
M30
