*
G04 Job   : X:\MG\projects\L02-0101\PCB\L02-0101.pcb*
G04 User  : DESKTOP-LPE9H33:User*
G04 Layer : L02-0101_13SSB.gbr*
G04 Date  : Tue Mar 14 15:44:52 2017*
%ICAS*%
%MOIN*%
%FSLAX24Y24*%
%OFA0.0000B0.0000*%
G90*
G74*
%ADD11C,0.00394*%
%ADD10C,0.00591*%
%ADD12C,0.00787*%
G01*
G36*
X-5571Y-10079D02*
X-4173D01*
Y-8642*
X-5571*
Y-10079*
G37*
G54D10*
X-3730Y-9560D02*
X-3726D01*
X-3724Y-9562*
X-3723Y-9566*
X-3722Y-9569*
X-3723Y-9573*
X-3724Y-9576*
X-3726Y-9578*
X-3730Y-9579*
X-3914*
X-3917Y-9578*
X-3920Y-9576*
X-3922Y-9573*
Y-9569*
Y-9566*
X-3920Y-9562*
X-3917Y-9560*
X-3914*
X-3831*
Y-9116*
Y-9113*
X-3829Y-9110*
X-3827Y-9109*
X-3823Y-9108*
X-3821*
X-3819*
X-3817Y-9109*
X-3815Y-9111*
X-3723Y-9240*
X-3722Y-9242*
X-3721Y-9243*
Y-9247*
X-3723Y-9250*
X-3725Y-9252*
X-3728Y-9254*
X-3731Y-9255*
X-3733*
X-3735Y-9254*
X-3737Y-9251*
X-3813Y-9146*
Y-9560*
X-3730*
X-3278Y-9536D02*
X-3308Y-9560D01*
X-3460*
X-3534Y-9500*
Y-9185*
X-3506Y-9163*
X-3278Y-9536*
X-3235Y-9185D02*
Y-9500D01*
X-3263Y-9524*
X-3491Y-9151*
X-3460Y-9126*
X-3308*
X-3235Y-9185*
X-3220Y-9173D02*
X-3299Y-9108D01*
X-3301*
X-3302Y-9107*
X-3303*
X-3305Y-9106*
X-3464*
X-3466Y-9107*
X-3467*
X-3468Y-9108*
X-3470*
X-3549Y-9173*
X-3551Y-9175*
Y-9177*
X-3552Y-9179*
X-3553Y-9181*
Y-9505*
X-3552Y-9506*
X-3551Y-9509*
Y-9510*
X-3549Y-9512*
X-3470Y-9577*
X-3468*
X-3467Y-9578*
X-3466*
X-3465Y-9579*
X-3464*
X-3305*
X-3303Y-9578*
X-3301*
X-3299Y-9577*
X-3220Y-9512*
X-3218Y-9511*
X-3217Y-9509*
X-3216Y-9506*
X-3215Y-9505*
Y-9181*
X-3216Y-9179*
X-3217Y-9177*
Y-9175*
X-3220Y-9173*
X-2854Y-9560D02*
X-2850D01*
X-2847Y-9562*
X-2846Y-9566*
Y-9569*
Y-9573*
X-2847Y-9576*
X-2850Y-9578*
X-2854Y-9579*
X-3038*
X-3041Y-9578*
X-3044Y-9576*
X-3045Y-9573*
X-3046Y-9569*
X-3045Y-9566*
X-3044Y-9562*
X-3041Y-9560*
X-3038*
X-2955*
Y-9116*
X-2954Y-9113*
X-2953Y-9110*
X-2950Y-9109*
X-2947Y-9108*
X-2945*
X-2942*
X-2940Y-9109*
X-2939Y-9111*
X-2846Y-9240*
Y-9242*
X-2845Y-9243*
Y-9247*
X-2846Y-9250*
X-2849Y-9252*
X-2852Y-9254*
X-2855Y-9255*
X-2857*
X-2858Y-9254*
X-2861Y-9251*
X-2936Y-9146*
Y-9560*
X-2854*
X-2401Y-9536D02*
X-2431Y-9560D01*
X-2584*
X-2657Y-9500*
Y-9185*
X-2630Y-9163*
X-2401Y-9536*
X-2358Y-9185D02*
Y-9500D01*
X-2386Y-9524*
X-2615Y-9151*
X-2584Y-9126*
X-2431*
X-2358Y-9185*
X-2343Y-9173D02*
X-2423Y-9108D01*
X-2425*
X-2426Y-9107*
X-2428Y-9106*
X-2588*
X-2589Y-9107*
X-2590*
X-2592Y-9108*
X-2594*
X-2673Y-9173*
X-2674Y-9175*
X-2675Y-9177*
X-2676Y-9179*
Y-9181*
Y-9505*
Y-9506*
X-2675Y-9509*
X-2674Y-9510*
X-2673Y-9512*
X-2594Y-9577*
X-2592*
X-2590Y-9578*
X-2589Y-9579*
X-2588*
X-2428*
X-2426Y-9578*
X-2425*
X-2423Y-9577*
X-2343Y-9512*
X-2342Y-9511*
X-2341*
X-2340Y-9509*
Y-9506*
X-2339Y-9505*
Y-9181*
X-2340Y-9179*
Y-9177*
X-2341Y-9175*
X-2343Y-9173*
X-1975Y-9369D02*
X-2127D01*
X-2130Y-9370*
X-2133Y-9371*
X-2134Y-9374*
Y-9377*
Y-9380*
X-2133Y-9383*
X-2130Y-9385*
X-2127*
X-1975*
X-1972*
X-1970Y-9383*
X-1968Y-9380*
Y-9377*
Y-9374*
X-1969Y-9371*
X-1971Y-9370*
X-1975Y-9369*
X-1719Y-9108D02*
X-1798Y-9173D01*
X-1800Y-9175*
Y-9177*
X-1801Y-9179*
Y-9181*
Y-9245*
Y-9247*
X-1800Y-9250*
Y-9252*
X-1798Y-9253*
X-1483Y-9509*
Y-9560*
X-1792*
X-1795*
X-1798Y-9562*
X-1800Y-9566*
Y-9569*
Y-9573*
X-1798Y-9576*
X-1795Y-9578*
X-1792Y-9579*
X-1474*
X-1470Y-9578*
X-1467Y-9576*
X-1465Y-9573*
X-1464Y-9569*
Y-9505*
X-1465Y-9503*
X-1466Y-9500*
Y-9499*
X-1467Y-9498*
X-1468Y-9497*
X-1783Y-9241*
Y-9185*
X-1709Y-9126*
X-1556*
X-1479Y-9189*
X-1476Y-9190*
X-1473Y-9189*
X-1470Y-9188*
X-1467Y-9185*
X-1466Y-9182*
Y-9179*
Y-9175*
X-1467Y-9174*
X-1468Y-9173*
X-1548Y-9108*
X-1550*
X-1551Y-9107*
X-1553Y-9106*
X-1713*
X-1714Y-9107*
X-1715*
X-1717Y-9108*
X-1719*
X-1080Y-9536D02*
X-1110Y-9560D01*
X-1262*
X-1336Y-9500*
Y-9185*
X-1308Y-9163*
X-1080Y-9536*
X-1037Y-9185D02*
Y-9500D01*
X-1065Y-9524*
X-1294Y-9151*
X-1262Y-9126*
X-1110*
X-1037Y-9185*
X-1022Y-9173D02*
X-1101Y-9108D01*
X-1103*
X-1104Y-9107*
X-1105*
X-1107Y-9106*
X-1266*
X-1268Y-9107*
X-1269*
X-1270Y-9108*
X-1272*
X-1352Y-9173*
X-1353Y-9175*
X-1354Y-9177*
Y-9179*
X-1355Y-9181*
Y-9505*
X-1354Y-9506*
Y-9509*
X-1353Y-9510*
X-1352Y-9512*
X-1272Y-9577*
X-1270*
X-1269Y-9578*
X-1268Y-9579*
X-1266*
X-1107*
X-1105Y-9578*
X-1103*
X-1101Y-9577*
X-1022Y-9512*
X-1020Y-9511*
X-1019Y-9509*
X-1018Y-9506*
Y-9505*
Y-9181*
Y-9179*
X-1019Y-9177*
X-1020Y-9175*
X-1022Y-9173*
X-571Y-9569D02*
X-572Y-9573D01*
X-574Y-9576*
X-577Y-9578*
X-580Y-9579*
X-899*
X-902Y-9578*
X-905Y-9576*
X-907Y-9573*
Y-9569*
Y-9566*
X-905Y-9562*
X-902Y-9560*
X-899*
X-591*
Y-9116*
X-590Y-9113*
X-587Y-9110*
X-584Y-9108*
X-580*
X-577*
X-574Y-9110*
X-572Y-9113*
X-571Y-9116*
Y-9569*
G54D11*
X-16280Y-5627D02*
X-16278D01*
X-16277Y-5628*
Y-5630*
X-16276Y-5632*
X-16277Y-5634*
Y-5635*
X-16278Y-5636*
X-16280Y-5637*
X-16372*
X-16374Y-5636*
X-16375Y-5635*
X-16376Y-5634*
Y-5632*
Y-5630*
X-16375Y-5628*
X-16374Y-5627*
X-16372*
X-16331*
Y-5405*
X-16330Y-5404*
Y-5402*
X-16329*
X-16327Y-5401*
X-16326*
X-16325*
X-16324Y-5402*
X-16323Y-5403*
X-16277Y-5467*
X-16276Y-5468*
Y-5469*
Y-5471*
X-16277Y-5472*
X-16278Y-5473*
X-16279Y-5474*
X-16281Y-5475*
X-16282*
Y-5474*
X-16284Y-5473*
X-16321Y-5420*
Y-5627*
X-16280*
X-16166Y-5632D02*
X-16167Y-5634D01*
X-16168Y-5635*
X-16169Y-5636*
X-16171*
X-16173*
X-16174Y-5635*
X-16175Y-5634*
X-16176Y-5632*
Y-5560*
X-16187*
X-16188*
X-16190Y-5559*
X-16191Y-5557*
Y-5556*
Y-5554*
X-16190Y-5552*
X-16188Y-5551*
X-16187*
X-16176*
Y-5412*
X-16175Y-5411*
Y-5410*
X-16174Y-5409*
X-16173Y-5408*
X-16171*
X-16170Y-5407*
X-16169Y-5408*
X-16167*
X-16024Y-5552*
X-16023Y-5553*
Y-5555*
Y-5556*
X-16024Y-5558*
Y-5559*
X-16025Y-5560*
X-16026*
X-16027*
X-16166*
Y-5632*
X-16039Y-5551D02*
X-16166Y-5424D01*
Y-5551*
X-16039*
X-15927Y-5401D02*
X-15967Y-5434D01*
Y-5435*
X-15968Y-5436*
Y-5437*
Y-5438*
Y-5470*
Y-5471*
Y-5472*
X-15967Y-5473*
Y-5474*
X-15809Y-5602*
Y-5627*
X-15964*
X-15965*
X-15967Y-5628*
Y-5630*
X-15968Y-5632*
X-15967Y-5634*
Y-5635*
X-15965Y-5636*
X-15964Y-5637*
X-15804*
X-15802Y-5636*
X-15801Y-5635*
X-15800Y-5634*
Y-5632*
Y-5600*
Y-5599*
Y-5597*
X-15801*
Y-5596*
X-15802*
X-15959Y-5468*
Y-5440*
X-15922Y-5410*
X-15846*
X-15807Y-5442*
X-15806*
X-15804*
X-15802Y-5441*
X-15801Y-5440*
Y-5438*
X-15800Y-5437*
X-15801Y-5435*
Y-5434*
X-15802*
X-15841Y-5401*
X-15842*
X-15843*
X-15844Y-5400*
X-15924*
X-15925Y-5401*
X-15926*
X-15927*
X-15744Y-5490D02*
X-15745Y-5489D01*
Y-5487*
Y-5486*
Y-5438*
Y-5436*
Y-5435*
X-15744*
Y-5434*
X-15704Y-5401*
X-15702*
X-15701*
X-15700Y-5400*
X-15581*
X-15579Y-5401*
X-15578Y-5402*
X-15577Y-5404*
X-15576Y-5405*
Y-5632*
X-15577Y-5634*
X-15578Y-5635*
X-15579Y-5636*
X-15581*
X-15583*
X-15584Y-5635*
X-15586Y-5634*
Y-5632*
Y-5523*
X-15697*
X-15736Y-5633*
X-15737Y-5635*
X-15738Y-5636*
X-15740*
X-15742*
X-15743Y-5635*
X-15744Y-5634*
X-15745Y-5632*
Y-5630*
X-15706Y-5520*
X-15744Y-5490*
X-15586Y-5410D02*
X-15699D01*
X-15736Y-5440*
Y-5484*
X-15699Y-5514*
X-15586*
Y-5410*
X-15348Y-5615D02*
X-15363Y-5627D01*
X-15439*
X-15476Y-5597*
Y-5440*
X-15462Y-5429*
X-15348Y-5615*
X-15327Y-5440D02*
Y-5597D01*
X-15341Y-5609*
X-15455Y-5423*
X-15439Y-5410*
X-15363*
X-15327Y-5440*
X-15319Y-5434D02*
X-15359Y-5401D01*
X-15360*
X-15361*
X-15362Y-5400*
X-15441*
X-15442Y-5401*
X-15443*
X-15444*
X-15484Y-5434*
X-15485Y-5435*
Y-5436*
Y-5437*
X-15486Y-5438*
Y-5600*
X-15485*
Y-5602*
X-15484Y-5603*
X-15444Y-5636*
X-15443*
X-15442*
Y-5637*
X-15441*
X-15362*
X-15361Y-5636*
X-15360*
X-15359*
X-15319Y-5603*
X-15318*
Y-5602*
X-15317Y-5600*
Y-5438*
Y-5437*
X-15318Y-5436*
Y-5435*
X-15319Y-5434*
X-15237Y-5632D02*
Y-5634D01*
X-15238Y-5635*
X-15240Y-5636*
X-15242*
X-15243*
X-15245Y-5635*
X-15246Y-5634*
X-15247Y-5632*
Y-5560*
X-15258*
X-15259*
X-15261Y-5559*
Y-5557*
X-15262Y-5556*
X-15261Y-5554*
Y-5552*
X-15259Y-5551*
X-15258*
X-15247*
Y-5412*
X-15246Y-5411*
Y-5410*
X-15245Y-5409*
X-15243Y-5408*
X-15242*
X-15241Y-5407*
X-15239Y-5408*
X-15238*
X-15095Y-5552*
X-15094Y-5553*
X-15093Y-5555*
X-15094Y-5556*
X-15095Y-5558*
Y-5559*
X-15096Y-5560*
X-15097*
X-15098*
X-15237*
Y-5632*
X-15166Y7082D02*
X-15206Y7049D01*
Y7048*
X-15207Y7047*
Y7046*
Y7013*
Y7012*
Y7011*
X-15206Y7010*
Y7009*
X-15048Y6881*
Y6856*
X-15203*
X-15204*
X-15206Y6855*
Y6853*
X-15207Y6851*
X-15206Y6849*
Y6848*
X-15204Y6847*
X-15203Y6846*
X-15043*
X-15041Y6847*
X-15040Y6848*
X-15039Y6849*
Y6851*
Y6883*
Y6884*
Y6886*
X-15040Y6887*
X-15041*
X-15198Y7016*
Y7043*
X-15161Y7073*
X-15085*
X-15046Y7041*
X-15044*
X-15043*
X-15041Y7042*
X-15040Y7043*
Y7045*
X-15039Y7046*
X-15040Y7048*
Y7049*
X-15041*
X-15080Y7082*
X-15081*
X-15082*
X-15083Y7083*
X-15163*
X-15164Y7082*
X-15165*
X-15166*
X-15110Y-5551D02*
X-15237Y-5424D01*
Y-5551*
X-15110*
X-15061Y4643D02*
X-15021Y4675D01*
X-15020*
Y4676*
X-15019Y4677*
Y4678*
X-15020Y4679*
X-15021Y4681*
X-15022Y4682*
X-15023Y4683*
X-15025*
X-15026*
X-15065Y4651*
X-15141*
X-15178Y4681*
Y4725*
X-15142Y4755*
X-15103*
X-15101Y4756*
X-15099*
Y4758*
Y4760*
Y4761*
Y4763*
X-15101Y4764*
X-15103*
X-15142*
X-15178Y4794*
Y4838*
X-15141Y4868*
X-15065*
X-15026Y4837*
X-15025Y4836*
X-15023Y4837*
X-15022*
X-15021Y4839*
X-15020Y4840*
X-15019Y4842*
Y4843*
X-15020*
Y4844*
X-15021Y4845*
X-15061Y4877*
X-15062*
Y4878*
X-15063*
X-15143*
X-15144*
X-15145Y4877*
X-15146*
X-15186Y4845*
X-15187Y4843*
Y4842*
X-15188Y4841*
Y4792*
X-15187Y4791*
Y4790*
Y4789*
X-15186Y4788*
X-15151Y4760*
X-15186Y4731*
X-15187Y4730*
Y4728*
X-15188Y4727*
Y4679*
X-15187Y4678*
Y4677*
Y4676*
X-15186Y4675*
X-15146Y4643*
X-15145Y4642*
X-15144*
X-15143*
X-15063*
X-15062*
X-15061*
Y4643*
X-14998Y-5401D02*
X-15037Y-5434D01*
X-15038Y-5435*
Y-5436*
X-15039Y-5437*
Y-5438*
Y-5470*
Y-5471*
X-15038Y-5472*
Y-5473*
X-15037Y-5474*
X-14880Y-5602*
Y-5627*
X-15034*
X-15036*
X-15037Y-5628*
X-15038Y-5630*
Y-5632*
Y-5634*
X-15037Y-5635*
X-15036Y-5636*
X-15034Y-5637*
X-14875*
X-14873Y-5636*
X-14872Y-5635*
X-14871Y-5634*
X-14870Y-5632*
Y-5600*
X-14871Y-5599*
Y-5597*
X-14872*
Y-5596*
X-14873*
X-15030Y-5468*
Y-5440*
X-14993Y-5410*
X-14917*
X-14878Y-5442*
X-14876*
X-14875*
X-14873Y-5441*
X-14872Y-5440*
X-14871Y-5438*
Y-5437*
Y-5435*
X-14872Y-5434*
X-14873*
X-14912Y-5401*
X-14913*
X-14914*
X-14915Y-5400*
X-14995*
X-14996Y-5401*
X-14997*
X-14998*
X-14959Y6851D02*
Y6849D01*
X-14960Y6848*
X-14962Y6847*
X-14963*
X-14965*
X-14967Y6848*
X-14968Y6849*
Y6851*
Y6923*
X-14979*
X-14981*
X-14982Y6924*
X-14983Y6926*
Y6927*
Y6929*
X-14982Y6931*
X-14981Y6932*
X-14979*
X-14968*
Y7071*
Y7072*
X-14967Y7073*
X-14966Y7074*
X-14965Y7075*
X-14964Y7076*
X-14962*
X-14961*
X-14960Y7075*
X-14817Y6931*
X-14816Y6930*
X-14815Y6928*
Y6927*
X-14816Y6925*
X-14817Y6924*
X-14818Y6923*
X-14819*
X-14820*
X-14959*
Y6851*
X-14939Y4646D02*
Y4644D01*
X-14940Y4643*
X-14942*
X-14944Y4642*
X-14945Y4643*
X-14947*
X-14948Y4644*
X-14949Y4646*
Y4718*
X-14960*
X-14961*
X-14963Y4719*
Y4721*
X-14964Y4723*
X-14963Y4725*
Y4726*
X-14961Y4727*
X-14960Y4728*
X-14949*
Y4867*
X-14948Y4868*
Y4869*
X-14947Y4870*
X-14945*
X-14944Y4871*
X-14943*
X-14941*
X-14940Y4870*
X-14797Y4726*
X-14796Y4725*
X-14795Y4724*
X-14796Y4722*
X-14797Y4721*
Y4719*
X-14798*
X-14799Y4718*
X-14800*
X-14939*
Y4646*
X-14832Y6932D02*
X-14959Y7059D01*
Y6932*
X-14832*
X-14814Y-5490D02*
X-14815D01*
Y-5489*
X-14816Y-5487*
Y-5486*
Y-5438*
Y-5436*
X-14815*
Y-5435*
Y-5434*
X-14814*
X-14774Y-5401*
X-14773*
X-14772*
X-14771Y-5400*
X-14652*
X-14650Y-5401*
X-14649Y-5402*
X-14647Y-5404*
Y-5405*
Y-5632*
Y-5634*
X-14649Y-5635*
X-14650Y-5636*
X-14652*
X-14654*
X-14655Y-5635*
X-14656Y-5634*
X-14657Y-5632*
Y-5523*
X-14768*
X-14807Y-5633*
X-14808Y-5635*
X-14809Y-5636*
X-14811*
X-14813*
X-14814Y-5635*
X-14815Y-5634*
X-14816Y-5632*
X-14815Y-5630*
X-14777Y-5520*
X-14814Y-5490*
X-14812Y4728D02*
X-14939Y4854D01*
Y4728*
X-14812*
X-14719Y7082D02*
X-14759Y7049D01*
X-14760Y7048*
Y7047*
X-14761Y7046*
Y7013*
Y7012*
X-14760Y7011*
Y7010*
X-14759Y7009*
X-14602Y6881*
Y6856*
X-14756*
X-14758*
X-14759Y6855*
X-14760Y6853*
Y6851*
Y6849*
X-14759Y6848*
X-14758Y6847*
X-14756Y6846*
X-14597*
X-14595Y6847*
X-14594Y6848*
X-14593Y6849*
X-14592Y6851*
Y6883*
Y6884*
X-14593Y6886*
Y6887*
X-14594*
X-14751Y7016*
Y7043*
X-14714Y7073*
X-14638*
X-14600Y7041*
X-14598*
X-14596*
X-14595Y7042*
X-14594Y7043*
X-14593Y7045*
Y7046*
Y7048*
X-14594Y7049*
X-14634Y7082*
X-14635*
X-14636*
X-14637Y7083*
X-14716*
X-14717Y7082*
X-14718*
X-14719*
X-14700Y4877D02*
X-14739Y4845D01*
X-14740Y4843*
Y4842*
X-14741*
Y4841*
Y4808*
Y4807*
X-14740Y4806*
Y4805*
X-14739Y4804*
X-14582Y4677*
Y4651*
X-14736*
X-14738*
X-14739Y4650*
X-14740Y4648*
Y4646*
Y4645*
X-14739Y4643*
X-14738Y4642*
X-14736*
X-14577*
X-14575*
X-14574Y4643*
X-14573Y4644*
X-14572Y4646*
Y4679*
X-14573*
Y4681*
X-14574Y4682*
X-14575Y4683*
X-14732Y4811*
Y4838*
X-14695Y4868*
X-14619*
X-14580Y4837*
X-14578Y4836*
X-14577Y4837*
X-14575*
X-14574Y4839*
X-14573Y4840*
Y4842*
Y4843*
X-14574Y4844*
X-14575Y4845*
X-14614Y4877*
X-14615*
X-14616*
Y4878*
X-14617*
X-14697*
X-14698*
Y4877*
X-14699*
X-14700*
X-14657Y-5410D02*
X-14770D01*
X-14807Y-5440*
Y-5484*
X-14770Y-5514*
X-14657*
Y-5410*
X-14536Y6993D02*
X-14537D01*
Y6994*
X-14538Y6996*
Y6997*
Y7046*
Y7047*
X-14537*
Y7048*
X-14536Y7049*
X-14496Y7082*
X-14495*
X-14494*
X-14493Y7083*
X-14374*
X-14372Y7082*
X-14370Y7081*
X-14369Y7080*
Y7078*
Y6851*
Y6849*
X-14370Y6848*
X-14372Y6847*
X-14373*
X-14375*
X-14377Y6848*
X-14378Y6849*
X-14379Y6851*
Y6960*
X-14490*
X-14528Y6850*
X-14529Y6848*
X-14531Y6847*
X-14533*
X-14534*
X-14536Y6848*
X-14537Y6849*
Y6851*
Y6853*
X-14498Y6963*
X-14536Y6993*
X-14516Y4788D02*
X-14517Y4789D01*
Y4790*
X-14518Y4791*
Y4792*
Y4841*
Y4842*
X-14517Y4843*
Y4844*
X-14516*
X-14476Y4877*
X-14475*
X-14474Y4878*
X-14473*
X-14354*
X-14352Y4877*
X-14351Y4876*
X-14349Y4875*
Y4873*
Y4646*
Y4644*
X-14351Y4643*
X-14352*
X-14354Y4642*
X-14356Y4643*
X-14357*
X-14358Y4644*
X-14359Y4646*
Y4755*
X-14470*
X-14509Y4645*
X-14510Y4643*
X-14511Y4642*
X-14513*
X-14515Y4643*
X-14516*
X-14517Y4644*
X-14518Y4646*
X-14517Y4648*
X-14479Y4758*
X-14516Y4788*
X-14379Y7073D02*
X-14491D01*
X-14528Y7043*
Y6999*
X-14491Y6969*
X-14379*
Y7073*
X-14359Y4868D02*
X-14472D01*
X-14509Y4838*
Y4794*
X-14472Y4764*
X-14359*
Y4868*
X-10748Y5946D02*
X-10708Y5914D01*
X-10707Y5913*
X-10706Y5912*
Y5911*
X-10707Y5909*
X-10708Y5908*
X-10709Y5906*
X-10710*
X-10712*
X-10713*
X-10752Y5937*
X-10828*
X-10865Y5908*
Y5864*
X-10829Y5834*
X-10789*
X-10788Y5833*
X-10786Y5832*
Y5831*
X-10785Y5829*
X-10786Y5827*
Y5826*
X-10788Y5825*
X-10789Y5824*
X-10829*
X-10865Y5794*
Y5750*
X-10828Y5721*
X-10752*
X-10713Y5752*
X-10712*
X-10710*
X-10709Y5751*
X-10708Y5750*
X-10707Y5748*
X-10706Y5747*
Y5746*
X-10707Y5745*
X-10708Y5744*
X-10748Y5712*
X-10749Y5711*
X-10750*
X-10830*
X-10831*
X-10832*
Y5712*
X-10833*
X-10873Y5744*
X-10874Y5745*
Y5746*
Y5747*
X-10875Y5748*
Y5797*
X-10874*
Y5799*
Y5800*
X-10873Y5801*
X-10838Y5829*
X-10873Y5857*
Y5858*
X-10874*
Y5859*
Y5861*
X-10875*
Y5910*
X-10874Y5911*
Y5912*
Y5913*
X-10873Y5914*
X-10833Y5946*
X-10832Y5947*
X-10831*
X-10830*
X-10750*
X-10749*
X-10748*
Y5946*
X-10514Y5926D02*
X-10529Y5937D01*
X-10605*
X-10642Y5908*
Y5750*
X-10628Y5739*
X-10514Y5926*
X-10492Y5750D02*
Y5908D01*
X-10506Y5919*
X-10621Y5733*
X-10605Y5721*
X-10529*
X-10492Y5750*
X-10485Y5744D02*
X-10524Y5712D01*
X-10525*
X-10526Y5711*
X-10527*
X-10607*
X-10608*
X-10609Y5712*
X-10610*
X-10650Y5744*
Y5745*
X-10651Y5746*
Y5747*
Y5748*
Y5910*
Y5911*
Y5912*
X-10650Y5913*
Y5914*
X-10610Y5946*
X-10609*
X-10608Y5947*
X-10607*
X-10527*
X-10526*
X-10525*
X-10524Y5946*
X-10485Y5914*
X-10484Y5913*
X-10483Y5912*
Y5911*
Y5910*
Y5748*
Y5747*
Y5746*
X-10484Y5745*
X-10485Y5744*
X-10291Y5926D02*
X-10305Y5937D01*
X-10382*
X-10419Y5908*
Y5750*
X-10405Y5739*
X-10291Y5926*
X-10269Y5750D02*
Y5908D01*
X-10283Y5919*
X-10397Y5733*
X-10382Y5721*
X-10305*
X-10269Y5750*
X-10262Y5744D02*
X-10301Y5712D01*
X-10302*
X-10303Y5711*
X-10304*
X-10384*
X-10385*
X-10386Y5712*
X-10387*
X-10426Y5744*
X-10427Y5745*
Y5746*
X-10428Y5747*
Y5748*
Y5910*
Y5911*
X-10427Y5912*
Y5913*
X-10426Y5914*
X-10387Y5946*
X-10386*
X-10385Y5947*
X-10384*
X-10304*
X-10303*
X-10302*
X-10301Y5946*
X-10262Y5914*
X-10261Y5913*
X-10260Y5912*
Y5911*
X-10259Y5910*
Y5748*
X-10260Y5747*
Y5746*
Y5745*
X-10262Y5744*
X-10078Y5946D02*
X-10039Y5914D01*
X-10038Y5913*
X-10037Y5912*
Y5911*
Y5910*
Y5748*
Y5747*
Y5746*
X-10038Y5745*
X-10039Y5744*
X-10078Y5712*
X-10079*
X-10080Y5711*
X-10081*
X-10161*
X-10162*
X-10163Y5712*
X-10164*
X-10204Y5744*
X-10205Y5745*
Y5747*
Y5748*
X-10204Y5750*
Y5751*
X-10202Y5752*
X-10201*
X-10200Y5753*
X-10199Y5752*
X-10198*
X-10159Y5721*
X-10083*
X-10046Y5750*
Y5908*
X-10083Y5937*
X-10159*
X-10198Y5906*
X-10199Y5905*
X-10200*
X-10201Y5906*
X-10202*
X-10204Y5907*
Y5908*
X-10205Y5910*
Y5911*
Y5913*
X-10204Y5914*
X-10164Y5946*
X-10163Y5947*
X-10162*
X-10161*
X-10081*
X-10080*
X-10079*
X-10078Y5946*
X-7123Y-1514D02*
X-7116Y-1537D01*
X-7123Y-1559*
Y-1560*
Y-1561*
Y-1634*
Y-1635*
Y-1636*
X-7122Y-1637*
X-7098Y-1662*
X-7097Y-1663*
X-7096*
X-7095*
X-7008*
X-7007*
X-7006*
X-7005Y-1662*
X-6981Y-1637*
X-6980Y-1636*
Y-1635*
Y-1634*
Y-1561*
Y-1560*
Y-1559*
X-6988Y-1537*
X-6980Y-1514*
Y-1512*
Y-1456*
Y-1455*
Y-1453*
X-6981Y-1452*
X-7005Y-1428*
X-7006Y-1427*
X-7007*
X-7008*
X-7095*
X-7096*
X-7097*
X-7098Y-1428*
X-7122Y-1452*
X-7123Y-1454*
Y-1455*
Y-1456*
Y-1512*
Y-1513*
Y-1514*
X-7115Y2431D02*
X-7154Y2398D01*
X-7155Y2397*
X-7156Y2395*
Y2394*
X-7155Y2393*
X-7154Y2392*
X-7153Y2391*
X-7152Y2390*
X-7151*
X-7150*
X-7149*
X-7110Y2422*
X-7033*
X-6997Y2392*
Y2307*
X-7029Y2333*
X-7030Y2334*
X-7031*
X-7032*
X-7112*
X-7113*
X-7114*
Y2333*
X-7154Y2301*
X-7155*
Y2300*
X-7156Y2298*
Y2297*
Y2232*
Y2231*
X-7155Y2230*
Y2229*
X-7154*
X-7115Y2196*
X-7114*
X-7113*
X-7112Y2195*
X-7032*
X-7031Y2196*
X-7030*
X-7029*
X-6990Y2229*
X-6989*
X-6988Y2230*
Y2232*
X-6987*
Y2394*
X-6988Y2396*
Y2397*
X-6989*
X-6990Y2398*
X-7029Y2431*
X-7030*
X-7031*
X-7032*
X-7112*
X-7113*
X-7114*
X-7115*
X-7055Y-3776D02*
Y-3778D01*
Y-3780*
X-7056Y-3781*
X-7057Y-3782*
X-7059Y-3783*
X-7061*
X-7062Y-3782*
X-7063Y-3781*
X-7190Y-3554*
X-7191Y-3553*
Y-3552*
Y-3551*
X-7190Y-3550*
Y-3549*
X-7189Y-3548*
X-7188*
X-7186Y-3547*
X-7027*
X-7025Y-3548*
X-7024Y-3549*
X-7023Y-3550*
Y-3552*
Y-3554*
X-7024Y-3556*
X-7025Y-3557*
X-7027*
X-7178*
X-7055Y-3776*
X-6997Y2295D02*
Y2235D01*
X-7033Y2205*
X-7110*
X-7147Y2235*
Y2295*
X-7110Y2325*
X-7033*
X-6997Y2295*
X-6989Y-1562D02*
Y-1632D01*
X-7011Y-1653*
X-7093*
X-7114Y-1632*
Y-1562*
X-7107Y-1542*
X-6996*
X-6989Y-1562*
Y-1458D02*
Y-1512D01*
X-6996Y-1532*
X-7107*
X-7114Y-1512*
Y-1458*
X-7093Y-1436*
X-7011*
X-6989Y-1458*
X-6877Y-738D02*
X-6876D01*
X-6875*
X-6874Y-739*
X-6842Y-765*
Y-666*
X-6997*
X-6998*
X-7000Y-665*
Y-663*
X-7001Y-661*
X-7000Y-659*
Y-658*
X-6998Y-657*
X-6997Y-656*
X-6837*
X-6835Y-657*
X-6834Y-658*
X-6833Y-659*
X-6832Y-661*
Y-775*
X-6833Y-776*
Y-778*
X-6834*
X-6836Y-779*
X-6837*
X-6838*
X-6839*
X-6840Y-778*
X-6879Y-747*
X-6955*
X-6992Y-777*
Y-853*
X-6955Y-883*
X-6879*
X-6840Y-851*
X-6839*
X-6837*
X-6835Y-852*
X-6834Y-853*
X-6833Y-855*
Y-856*
Y-857*
Y-858*
X-6834Y-859*
X-6835*
X-6874Y-892*
X-6875*
X-6876*
X-6877Y-893*
X-6957*
X-6958Y-892*
X-6959*
X-6960*
X-7000Y-859*
Y-858*
X-7001*
Y-856*
Y-855*
Y-775*
Y-774*
Y-772*
X-7000*
Y-771*
X-6960Y-739*
X-6959Y-738*
X-6958*
X-6957*
X-6877*
X-6842Y-3774D02*
X-6840D01*
X-6839Y-3775*
X-6838Y-3777*
Y-3779*
Y-3780*
X-6839Y-3782*
X-6840Y-3783*
X-6842Y-3784*
X-6934*
X-6935Y-3783*
X-6937Y-3782*
Y-3780*
X-6938Y-3779*
X-6937Y-3777*
Y-3775*
X-6935Y-3774*
X-6934*
X-6892*
Y-3552*
Y-3550*
X-6891Y-3549*
X-6890*
X-6888Y-3548*
X-6887*
X-6886*
X-6885Y-3549*
X-6884*
X-6838Y-3614*
Y-3615*
X-6837Y-3616*
Y-3617*
X-6838Y-3619*
X-6839Y-3620*
X-6841Y-3621*
X-6842*
X-6843*
X-6844*
X-6845Y-3620*
X-6883Y-3567*
Y-3774*
X-6842*
X-6795Y2217D02*
X-6810Y2205D01*
X-6887*
X-6923Y2235*
Y2392*
X-6909Y2403*
X-6795Y2217*
X-6784Y-1653D02*
X-6782Y-1654D01*
X-6781Y-1655*
X-6780Y-1656*
Y-1658*
Y-1660*
X-6781Y-1662*
X-6782Y-1663*
X-6784*
X-6876*
X-6877*
X-6879Y-1662*
X-6880Y-1660*
Y-1658*
Y-1656*
X-6879Y-1655*
X-6877Y-1654*
X-6876Y-1653*
X-6834*
Y-1432*
Y-1430*
X-6833Y-1429*
X-6832Y-1428*
X-6830*
X-6829Y-1427*
X-6828*
X-6827Y-1428*
X-6826Y-1429*
X-6780Y-1494*
Y-1495*
X-6779*
Y-1497*
X-6780Y-1498*
X-6781Y-1500*
X-6783*
X-6784Y-1501*
X-6785*
X-6786*
X-6787Y-1499*
X-6825Y-1446*
Y-1653*
X-6784*
X-6774Y2392D02*
Y2235D01*
X-6788Y2223*
X-6902Y2409*
X-6887Y2422*
X-6810*
X-6774Y2392*
X-6766Y2398D02*
X-6806Y2431D01*
X-6807*
X-6808*
X-6809*
X-6888*
X-6889*
X-6890*
X-6891*
X-6931Y2398*
X-6932Y2397*
Y2396*
X-6933Y2395*
Y2394*
Y2232*
X-6932Y2230*
X-6931Y2229*
X-6891Y2196*
X-6890*
X-6889Y2195*
X-6888*
X-6809*
X-6808Y2196*
X-6807*
X-6806*
X-6766Y2229*
X-6765*
Y2230*
X-6764Y2232*
Y2394*
Y2395*
X-6765Y2396*
Y2397*
X-6766Y2398*
X-6641Y-871D02*
X-6655Y-883D01*
X-6732*
X-6769Y-853*
Y-696*
X-6755Y-685*
X-6641Y-871*
X-6619Y-696D02*
Y-853D01*
X-6633Y-865*
X-6747Y-679*
X-6732Y-666*
X-6655*
X-6619Y-696*
X-6616Y-3762D02*
X-6630Y-3774D01*
X-6707*
X-6744Y-3744*
Y-3587*
X-6730Y-3576*
X-6616Y-3762*
X-6612Y-690D02*
X-6651Y-657D01*
X-6652*
X-6653*
X-6654Y-656*
X-6734*
X-6735Y-657*
X-6736*
X-6737*
X-6776Y-690*
X-6777Y-691*
Y-692*
X-6778*
Y-693*
Y-855*
Y-856*
X-6777Y-858*
X-6776Y-859*
X-6737Y-892*
X-6736*
X-6735*
X-6734Y-893*
X-6654*
X-6653Y-892*
X-6652*
X-6651*
X-6612Y-859*
X-6611*
X-6610Y-858*
Y-856*
X-6609Y-855*
Y-693*
X-6610Y-692*
Y-691*
X-6612Y-690*
X-6594Y-3587D02*
Y-3744D01*
X-6608Y-3756*
X-6722Y-3570*
X-6707Y-3557*
X-6630*
X-6594Y-3587*
X-6586Y-3581D02*
X-6626Y-3548D01*
X-6627*
X-6628*
X-6629Y-3547*
X-6709*
X-6710Y-3548*
X-6711*
X-6712*
X-6751Y-3581*
X-6752Y-3582*
Y-3583*
X-6753*
Y-3584*
Y-3746*
Y-3747*
X-6752Y-3749*
X-6751Y-3750*
X-6712Y-3783*
X-6711*
X-6710*
X-6709Y-3784*
X-6629*
X-6628Y-3783*
X-6627*
X-6626*
X-6586Y-3750*
X-6585Y-3749*
Y-3747*
X-6584Y-3746*
Y-3584*
X-6585Y-3583*
Y-3582*
X-6586Y-3581*
X-6572Y2217D02*
X-6587Y2205D01*
X-6663*
X-6700Y2235*
Y2392*
X-6686Y2403*
X-6572Y2217*
X-6558Y-1642D02*
X-6573Y-1653D01*
X-6649*
X-6686Y-1624*
Y-1466*
X-6672Y-1455*
X-6558Y-1642*
X-6551Y2392D02*
Y2235D01*
X-6565Y2223*
X-6679Y2409*
X-6663Y2422*
X-6587*
X-6551Y2392*
X-6543Y2398D02*
X-6583Y2431D01*
X-6584*
X-6585*
X-6586*
X-6665*
X-6666*
X-6667*
X-6668*
X-6708Y2398*
X-6709Y2397*
Y2396*
Y2395*
X-6710Y2394*
Y2232*
X-6709*
Y2230*
X-6708Y2229*
X-6668Y2196*
X-6667*
X-6666*
Y2195*
X-6665*
X-6586*
X-6585Y2196*
X-6584*
X-6583*
X-6543Y2229*
X-6542*
Y2230*
X-6541Y2232*
Y2394*
Y2395*
X-6542Y2396*
Y2397*
X-6543Y2398*
X-6536Y-1466D02*
Y-1624D01*
X-6550Y-1635*
X-6664Y-1449*
X-6649Y-1436*
X-6573*
X-6536Y-1466*
X-6529Y-1460D02*
X-6568Y-1428D01*
X-6569Y-1427*
X-6570*
X-6571*
X-6651*
X-6652*
X-6653*
X-6654Y-1428*
X-6693Y-1460*
X-6694Y-1461*
Y-1462*
X-6695Y-1463*
Y-1464*
Y-1626*
Y-1627*
X-6694Y-1628*
Y-1629*
X-6693Y-1630*
X-6654Y-1662*
X-6653*
X-6652Y-1663*
X-6651*
X-6571*
X-6570*
X-6569*
X-6568Y-1662*
X-6529Y-1630*
X-6528Y-1629*
X-6527Y-1628*
Y-1627*
X-6526Y-1626*
Y-1464*
X-6527Y-1463*
Y-1462*
Y-1461*
X-6529Y-1460*
X-6528Y-3637D02*
X-6529D01*
Y-3635*
X-6530Y-3634*
Y-3633*
Y-3584*
Y-3583*
X-6529*
Y-3582*
Y-3581*
X-6528*
X-6488Y-3548*
X-6487*
X-6486*
X-6485Y-3547*
X-6366*
X-6364Y-3548*
X-6363Y-3549*
X-6361Y-3550*
Y-3552*
Y-3779*
Y-3781*
X-6363Y-3782*
X-6364Y-3783*
X-6366*
X-6367*
X-6369Y-3782*
X-6370Y-3781*
X-6371Y-3779*
Y-3670*
X-6482*
X-6521Y-3780*
Y-3782*
X-6523Y-3783*
X-6525*
X-6526*
X-6528Y-3782*
X-6529Y-3781*
X-6530Y-3779*
X-6529Y-3777*
X-6491Y-3667*
X-6528Y-3637*
X-6485Y2342D02*
X-6486D01*
Y2343*
Y2345*
X-6487Y2346*
Y2394*
X-6486Y2396*
Y2397*
X-6485*
Y2398*
X-6445Y2431*
X-6444*
X-6443*
X-6442*
X-6323*
X-6321*
X-6319Y2430*
X-6318Y2428*
X-6317Y2427*
Y2200*
X-6318Y2198*
X-6319Y2197*
X-6321Y2196*
X-6322*
X-6324*
X-6326Y2197*
X-6327Y2198*
Y2200*
Y2309*
X-6438*
X-6477Y2199*
X-6478Y2197*
X-6480Y2196*
X-6481*
X-6483*
X-6484Y2197*
X-6486Y2198*
Y2200*
Y2202*
X-6447Y2312*
X-6485Y2342*
X-6470Y-1517D02*
X-6471Y-1516D01*
Y-1515*
X-6472Y-1514*
Y-1513*
Y-1464*
Y-1463*
X-6471Y-1462*
Y-1461*
X-6470Y-1460*
X-6430Y-1428*
X-6429Y-1427*
X-6428*
X-6427*
X-6308*
X-6306*
X-6305Y-1428*
X-6303Y-1430*
Y-1432*
Y-1658*
Y-1660*
X-6305Y-1661*
X-6306Y-1662*
X-6308*
X-6310*
X-6311Y-1661*
X-6312Y-1660*
X-6313Y-1658*
Y-1550*
X-6424*
X-6463Y-1660*
X-6464Y-1661*
X-6465Y-1662*
X-6467Y-1663*
X-6469Y-1662*
X-6470Y-1661*
X-6471Y-1660*
X-6472Y-1659*
X-6471Y-1657*
X-6433Y-1547*
X-6470Y-1517*
X-6417Y-871D02*
X-6432Y-883D01*
X-6509*
X-6545Y-853*
Y-696*
X-6531Y-685*
X-6417Y-871*
X-6396Y-696D02*
Y-853D01*
X-6410Y-865*
X-6524Y-679*
X-6509Y-666*
X-6432*
X-6396Y-696*
X-6388Y-690D02*
X-6428Y-657D01*
X-6429*
X-6430*
X-6431Y-656*
X-6510*
X-6511Y-657*
X-6512*
X-6513*
X-6514*
X-6553Y-690*
X-6554Y-691*
Y-692*
X-6555*
Y-693*
Y-855*
Y-856*
X-6554Y-858*
X-6553Y-859*
X-6514Y-892*
X-6513*
X-6512*
X-6511Y-893*
X-6510*
X-6431*
X-6430Y-892*
X-6429*
X-6428*
X-6388Y-859*
X-6387*
Y-858*
X-6386Y-856*
Y-855*
Y-693*
Y-692*
X-6387*
Y-691*
X-6388Y-690*
X-6371Y-3557D02*
X-6484D01*
X-6521Y-3587*
Y-3631*
X-6484Y-3661*
X-6371*
Y-3557*
X-6330Y-746D02*
X-6331D01*
Y-744*
X-6332Y-743*
Y-742*
Y-693*
Y-692*
X-6331*
Y-691*
X-6330Y-690*
X-6290Y-657*
X-6289*
X-6288*
X-6287Y-656*
X-6168*
X-6166Y-657*
X-6164Y-658*
X-6163Y-659*
Y-661*
Y-888*
Y-890*
X-6164Y-891*
X-6166Y-892*
X-6167*
X-6169*
X-6171Y-891*
X-6172Y-890*
X-6173Y-888*
Y-779*
X-6284*
X-6322Y-889*
X-6323Y-891*
X-6325Y-892*
X-6327*
X-6328*
X-6330Y-891*
X-6331Y-890*
Y-888*
Y-886*
X-6292Y-776*
X-6330Y-746*
X-6327Y2422D02*
X-6440D01*
X-6477Y2392*
Y2348*
X-6440Y2318*
X-6327*
Y2422*
X-6313Y-1436D02*
X-6426D01*
X-6463Y-1466*
Y-1510*
X-6426Y-1540*
X-6313*
Y-1436*
X-6173Y-666D02*
X-6286D01*
X-6322Y-696*
Y-740*
X-6286Y-770*
X-6173*
Y-666*
X-4615Y-4808D02*
X-4654Y-4840D01*
X-4655Y-4842*
Y-4843*
X-4656*
Y-4844*
Y-4877*
Y-4878*
X-4655Y-4879*
Y-4880*
X-4654Y-4881*
X-4497Y-5008*
Y-5034*
X-4651*
X-4653*
X-4654Y-5035*
X-4655Y-5037*
Y-5039*
Y-5040*
X-4654Y-5042*
X-4653Y-5043*
X-4651*
X-4492*
X-4490*
X-4489Y-5042*
X-4488Y-5041*
X-4487Y-5039*
Y-5006*
X-4488*
Y-5004*
X-4489Y-5003*
X-4490Y-5002*
X-4647Y-4874*
Y-4847*
X-4610Y-4817*
X-4533*
X-4495Y-4848*
X-4493Y-4849*
X-4492*
X-4490Y-4848*
X-4489Y-4846*
X-4488Y-4845*
Y-4843*
Y-4842*
X-4489Y-4841*
X-4490Y-4840*
X-4529Y-4808*
X-4530*
X-4531*
Y-4807*
X-4532*
X-4612*
X-4613*
Y-4808*
X-4614*
X-4615*
X-4306Y-5042D02*
X-4266Y-5010D01*
X-4265*
Y-5009*
Y-5008*
Y-5007*
Y-5006*
X-4266Y-5004*
X-4267Y-5003*
X-4268Y-5002*
X-4270*
X-4272*
X-4310Y-5034*
X-4387*
X-4423Y-5004*
Y-4960*
X-4387Y-4930*
X-4348*
X-4346*
X-4345Y-4929*
X-4344Y-4927*
Y-4925*
Y-4924*
X-4345Y-4922*
X-4346Y-4921*
X-4348*
X-4387*
X-4423Y-4891*
Y-4847*
X-4387Y-4817*
X-4310*
X-4272Y-4848*
X-4270Y-4849*
X-4268*
X-4267Y-4848*
X-4266Y-4846*
X-4265Y-4845*
Y-4843*
Y-4842*
Y-4841*
X-4266Y-4840*
X-4306Y-4808*
X-4307*
X-4308Y-4807*
X-4309*
X-4388*
X-4389*
X-4390Y-4808*
X-4391*
X-4431Y-4840*
X-4432Y-4842*
Y-4843*
X-4433*
Y-4844*
Y-4893*
Y-4894*
X-4432Y-4895*
Y-4896*
X-4431Y-4897*
X-4396Y-4925*
X-4431Y-4954*
X-4432Y-4955*
X-4433Y-4957*
Y-4958*
Y-5006*
Y-5007*
X-4432Y-5008*
Y-5009*
X-4431Y-5010*
X-4391Y-5042*
X-4390Y-5043*
X-4389*
X-4388*
X-4309*
X-4308*
X-4307*
X-4306Y-5042*
X-4204Y229D02*
X-4244Y196D01*
Y195*
X-4245Y194*
Y193*
Y192*
Y160*
Y159*
Y158*
X-4244Y156*
X-4086Y28*
Y3*
X-4241*
X-4242Y2*
X-4244*
Y0*
X-4245Y-2*
X-4244Y-4*
Y-5*
X-4242Y-6*
X-4241Y-7*
X-4081*
X-4080Y-6*
X-4078Y-5*
X-4077Y-4*
Y-2*
Y30*
Y31*
Y33*
X-4078*
Y34*
X-4079*
X-4236Y162*
Y190*
X-4199Y220*
X-4123*
X-4084Y188*
X-4083*
X-4081*
X-4080Y189*
X-4078Y190*
Y192*
X-4077Y193*
X-4078Y195*
Y196*
X-4079*
X-4119Y229*
X-4120*
X-4121*
X-4201*
X-4202*
X-4203*
X-4204*
X-4168Y-4808D02*
X-4208Y-4840D01*
X-4209Y-4842*
Y-4843*
X-4210Y-4844*
Y-4877*
X-4209Y-4878*
Y-4879*
Y-4880*
X-4208Y-4881*
X-4051Y-5008*
Y-5034*
X-4205*
X-4207*
X-4208Y-5035*
X-4209Y-5037*
Y-5039*
Y-5040*
X-4208Y-5042*
X-4207Y-5043*
X-4205*
X-4046*
X-4044*
X-4043Y-5042*
X-4041Y-5041*
Y-5039*
Y-5006*
X-4042Y-5004*
Y-5003*
X-4043Y-5002*
X-4200Y-4874*
Y-4847*
X-4163Y-4817*
X-4087*
X-4049Y-4848*
X-4047Y-4849*
X-4045*
X-4044Y-4848*
X-4043Y-4846*
X-4042Y-4845*
Y-4843*
Y-4842*
Y-4841*
X-4043Y-4840*
X-4083Y-4808*
X-4084*
X-4085Y-4807*
X-4086*
X-4165*
X-4166*
X-4167Y-4808*
X-4168*
X-3985Y-4897D02*
X-3986Y-4896D01*
Y-4895*
Y-4894*
X-3987Y-4893*
Y-4844*
X-3986Y-4843*
Y-4842*
Y-4841*
X-3985*
X-3945Y-4808*
X-3944*
X-3943Y-4807*
X-3942*
X-3823*
X-3821Y-4808*
X-3819Y-4809*
X-3818Y-4810*
X-3817Y-4812*
Y-5039*
X-3818Y-5041*
X-3819Y-5042*
X-3821*
X-3822Y-5043*
X-3824Y-5042*
X-3826*
X-3827Y-5041*
Y-5039*
Y-4930*
X-3938*
X-3977Y-5040*
X-3978Y-5042*
X-3980Y-5043*
X-3981*
X-3983Y-5042*
X-3984*
X-3986Y-5041*
Y-5039*
Y-5037*
X-3947Y-4927*
X-3985Y-4897*
X-3885Y15D02*
X-3900Y3D01*
X-3976*
X-4013Y33*
Y190*
X-3999Y201*
X-3885Y15*
X-3863Y190D02*
Y33D01*
X-3877Y21*
X-3991Y207*
X-3976Y220*
X-3900*
X-3863Y190*
X-3856Y196D02*
X-3895Y229D01*
X-3896*
X-3897*
X-3898*
X-3978*
X-3979*
X-3980*
X-3981*
X-4021Y196*
Y195*
Y194*
X-4022Y193*
Y192*
Y30*
X-4021Y28*
Y27*
X-3981Y-6*
X-3980*
X-3979*
Y-7*
X-3978*
X-3898*
X-3897*
X-3896Y-6*
X-3895*
X-3856Y27*
X-3855*
X-3854Y28*
Y30*
Y192*
Y193*
Y194*
Y195*
X-3856Y196*
X-3827Y-4817D02*
X-3940D01*
X-3977Y-4847*
Y-4891*
X-3940Y-4921*
X-3827*
Y-4817*
X-3661Y15D02*
X-3676Y3D01*
X-3753*
X-3789Y33*
Y190*
X-3776Y201*
X-3661Y15*
X-3640Y190D02*
Y33D01*
X-3654Y21*
X-3768Y207*
X-3753Y220*
X-3676*
X-3640Y190*
X-3632Y196D02*
X-3672Y229D01*
X-3673*
X-3674*
X-3675*
X-3755*
X-3756*
X-3757*
X-3758*
X-3797Y196*
X-3798Y195*
Y194*
X-3799Y193*
Y192*
Y30*
X-3798Y28*
X-3797Y27*
X-3758Y-6*
X-3757*
X-3756*
Y-7*
X-3755*
X-3675*
X-3674*
X-3673Y-6*
X-3672*
X-3632Y27*
X-3631*
Y28*
Y30*
X-3630*
Y192*
X-3631Y193*
Y194*
Y195*
X-3632Y196*
X-3574Y140D02*
X-3575D01*
Y141*
X-3576Y143*
Y144*
Y192*
Y194*
X-3575*
Y195*
X-3574Y196*
X-3534Y229*
X-3533*
X-3532*
X-3531*
X-3412*
X-3410*
X-3408Y228*
X-3407Y226*
Y225*
Y-2*
Y-4*
X-3408Y-5*
X-3410Y-6*
X-3412*
X-3413*
X-3415Y-5*
X-3416Y-4*
X-3417Y-2*
Y107*
X-3528*
X-3567Y-3*
Y-5*
X-3569Y-6*
X-3571*
X-3572*
X-3574Y-5*
X-3575Y-4*
Y-2*
Y0*
X-3537Y110*
X-3574Y140*
X-3417Y220D02*
X-3530D01*
X-3567Y190*
Y146*
X-3530Y116*
X-3417*
Y220*
X-3309Y-3546D02*
X-3269Y-3514D01*
X-3268*
Y-3513*
X-3267Y-3512*
Y-3511*
X-3268Y-3510*
X-3269Y-3508*
X-3270Y-3507*
X-3271Y-3506*
X-3273*
X-3274*
X-3313Y-3538*
X-3389*
X-3426Y-3508*
Y-3464*
X-3390Y-3434*
X-3351*
X-3349Y-3433*
X-3347*
Y-3431*
Y-3429*
Y-3428*
Y-3426*
X-3349Y-3425*
X-3351Y-3424*
X-3390*
X-3426Y-3394*
Y-3351*
X-3389Y-3321*
X-3313*
X-3274Y-3352*
X-3273Y-3353*
X-3271Y-3352*
X-3270*
X-3269Y-3350*
X-3268Y-3349*
X-3267Y-3347*
Y-3346*
X-3268*
Y-3345*
X-3269Y-3344*
X-3309Y-3312*
X-3310*
Y-3311*
X-3311*
X-3391*
X-3392*
X-3393Y-3312*
X-3394*
X-3434Y-3344*
X-3435Y-3346*
Y-3347*
X-3436Y-3348*
Y-3397*
X-3435Y-3398*
Y-3399*
Y-3400*
X-3434Y-3401*
X-3399Y-3429*
X-3434Y-3458*
X-3435Y-3459*
Y-3461*
X-3436Y-3462*
Y-3510*
X-3435Y-3511*
Y-3512*
Y-3513*
X-3434Y-3514*
X-3394Y-3546*
X-3393Y-3547*
X-3392*
X-3391*
X-3311*
X-3310*
X-3309*
Y-3546*
X-3273Y-1787D02*
Y-1789D01*
X-3274Y-1790*
X-3276*
X-3277Y-1791*
X-3279Y-1790*
X-3280*
X-3281Y-1789*
X-3282Y-1787*
Y-1715*
X-3293*
X-3295*
X-3296Y-1714*
X-3297Y-1712*
Y-1710*
Y-1709*
X-3296Y-1707*
X-3295Y-1706*
X-3293Y-1705*
X-3282*
Y-1567*
Y-1565*
X-3281Y-1564*
X-3280Y-1563*
X-3279*
X-3277Y-1562*
X-3276*
X-3275*
X-3274Y-1563*
X-3130Y-1707*
X-3129Y-1708*
Y-1709*
Y-1711*
X-3130Y-1713*
X-3131Y-1714*
X-3132Y-1715*
X-3134*
X-3273*
Y-1787*
X-3246Y-6786D02*
X-3244D01*
X-3243Y-6787*
X-3242Y-6789*
Y-6791*
Y-6792*
X-3243Y-6794*
X-3244Y-6795*
X-3246*
X-3338*
X-3340*
X-3341Y-6794*
X-3342Y-6792*
Y-6791*
Y-6789*
X-3341Y-6787*
X-3340Y-6786*
X-3338*
X-3296*
Y-6564*
Y-6562*
Y-6561*
X-3294Y-6560*
X-3293*
X-3291*
X-3290*
X-3289*
X-3288Y-6561*
X-3242Y-6626*
Y-6627*
Y-6628*
Y-6629*
Y-6631*
X-3244Y-6632*
X-3245Y-6633*
X-3247*
X-3248*
X-3249Y-6632*
X-3287Y-6579*
Y-6786*
X-3246*
X-3145Y-1705D02*
X-3273Y-1579D01*
Y-1705*
X-3145*
X-3086Y-3546D02*
X-3046Y-3514D01*
X-3045*
X-3044Y-3513*
Y-3512*
Y-3511*
Y-3510*
X-3045Y-3508*
X-3047Y-3507*
X-3048Y-3506*
X-3050*
X-3051*
X-3090Y-3538*
X-3166*
X-3203Y-3508*
Y-3464*
X-3167Y-3434*
X-3127*
X-3125Y-3433*
X-3124*
Y-3431*
X-3123Y-3429*
X-3124Y-3428*
Y-3426*
X-3125Y-3425*
X-3127Y-3424*
X-3167*
X-3203Y-3394*
Y-3351*
X-3166Y-3321*
X-3090*
X-3051Y-3352*
X-3050Y-3353*
X-3048Y-3352*
X-3047*
X-3045Y-3350*
X-3044Y-3349*
Y-3347*
Y-3346*
X-3045Y-3345*
X-3046Y-3344*
X-3086Y-3312*
X-3087*
Y-3311*
X-3088*
X-3168*
X-3169*
Y-3312*
X-3170*
X-3171*
X-3211Y-3344*
Y-3346*
X-3212Y-3347*
Y-3348*
Y-3397*
Y-3398*
Y-3399*
X-3211Y-3400*
Y-3401*
X-3176Y-3429*
X-3211Y-3458*
Y-3459*
X-3212*
Y-3461*
Y-3462*
Y-3510*
Y-3511*
Y-3512*
X-3211Y-3513*
Y-3514*
X-3171Y-3546*
X-3170Y-3547*
X-3169*
X-3168*
X-3088*
X-3087*
X-3086*
Y-3546*
X-3030Y-6794D02*
X-2991Y-6762D01*
X-2990*
X-2989Y-6761*
Y-6760*
Y-6759*
Y-6758*
X-2990Y-6756*
X-2991Y-6755*
X-2993Y-6754*
X-2995*
X-2996*
X-3035Y-6786*
X-3111*
X-3148Y-6756*
Y-6712*
X-3111Y-6682*
X-3072*
X-3070Y-6681*
X-3069*
Y-6679*
X-3068Y-6677*
X-3069Y-6676*
Y-6674*
X-3070Y-6673*
X-3072*
X-3111*
X-3148Y-6643*
Y-6599*
X-3111Y-6569*
X-3035*
X-2996Y-6600*
X-2995Y-6601*
X-2993Y-6600*
X-2991*
X-2990Y-6598*
X-2989Y-6597*
Y-6595*
Y-6594*
X-2990Y-6593*
X-2991Y-6592*
X-3030Y-6560*
X-3031*
X-3032*
Y-6559*
X-3033*
X-3113*
X-3114*
Y-6560*
X-3115*
X-3116*
X-3156Y-6592*
Y-6594*
X-3157Y-6595*
Y-6596*
Y-6645*
Y-6646*
Y-6647*
X-3156Y-6648*
Y-6649*
X-3121Y-6677*
X-3156Y-6706*
Y-6707*
X-3157*
Y-6709*
Y-6710*
Y-6758*
Y-6759*
Y-6760*
X-3156Y-6761*
Y-6762*
X-3116Y-6794*
X-3115Y-6795*
X-3114*
X-3113*
X-3033*
X-3032*
X-3031*
X-3030Y-6794*
X-2948Y-3312D02*
X-2987Y-3344D01*
X-2988Y-3346*
Y-3347*
X-2989*
Y-3348*
Y-3381*
X-2988Y-3383*
Y-3384*
X-2987Y-3385*
X-2830Y-3512*
Y-3538*
X-2984*
X-2986*
X-2987Y-3539*
X-2988Y-3541*
Y-3543*
Y-3544*
X-2987Y-3546*
X-2986Y-3547*
X-2984*
X-2825*
X-2823*
X-2822Y-3546*
X-2821Y-3544*
X-2820Y-3543*
Y-3510*
X-2821*
Y-3508*
X-2822Y-3507*
X-2823Y-3506*
X-2980Y-3378*
Y-3351*
X-2943Y-3321*
X-2867*
X-2828Y-3352*
X-2826Y-3353*
X-2825Y-3352*
X-2823*
X-2822Y-3350*
X-2821Y-3349*
Y-3347*
Y-3346*
X-2822Y-3345*
X-2823Y-3344*
X-2862Y-3312*
X-2863*
X-2864*
Y-3311*
X-2865*
X-2945*
X-2946*
Y-3312*
X-2947*
X-2948*
X-2937Y-1770D02*
X-2952Y-1782D01*
X-3028*
X-3065Y-1752*
Y-1595*
X-3051Y-1584*
X-2937Y-1770*
X-2916Y-1595D02*
Y-1752D01*
X-2930Y-1764*
X-3044Y-1577*
X-3028Y-1565*
X-2952*
X-2916Y-1595*
X-2908Y-1589D02*
X-2948Y-1556D01*
X-2949*
X-2950Y-1555*
X-2951*
X-3030*
X-3031*
X-3032Y-1556*
X-3033*
X-3073Y-1589*
X-3074Y-1590*
Y-1591*
X-3075Y-1592*
Y-1754*
X-3074Y-1755*
Y-1757*
X-3073Y-1758*
X-3033Y-1790*
X-3032Y-1791*
X-3031*
X-3030*
X-2951*
X-2950*
X-2949*
X-2948Y-1790*
X-2908Y-1758*
X-2907*
Y-1757*
X-2906Y-1755*
Y-1754*
Y-1592*
Y-1591*
X-2907*
Y-1590*
X-2908Y-1589*
X-2893Y-6560D02*
X-2932Y-6592D01*
X-2933Y-6594*
Y-6595*
X-2934*
Y-6596*
Y-6629*
Y-6630*
X-2933Y-6631*
Y-6632*
X-2932Y-6633*
X-2775Y-6760*
Y-6786*
X-2929*
X-2931*
X-2932Y-6787*
X-2933Y-6789*
Y-6791*
Y-6792*
X-2932Y-6794*
X-2931Y-6795*
X-2929*
X-2770*
X-2768*
X-2767Y-6794*
X-2766Y-6793*
X-2765Y-6791*
Y-6758*
X-2766*
Y-6756*
X-2767Y-6755*
X-2768Y-6754*
X-2925Y-6626*
Y-6599*
X-2888Y-6569*
X-2811*
X-2773Y-6600*
X-2771Y-6601*
X-2770Y-6600*
X-2768*
X-2767Y-6598*
X-2766Y-6597*
Y-6595*
Y-6594*
X-2767Y-6593*
X-2768Y-6592*
X-2807Y-6560*
X-2808*
X-2809*
Y-6559*
X-2810*
X-2890*
X-2891*
Y-6560*
X-2892*
X-2893*
X-2764Y-3401D02*
X-2765Y-3400D01*
Y-3399*
X-2766Y-3398*
Y-3397*
Y-3348*
Y-3347*
X-2765Y-3346*
Y-3345*
X-2764*
X-2724Y-3312*
X-2723*
X-2722Y-3311*
X-2721*
X-2602*
X-2600Y-3312*
X-2599Y-3313*
X-2597Y-3314*
Y-3316*
Y-3543*
Y-3544*
X-2599Y-3546*
X-2600*
X-2602Y-3547*
X-2604Y-3546*
X-2605*
X-2606Y-3544*
X-2607Y-3543*
Y-3434*
X-2718*
X-2757Y-3544*
X-2758Y-3546*
X-2759Y-3547*
X-2761*
X-2763Y-3546*
X-2764*
X-2765Y-3544*
X-2766Y-3543*
X-2765Y-3541*
X-2727Y-3431*
X-2764Y-3401*
X-2714Y-1770D02*
X-2729Y-1782D01*
X-2805*
X-2842Y-1752*
Y-1595*
X-2828Y-1584*
X-2714Y-1770*
X-2709Y-6649D02*
X-2710Y-6648D01*
Y-6647*
X-2711Y-6646*
Y-6645*
Y-6596*
Y-6595*
X-2710Y-6594*
Y-6593*
X-2709*
X-2669Y-6560*
X-2668*
X-2667Y-6559*
X-2666*
X-2547*
X-2545Y-6560*
X-2544Y-6561*
X-2542Y-6562*
Y-6564*
Y-6791*
Y-6793*
X-2544Y-6794*
X-2545*
X-2547Y-6795*
X-2549Y-6794*
X-2550*
X-2551Y-6793*
X-2552Y-6791*
Y-6682*
X-2663*
X-2702Y-6792*
X-2703Y-6794*
X-2704Y-6795*
X-2706*
X-2708Y-6794*
X-2709*
X-2710Y-6793*
X-2711Y-6791*
X-2710Y-6789*
X-2672Y-6679*
X-2709Y-6649*
X-2692Y-1595D02*
Y-1752D01*
X-2706Y-1764*
X-2821Y-1577*
X-2805Y-1565*
X-2729*
X-2692Y-1595*
X-2685Y-1589D02*
X-2724Y-1556D01*
X-2725*
X-2726*
Y-1555*
X-2727*
X-2807*
X-2808*
Y-1556*
X-2809*
X-2810*
X-2850Y-1589*
Y-1590*
X-2851Y-1591*
Y-1592*
Y-1754*
Y-1755*
Y-1757*
X-2850*
Y-1758*
X-2810Y-1790*
X-2809Y-1791*
X-2808*
X-2807*
X-2727*
X-2726*
X-2725*
X-2724Y-1790*
X-2685Y-1758*
X-2684*
Y-1757*
X-2683*
Y-1755*
Y-1754*
Y-1592*
Y-1591*
X-2684Y-1590*
X-2685Y-1589*
X-2607Y-3321D02*
X-2720D01*
X-2757Y-3351*
Y-3394*
X-2720Y-3424*
X-2607*
Y-3321*
X-2587Y-1556D02*
X-2585D01*
X-2584Y-1555*
X-2583*
X-2464*
X-2462Y-1556*
X-2461Y-1557*
X-2460Y-1558*
X-2459Y-1560*
Y-1787*
X-2460Y-1789*
X-2461Y-1790*
X-2462Y-1791*
X-2464*
X-2583*
X-2584*
X-2585*
X-2587Y-1790*
X-2626Y-1758*
X-2627Y-1757*
X-2628Y-1756*
Y-1754*
Y-1592*
Y-1591*
X-2627Y-1590*
Y-1589*
X-2626*
X-2587Y-1556*
X-2552Y-6569D02*
X-2665D01*
X-2702Y-6599*
Y-6643*
X-2665Y-6673*
X-2552*
Y-6569*
X-2469Y-1565D02*
X-2582D01*
X-2619Y-1595*
Y-1752*
X-2582Y-1782*
X-2469*
Y-1565*
X-1957Y-64D02*
X-1997Y-96D01*
X-1998Y-98*
Y-99*
X-1999Y-100*
Y-133*
X-1998*
Y-135*
Y-136*
X-1997Y-137*
X-1840Y-264*
Y-290*
X-1994*
X-1996*
X-1997Y-291*
X-1998Y-293*
Y-295*
Y-296*
X-1997Y-298*
X-1996Y-299*
X-1994*
X-1835*
X-1833*
X-1832Y-298*
X-1830Y-296*
Y-295*
Y-262*
Y-261*
X-1831Y-260*
Y-259*
X-1832Y-258*
X-1989Y-130*
Y-103*
X-1952Y-73*
X-1876*
X-1837Y-104*
X-1836Y-105*
X-1834Y-104*
X-1833*
X-1832Y-102*
X-1831Y-101*
Y-99*
Y-98*
Y-97*
X-1832Y-96*
X-1872Y-64*
X-1873*
X-1874Y-63*
X-1875*
X-1954*
X-1955*
X-1956Y-64*
X-1957*
X-1907Y1836D02*
X-1905D01*
X-1904Y1835*
Y1833*
Y1831*
Y1830*
Y1828*
X-1905Y1827*
X-1907*
X-1999*
X-2001*
X-2003Y1828*
Y1830*
Y1831*
Y1833*
Y1835*
X-2001Y1836*
X-1999*
X-1958*
Y2058*
Y2060*
X-1957Y2061*
X-1956Y2062*
X-1954*
X-1953*
X-1952*
X-1951*
X-1950Y2061*
X-1904Y1996*
X-1903Y1995*
Y1994*
Y1993*
X-1904Y1991*
X-1905Y1990*
X-1906Y1989*
X-1908*
X-1909*
X-1910*
X-1911Y1990*
X-1949Y2043*
Y1836*
X-1907*
X-1777Y2062D02*
X-1817Y2030D01*
X-1818Y2028*
Y2027*
X-1819*
Y2026*
Y1993*
X-1818Y1991*
Y1990*
X-1817Y1989*
X-1660Y1862*
Y1836*
X-1814*
X-1816*
X-1817Y1835*
X-1818Y1833*
Y1831*
Y1830*
X-1817Y1828*
X-1816Y1827*
X-1814*
X-1655*
X-1653*
X-1652Y1828*
X-1651Y1830*
X-1650Y1831*
Y1864*
X-1651Y1866*
Y1867*
X-1652Y1868*
X-1809Y1996*
Y2023*
X-1772Y2053*
X-1696*
X-1658Y2022*
X-1656Y2021*
X-1654Y2022*
X-1653*
X-1652Y2024*
X-1651Y2025*
Y2027*
Y2028*
Y2029*
X-1652Y2030*
X-1692Y2062*
X-1693*
X-1694Y2063*
X-1695*
X-1774*
X-1775*
X-1776Y2062*
X-1777*
X-1734Y-64D02*
X-1774Y-96D01*
Y-98*
X-1775Y-99*
Y-100*
Y-133*
Y-135*
X-1774Y-136*
Y-137*
X-1616Y-264*
Y-290*
X-1771*
X-1772*
X-1774Y-291*
Y-293*
X-1775Y-295*
X-1774Y-296*
Y-298*
X-1772Y-299*
X-1771*
X-1611*
X-1610*
X-1608Y-298*
X-1607Y-296*
Y-295*
Y-262*
Y-261*
Y-260*
X-1608Y-259*
X-1609Y-258*
X-1766Y-130*
Y-103*
X-1729Y-73*
X-1653*
X-1614Y-104*
X-1613Y-105*
X-1611Y-104*
X-1610*
X-1608Y-102*
Y-101*
X-1607Y-99*
X-1608Y-98*
Y-97*
X-1609Y-96*
X-1649Y-64*
X-1650*
Y-63*
X-1651*
X-1731*
X-1732*
Y-64*
X-1733*
X-1734*
Y-2818D02*
X-1694Y-2786D01*
Y-2785*
X-1693Y-2784*
Y-2783*
Y-2781*
X-1694Y-2780*
X-1695Y-2779*
X-1696Y-2778*
X-1698Y-2777*
X-1700Y-2778*
X-1738Y-2809*
X-1814*
X-1851Y-2780*
Y-2695*
X-1819Y-2721*
X-1818*
X-1817Y-2722*
X-1816*
X-1737*
X-1736*
X-1734Y-2721*
X-1694Y-2689*
Y-2688*
X-1693*
Y-2687*
X-1692Y-2686*
Y-2685*
Y-2620*
Y-2619*
X-1693Y-2618*
Y-2617*
X-1694*
Y-2616*
X-1734Y-2584*
X-1735Y-2583*
X-1736*
X-1737*
X-1816*
X-1817*
X-1818*
X-1819*
Y-2584*
X-1859Y-2616*
X-1860Y-2617*
Y-2618*
X-1861Y-2619*
Y-2620*
Y-2782*
Y-2783*
X-1860Y-2784*
Y-2785*
X-1859Y-2786*
X-1819Y-2818*
X-1818Y-2819*
X-1817*
X-1816*
X-1737*
X-1736*
X-1735*
X-1734Y-2818*
X-1723Y-3053D02*
X-1738Y-3065D01*
X-1814*
X-1851Y-3035*
Y-2878*
X-1837Y-2867*
X-1723Y-3053*
X-1702Y-2878D02*
Y-3035D01*
X-1716Y-3047*
X-1830Y-2861*
X-1814Y-2848*
X-1738*
X-1702Y-2878*
Y-2622D02*
Y-2682D01*
X-1738Y-2712*
X-1814*
X-1851Y-2682*
Y-2622*
X-1814Y-2592*
X-1738*
X-1702Y-2622*
X-1694Y-2872D02*
X-1734Y-2840D01*
X-1735Y-2839*
X-1736*
X-1737*
X-1816*
X-1817*
X-1818*
X-1819*
Y-2840*
X-1859Y-2872*
X-1860Y-2873*
Y-2874*
X-1861Y-2875*
Y-2876*
Y-3038*
Y-3039*
X-1860Y-3040*
Y-3041*
X-1859Y-3042*
X-1819Y-3074*
X-1818*
Y-3075*
X-1817*
X-1816*
X-1737*
X-1736*
X-1735Y-3074*
X-1734*
X-1694Y-3042*
Y-3041*
X-1693*
Y-3040*
X-1692Y-3039*
Y-3038*
Y-2876*
Y-2875*
X-1693Y-2874*
Y-2873*
X-1694Y-2872*
X-1596Y-2584D02*
X-1636Y-2616D01*
X-1637Y-2617*
Y-2618*
Y-2619*
X-1638Y-2620*
Y-2652*
X-1637Y-2653*
Y-2655*
Y-2656*
X-1636*
X-1479Y-2784*
Y-2809*
X-1633*
X-1634Y-2810*
X-1636Y-2811*
X-1637Y-2812*
Y-2814*
Y-2816*
X-1636Y-2818*
X-1634Y-2819*
X-1633*
X-1474*
X-1472*
X-1471Y-2817*
X-1469Y-2816*
Y-2814*
Y-2782*
Y-2781*
X-1470Y-2780*
Y-2779*
Y-2778*
X-1471*
X-1628Y-2650*
Y-2622*
X-1591Y-2592*
X-1515*
X-1476Y-2624*
X-1475*
X-1473*
X-1472Y-2623*
X-1471Y-2622*
X-1470Y-2621*
Y-2619*
Y-2617*
X-1471Y-2616*
X-1511Y-2584*
X-1512Y-2583*
X-1513*
X-1514*
X-1593*
X-1594*
X-1595*
X-1596Y-2584*
X-1511Y-3074D02*
X-1471Y-3042D01*
X-1470Y-3041*
Y-3040*
X-1469*
Y-3039*
X-1470Y-3037*
X-1471Y-3036*
X-1472Y-3034*
X-1473*
X-1475Y-3033*
X-1476Y-3034*
X-1515Y-3065*
X-1591*
X-1628Y-3035*
Y-2991*
X-1592Y-2961*
X-1553*
X-1551*
X-1549Y-2960*
Y-2958*
Y-2957*
Y-2955*
Y-2954*
X-1551Y-2953*
X-1553Y-2952*
X-1592*
X-1628Y-2922*
Y-2878*
X-1591Y-2848*
X-1515*
X-1476Y-2880*
X-1475*
X-1473*
X-1472Y-2879*
X-1471Y-2878*
X-1470Y-2876*
X-1469Y-2875*
Y-2874*
X-1470Y-2873*
Y-2872*
X-1471*
X-1511Y-2840*
Y-2839*
X-1512*
X-1513*
X-1593*
X-1594*
X-1595*
X-1596Y-2840*
X-1636Y-2872*
X-1637Y-2873*
Y-2874*
Y-2875*
X-1638Y-2876*
Y-2924*
X-1637Y-2925*
Y-2927*
Y-2928*
X-1636*
X-1601Y-2957*
X-1636Y-2985*
Y-2986*
X-1637*
Y-2987*
Y-2988*
X-1638Y-2989*
Y-3038*
X-1637Y-3039*
Y-3040*
Y-3041*
X-1636Y-3042*
X-1596Y-3074*
X-1595*
Y-3075*
X-1594*
X-1593*
X-1513*
X-1512*
X-1511Y-3074*
X-1458Y1848D02*
X-1473Y1836D01*
X-1549*
X-1586Y1866*
Y2023*
X-1572Y2035*
X-1458Y1848*
X-1437Y2023D02*
Y1866D01*
X-1450Y1854*
X-1565Y2041*
X-1549Y2053*
X-1473*
X-1437Y2023*
X-1429Y2030D02*
X-1469Y2062D01*
X-1470*
X-1471Y2063*
X-1551*
X-1552*
X-1553Y2062*
X-1554*
X-1594Y2030*
X-1595Y2028*
Y2027*
X-1596Y2026*
Y1864*
X-1595Y1863*
Y1861*
X-1594Y1860*
X-1554Y1828*
X-1553Y1827*
X-1552*
X-1551*
X-1471*
X-1470*
X-1469Y1828*
X-1429Y1860*
X-1428*
Y1861*
X-1427Y1863*
Y1864*
Y2026*
Y2027*
X-1428*
Y2028*
X-1429Y2030*
X-1415Y-278D02*
X-1430Y-290D01*
X-1506*
X-1543Y-260*
Y-103*
X-1529Y-91*
X-1415Y-278*
X-1393Y-103D02*
Y-260D01*
X-1407Y-272*
X-1521Y-85*
X-1506Y-73*
X-1430*
X-1393Y-103*
X-1386Y-96D02*
X-1425Y-64D01*
X-1426*
X-1427*
Y-63*
X-1428*
X-1508*
X-1509*
Y-64*
X-1510*
X-1511*
X-1550Y-96*
X-1551Y-98*
Y-99*
X-1552*
Y-100*
Y-262*
Y-263*
X-1551Y-265*
X-1550Y-266*
X-1511Y-298*
X-1510Y-299*
X-1509*
X-1508*
X-1428*
X-1427*
X-1426*
X-1425Y-298*
X-1386Y-266*
X-1385*
Y-265*
X-1384*
Y-263*
X-1383Y-262*
Y-100*
X-1384Y-99*
Y-98*
X-1386Y-96*
X-1373Y-2840D02*
X-1413Y-2872D01*
Y-2873*
X-1414Y-2874*
Y-2875*
Y-2876*
Y-2908*
Y-2909*
Y-2910*
X-1413Y-2912*
X-1255Y-3040*
Y-3065*
X-1410*
X-1411Y-3066*
X-1413Y-3067*
Y-3068*
X-1414Y-3070*
X-1413Y-3072*
Y-3073*
X-1411Y-3074*
X-1410Y-3075*
X-1250*
X-1249Y-3074*
X-1247Y-3073*
X-1246Y-3072*
Y-3070*
Y-3038*
Y-3037*
Y-3035*
X-1247*
Y-3034*
X-1248*
X-1405Y-2906*
Y-2878*
X-1368Y-2848*
X-1292*
X-1253Y-2880*
X-1252*
X-1250*
X-1249Y-2879*
X-1247Y-2878*
Y-2876*
X-1246Y-2875*
X-1247Y-2873*
Y-2872*
X-1248*
X-1287Y-2840*
X-1288Y-2839*
X-1289*
X-1290*
X-1370*
X-1371*
X-1372*
X-1373Y-2840*
Y-2584D02*
X-1413Y-2616D01*
Y-2617*
X-1414Y-2618*
Y-2619*
Y-2620*
Y-2652*
Y-2653*
Y-2655*
X-1413Y-2656*
X-1255Y-2784*
Y-2809*
X-1410*
X-1411Y-2810*
X-1413Y-2811*
Y-2812*
X-1414Y-2814*
X-1413Y-2816*
Y-2818*
X-1411Y-2819*
X-1410*
X-1250*
X-1249*
X-1247Y-2817*
X-1246Y-2816*
Y-2814*
Y-2782*
Y-2781*
Y-2780*
X-1247Y-2779*
Y-2778*
X-1248*
X-1405Y-2650*
Y-2622*
X-1368Y-2592*
X-1292*
X-1253Y-2624*
X-1252*
X-1250*
X-1249Y-2623*
X-1247Y-2622*
Y-2621*
X-1246Y-2619*
X-1247Y-2617*
X-1248Y-2616*
X-1287Y-2584*
X-1288Y-2583*
X-1289*
X-1290*
X-1370*
X-1371*
X-1372*
X-1373Y-2584*
X-1371Y1973D02*
X-1372Y1974D01*
Y1975*
Y1976*
X-1373Y1977*
Y2026*
X-1372Y2027*
Y2028*
Y2029*
X-1371*
X-1331Y2062*
X-1330*
X-1329Y2063*
X-1328*
X-1209*
X-1206Y2062*
X-1205Y2061*
X-1204Y2060*
X-1203Y2058*
Y1831*
X-1204Y1830*
X-1205Y1828*
X-1206*
X-1208Y1827*
X-1210Y1828*
X-1212*
X-1213Y1830*
Y1831*
Y1940*
X-1324*
X-1363Y1830*
X-1364Y1828*
X-1366Y1827*
X-1367*
X-1369Y1828*
X-1370*
X-1372Y1830*
Y1831*
Y1833*
X-1333Y1943*
X-1371Y1973*
X-1327Y-153D02*
X-1328Y-152D01*
Y-151*
X-1329Y-150*
Y-149*
Y-100*
Y-99*
X-1328Y-98*
Y-97*
X-1327*
X-1287Y-64*
X-1286*
X-1285Y-63*
X-1284*
X-1165*
X-1163Y-64*
X-1162Y-65*
X-1160Y-66*
Y-68*
Y-295*
Y-296*
X-1162Y-298*
X-1163*
X-1165Y-299*
X-1167Y-298*
X-1168*
X-1169Y-296*
X-1170Y-295*
Y-186*
X-1281*
X-1320Y-296*
X-1321Y-298*
X-1322Y-299*
X-1324*
X-1326Y-298*
X-1327*
X-1328Y-296*
X-1329Y-295*
X-1328Y-293*
X-1290Y-183*
X-1327Y-153*
X-1213Y2053D02*
X-1326D01*
X-1363Y2023*
Y1980*
X-1326Y1950*
X-1213*
Y2053*
X-1190Y-2928D02*
X-1191Y-2927D01*
Y-2926*
Y-2924*
Y-2876*
Y-2875*
Y-2874*
Y-2873*
X-1190*
Y-2872*
X-1150Y-2840*
X-1148Y-2839*
X-1147*
X-1146*
X-1027*
X-1025*
X-1024Y-2840*
X-1023Y-2842*
X-1022Y-2843*
Y-3070*
X-1023Y-3072*
X-1024Y-3073*
X-1025Y-3074*
X-1027*
X-1029*
X-1030Y-3073*
X-1032Y-3072*
Y-3070*
Y-2961*
X-1143*
X-1182Y-3072*
X-1183Y-3073*
X-1184Y-3074*
X-1186*
X-1188*
X-1189Y-3073*
X-1190Y-3072*
X-1191Y-3070*
Y-3069*
X-1152Y-2958*
X-1190Y-2928*
Y-2673D02*
Y-2672D01*
X-1191Y-2671*
Y-2670*
Y-2669*
Y-2620*
Y-2619*
Y-2618*
Y-2617*
X-1190*
Y-2616*
X-1150Y-2584*
X-1148Y-2583*
X-1147*
X-1146*
X-1027*
X-1025*
X-1024Y-2584*
X-1023Y-2586*
X-1022Y-2587*
Y-2814*
X-1023Y-2816*
X-1024Y-2817*
X-1025Y-2818*
X-1027*
X-1029*
X-1030Y-2817*
X-1032Y-2816*
Y-2814*
Y-2706*
X-1143*
X-1182Y-2816*
X-1183Y-2817*
X-1184Y-2818*
X-1186Y-2819*
X-1188Y-2818*
X-1189Y-2817*
X-1190Y-2816*
X-1191Y-2814*
Y-2813*
X-1152Y-2703*
X-1190Y-2673*
X-1170Y-73D02*
X-1283D01*
X-1320Y-103*
Y-146*
X-1283Y-176*
X-1170*
Y-73*
X-1032Y-2848D02*
X-1145D01*
X-1182Y-2878*
Y-2922*
X-1145Y-2952*
X-1032*
Y-2848*
Y-2592D02*
X-1145D01*
X-1182Y-2622*
Y-2666*
X-1145Y-2696*
X-1032*
Y-2592*
X52Y-2823D02*
X12Y-2855D01*
X11Y-2856*
Y-2858*
Y-2859*
Y-2861*
X12Y-2862*
X13Y-2863*
X15*
X16Y-2864*
X17*
X18Y-2863*
X57Y-2831*
X133*
X169Y-2861*
Y-2946*
X137Y-2920*
X136Y-2919*
X135*
X55*
X54*
X53*
X52Y-2920*
X12Y-2952*
Y-2953*
X11*
Y-2954*
Y-2955*
Y-2956*
Y-3021*
Y-3022*
Y-3023*
Y-3024*
X12Y-3025*
X52Y-3057*
X53*
Y-3058*
X54*
X55*
X135*
X136Y-3057*
X137*
X177Y-3025*
X178Y-3024*
Y-3023*
X179Y-3022*
Y-3021*
Y-2859*
Y-2858*
X178Y-2857*
Y-2856*
X177Y-2855*
X137Y-2823*
X136Y-2822*
X135*
X55*
X54*
X53*
X52Y-2823*
X169Y-2958D02*
Y-3018D01*
X133Y-3048*
X57*
X20Y-3018*
Y-2958*
X57Y-2928*
X133*
X169Y-2958*
X371Y-3036D02*
X356Y-3048D01*
X280*
X243Y-3018*
Y-2861*
X257Y-2850*
X371Y-3036*
X393Y-2861D02*
Y-3018D01*
X379Y-3030*
X264Y-2844*
X280Y-2831*
X356*
X393Y-2861*
X400Y-2855D02*
X361Y-2823D01*
X360Y-2822*
X359*
X358*
X278*
X277*
X276*
X275Y-2823*
X235Y-2855*
Y-2856*
X234Y-2857*
Y-2858*
Y-2859*
Y-3021*
Y-3022*
Y-3023*
X235Y-3024*
Y-3025*
X275Y-3057*
X276*
X277*
Y-3058*
X278*
X358*
X359*
X360Y-3057*
X361*
X400Y-3025*
X401Y-3024*
X402Y-3023*
Y-3022*
Y-3021*
Y-2859*
Y-2858*
Y-2857*
X401Y-2856*
X400Y-2855*
X449Y-4869D02*
X450D01*
X451Y-4870*
X483Y-4896*
Y-4797*
X329*
X327*
X326Y-4796*
X325Y-4794*
Y-4792*
Y-4791*
X326Y-4789*
X327Y-4788*
X329Y-4787*
X488*
X490Y-4788*
X491Y-4789*
X493Y-4791*
Y-4792*
Y-4906*
Y-4907*
X492Y-4909*
X491*
X490Y-4910*
X489*
X487Y-4911*
X486Y-4910*
X485*
X447Y-4878*
X371*
X334Y-4908*
Y-4984*
X371Y-5014*
X447*
X485Y-4983*
X487Y-4982*
X488*
X490Y-4983*
X491Y-4984*
X492Y-4986*
X493Y-4987*
X492Y-4988*
Y-4989*
Y-4990*
X491*
X451Y-5023*
X450*
X449*
Y-5024*
X369*
X368*
Y-5023*
X367*
X366*
X326Y-4990*
X325Y-4989*
X324Y-4988*
Y-4987*
Y-4906*
Y-4905*
X325Y-4903*
X326Y-4902*
X366Y-4870*
X367Y-4869*
X368*
X369*
X449*
X498Y-2823D02*
X459Y-2855D01*
X458Y-2856*
Y-2857*
X457Y-2858*
Y-2859*
Y-2891*
Y-2892*
X458Y-2894*
Y-2895*
X459*
X616Y-3023*
Y-3048*
X462*
X460Y-3049*
X459Y-3050*
X458Y-3051*
Y-3053*
Y-3055*
X459Y-3057*
X460*
X462Y-3058*
X621*
X623Y-3057*
X624Y-3056*
X625Y-3055*
X626Y-3053*
Y-3021*
X625Y-3020*
Y-3018*
X624*
Y-3017*
X466Y-2889*
Y-2861*
X503Y-2831*
X580*
X618Y-2863*
X620*
X621*
X623Y-2862*
X624Y-2861*
X625Y-2859*
Y-2858*
Y-2856*
X624Y-2855*
X584Y-2823*
X583Y-2822*
X582*
X581*
X501*
X500*
X499*
X498Y-2823*
X685Y-5002D02*
X670Y-5014D01*
X594*
X557Y-4984*
Y-4827*
X571Y-4816*
X685Y-5002*
X689Y-3056D02*
X702Y-3040D01*
X722Y-3057*
X723*
Y-3058*
X724*
X725*
X804*
X805*
X806Y-3057*
X807*
X847Y-3025*
Y-3024*
X848*
Y-3023*
X849Y-3022*
Y-3021*
Y-2859*
Y-2858*
X848Y-2857*
Y-2856*
X847Y-2855*
X807Y-2823*
X806Y-2822*
X805*
X804*
X725*
X724*
X723*
X722*
Y-2823*
X682Y-2855*
Y-2856*
X681*
Y-2857*
X680Y-2858*
Y-2859*
Y-3021*
Y-3022*
X681Y-3023*
Y-3024*
X682Y-3025*
X694Y-3034*
X681Y-3050*
X680Y-3052*
Y-3053*
X681Y-3055*
X682Y-3056*
X684Y-3057*
X685Y-3058*
X686*
X687Y-3057*
X689Y-3056*
X706Y-4827D02*
Y-4984D01*
X693Y-4996*
X578Y-4810*
X594Y-4797*
X670*
X706Y-4827*
X714Y-4821D02*
X674Y-4788D01*
X673*
X672*
X671Y-4787*
X592*
X591Y-4788*
X590*
X589*
X549Y-4821*
X548Y-4822*
Y-4823*
Y-4824*
X547Y-4825*
Y-4987*
X548*
Y-4989*
X549Y-4990*
X589Y-5023*
X590*
X591*
Y-5024*
X592*
X671*
X672Y-5023*
X673*
X674*
X714Y-4990*
X715*
Y-4989*
X716Y-4987*
Y-4825*
Y-4824*
X715Y-4823*
Y-4822*
X714Y-4821*
X735Y-2999D02*
X736Y-2998D01*
Y-2997*
Y-2995*
Y-2994*
X734Y-2992*
X733*
X731Y-2991*
X729*
X728Y-2992*
X700Y-3027*
X690Y-3018*
Y-2861*
X726Y-2831*
X803*
X839Y-2861*
Y-3018*
X803Y-3048*
X726*
X708Y-3033*
X735Y-2999*
X812Y-4788D02*
X772Y-4821D01*
Y-4822*
X771Y-4823*
Y-4824*
Y-4825*
Y-4857*
Y-4858*
Y-4859*
X772Y-4860*
Y-4861*
X930Y-4989*
Y-5014*
X775*
X774*
X772Y-5015*
Y-5017*
X771Y-5019*
X772Y-5021*
Y-5022*
X774Y-5023*
X775Y-5024*
X935*
X937Y-5023*
X938Y-5022*
X939Y-5021*
Y-5019*
Y-4987*
Y-4986*
Y-4984*
X938*
Y-4983*
X937*
X780Y-4855*
Y-4827*
X817Y-4797*
X893*
X932Y-4829*
X933*
X935*
X937Y-4828*
X938Y-4827*
Y-4825*
X939Y-4824*
X938Y-4822*
Y-4821*
X937*
X898Y-4788*
X897*
X896*
X895Y-4787*
X815*
X814Y-4788*
X813*
X812*
X1002Y-5022D02*
X1016Y-5006D01*
X1036Y-5023*
X1037*
X1038Y-5024*
X1039*
X1118*
X1119Y-5023*
X1120*
X1121*
X1160Y-4990*
X1161*
X1162Y-4989*
Y-4987*
X1163*
Y-4825*
X1162Y-4824*
Y-4823*
Y-4822*
X1160Y-4821*
X1121Y-4788*
X1120*
X1119*
X1118Y-4787*
X1038*
X1037Y-4788*
X1036*
X1035*
X996Y-4821*
X995*
Y-4822*
X994Y-4823*
Y-4825*
Y-4987*
Y-4988*
X995Y-4989*
Y-4990*
X996*
X1007Y-5000*
X995Y-5016*
X994Y-5017*
Y-5019*
X995Y-5021*
X996Y-5022*
X997Y-5023*
X999*
X1000*
X1001*
X1002Y-5022*
X1049Y-4965D02*
X1050Y-4964D01*
Y-4963*
Y-4961*
X1049Y-4959*
X1048Y-4958*
X1047Y-4957*
X1045*
X1043*
X1041Y-4958*
X1014Y-4993*
X1003Y-4984*
Y-4827*
X1040Y-4797*
X1117*
X1153Y-4827*
Y-4984*
X1117Y-5014*
X1040*
X1022Y-4999*
X1049Y-4965*
X1147Y-3090D02*
Y-3092D01*
Y-3094*
X1146Y-3095*
X1144Y-3096*
X1143*
X1141Y-3097*
X1140Y-3096*
X1139Y-3095*
X1011Y-2868*
Y-2867*
Y-2866*
Y-2865*
Y-2864*
X1012Y-2863*
X1013Y-2862*
X1014Y-2861*
X1015*
X1175*
X1176Y-2862*
X1178Y-2863*
Y-2864*
X1179Y-2866*
X1178Y-2868*
Y-2869*
X1176Y-2871*
X1175*
X1023*
X1147Y-3090*
X1275Y-2862D02*
X1235Y-2894D01*
Y-2896*
X1234Y-2897*
Y-2898*
Y-2931*
Y-2933*
X1235Y-2934*
Y-2935*
X1393Y-3062*
Y-3088*
X1238*
X1237*
X1235Y-3089*
Y-3091*
X1234Y-3093*
X1235Y-3094*
Y-3096*
X1237Y-3097*
X1238*
X1398*
X1400*
X1401Y-3096*
X1402Y-3094*
Y-3093*
Y-3060*
Y-3059*
Y-3058*
X1401Y-3057*
X1400Y-3056*
X1243Y-2928*
Y-2901*
X1280Y-2871*
X1356*
X1395Y-2902*
X1396Y-2903*
X1398Y-2902*
X1400*
X1401Y-2900*
Y-2899*
X1402Y-2897*
X1401Y-2896*
Y-2895*
X1400Y-2894*
X1361Y-2862*
X1360*
X1359*
Y-2861*
X1358*
X1278*
X1277*
Y-2862*
X1276*
X1275*
X1498D02*
X1459Y-2894D01*
X1458Y-2896*
Y-2897*
X1457*
Y-2898*
Y-2931*
X1458Y-2933*
Y-2934*
X1459Y-2935*
X1616Y-3062*
Y-3088*
X1462*
X1460*
X1459Y-3089*
X1458Y-3091*
Y-3093*
Y-3094*
X1459Y-3096*
X1460Y-3097*
X1462*
X1621*
X1623*
X1624Y-3096*
X1625Y-3094*
X1626Y-3093*
Y-3060*
X1625Y-3059*
Y-3058*
X1624Y-3057*
Y-3056*
X1466Y-2928*
Y-2901*
X1503Y-2871*
X1580*
X1618Y-2902*
X1620Y-2903*
X1621Y-2902*
X1623*
X1624Y-2900*
X1625Y-2899*
Y-2897*
Y-2896*
X1624Y-2895*
Y-2894*
X1584Y-2862*
X1583*
X1582*
Y-2861*
X1581*
X1501*
X1500*
Y-2862*
X1499*
X1498*
X1682Y-2951D02*
X1681Y-2950D01*
Y-2949*
X1680Y-2948*
Y-2947*
Y-2898*
Y-2897*
X1681Y-2896*
Y-2895*
X1682*
X1722Y-2862*
X1723*
X1724Y-2861*
X1725*
X1844*
X1846Y-2862*
X1847Y-2863*
X1849Y-2864*
Y-2866*
Y-3093*
Y-3094*
X1847Y-3096*
X1846*
X1844Y-3097*
X1842Y-3096*
X1841*
X1840Y-3094*
X1839Y-3093*
Y-2984*
X1728*
X1689Y-3094*
X1688Y-3096*
X1687Y-3097*
X1685*
X1684Y-3096*
X1682*
X1681Y-3094*
X1680Y-3093*
X1681Y-3091*
X1719Y-2981*
X1682Y-2951*
X1839Y-2871D02*
X1726D01*
X1689Y-2901*
Y-2944*
X1726Y-2974*
X1839*
Y-2871*
X1950Y-2962D02*
X1958Y-2985D01*
X1950Y-3008*
Y-3009*
Y-3082*
Y-3083*
Y-3084*
X1951Y-3085*
X1952Y-3086*
X1975Y-3110*
X1976Y-3111*
X1978*
Y-3112*
X2065*
X2066*
X2067Y-3111*
X2068*
Y-3110*
X2092Y-3086*
X2093Y-3085*
X2094Y-3084*
Y-3082*
Y-3009*
Y-3008*
X2093*
X2086Y-2985*
X2093Y-2962*
X2094*
Y-2961*
Y-2904*
Y-2903*
X2093Y-2902*
X2092Y-2901*
X2068Y-2876*
X2067*
X2066Y-2875*
X2065*
X1978*
Y-2876*
X1976*
X1975*
X1952Y-2901*
X1951Y-2902*
X1950Y-2903*
Y-2904*
Y-2961*
Y-2962*
X2084Y-3010D02*
Y-3080D01*
X2063Y-3102*
X1981*
X1960Y-3080*
Y-3010*
X1966Y-2990*
X2078*
X2084Y-3010*
Y-2907D02*
Y-2960D01*
X2078Y-2981*
X1966*
X1960Y-2960*
Y-2907*
X1981Y-2885*
X2063*
X2084Y-2907*
X2205Y-2876D02*
X2165Y-2909D01*
X2164Y-2910*
Y-2911*
X2163Y-2912*
Y-2945*
X2164Y-2946*
Y-2947*
Y-2948*
X2165Y-2949*
X2322Y-3077*
Y-3102*
X2168*
X2167*
X2165Y-3103*
X2164Y-3105*
Y-3107*
Y-3108*
X2165Y-3110*
X2167Y-3111*
X2168Y-3112*
X2327*
X2329Y-3111*
X2330Y-3110*
X2332Y-3109*
Y-3107*
Y-3074*
X2331Y-3072*
Y-3071*
X2330Y-3070*
X2173Y-2942*
Y-2915*
X2210Y-2885*
X2286*
X2325Y-2916*
X2326Y-2917*
X2328*
X2329Y-2916*
X2330Y-2915*
X2331Y-2913*
Y-2911*
Y-2910*
Y-2909*
X2330*
X2290Y-2876*
X2289*
X2288*
X2287Y-2875*
X2208*
X2207Y-2876*
X2206*
X2205*
X2428D02*
X2388Y-2909D01*
Y-2910*
X2387Y-2911*
Y-2912*
Y-2945*
Y-2946*
Y-2947*
X2388Y-2948*
Y-2949*
X2546Y-3077*
Y-3102*
X2391*
X2390*
X2388Y-3103*
Y-3105*
X2387Y-3107*
X2388Y-3108*
Y-3110*
X2390Y-3111*
X2391Y-3112*
X2551*
X2552Y-3111*
X2554Y-3110*
X2555Y-3109*
Y-3107*
Y-3074*
Y-3072*
X2554Y-3071*
X2553Y-3070*
X2396Y-2942*
Y-2915*
X2433Y-2885*
X2509*
X2548Y-2916*
X2549Y-2917*
X2551*
X2552Y-2916*
X2554Y-2915*
Y-2913*
X2555Y-2911*
X2554Y-2910*
Y-2909*
X2553*
X2514Y-2876*
X2513*
X2512*
X2511Y-2875*
X2431*
X2430Y-2876*
X2429*
X2428*
X2611Y-2965D02*
X2610Y-2963D01*
Y-2962*
Y-2961*
Y-2912*
Y-2911*
Y-2910*
X2611*
Y-2909*
X2651Y-2876*
X2653*
X2654*
X2655Y-2875*
X2774*
X2776Y-2876*
X2777Y-2877*
X2778Y-2878*
X2779Y-2880*
Y-3107*
X2778Y-3109*
X2777Y-3110*
X2776Y-3111*
X2774*
X2772*
X2771Y-3110*
X2769Y-3109*
Y-3107*
Y-2998*
X2658*
X2619Y-3108*
X2618Y-3110*
X2617Y-3111*
X2615*
X2613*
X2612Y-3110*
X2611Y-3109*
X2610Y-3107*
Y-3105*
X2649Y-2995*
X2611Y-2965*
X2769Y-2885D02*
X2656D01*
X2619Y-2915*
Y-2959*
X2656Y-2989*
X2769*
Y-2885*
X4405Y-10616D02*
X4445Y-10584D01*
Y-10583*
X4446Y-10582*
Y-10581*
Y-10579*
X4445Y-10578*
X4444Y-10577*
X4443Y-10576*
X4441Y-10575*
X4439Y-10576*
X4401Y-10607*
X4325*
X4288Y-10578*
Y-10493*
X4320Y-10519*
X4321*
X4322Y-10520*
X4323*
X4402*
X4403*
X4405Y-10519*
X4445Y-10487*
Y-10486*
X4446*
Y-10485*
X4447Y-10484*
Y-10483*
Y-10418*
Y-10417*
X4446Y-10416*
Y-10415*
X4445*
Y-10414*
X4405Y-10382*
X4404Y-10381*
X4403*
X4402*
X4323*
X4322*
X4321*
X4320Y-10382*
X4280Y-10414*
X4279Y-10415*
Y-10416*
X4278Y-10417*
Y-10418*
Y-10580*
Y-10581*
X4279Y-10582*
Y-10583*
X4280Y-10584*
X4320Y-10616*
X4321Y-10617*
X4322*
X4323*
X4402*
X4403*
X4404*
X4405Y-10616*
X4437Y-10420D02*
Y-10480D01*
X4401Y-10510*
X4325*
X4288Y-10480*
Y-10420*
X4325Y-10390*
X4401*
X4437Y-10420*
X4628Y-10616D02*
X4668Y-10584D01*
X4669Y-10583*
Y-10582*
X4670*
Y-10581*
X4669Y-10579*
X4668Y-10578*
X4667Y-10577*
X4666Y-10576*
X4664Y-10575*
X4663Y-10576*
X4624Y-10607*
X4548*
X4511Y-10578*
Y-10534*
X4547Y-10504*
X4586*
X4588Y-10503*
X4590Y-10502*
Y-10501*
X4591Y-10499*
X4590Y-10497*
Y-10496*
X4588Y-10495*
X4586Y-10494*
X4547*
X4511Y-10464*
Y-10420*
X4548Y-10390*
X4624*
X4663Y-10422*
X4664*
X4666*
X4667Y-10421*
X4668Y-10420*
X4669Y-10419*
X4670Y-10417*
Y-10416*
X4669Y-10415*
X4668Y-10414*
X4628Y-10382*
Y-10381*
X4627*
X4626*
X4546*
X4545*
X4544*
X4543Y-10382*
X4503Y-10414*
X4502Y-10415*
Y-10416*
Y-10417*
X4501Y-10418*
Y-10467*
X4502*
Y-10469*
Y-10470*
X4503Y-10471*
X4538Y-10499*
X4503Y-10527*
Y-10528*
X4502*
Y-10529*
Y-10531*
X4501*
Y-10580*
X4502Y-10581*
Y-10582*
Y-10583*
X4503Y-10584*
X4543Y-10616*
X4544Y-10617*
X4545*
X4546*
X4626*
X4627*
X4628*
Y-10616*
X4766Y-10382D02*
X4726Y-10414D01*
Y-10415*
X4725Y-10416*
Y-10417*
Y-10418*
Y-10450*
Y-10451*
Y-10453*
X4726Y-10454*
X4884Y-10582*
Y-10607*
X4729*
X4728Y-10608*
X4726Y-10609*
Y-10610*
X4725Y-10612*
X4726Y-10614*
Y-10616*
X4728Y-10617*
X4729*
X4889*
X4891*
X4892Y-10615*
X4893Y-10614*
Y-10612*
Y-10580*
Y-10579*
Y-10578*
X4892Y-10577*
Y-10576*
X4891*
X4734Y-10448*
Y-10420*
X4771Y-10390*
X4847*
X4886Y-10422*
X4887*
X4889*
X4891Y-10421*
X4892Y-10420*
Y-10419*
X4893Y-10417*
X4892Y-10415*
X4891Y-10414*
X4852Y-10382*
X4851Y-10381*
X4850*
X4849*
X4769*
X4768*
X4767*
X4766Y-10382*
X4949Y-10471D02*
Y-10470D01*
X4948Y-10469*
Y-10468*
Y-10467*
Y-10418*
Y-10417*
Y-10416*
Y-10415*
X4949*
Y-10414*
X4989Y-10382*
X4991Y-10381*
X4992*
X4993*
X5112*
X5114*
X5115Y-10382*
X5116Y-10384*
X5117Y-10385*
Y-10612*
X5116Y-10614*
X5115Y-10615*
X5114Y-10616*
X5112*
X5110*
X5109Y-10615*
X5107Y-10614*
Y-10612*
Y-10504*
X4996*
X4957Y-10614*
X4956Y-10615*
X4955Y-10616*
X4953Y-10617*
X4951Y-10616*
X4950Y-10615*
X4949Y-10614*
X4948Y-10612*
Y-10611*
X4987Y-10501*
X4949Y-10471*
X5107Y-10390D02*
X4994D01*
X4957Y-10420*
Y-10464*
X4994Y-10494*
X5107*
Y-10390*
X5245Y-7803D02*
X5205Y-7835D01*
X5204Y-7837*
Y-7838*
Y-7840*
Y-7841*
X5205Y-7842*
X5206Y-7843*
X5207Y-7844*
X5209*
X5210*
X5211Y-7843*
X5249Y-7812*
X5326*
X5362Y-7841*
Y-7926*
X5330Y-7900*
X5329*
Y-7899*
X5327*
X5248*
X5247*
Y-7900*
X5246*
X5245*
X5205Y-7932*
Y-7933*
X5204*
Y-7934*
Y-7935*
X5203Y-7936*
Y-8001*
X5204Y-8002*
Y-8003*
Y-8004*
X5205Y-8005*
X5245Y-8037*
X5246Y-8038*
X5247*
X5248*
X5327*
X5328*
X5329*
X5330Y-8037*
X5370Y-8005*
X5371Y-8004*
X5372Y-8002*
Y-8001*
Y-7839*
Y-7838*
X5371Y-7837*
Y-7836*
X5370Y-7835*
X5330Y-7803*
X5329*
Y-7802*
X5328*
X5327*
X5248*
X5247*
X5246*
Y-7803*
X5245*
X5362Y-7939D02*
Y-7999D01*
X5326Y-8029*
X5250*
X5213Y-7999*
Y-7939*
X5250Y-7909*
X5326*
X5362Y-7939*
X5554Y-8037D02*
X5593Y-8005D01*
X5594Y-8004*
X5595*
Y-8003*
Y-8002*
Y-8001*
X5594Y-7999*
X5592Y-7998*
X5591Y-7997*
X5589*
X5588*
X5549Y-8029*
X5473*
X5436Y-7999*
Y-7955*
X5472Y-7925*
X5512*
X5514Y-7924*
X5515Y-7923*
Y-7922*
X5516Y-7920*
X5515Y-7918*
Y-7917*
X5514Y-7916*
X5512Y-7915*
X5472*
X5436Y-7885*
Y-7841*
X5473Y-7812*
X5549*
X5588Y-7843*
X5589Y-7844*
X5591Y-7843*
X5592*
X5594Y-7841*
X5595Y-7840*
Y-7838*
Y-7837*
X5594Y-7836*
X5593Y-7835*
X5554Y-7803*
X5553*
X5552Y-7802*
X5551*
X5471*
X5470*
X5469Y-7803*
X5468*
X5428Y-7835*
Y-7837*
X5427*
Y-7838*
Y-7839*
Y-7888*
Y-7890*
X5428Y-7891*
Y-7892*
X5463Y-7920*
X5428Y-7948*
Y-7949*
X5427Y-7950*
Y-7952*
Y-8001*
Y-8002*
Y-8003*
X5428Y-8004*
Y-8005*
X5468Y-8037*
X5469Y-8038*
X5470*
X5471*
X5551*
X5552*
X5553*
X5554Y-8037*
X5691Y-7803D02*
X5652Y-7835D01*
X5651Y-7837*
X5650Y-7838*
Y-7839*
Y-7871*
Y-7872*
X5651Y-7874*
Y-7875*
X5652*
X5809Y-8003*
Y-8029*
X5655*
X5653*
X5652Y-8030*
X5651Y-8032*
Y-8034*
Y-8035*
X5652Y-8037*
X5653Y-8038*
X5655*
X5814*
X5816*
X5817Y-8037*
X5818Y-8035*
X5819Y-8034*
Y-8001*
X5818Y-8000*
Y-7999*
X5817Y-7998*
X5816Y-7997*
X5659Y-7869*
Y-7841*
X5696Y-7812*
X5772*
X5811Y-7843*
X5813Y-7844*
X5814Y-7843*
X5816*
X5817Y-7841*
X5818Y-7840*
Y-7838*
Y-7837*
X5817Y-7836*
X5816Y-7835*
X5777Y-7803*
X5776*
X5775Y-7802*
X5774*
X5694*
X5693*
X5692Y-7803*
X5691*
X5875Y-7892D02*
X5874Y-7891D01*
Y-7890*
X5873Y-7889*
Y-7888*
Y-7839*
Y-7838*
X5874Y-7837*
Y-7836*
X5875*
X5915Y-7803*
X5916Y-7802*
X5917*
X5918*
X6037*
X6039*
X6040Y-7804*
X6042Y-7805*
Y-7807*
Y-8034*
Y-8035*
X6040Y-8037*
X6039*
X6037Y-8038*
X6035Y-8037*
X6034*
X6033Y-8035*
X6032Y-8034*
Y-7925*
X5921*
X5882Y-8035*
X5881Y-8037*
X5880Y-8038*
X5878*
X5876Y-8037*
X5875*
X5874Y-8035*
X5873Y-8034*
X5874Y-8032*
X5912Y-7922*
X5875Y-7892*
X5972Y-10396D02*
X5973Y-10398D01*
X5972Y-10399*
X5971Y-10401*
X5970Y-10402*
X5968*
X5967*
X5965*
X5964Y-10401*
X5837Y-10174*
X5836Y-10173*
Y-10172*
Y-10171*
X5837Y-10170*
Y-10169*
X5838Y-10168*
X5840Y-10167*
X5841*
X6000*
X6002*
X6003Y-10169*
X6004Y-10170*
Y-10172*
Y-10174*
X6003Y-10175*
X6002Y-10176*
X6000Y-10177*
X5849*
X5972Y-10396*
X6032Y-7812D02*
X5919D01*
X5882Y-7841*
Y-7885*
X5919Y-7915*
X6032*
Y-7812*
X6186Y-10402D02*
X6226Y-10370D01*
X6227Y-10369*
Y-10368*
Y-10367*
Y-10366*
X6226Y-10364*
X6225Y-10363*
X6224Y-10362*
X6222*
X6220*
X6182Y-10393*
X6106*
X6069Y-10364*
Y-10320*
X6105Y-10290*
X6144*
X6146Y-10289*
X6147Y-10288*
X6148Y-10287*
Y-10285*
Y-10283*
X6147Y-10282*
X6146Y-10281*
X6144Y-10280*
X6105*
X6069Y-10250*
Y-10206*
X6106Y-10177*
X6182*
X6220Y-10208*
X6222Y-10209*
X6224Y-10208*
X6225*
X6226Y-10206*
X6227Y-10205*
Y-10203*
Y-10202*
Y-10201*
X6226Y-10200*
X6186Y-10168*
X6185*
Y-10167*
X6184*
X6104*
X6103*
X6102*
Y-10168*
X6101*
X6061Y-10200*
X6060Y-10201*
Y-10202*
Y-10203*
X6059Y-10204*
Y-10253*
X6060*
Y-10255*
Y-10256*
X6061Y-10257*
X6096Y-10285*
X6061Y-10313*
Y-10314*
X6060*
Y-10315*
Y-10317*
X6059*
Y-10366*
X6060Y-10367*
Y-10368*
Y-10369*
X6061Y-10370*
X6101Y-10402*
X6102Y-10403*
X6103*
X6104*
X6184*
X6185*
X6186Y-10402*
X6324Y-10168D02*
X6284Y-10200D01*
X6283Y-10201*
Y-10202*
Y-10203*
Y-10204*
Y-10236*
Y-10237*
Y-10239*
Y-10240*
X6284*
X6441Y-10368*
Y-10393*
X6287*
X6286Y-10394*
X6284Y-10395*
X6283Y-10397*
Y-10398*
Y-10400*
X6284Y-10402*
X6286Y-10403*
X6287*
X6446*
X6448*
X6450Y-10402*
X6451Y-10400*
Y-10398*
Y-10366*
Y-10365*
X6450Y-10364*
Y-10363*
X6449Y-10362*
X6292Y-10234*
Y-10206*
X6329Y-10177*
X6405*
X6444Y-10208*
X6445Y-10209*
X6447Y-10208*
X6448*
X6450Y-10206*
Y-10205*
Y-10203*
Y-10201*
X6449Y-10200*
X6409Y-10168*
X6408*
Y-10167*
X6407*
X6327*
X6326*
X6325Y-10168*
X6324*
X6394Y-8011D02*
X6379Y-8023D01*
X6303*
X6266Y-7993*
Y-7836*
X6280Y-7825*
X6394Y-8011*
X6415Y-7836D02*
Y-7993D01*
X6401Y-8005*
X6287Y-7819*
X6303Y-7806*
X6379*
X6415Y-7836*
X6423Y-7830D02*
X6383Y-7798D01*
X6382Y-7797*
X6381*
X6380*
X6301*
X6300*
X6299*
X6298Y-7798*
X6258Y-7830*
X6257Y-7831*
Y-7832*
Y-7833*
X6256Y-7834*
Y-7996*
X6257*
Y-7998*
Y-7999*
X6258*
X6298Y-8032*
X6299*
X6300Y-8033*
X6301*
X6380*
X6381*
X6382Y-8032*
X6383*
X6423Y-7999*
X6424*
Y-7998*
X6425Y-7996*
Y-7834*
Y-7833*
X6424Y-7832*
Y-7831*
X6423Y-7830*
X6507Y-10257D02*
X6506Y-10256D01*
Y-10255*
Y-10254*
Y-10253*
Y-10204*
Y-10203*
Y-10202*
Y-10201*
X6507*
Y-10200*
X6547Y-10168*
X6549Y-10167*
X6550*
X6669*
X6672*
X6673Y-10169*
X6674Y-10170*
X6675Y-10172*
Y-10398*
X6674Y-10400*
X6673Y-10402*
X6672*
X6670*
X6668*
X6666*
X6665Y-10400*
Y-10398*
Y-10290*
X6554*
X6515Y-10400*
X6514Y-10402*
X6512*
X6511Y-10403*
X6509Y-10402*
X6508*
X6506Y-10400*
Y-10399*
Y-10397*
X6545Y-10287*
X6507Y-10257*
X6606Y-8023D02*
X6608Y-8024D01*
X6609Y-8025*
X6610Y-8026*
Y-8028*
Y-8030*
X6609Y-8031*
X6608Y-8033*
X6606*
X6514*
X6512*
X6511Y-8031*
X6510Y-8030*
Y-8028*
Y-8026*
X6511Y-8025*
X6512Y-8024*
X6514Y-8023*
X6555*
Y-7801*
X6556Y-7800*
Y-7798*
X6558*
X6559*
X6560Y-7797*
X6562*
X6563Y-7798*
X6564Y-7799*
X6610Y-7863*
Y-7864*
Y-7865*
Y-7867*
Y-7868*
X6608Y-7869*
X6607Y-7870*
X6605Y-7871*
X6604*
X6602Y-7869*
X6565Y-7816*
Y-8023*
X6606*
X6665Y-10177D02*
X6552D01*
X6515Y-10206*
Y-10250*
X6552Y-10280*
X6665*
Y-10177*
X6736Y-7798D02*
X6696Y-7830D01*
Y-7831*
X6695Y-7832*
Y-7833*
Y-7834*
Y-7866*
Y-7867*
Y-7868*
X6696Y-7870*
X6854Y-7998*
Y-8023*
X6699*
X6698Y-8024*
X6696Y-8025*
Y-8026*
X6695Y-8028*
X6696Y-8030*
Y-8031*
X6698Y-8032*
X6699Y-8033*
X6859*
X6860Y-8032*
X6862Y-8031*
X6863Y-8030*
Y-8028*
Y-7996*
Y-7995*
Y-7993*
X6862*
Y-7992*
X6861*
X6704Y-7864*
Y-7836*
X6741Y-7806*
X6817*
X6856Y-7838*
X6857*
X6859*
X6860Y-7837*
X6862Y-7836*
Y-7834*
X6863Y-7833*
X6862Y-7831*
Y-7830*
X6861*
X6821Y-7798*
Y-7797*
X6820*
X6819*
X6739*
X6738*
X6737*
X6736Y-7798*
X6919Y-7886D02*
X6918Y-7885D01*
Y-7884*
Y-7882*
Y-7834*
Y-7832*
Y-7831*
X6919*
Y-7830*
X6959Y-7798*
X6961Y-7797*
X6962*
X7082*
X7084*
X7085Y-7798*
X7086Y-7800*
X7087Y-7801*
Y-8028*
X7086Y-8030*
X7085Y-8031*
X7084Y-8032*
X7082*
X7080*
X7078Y-8031*
X7077Y-8030*
Y-8028*
Y-7919*
X6966*
X6927Y-8029*
X6926Y-8031*
X6924Y-8032*
X6923*
X6921*
X6920Y-8031*
X6919Y-8030*
X6918Y-8028*
Y-8026*
X6957Y-7916*
X6919Y-7886*
X7077Y-7806D02*
X6964D01*
X6927Y-7836*
Y-7880*
X6964Y-7910*
X7077*
Y-7806*
X7194Y-7803D02*
X7154Y-7835D01*
X7153Y-7837*
Y-7838*
X7152Y-7839*
Y-7871*
X7153Y-7872*
Y-7874*
Y-7875*
X7154*
X7311Y-8003*
Y-8029*
X7157*
X7156*
X7154Y-8030*
X7153Y-8032*
Y-8034*
Y-8035*
X7154Y-8037*
X7156Y-8038*
X7157*
X7316*
X7318*
X7319Y-8037*
X7321Y-8035*
Y-8034*
Y-8001*
Y-8000*
X7320Y-7999*
Y-7998*
X7319Y-7997*
X7162Y-7869*
Y-7841*
X7199Y-7812*
X7275*
X7314Y-7843*
X7315Y-7844*
X7317Y-7843*
X7318*
X7319Y-7841*
X7320Y-7840*
Y-7838*
Y-7837*
Y-7836*
X7319Y-7835*
X7279Y-7803*
X7278*
Y-7802*
X7277*
X7276*
X7197*
X7196*
X7195*
Y-7803*
X7194*
X7313Y-10393D02*
X7312Y-10395D01*
X7311Y-10396*
X7310Y-10397*
X7308*
X7306*
X7305Y-10396*
X7304Y-10395*
X7303Y-10393*
Y-10321*
X7292*
X7290*
X7289Y-10320*
X7288Y-10318*
Y-10317*
Y-10315*
X7289Y-10313*
X7290Y-10312*
X7292*
X7303*
Y-10173*
Y-10172*
X7304Y-10171*
X7305Y-10170*
X7306Y-10169*
X7308*
X7309Y-10168*
X7310Y-10169*
X7311Y-10170*
X7455Y-10313*
X7456Y-10314*
Y-10316*
Y-10317*
X7455Y-10319*
Y-10320*
X7454Y-10321*
X7453*
X7451*
X7313*
Y-10393*
X7440Y-10312D02*
X7313Y-10185D01*
Y-10312*
X7440*
X7513Y-8017D02*
X7498Y-8029D01*
X7422*
X7385Y-7999*
Y-7841*
X7399Y-7830*
X7513Y-8017*
X7535Y-7841D02*
Y-7999D01*
X7521Y-8011*
X7406Y-7824*
X7422Y-7812*
X7498*
X7535Y-7841*
X7542Y-7835D02*
X7503Y-7803D01*
X7502*
X7501Y-7802*
X7500*
X7420*
X7419*
X7418Y-7803*
X7417*
X7377Y-7835*
Y-7837*
X7376*
Y-7838*
Y-7839*
Y-8001*
Y-8002*
Y-8004*
X7377*
Y-8005*
X7417Y-8037*
X7418Y-8038*
X7419*
X7420*
X7500*
X7501*
X7502*
X7503Y-8037*
X7542Y-8005*
X7543Y-8004*
X7544*
Y-8002*
Y-8001*
Y-7839*
Y-7838*
Y-7837*
X7543*
X7542Y-7835*
X7637Y-10397D02*
X7677Y-10364D01*
X7678*
Y-10363*
X7679*
Y-10362*
X7678Y-10360*
Y-10359*
X7676Y-10357*
X7675Y-10356*
X7673*
X7672Y-10357*
X7633Y-10388*
X7557*
X7520Y-10358*
Y-10314*
X7556Y-10284*
X7596*
X7597*
X7599Y-10283*
Y-10281*
X7600Y-10280*
X7599Y-10278*
Y-10277*
X7597Y-10275*
X7596*
X7556*
X7520Y-10245*
Y-10201*
X7557Y-10171*
X7633*
X7672Y-10203*
X7673*
X7675*
X7676Y-10202*
X7678Y-10201*
Y-10199*
X7679Y-10198*
Y-10197*
X7678Y-10196*
Y-10195*
X7677*
X7637Y-10162*
X7636*
X7635Y-10161*
X7555*
X7554Y-10162*
X7553*
X7552*
X7512Y-10195*
X7511Y-10196*
Y-10197*
Y-10198*
Y-10199*
Y-10247*
Y-10248*
Y-10250*
Y-10251*
X7512*
X7547Y-10280*
X7512Y-10308*
X7511Y-10309*
Y-10310*
Y-10311*
Y-10312*
Y-10361*
Y-10362*
Y-10363*
Y-10364*
X7512*
X7552Y-10397*
X7553*
X7554*
Y-10398*
X7555*
X7635*
X7636Y-10397*
X7637*
X7640Y-7803D02*
X7601Y-7835D01*
X7600Y-7837*
X7599Y-7838*
Y-7839*
Y-7871*
Y-7872*
X7600Y-7874*
Y-7875*
X7601*
X7758Y-8003*
Y-8029*
X7604*
X7602*
X7601Y-8030*
X7600Y-8032*
Y-8034*
Y-8035*
X7601Y-8037*
X7602Y-8038*
X7604*
X7763*
X7765*
X7766Y-8037*
X7767Y-8035*
X7768Y-8034*
Y-8001*
X7767Y-8000*
Y-7999*
X7766Y-7998*
X7765Y-7997*
X7608Y-7869*
Y-7841*
X7645Y-7812*
X7722*
X7760Y-7843*
X7762Y-7844*
X7763Y-7843*
X7765*
X7766Y-7841*
X7767Y-7840*
Y-7838*
Y-7837*
X7766Y-7836*
X7765Y-7835*
X7726Y-7803*
X7725*
X7724Y-7802*
X7723*
X7643*
X7642*
X7641Y-7803*
X7640*
X7775Y-10162D02*
X7735Y-10195D01*
Y-10196*
X7734Y-10197*
Y-10198*
Y-10199*
Y-10231*
Y-10232*
Y-10233*
X7735Y-10234*
Y-10235*
X7893Y-10363*
Y-10388*
X7738*
X7737Y-10389*
X7735*
Y-10391*
X7734Y-10393*
X7735Y-10395*
Y-10396*
X7737Y-10397*
X7738Y-10398*
X7898*
X7900Y-10397*
X7901Y-10396*
X7902Y-10395*
Y-10393*
Y-10361*
Y-10360*
Y-10358*
X7901*
Y-10357*
X7900*
X7743Y-10229*
Y-10201*
X7780Y-10171*
X7856*
X7895Y-10203*
X7897*
X7898*
X7900Y-10202*
X7901Y-10201*
Y-10199*
X7902Y-10198*
X7901Y-10196*
Y-10195*
X7900*
X7861Y-10162*
X7860*
X7859*
X7858Y-10161*
X7778*
X7777Y-10162*
X7776*
X7775*
X7949Y-8037D02*
X7988Y-8005D01*
X7989Y-8004*
X7990Y-8003*
Y-8002*
Y-8001*
Y-7839*
Y-7838*
Y-7837*
X7989*
Y-7836*
X7988Y-7835*
X7949Y-7803*
X7948*
X7947Y-7802*
X7946*
X7866*
X7865*
X7864Y-7803*
X7863*
X7823Y-7835*
X7822Y-7837*
Y-7838*
Y-7840*
X7823Y-7841*
Y-7842*
X7825Y-7843*
X7826Y-7844*
X7827*
X7828*
X7829Y-7843*
X7868Y-7812*
X7944*
X7981Y-7841*
Y-7999*
X7944Y-8029*
X7868*
X7829Y-7997*
X7828*
X7827Y-7996*
X7826Y-7997*
X7825*
X7823Y-7998*
Y-7999*
X7822Y-8001*
Y-8002*
Y-8004*
X7823Y-8005*
X7863Y-8037*
X7864Y-8038*
X7865*
X7866*
X7946*
X7947*
X7948*
X7949Y-8037*
X7958Y-10251D02*
X7957Y-10250D01*
Y-10248*
Y-10247*
Y-10199*
Y-10197*
Y-10196*
X7958*
Y-10195*
X7999Y-10162*
X8000*
X8001*
X8002Y-10161*
X8121*
X8123Y-10162*
X8124Y-10163*
X8125Y-10165*
X8126Y-10166*
Y-10393*
X8125Y-10395*
X8124Y-10396*
X8123Y-10397*
X8121*
X8119*
X8118Y-10396*
X8116Y-10395*
Y-10393*
Y-10284*
X8005*
X7966Y-10394*
X7965Y-10396*
X7964Y-10397*
X7962*
X7960*
X7959Y-10396*
X7958Y-10395*
X7957Y-10393*
Y-10391*
X7996Y-10281*
X7958Y-10251*
X8116Y-10171D02*
X8003D01*
X7966Y-10201*
Y-10245*
X8003Y-10275*
X8116*
Y-10171*
X8165Y-8037D02*
X8205Y-8005D01*
Y-8004*
X8206*
Y-8002*
Y-8001*
X8205Y-7999*
X8204Y-7998*
X8202Y-7997*
X8201*
X8199*
X8161Y-8029*
X8084*
X8048Y-7999*
Y-7914*
X8080Y-7940*
X8081*
Y-7941*
X8082*
X8162*
X8163*
X8164Y-7940*
X8165*
X8205Y-7908*
X8206Y-7907*
Y-7906*
Y-7905*
X8207Y-7904*
Y-7839*
X8206Y-7838*
Y-7837*
Y-7836*
X8205*
Y-7835*
X8165Y-7803*
X8164*
Y-7802*
X8163*
X8162*
X8082*
X8081*
X8080Y-7803*
X8079*
X8040Y-7835*
X8039Y-7837*
X8038Y-7838*
Y-7839*
Y-8001*
Y-8002*
X8039Y-8004*
X8040Y-8005*
X8079Y-8037*
X8081Y-8038*
X8082*
X8162*
X8163*
X8164*
X8165Y-8037*
X8197Y-7841D02*
Y-7901D01*
X8161Y-7931*
X8084*
X8048Y-7901*
Y-7841*
X8084Y-7812*
X8161*
X8197Y-7841*
X8307Y1346D02*
X8309D01*
X8310Y1345*
X8311Y1343*
Y1341*
Y1339*
X8310Y1338*
X8309Y1337*
X8307Y1336*
X8215*
X8213Y1337*
X8212Y1338*
X8211Y1339*
Y1341*
Y1343*
X8212Y1345*
X8213Y1346*
X8215*
X8257*
Y1568*
Y1570*
Y1571*
X8259*
X8260Y1572*
X8261*
X8263*
X8264Y1571*
X8265Y1570*
X8311Y1506*
Y1505*
Y1504*
Y1502*
Y1501*
X8309Y1500*
X8308Y1499*
X8306Y1498*
X8305*
Y1499*
X8304Y1500*
X8266Y1553*
Y1346*
X8307*
X8399Y-8017D02*
X8384Y-8029D01*
X8308*
X8271Y-7999*
Y-7841*
X8285Y-7830*
X8399Y-8017*
X8420Y-7841D02*
Y-7999D01*
X8406Y-8011*
X8292Y-7824*
X8308Y-7812*
X8384*
X8420Y-7841*
X8428Y-7835D02*
X8388Y-7803D01*
X8387*
Y-7802*
X8386*
X8385*
X8306*
X8305*
X8304*
Y-7803*
X8303*
X8263Y-7835*
X8262Y-7837*
Y-7838*
X8261Y-7839*
Y-8001*
X8262Y-8002*
Y-8004*
X8263Y-8005*
X8303Y-8037*
X8304Y-8038*
X8305*
X8306*
X8385*
X8386*
X8387*
X8388Y-8037*
X8428Y-8005*
X8429Y-8004*
X8430Y-8002*
Y-8001*
Y-7839*
Y-7838*
X8429Y-7837*
X8428Y-7835*
X8526Y-7803D02*
X8486Y-7835D01*
X8485Y-7837*
Y-7838*
Y-7839*
Y-7871*
Y-7872*
Y-7874*
Y-7875*
X8486*
X8644Y-8003*
Y-8029*
X8489*
X8488*
X8486Y-8030*
X8485Y-8032*
Y-8034*
Y-8035*
X8486Y-8037*
X8488Y-8038*
X8489*
X8648*
X8650*
X8652Y-8037*
X8653Y-8035*
Y-8034*
Y-8001*
Y-8000*
X8652Y-7999*
Y-7998*
X8651Y-7997*
X8494Y-7869*
Y-7841*
X8531Y-7812*
X8607*
X8646Y-7843*
X8647Y-7844*
X8649Y-7843*
X8650*
X8652Y-7841*
Y-7840*
Y-7838*
Y-7837*
Y-7836*
X8651Y-7835*
X8611Y-7803*
X8610*
Y-7802*
X8609*
X8529*
X8528*
X8527Y-7803*
X8526*
X8533Y1358D02*
X8518Y1346D01*
X8442*
X8405Y1376*
Y1533*
X8419Y1544*
X8533Y1358*
X8555Y1533D02*
Y1376D01*
X8541Y1364*
X8426Y1550*
X8442Y1563*
X8518*
X8555Y1533*
X8562Y1539D02*
X8522Y1572D01*
X8521*
X8520Y1573*
X8440*
X8439Y1572*
X8438*
X8437*
X8397Y1539*
Y1538*
X8396Y1537*
Y1536*
Y1535*
Y1373*
Y1371*
X8397*
Y1370*
X8437Y1337*
X8438*
X8439*
Y1336*
X8440*
X8520*
X8521Y1337*
X8522*
X8562Y1370*
X8563*
X8564Y1371*
Y1373*
Y1535*
Y1536*
Y1537*
X8563Y1538*
X8562Y1539*
X8709Y-7892D02*
X8708Y-7891D01*
Y-7890*
Y-7889*
Y-7888*
Y-7839*
Y-7838*
Y-7837*
Y-7836*
X8709*
X8749Y-7803*
X8751Y-7802*
X8752*
X8871*
X8874*
X8875Y-7804*
X8876Y-7805*
X8877Y-7807*
Y-8034*
X8876Y-8035*
X8875Y-8037*
X8874*
X8872Y-8038*
X8870Y-8037*
X8868*
X8867Y-8035*
Y-8034*
Y-7925*
X8756*
X8717Y-8035*
X8716Y-8037*
X8714Y-8038*
X8713*
X8711Y-8037*
X8710*
X8708Y-8035*
Y-8034*
Y-8032*
X8747Y-7922*
X8709Y-7892*
X8756Y1358D02*
X8741Y1346D01*
X8665*
X8628Y1376*
Y1533*
X8642Y1544*
X8756Y1358*
X8778Y1533D02*
Y1376D01*
X8764Y1364*
X8650Y1550*
X8665Y1563*
X8741*
X8778Y1533*
X8785Y1539D02*
X8746Y1572D01*
X8745*
X8744*
X8743Y1573*
X8663*
X8662Y1572*
X8661*
X8660*
X8621Y1539*
X8620Y1538*
Y1537*
X8619Y1536*
Y1535*
Y1373*
X8620Y1371*
X8621Y1370*
X8660Y1337*
X8661*
X8662*
X8663Y1336*
X8743*
X8744Y1337*
X8745*
X8746*
X8785Y1370*
X8786*
X8787Y1371*
Y1373*
X8788*
Y1535*
X8787Y1536*
Y1537*
Y1538*
X8785Y1539*
X8867Y-7812D02*
X8754D01*
X8717Y-7841*
Y-7885*
X8754Y-7915*
X8867*
Y-7812*
X9011Y1341D02*
Y1339D01*
X9009Y1338*
X9008Y1337*
X9006Y1336*
X8847*
X8845Y1337*
X8844Y1338*
X8843Y1339*
Y1341*
Y1343*
X8844Y1345*
X8845Y1346*
X8847*
X9001*
Y1568*
X9002Y1570*
X9003Y1571*
X9004Y1572*
X9006*
X9008*
X9009Y1571*
X9011Y1570*
Y1568*
Y1341*
X9193Y-6148D02*
X9233Y-6115D01*
X9234Y-6114*
Y-6113*
Y-6111*
X9233Y-6109*
X9232Y-6108*
X9230Y-6107*
X9229*
X9227*
X9189Y-6139*
X9112*
X9075Y-6109*
Y-6065*
X9112Y-6035*
X9151*
X9153*
X9154Y-6034*
X9155Y-6032*
Y-6030*
Y-6029*
X9154Y-6027*
X9153Y-6026*
X9151*
X9112*
X9075Y-5996*
Y-5952*
X9112Y-5922*
X9189*
X9227Y-5953*
X9229Y-5954*
X9230*
X9232Y-5953*
X9233Y-5951*
X9234Y-5950*
Y-5948*
Y-5947*
X9233Y-5946*
X9193Y-5913*
X9192*
X9191*
Y-5912*
X9190*
X9111*
X9109*
Y-5913*
X9108*
X9068Y-5946*
X9067Y-5947*
Y-5948*
X9066*
Y-5949*
Y-5998*
Y-5999*
X9067Y-6000*
Y-6002*
X9068*
X9102Y-6030*
X9068Y-6059*
X9067*
Y-6060*
X9066Y-6062*
Y-6063*
Y-6111*
Y-6113*
X9067Y-6114*
X9068Y-6115*
X9108Y-6148*
X9109*
X9110*
X9111*
X9190*
X9191*
X9192*
X9193*
X9317Y1363D02*
X9302Y1351D01*
X9226*
X9189Y1381*
Y1538*
X9203Y1550*
X9317Y1363*
X9339Y1538D02*
Y1381D01*
X9325Y1369*
X9211Y1556*
X9226Y1568*
X9302*
X9339Y1538*
X9346Y1545D02*
X9307Y1577D01*
X9306*
X9305*
Y1578*
X9304*
X9224*
X9223*
Y1577*
X9222*
X9221*
X9181Y1545*
Y1543*
Y1542*
X9180*
Y1541*
Y1379*
Y1378*
X9181Y1376*
Y1375*
X9221Y1343*
X9222Y1342*
X9223*
X9224*
X9304*
X9305*
X9306*
X9307Y1343*
X9346Y1375*
X9347*
Y1376*
X9348*
Y1378*
Y1379*
Y1541*
Y1542*
Y1543*
X9346Y1545*
X9416Y-6139D02*
X9417D01*
X9419Y-6140*
Y-6142*
Y-6144*
Y-6145*
Y-6147*
X9417Y-6148*
X9416*
X9323*
X9322*
X9320Y-6147*
Y-6145*
X9319Y-6144*
X9320Y-6142*
Y-6140*
X9322Y-6139*
X9323*
X9365*
Y-5917*
Y-5915*
X9366Y-5914*
X9367Y-5913*
X9369*
X9370*
X9371*
X9372*
X9373Y-5914*
X9419Y-5979*
X9420Y-5980*
Y-5981*
Y-5982*
X9419Y-5984*
X9418Y-5985*
X9416Y-5986*
X9415*
X9414*
X9413*
X9412Y-5985*
X9374Y-5932*
Y-6139*
X9416*
X9541Y1363D02*
X9526Y1351D01*
X9449*
X9412Y1381*
Y1538*
X9426Y1550*
X9541Y1363*
X9545Y-5913D02*
X9506Y-5946D01*
X9505Y-5947*
Y-5948*
X9504*
Y-5949*
Y-5982*
Y-5983*
X9505Y-5984*
Y-5985*
X9506Y-5986*
X9663Y-6114*
Y-6139*
X9509*
X9507*
X9506Y-6140*
X9505Y-6142*
Y-6144*
Y-6145*
X9506Y-6147*
X9507Y-6148*
X9509*
X9668*
X9670*
X9671Y-6147*
X9672Y-6146*
X9673Y-6144*
Y-6111*
X9672Y-6109*
Y-6108*
X9671*
Y-6107*
X9514Y-5979*
Y-5952*
X9550Y-5922*
X9627*
X9665Y-5953*
X9667Y-5954*
X9669*
X9670Y-5953*
X9671Y-5951*
X9672Y-5950*
Y-5948*
Y-5947*
X9671Y-5946*
X9631Y-5913*
X9630*
X9629Y-5912*
X9628*
X9549*
X9548*
X9547Y-5913*
X9546*
X9545*
X9562Y1538D02*
Y1381D01*
X9548Y1369*
X9434Y1556*
X9449Y1568*
X9526*
X9562Y1538*
X9570Y1545D02*
X9530Y1577D01*
X9529*
X9528*
Y1578*
X9527*
X9447*
X9446*
Y1577*
X9445*
X9444*
X9405Y1545*
X9404Y1543*
Y1542*
X9403*
Y1541*
Y1379*
Y1378*
X9404Y1376*
X9405Y1375*
X9444Y1343*
X9445Y1342*
X9446*
X9447*
X9527*
X9528*
X9529*
X9530Y1343*
X9570Y1375*
X9571Y1376*
Y1378*
X9572Y1379*
Y1541*
X9571Y1542*
Y1543*
X9570Y1545*
X9668Y1577D02*
X9628Y1545D01*
X9627Y1543*
Y1542*
X9626*
Y1541*
Y1508*
X9627Y1506*
Y1505*
X9628Y1504*
X9785Y1377*
Y1351*
X9631*
X9629*
X9628Y1350*
X9627Y1348*
Y1346*
Y1345*
X9628Y1343*
X9629Y1342*
X9631*
X9790*
X9792*
X9793Y1343*
X9794Y1345*
X9795Y1346*
Y1379*
X9794Y1381*
Y1382*
X9793Y1383*
X9636Y1511*
Y1538*
X9673Y1568*
X9749*
X9787Y1537*
X9789Y1536*
X9791Y1537*
X9792*
X9793Y1539*
X9794Y1540*
Y1542*
Y1543*
Y1544*
X9793Y1545*
X9753Y1577*
X9752*
X9751Y1578*
X9750*
X9671*
X9670*
X9669Y1577*
X9668*
X9729Y-6002D02*
X9728D01*
Y-6000*
X9727Y-5999*
Y-5998*
Y-5949*
Y-5948*
X9728Y-5947*
X9729Y-5946*
X9769Y-5913*
X9770*
X9771Y-5912*
X9772*
X9891*
X9893Y-5913*
X9895Y-5914*
X9896Y-5915*
Y-5917*
Y-6144*
Y-6146*
X9895Y-6147*
X9893Y-6148*
X9892*
X9890*
X9888Y-6147*
X9887Y-6146*
X9886Y-6144*
Y-6035*
X9775*
X9737Y-6145*
X9736Y-6147*
X9734Y-6148*
X9732*
X9731*
X9729Y-6147*
X9728Y-6146*
Y-6144*
Y-6142*
X9767Y-6032*
X9729Y-6002*
X9886Y-5922D02*
X9773D01*
X9737Y-5952*
Y-5996*
X9773Y-6026*
X9886*
Y-5922*
X9914Y-7803D02*
X9875Y-7835D01*
X9874Y-7837*
X9873Y-7838*
Y-7839*
Y-7871*
Y-7872*
X9874Y-7874*
Y-7875*
X9875*
X10032Y-8003*
Y-8029*
X9878*
X9876*
X9875Y-8030*
X9874Y-8032*
Y-8034*
Y-8035*
X9875Y-8037*
X9876Y-8038*
X9878*
X10037*
X10039*
X10040Y-8037*
X10041Y-8035*
X10042Y-8034*
Y-8001*
X10041Y-8000*
Y-7999*
Y-7998*
X10040*
Y-7997*
X9882Y-7869*
Y-7841*
X9919Y-7812*
X9996*
X10034Y-7843*
X10036Y-7844*
X10037Y-7843*
X10039*
X10040Y-7841*
X10041Y-7840*
Y-7838*
Y-7837*
X10040Y-7836*
Y-7835*
X10000Y-7803*
X9999*
X9998Y-7802*
X9997*
X9917*
X9916*
X9915Y-7803*
X9914*
X10018Y1346D02*
Y1345D01*
X10017Y1343*
X10015Y1342*
X10014*
X9854*
X9853*
X9851Y1343*
X9850Y1345*
Y1346*
Y1348*
X9851Y1350*
X9853Y1351*
X9854*
X10008*
Y1573*
X10009Y1575*
X10010Y1576*
X10012Y1577*
X10014*
X10015*
X10017Y1576*
X10018Y1575*
Y1573*
Y1346*
X10223Y-8029D02*
X10225D01*
X10226Y-8030*
Y-8032*
Y-8034*
Y-8035*
Y-8037*
X10225Y-8038*
X10223*
X10131*
X10129*
X10127Y-8037*
Y-8035*
X10126Y-8034*
X10127Y-8032*
Y-8030*
X10129Y-8029*
X10131*
X10172*
Y-7807*
Y-7805*
X10173Y-7804*
X10174Y-7803*
X10176*
X10177*
X10178*
X10179*
X10180Y-7804*
X10226Y-7869*
X10227Y-7870*
Y-7871*
Y-7872*
X10226Y-7874*
X10225Y-7875*
X10224Y-7876*
X10222*
X10221*
X10220*
X10219Y-7875*
X10181Y-7822*
Y-8029*
X10223*
X10353Y-7803D02*
X10313Y-7835D01*
X10312Y-7837*
X10311Y-7838*
Y-7839*
Y-7871*
Y-7872*
X10312Y-7874*
Y-7875*
X10313*
X10470Y-8003*
Y-8029*
X10316*
X10314*
X10313Y-8030*
X10312Y-8032*
Y-8034*
Y-8035*
X10313Y-8037*
X10314Y-8038*
X10316*
X10475*
X10477*
X10478Y-8037*
X10479Y-8035*
X10480Y-8034*
Y-8001*
Y-8000*
X10479Y-7999*
Y-7998*
X10478*
Y-7997*
X10321Y-7869*
Y-7841*
X10358Y-7812*
X10434*
X10472Y-7843*
X10474Y-7844*
X10476Y-7843*
X10477*
X10478Y-7841*
X10479Y-7840*
Y-7838*
Y-7837*
X10478Y-7836*
Y-7835*
X10438Y-7803*
X10437*
Y-7802*
X10436*
X10435*
X10356*
X10355*
X10354*
Y-7803*
X10353*
X10439Y-10374D02*
X10441D01*
X10442Y-10375*
X10443Y-10377*
Y-10379*
Y-10380*
X10442Y-10382*
X10441Y-10383*
X10439*
X10347*
X10345*
X10344Y-10382*
X10343Y-10380*
Y-10379*
Y-10377*
X10344Y-10375*
X10345Y-10374*
X10347*
X10389*
Y-10152*
Y-10150*
X10390Y-10149*
X10391Y-10148*
X10392*
X10394*
X10395*
X10396*
X10397Y-10149*
X10443Y-10214*
Y-10215*
Y-10216*
Y-10217*
Y-10219*
X10442Y-10220*
X10440Y-10221*
X10439*
X10438*
X10437*
X10436Y-10220*
X10398Y-10167*
Y-10374*
X10439*
X10536Y-7892D02*
X10535Y-7891D01*
Y-7890*
X10534Y-7889*
Y-7888*
Y-7839*
Y-7838*
X10535Y-7837*
Y-7836*
X10536*
X10576Y-7803*
X10577Y-7802*
X10578*
X10579*
X10698*
X10700*
X10702Y-7804*
X10703Y-7805*
Y-7807*
Y-8034*
Y-8035*
X10702Y-8037*
X10700*
X10699Y-8038*
X10697Y-8037*
X10695*
X10694Y-8035*
X10693Y-8034*
Y-7925*
X10582*
X10544Y-8035*
X10543Y-8037*
X10541Y-8038*
X10539*
X10538Y-8037*
X10536*
X10535Y-8035*
Y-8034*
Y-8032*
X10574Y-7922*
X10536Y-7892*
X10654Y-10374D02*
X10656D01*
X10657Y-10375*
X10658Y-10377*
Y-10379*
Y-10380*
X10657Y-10382*
X10656Y-10383*
X10654*
X10562*
X10560*
X10559Y-10382*
X10558Y-10380*
Y-10379*
Y-10377*
X10559Y-10375*
X10560Y-10374*
X10562*
X10604*
Y-10152*
Y-10150*
X10605Y-10149*
X10606Y-10148*
X10607*
X10609*
X10610*
X10611*
X10612Y-10149*
X10658Y-10214*
Y-10215*
Y-10216*
Y-10217*
Y-10219*
X10657Y-10220*
X10655Y-10221*
X10653*
X10652*
X10651Y-10220*
X10613Y-10167*
Y-10374*
X10654*
X10693Y-7812D02*
X10581D01*
X10544Y-7841*
Y-7885*
X10581Y-7915*
X10693*
Y-7812*
X10784Y-10148D02*
X10744Y-10181D01*
Y-10182*
X10743Y-10183*
Y-10184*
Y-10217*
Y-10218*
Y-10219*
X10744Y-10220*
Y-10221*
X10902Y-10349*
Y-10374*
X10747*
X10746*
X10744Y-10375*
Y-10377*
X10743Y-10379*
X10744Y-10380*
Y-10382*
X10746Y-10383*
X10747*
X10907*
X10909*
X10910Y-10382*
X10911Y-10381*
Y-10379*
Y-10346*
Y-10344*
X10910Y-10343*
X10909Y-10342*
X10752Y-10214*
Y-10187*
X10789Y-10157*
X10865*
X10904Y-10188*
X10906Y-10189*
X10907*
X10909Y-10188*
X10910Y-10186*
Y-10185*
X10911Y-10183*
X10910Y-10182*
Y-10181*
X10909*
X10870Y-10148*
X10869*
X10868*
Y-10147*
X10867*
X10787*
X10786*
Y-10148*
X10785*
X10784*
X10800Y-7803D02*
X10761Y-7835D01*
X10760Y-7837*
X10759Y-7838*
Y-7840*
X10760Y-7841*
X10761Y-7842*
X10762Y-7843*
X10763Y-7844*
X10764*
X10765*
X10766Y-7843*
X10805Y-7812*
X10881*
X10918Y-7841*
Y-7926*
X10886Y-7900*
X10885*
X10884*
Y-7899*
X10883*
X10803*
X10802*
Y-7900*
X10801*
X10800*
X10761Y-7932*
X10760Y-7933*
Y-7934*
X10759Y-7935*
Y-7936*
Y-8001*
Y-8002*
X10760Y-8003*
Y-8004*
X10761Y-8005*
X10800Y-8037*
X10801Y-8038*
X10802*
X10803*
X10883*
X10884*
X10885*
X10886Y-8037*
X10925Y-8005*
X10926Y-8004*
X10927*
Y-8002*
X10928Y-8001*
Y-7839*
X10927Y-7838*
Y-7837*
X10926*
Y-7836*
X10925Y-7835*
X10886Y-7803*
X10885*
X10884Y-7802*
X10883*
X10803*
X10802*
X10801Y-7803*
X10800*
X10918Y-7939D02*
Y-7999D01*
X10881Y-8029*
X10805*
X10768Y-7999*
Y-7939*
X10805Y-7909*
X10881*
X10918Y-7939*
X10967Y-10237D02*
X10966Y-10235D01*
Y-10234*
Y-10233*
Y-10184*
Y-10183*
Y-10182*
X10967*
Y-10181*
X11008Y-10148*
X11009*
X11010Y-10147*
X11011*
X11130*
X11132Y-10148*
X11133Y-10149*
X11134Y-10150*
X11135Y-10152*
Y-10379*
X11134Y-10381*
X11133Y-10382*
X11132Y-10383*
X11130*
X11128*
X11127Y-10382*
X11125Y-10381*
Y-10379*
Y-10270*
X11014*
X10975Y-10380*
X10974Y-10382*
X10973Y-10383*
X10971*
X10969*
X10968Y-10382*
X10967Y-10381*
X10966Y-10379*
Y-10377*
X11005Y-10267*
X10967Y-10237*
X11039Y6672D02*
X10999Y6640D01*
Y6639*
Y6638*
X10998Y6637*
Y6636*
Y6604*
Y6603*
X10999Y6601*
Y6600*
X11157Y6472*
Y6447*
X11003*
X11001Y6446*
X10999Y6445*
Y6444*
Y6442*
Y6440*
Y6438*
X11001Y6437*
X11003*
X11162*
X11164*
X11165Y6439*
X11166Y6440*
Y6442*
Y6474*
Y6475*
Y6476*
X11165Y6477*
Y6478*
X11164*
X11007Y6606*
Y6634*
X11044Y6663*
X11120*
X11159Y6632*
X11161*
X11162*
X11164Y6633*
X11165Y6634*
X11166Y6635*
Y6637*
Y6639*
X11165*
X11164Y6640*
X11125Y6672*
X11124*
X11123Y6673*
X11122*
X11042*
X11041*
X11040Y6672*
X11039*
X11108Y-8029D02*
X11110D01*
X11112Y-8030*
Y-8032*
Y-8034*
Y-8035*
Y-8037*
X11110Y-8038*
X11108*
X11016*
X11015*
X11013Y-8037*
Y-8035*
X11012Y-8034*
X11013Y-8032*
Y-8030*
X11015Y-8029*
X11016*
X11058*
Y-7807*
Y-7805*
X11059Y-7804*
X11060Y-7803*
X11062*
X11063*
X11064*
X11065*
X11066Y-7804*
X11112Y-7869*
Y-7870*
X11113Y-7871*
Y-7872*
X11112Y-7874*
X11111Y-7875*
X11109Y-7876*
X11108*
X11107*
X11106*
X11105Y-7875*
X11067Y-7822*
Y-8029*
X11108*
X11125Y-10157D02*
X11012D01*
X10975Y-10187*
Y-10231*
X11012Y-10261*
X11125*
Y-10157*
X11135Y8604D02*
X11120Y8592D01*
X11044*
X11007Y8622*
Y8779*
X11021Y8790*
X11135Y8604*
X11157Y8779D02*
Y8622D01*
X11143Y8610*
X11029Y8797*
X11044Y8809*
X11120*
X11157Y8779*
X11164Y8786D02*
X11125Y8818D01*
X11124*
X11123*
Y8819*
X11122*
X11042*
X11041*
Y8818*
X11040*
X11039*
X10999Y8786*
Y8784*
Y8783*
X10998*
Y8782*
Y8620*
Y8619*
X10999Y8617*
Y8616*
X11039Y8584*
X11040Y8583*
X11041*
X11042*
X11122*
X11123*
X11124*
X11125Y8584*
X11164Y8616*
X11165*
Y8617*
X11166*
Y8619*
Y8620*
Y8782*
Y8783*
Y8784*
X11164Y8786*
X11238Y-7803D02*
X11199Y-7835D01*
X11198Y-7837*
X11197Y-7838*
Y-7839*
Y-7871*
Y-7872*
X11198Y-7874*
Y-7875*
X11199*
X11356Y-8003*
Y-8029*
X11202*
X11200*
X11199Y-8030*
X11198Y-8032*
Y-8034*
Y-8035*
X11199Y-8037*
X11200Y-8038*
X11202*
X11361*
X11363*
X11364Y-8037*
X11365Y-8035*
X11366Y-8034*
Y-8001*
X11365Y-8000*
Y-7999*
Y-7998*
X11364*
Y-7997*
X11206Y-7869*
Y-7841*
X11243Y-7812*
X11320*
X11358Y-7843*
X11360Y-7844*
X11361Y-7843*
X11363*
X11364Y-7841*
X11365Y-7840*
Y-7838*
Y-7837*
X11364Y-7836*
Y-7835*
X11324Y-7803*
X11323*
X11322Y-7802*
X11321*
X11241*
X11240*
X11239Y-7803*
X11238*
X11359Y6458D02*
X11344Y6447D01*
X11267*
X11230Y6476*
Y6634*
X11244Y6645*
X11359Y6458*
Y8604D02*
X11344Y8592D01*
X11267*
X11230Y8622*
Y8779*
X11244Y8790*
X11359Y8604*
X11380Y6634D02*
Y6476D01*
X11366Y6465*
X11252Y6651*
X11267Y6663*
X11344*
X11380Y6634*
Y8779D02*
Y8622D01*
X11366Y8610*
X11252Y8797*
X11267Y8809*
X11344*
X11380Y8779*
X11388Y6640D02*
X11348Y6672D01*
X11347*
X11346Y6673*
X11345*
X11265*
X11264*
X11263Y6672*
X11262*
X11223Y6640*
X11222Y6639*
Y6638*
X11221Y6637*
Y6636*
Y6474*
Y6473*
X11222Y6472*
Y6471*
X11223Y6470*
X11262Y6438*
X11263*
X11264Y6437*
X11265*
X11345*
X11346*
X11347*
X11348Y6438*
X11388Y6470*
Y6471*
X11389*
Y6472*
Y6473*
X11390Y6474*
Y6636*
X11389Y6637*
Y6638*
Y6639*
X11388Y6640*
Y8786D02*
X11348Y8818D01*
X11347*
X11346*
Y8819*
X11345*
X11265*
X11264*
Y8818*
X11263*
X11262*
X11223Y8786*
X11222Y8784*
Y8783*
X11221*
Y8782*
Y8620*
Y8619*
X11222Y8617*
X11223Y8616*
X11262Y8584*
X11263Y8583*
X11264*
X11265*
X11345*
X11346*
X11347*
X11348Y8584*
X11388Y8616*
X11389Y8617*
Y8619*
X11390Y8620*
Y8782*
X11389Y8783*
Y8784*
X11388Y8786*
X11422Y-7892D02*
X11421Y-7891D01*
Y-7890*
X11420Y-7889*
Y-7888*
Y-7839*
Y-7838*
X11421Y-7837*
Y-7836*
X11422*
X11462Y-7803*
X11463Y-7802*
X11464*
X11465*
X11584*
X11586*
X11588Y-7804*
X11589Y-7805*
Y-7807*
Y-8034*
Y-8035*
X11588Y-8037*
X11586*
X11584Y-8038*
X11583Y-8037*
X11581*
X11580Y-8035*
X11579Y-8034*
Y-7925*
X11468*
X11429Y-8035*
Y-8037*
X11427Y-8038*
X11425*
X11424Y-8037*
X11422*
X11421Y-8035*
Y-8034*
Y-8032*
X11459Y-7922*
X11422Y-7892*
X11571Y6447D02*
X11573Y6446D01*
X11574Y6445*
Y6444*
Y6442*
Y6440*
Y6438*
X11573Y6437*
X11571*
X11479*
X11477*
X11475Y6438*
Y6440*
X11474Y6442*
X11475Y6444*
Y6445*
X11477Y6446*
X11479Y6447*
X11520*
Y6668*
Y6670*
X11521Y6671*
X11522Y6672*
X11524*
X11525*
X11526*
X11527*
X11528Y6671*
X11574Y6606*
X11575Y6605*
Y6603*
X11574Y6602*
X11573Y6600*
X11572Y6599*
X11570*
X11569*
X11568*
X11567Y6601*
X11529Y6654*
Y6447*
X11571*
Y8592D02*
X11573D01*
X11574Y8591*
Y8589*
Y8587*
Y8586*
Y8584*
X11573Y8583*
X11571*
X11479*
X11477*
X11475Y8584*
Y8586*
X11474Y8587*
X11475Y8589*
Y8591*
X11477Y8592*
X11479*
X11520*
Y8814*
Y8816*
X11521Y8817*
X11522Y8818*
X11524*
X11525*
X11526*
X11527*
X11528Y8817*
X11574Y8752*
X11575Y8751*
Y8750*
Y8749*
X11574Y8747*
X11573Y8746*
X11572Y8745*
X11570*
X11569*
X11568*
X11567Y8746*
X11529Y8799*
Y8592*
X11571*
X11579Y-7812D02*
X11466D01*
X11429Y-7841*
Y-7885*
X11466Y-7915*
X11579*
Y-7812*
X11661Y6583D02*
X11660Y6584D01*
Y6585*
X11659Y6586*
Y6587*
Y6636*
Y6637*
X11660Y6638*
Y6639*
X11661Y6640*
X11701Y6672*
X11702Y6673*
X11703*
X11704*
X11823*
X11825*
X11826Y6671*
X11828Y6670*
Y6668*
Y6442*
Y6440*
X11826Y6439*
X11825Y6438*
X11823*
X11821*
X11820Y6439*
X11819Y6440*
X11818Y6442*
Y6550*
X11707*
X11668Y6440*
X11667Y6439*
X11666Y6438*
X11664Y6437*
X11663Y6438*
X11661Y6439*
X11660Y6440*
X11659Y6441*
X11660Y6443*
X11698Y6553*
X11661Y6583*
Y8729D02*
X11660Y8730D01*
Y8731*
X11659Y8732*
Y8733*
Y8782*
Y8783*
X11660Y8784*
Y8785*
X11661*
X11701Y8818*
X11702*
X11703Y8819*
X11704*
X11823*
X11825Y8818*
X11826Y8817*
X11828Y8816*
Y8814*
Y8587*
Y8585*
X11826Y8584*
X11825*
X11823Y8583*
X11821Y8584*
X11820*
X11819Y8585*
X11818Y8587*
Y8696*
X11707*
X11668Y8586*
X11667Y8584*
X11666Y8583*
X11664*
X11663Y8584*
X11661*
X11660Y8585*
X11659Y8587*
X11660Y8589*
X11698Y8699*
X11661Y8729*
X11798Y-6186D02*
X11783Y-6198D01*
X11706*
X11670Y-6168*
Y-6011*
X11684Y-6000*
X11798Y-6186*
X11818Y6663D02*
X11705D01*
X11668Y6634*
Y6590*
X11705Y6560*
X11818*
Y6663*
Y8809D02*
X11705D01*
X11668Y8779*
Y8735*
X11705Y8705*
X11818*
Y8809*
X11819Y-6011D02*
Y-6168D01*
X11805Y-6180*
X11691Y-5994*
X11706Y-5981*
X11783*
X11819Y-6011*
X11827Y-6005D02*
X11787Y-5972D01*
X11786*
X11785*
X11784Y-5971*
X11705*
X11704Y-5972*
X11703*
X11702*
X11701*
X11662Y-6005*
X11661Y-6006*
Y-6007*
X11660*
Y-6008*
Y-6170*
Y-6171*
X11661Y-6173*
X11662Y-6174*
X11701Y-6207*
X11702*
X11703*
X11704Y-6208*
X11705*
X11784*
X11785Y-6207*
X11786*
X11787*
X11827Y-6174*
X11828*
Y-6173*
X11829Y-6171*
Y-6170*
Y-6008*
Y-6007*
X11828*
Y-6006*
X11827Y-6005*
X11844Y-10373D02*
Y-10375D01*
X11843Y-10376*
X11841Y-10377*
X11840*
X11838*
X11837Y-10376*
X11835Y-10375*
Y-10373*
Y-10302*
X11824*
X11822Y-10301*
X11821Y-10300*
X11820Y-10299*
Y-10297*
Y-10295*
X11821Y-10293*
X11822Y-10292*
X11824*
X11835*
Y-10153*
Y-10152*
X11836Y-10151*
X11837Y-10150*
X11838Y-10149*
X11839*
X11841*
X11842*
X11843Y-10150*
X11987Y-10293*
X11988Y-10295*
Y-10296*
Y-10297*
X11987Y-10299*
X11986Y-10300*
X11985Y-10301*
X11984*
X11983Y-10302*
X11844*
Y-10373*
X11925Y-5972D02*
X11885Y-6005D01*
X11884Y-6006*
Y-6007*
X11883Y-6008*
Y-6041*
X11884Y-6042*
Y-6043*
Y-6044*
X11885Y-6045*
X12042Y-6173*
Y-6198*
X11888*
X11886*
X11885Y-6199*
X11884Y-6201*
Y-6203*
Y-6204*
X11885Y-6206*
X11886Y-6207*
X11888Y-6208*
X12047*
X12049Y-6207*
X12050Y-6206*
X12052Y-6205*
Y-6203*
Y-6170*
X12051Y-6168*
Y-6167*
X12050Y-6166*
X11893Y-6038*
Y-6011*
X11930Y-5981*
X12006*
X12044Y-6012*
X12046Y-6013*
X12048*
X12049Y-6012*
X12050Y-6011*
X12051Y-6009*
Y-6007*
Y-6006*
Y-6005*
X12050*
X12010Y-5972*
X12009*
X12008*
X12007Y-5971*
X11928*
X11927Y-5972*
X11926*
X11925*
X11971Y-10292D02*
X11844Y-10165D01*
Y-10292*
X11971*
X12148Y-5972D02*
X12108Y-6005D01*
Y-6006*
X12107Y-6007*
Y-6008*
Y-6041*
Y-6042*
Y-6043*
X12108Y-6044*
Y-6045*
X12266Y-6173*
Y-6198*
X12111*
X12110*
X12108Y-6199*
Y-6201*
X12107Y-6203*
X12108Y-6204*
Y-6206*
X12110Y-6207*
X12111Y-6208*
X12271*
X12272Y-6207*
X12274Y-6206*
X12275Y-6205*
Y-6203*
Y-6170*
Y-6168*
X12274Y-6167*
X12273Y-6166*
X12116Y-6038*
Y-6011*
X12153Y-5981*
X12229*
X12268Y-6012*
X12269Y-6013*
X12271*
X12272Y-6012*
X12274Y-6011*
Y-6009*
X12275Y-6007*
X12274Y-6006*
Y-6005*
X12273*
X12233Y-5972*
X12232*
X12231Y-5971*
X12151*
X12150Y-5972*
X12149*
X12148*
X12169Y-10368D02*
X12171Y-10369D01*
X12172Y-10370*
Y-10371*
X12173Y-10373*
X12172Y-10375*
Y-10377*
X12171Y-10378*
X12169*
X12077*
X12075*
X12074Y-10377*
X12073Y-10375*
Y-10373*
Y-10371*
X12074Y-10370*
X12075Y-10369*
X12077Y-10368*
X12118*
Y-10147*
Y-10145*
X12119Y-10144*
X12120Y-10143*
X12122*
X12123*
X12124*
X12125*
X12126Y-10144*
X12172Y-10209*
X12173Y-10210*
Y-10212*
X12172Y-10213*
X12171Y-10215*
X12170Y-10216*
X12168*
X12167*
X12166*
X12165Y-10214*
X12127Y-10161*
Y-10368*
X12169*
X12299Y-10143D02*
X12259Y-10175D01*
X12258Y-10176*
Y-10177*
Y-10178*
X12257Y-10179*
Y-10211*
X12258Y-10212*
Y-10214*
Y-10215*
X12259*
X12416Y-10343*
Y-10368*
X12262*
X12260Y-10369*
X12259Y-10370*
X12258Y-10371*
Y-10373*
Y-10375*
X12259Y-10377*
X12260Y-10378*
X12262*
X12421*
X12423*
X12424Y-10376*
X12426Y-10375*
Y-10373*
Y-10341*
Y-10340*
X12425Y-10339*
Y-10338*
Y-10337*
X12424*
X12267Y-10209*
Y-10181*
X12304Y-10151*
X12380*
X12418Y-10183*
X12420*
X12422*
X12423Y-10182*
X12424Y-10181*
X12425Y-10180*
Y-10178*
Y-10176*
X12424Y-10175*
X12384Y-10143*
X12383*
Y-10142*
X12382*
X12381*
X12302*
X12301*
X12300*
Y-10143*
X12299*
X12331Y-6061D02*
X12330Y-6059D01*
Y-6058*
Y-6057*
Y-6008*
Y-6007*
Y-6006*
X12331*
Y-6005*
X12371Y-5972*
X12373*
X12374*
Y-5971*
X12494*
X12496Y-5972*
X12497Y-5973*
X12498Y-5974*
X12499Y-5976*
Y-6203*
X12498Y-6205*
X12497Y-6206*
X12496Y-6207*
X12494*
X12492*
X12490Y-6206*
X12489Y-6205*
Y-6203*
Y-6094*
X12378*
X12339Y-6204*
X12338Y-6206*
X12336Y-6207*
X12335*
X12333*
X12332Y-6206*
X12331Y-6205*
X12330Y-6203*
Y-6201*
X12369Y-6091*
X12331Y-6061*
X12393Y1901D02*
X12395Y1900D01*
X12396Y1899*
X12397Y1898*
Y1896*
Y1894*
X12396Y1892*
X12395Y1891*
X12393*
X12301*
X12299*
X12298Y1892*
X12297Y1894*
Y1896*
Y1898*
X12298Y1899*
X12299Y1900*
X12301Y1901*
X12343*
Y2123*
Y2124*
X12344Y2125*
X12345Y2126*
X12346*
X12348Y2127*
X12349*
X12350Y2126*
X12351Y2125*
X12397Y2060*
Y2059*
Y2057*
Y2056*
X12396Y2055*
X12394Y2054*
X12392Y2053*
X12391*
X12390Y2055*
X12352Y2108*
Y1901*
X12393*
X12482Y-10232D02*
X12481Y-10231D01*
Y-10230*
Y-10229*
X12480Y-10228*
Y-10179*
X12481Y-10178*
Y-10177*
Y-10176*
X12482*
Y-10175*
X12522Y-10143*
X12523Y-10142*
X12524*
X12525*
X12644*
X12646*
X12648Y-10143*
X12649Y-10145*
Y-10147*
Y-10373*
Y-10375*
X12648Y-10376*
X12646Y-10377*
X12645*
X12643*
X12641Y-10376*
X12640Y-10375*
Y-10373*
Y-10265*
X12528*
X12490Y-10375*
X12489Y-10376*
X12487Y-10377*
X12486Y-10378*
X12484Y-10377*
X12482Y-10376*
X12481Y-10375*
Y-10374*
Y-10372*
X12520Y-10262*
X12482Y-10232*
X12489Y-5981D02*
X12376D01*
X12339Y-6011*
Y-6055*
X12376Y-6085*
X12489*
Y-5981*
X12619Y1913D02*
X12604Y1901D01*
X12528*
X12491Y1931*
Y2088*
X12505Y2099*
X12619Y1913*
X12640Y-10151D02*
X12527D01*
X12490Y-10181*
Y-10225*
X12527Y-10255*
X12640*
Y-10151*
X12641Y2088D02*
Y1931D01*
X12627Y1919*
X12512Y2105*
X12528Y2118*
X12604*
X12641Y2088*
X12648Y2094D02*
X12609Y2126D01*
X12608Y2127*
X12607*
X12606*
X12526*
X12525*
X12524*
X12523Y2126*
X12483Y2094*
Y2093*
X12482Y2092*
Y2091*
Y2090*
Y1928*
Y1927*
Y1926*
X12483Y1925*
Y1924*
X12523Y1892*
X12524*
X12525*
Y1891*
X12526*
X12606*
X12607*
X12608Y1892*
X12609*
X12648Y1924*
X12649Y1925*
X12650Y1926*
Y1927*
Y1928*
Y2090*
Y2091*
Y2092*
X12649Y2093*
X12648Y2094*
X12670Y-7883D02*
X12671Y-7884D01*
X12672*
X12673*
X12705Y-7910*
Y-7812*
X12551*
X12549Y-7811*
X12548Y-7810*
X12547Y-7809*
Y-7807*
Y-7805*
X12548Y-7804*
X12549Y-7802*
X12551*
X12710*
X12712*
X12713Y-7804*
X12714Y-7805*
X12715Y-7807*
Y-7920*
Y-7922*
X12714Y-7923*
X12713Y-7924*
X12711*
X12710Y-7925*
X12709*
X12708*
X12707Y-7924*
X12669Y-7893*
X12592*
X12555Y-7923*
Y-7999*
X12592Y-8028*
X12669*
X12707Y-7997*
X12709Y-7996*
X12710*
X12712Y-7997*
X12713Y-7999*
X12714Y-8000*
Y-8002*
Y-8003*
Y-8004*
X12713*
Y-8005*
X12673Y-8037*
X12672Y-8038*
X12671*
X12670*
X12591*
X12590*
X12589*
X12588*
Y-8037*
X12548Y-8005*
X12547Y-8004*
X12546Y-8002*
Y-8001*
Y-7920*
Y-7919*
X12547Y-7918*
Y-7917*
X12548Y-7916*
X12588Y-7884*
X12589*
X12590*
X12591Y-7883*
X12670*
X12811Y-7803D02*
X12771Y-7835D01*
X12770Y-7837*
X12769Y-7838*
Y-7839*
Y-7871*
Y-7872*
X12770Y-7874*
Y-7875*
X12771*
X12928Y-8003*
Y-8029*
X12774*
X12772*
X12771Y-8030*
X12770Y-8032*
Y-8034*
Y-8035*
X12771Y-8037*
X12772Y-8038*
X12774*
X12933*
X12935*
X12936Y-8037*
X12937Y-8035*
X12938Y-8034*
Y-8001*
Y-8000*
X12937Y-7999*
Y-7998*
X12936*
Y-7997*
X12779Y-7869*
Y-7841*
X12815Y-7812*
X12892*
X12930Y-7843*
X12932Y-7844*
X12934Y-7843*
X12935*
X12936Y-7841*
X12937Y-7840*
Y-7838*
Y-7837*
X12936Y-7836*
Y-7835*
X12896Y-7803*
X12895*
Y-7802*
X12894*
X12893*
X12814*
X12813*
X12812*
X12811Y-7803*
X12842Y1913D02*
X12828Y1901D01*
X12751*
X12714Y1931*
Y2088*
X12728Y2099*
X12842Y1913*
X12864Y2088D02*
Y1931D01*
X12850Y1919*
X12736Y2105*
X12751Y2118*
X12828*
X12864Y2088*
X12872Y2094D02*
X12832Y2126D01*
X12831Y2127*
X12830*
X12829*
X12749*
X12748*
X12747*
X12746Y2126*
X12707Y2094*
X12706Y2093*
Y2092*
X12705Y2091*
Y2090*
Y1928*
Y1927*
X12706Y1926*
Y1925*
X12707Y1924*
X12746Y1892*
X12747*
X12748*
Y1891*
X12749*
X12829*
X12830*
X12831Y1892*
X12832*
X12872Y1924*
Y1925*
X12873Y1926*
Y1927*
X12874Y1928*
Y2090*
X12873Y2091*
Y2092*
Y2093*
X12872Y2094*
X13034Y-7803D02*
X12994Y-7835D01*
X12993Y-7837*
Y-7838*
X12992Y-7839*
Y-7871*
X12993Y-7872*
Y-7874*
Y-7875*
X12994*
X13151Y-8003*
Y-8029*
X12997*
X12995*
X12994Y-8030*
X12993Y-8032*
Y-8034*
Y-8035*
X12994Y-8037*
X12995Y-8038*
X12997*
X13156*
X13158*
X13159Y-8037*
X13161Y-8035*
Y-8034*
Y-8001*
Y-8000*
X13160Y-7999*
Y-7998*
X13159Y-7997*
X13002Y-7869*
Y-7841*
X13039Y-7812*
X13115*
X13154Y-7843*
X13155Y-7844*
X13157Y-7843*
X13158*
X13159Y-7841*
X13160Y-7840*
Y-7838*
Y-7837*
Y-7836*
X13159Y-7835*
X13119Y-7803*
X13118*
Y-7802*
X13117*
X13116*
X13037*
X13036*
X13035*
Y-7803*
X13034*
X13055Y1892D02*
X13094Y1924D01*
X13095Y1925*
X13096Y1926*
Y1927*
Y1928*
Y2090*
Y2091*
Y2092*
X13095Y2093*
Y2094*
X13055Y2126*
X13054Y2127*
X13053*
X13052*
X12972*
X12971*
X12970*
X12969Y2126*
X12929Y2094*
X12928Y2093*
Y2091*
Y2090*
X12929Y2088*
Y2087*
X12931Y2086*
X12932*
X12933Y2085*
X12934*
X12935Y2086*
X12974Y2118*
X13050*
X13087Y2088*
Y1931*
X13050Y1901*
X12974*
X12935Y1932*
X12934Y1933*
X12933*
X12932*
X12931Y1932*
X12929Y1931*
Y1930*
X12928Y1928*
Y1927*
Y1926*
X12929Y1924*
X12969Y1892*
X12970*
Y1891*
X12971*
X12972*
X13052*
X13053*
X13054Y1892*
X13055*
X13217Y-7892D02*
X13216Y-7891D01*
Y-7890*
Y-7889*
X13215Y-7888*
Y-7839*
X13216Y-7838*
Y-7837*
Y-7836*
X13217*
X13257Y-7803*
X13258Y-7802*
X13259*
X13260*
X13379*
X13381*
X13383Y-7804*
X13384Y-7805*
X13385Y-7807*
Y-8034*
X13384Y-8035*
X13383Y-8037*
X13381*
X13380Y-8038*
X13378Y-8037*
X13376*
X13375Y-8035*
Y-8034*
Y-7925*
X13264*
X13225Y-8035*
X13224Y-8037*
X13222Y-8038*
X13221*
X13219Y-8037*
X13218*
X13216Y-8035*
Y-8034*
Y-8032*
X13255Y-7922*
X13217Y-7892*
X13375Y-7812D02*
X13262D01*
X13225Y-7841*
Y-7885*
X13262Y-7915*
X13375*
Y-7812*
X13384Y-5511D02*
X13424Y-5479D01*
X13425Y-5478*
Y-5477*
X13426*
Y-5476*
X13425Y-5474*
X13424Y-5473*
X13423Y-5471*
X13422*
X13420Y-5470*
X13418Y-5471*
X13380Y-5502*
X13304*
X13267Y-5472*
Y-5429*
X13303Y-5399*
X13342*
X13344Y-5398*
X13345Y-5397*
X13346Y-5395*
Y-5394*
Y-5392*
X13345Y-5391*
X13344Y-5390*
X13342Y-5389*
X13303*
X13267Y-5359*
Y-5315*
X13304Y-5285*
X13380*
X13418Y-5317*
X13420*
X13422*
X13423Y-5316*
X13424Y-5315*
X13425Y-5313*
X13426Y-5312*
Y-5311*
X13425Y-5310*
Y-5309*
X13424*
X13384Y-5277*
X13383Y-5276*
X13382*
X13302*
X13301*
X13300*
X13299Y-5277*
X13259Y-5309*
X13258Y-5310*
Y-5311*
Y-5312*
X13257Y-5313*
Y-5361*
X13258Y-5362*
Y-5364*
Y-5365*
X13259*
X13294Y-5394*
X13259Y-5422*
Y-5423*
X13258*
Y-5424*
Y-5425*
X13257Y-5426*
Y-5475*
X13258Y-5476*
Y-5477*
Y-5478*
X13259Y-5479*
X13299Y-5511*
X13300*
Y-5512*
X13301*
X13302*
X13382*
X13383*
Y-5511*
X13384*
Y-5161D02*
X13424Y-5128D01*
X13425*
Y-5127*
X13426Y-5126*
X13425Y-5124*
X13424Y-5122*
X13423Y-5121*
X13422Y-5120*
X13420*
X13418*
X13380Y-5152*
X13304*
X13267Y-5122*
Y-5078*
X13303Y-5048*
X13342*
X13344*
X13345Y-5047*
X13346Y-5045*
Y-5043*
Y-5042*
X13345Y-5040*
X13344Y-5039*
X13342*
X13303*
X13267Y-5009*
Y-4965*
X13304Y-4935*
X13380*
X13418Y-4966*
X13420Y-4967*
X13422*
X13423Y-4966*
X13424Y-4964*
X13425Y-4963*
X13426Y-4961*
Y-4960*
X13425*
Y-4959*
X13424*
X13384Y-4926*
X13383*
X13382Y-4925*
X13302*
X13301Y-4926*
X13300*
X13299*
X13259Y-4959*
X13258Y-4960*
Y-4961*
X13257Y-4962*
Y-5011*
X13258Y-5012*
Y-5013*
Y-5015*
X13259*
X13294Y-5043*
X13259Y-5072*
X13258Y-5073*
Y-5075*
X13257Y-5076*
Y-5124*
X13258Y-5126*
Y-5127*
X13259Y-5128*
X13299Y-5161*
X13300*
X13301*
X13302*
X13382*
X13383*
X13384*
X13522Y-4926D02*
X13482Y-4959D01*
X13481Y-4960*
Y-4961*
Y-4962*
Y-4995*
Y-4996*
Y-4997*
Y-4998*
X13482Y-4999*
X13640Y-5127*
Y-5152*
X13485*
X13484*
X13482Y-5153*
X13481Y-5155*
Y-5157*
Y-5158*
X13482Y-5160*
X13484Y-5161*
X13485*
X13644*
X13646*
X13648Y-5160*
X13649Y-5159*
Y-5157*
Y-5124*
Y-5122*
X13648Y-5121*
X13647Y-5120*
X13490Y-4992*
Y-4965*
X13527Y-4935*
X13603*
X13642Y-4966*
X13643Y-4967*
X13645*
X13646Y-4966*
X13648Y-4964*
Y-4963*
X13649Y-4961*
X13648Y-4960*
Y-4959*
X13647*
X13607Y-4926*
X13606*
X13605Y-4925*
X13525*
X13524Y-4926*
X13523*
X13522*
X13609Y5065D02*
X13610Y5064D01*
X13612Y5063*
Y5062*
Y5060*
Y5058*
Y5056*
X13610Y5055*
X13609*
X13516*
X13515*
X13513Y5056*
Y5058*
X13512Y5060*
X13513Y5062*
Y5063*
X13515Y5064*
X13516Y5065*
X13558*
Y5287*
Y5288*
X13559Y5289*
X13560Y5290*
X13562*
X13563Y5291*
X13564*
X13565Y5290*
X13566Y5289*
X13612Y5224*
X13613Y5223*
Y5221*
X13612Y5220*
X13611Y5219*
X13609Y5218*
X13608Y5217*
X13607*
X13606*
X13605Y5219*
X13567Y5272*
Y5065*
X13609*
X13618Y-5490D02*
X13603Y-5502D01*
X13527*
X13490Y-5472*
Y-5315*
X13504Y-5304*
X13618Y-5490*
X13640Y-5315D02*
Y-5472D01*
X13626Y-5484*
X13511Y-5298*
X13527Y-5285*
X13603*
X13640Y-5315*
X13647Y-5309D02*
X13607Y-5277D01*
X13606Y-5276*
X13605*
X13525*
X13524*
X13523*
X13522Y-5277*
X13482Y-5309*
X13481Y-5310*
Y-5311*
Y-5312*
Y-5313*
Y-5475*
Y-5476*
Y-5477*
Y-5478*
X13482Y-5479*
X13522Y-5511*
X13523*
X13524*
Y-5512*
X13525*
X13605*
X13606*
Y-5511*
X13607*
X13647Y-5479*
X13648Y-5478*
X13649Y-5477*
Y-5476*
Y-5475*
Y-5313*
Y-5312*
Y-5311*
X13648Y-5310*
X13647Y-5309*
X13745Y-5277D02*
X13705Y-5309D01*
Y-5310*
X13704Y-5311*
Y-5312*
Y-5313*
Y-5345*
Y-5346*
Y-5347*
X13705Y-5349*
X13863Y-5477*
Y-5502*
X13709*
X13707Y-5503*
X13705Y-5504*
Y-5505*
X13704Y-5507*
X13705Y-5509*
Y-5510*
X13707Y-5511*
X13709Y-5512*
X13868*
X13870Y-5511*
X13871Y-5510*
X13872Y-5509*
Y-5507*
Y-5475*
Y-5474*
Y-5472*
X13871*
Y-5471*
X13870*
X13713Y-5343*
Y-5315*
X13750Y-5285*
X13826*
X13865Y-5317*
X13867*
X13868*
X13870Y-5316*
X13871Y-5315*
Y-5313*
X13872Y-5312*
X13871Y-5310*
Y-5309*
X13870*
X13831Y-5277*
X13830Y-5276*
X13829*
X13828*
X13748*
X13747*
X13746*
X13745Y-5277*
Y-4926D02*
X13705Y-4959D01*
Y-4960*
X13704Y-4961*
Y-4962*
Y-4995*
Y-4996*
Y-4997*
X13705Y-4998*
Y-4999*
X13863Y-5127*
Y-5152*
X13709*
X13707*
X13705Y-5153*
Y-5155*
X13704Y-5157*
X13705Y-5158*
Y-5160*
X13707Y-5161*
X13709*
X13868*
X13870*
X13871Y-5160*
X13872Y-5159*
Y-5157*
Y-5124*
Y-5122*
X13871Y-5121*
X13870Y-5120*
X13713Y-4992*
Y-4965*
X13750Y-4935*
X13826*
X13865Y-4966*
X13867Y-4967*
X13868*
X13870Y-4966*
X13871Y-4964*
Y-4963*
X13872Y-4961*
X13871Y-4960*
Y-4959*
X13870*
X13831Y-4926*
X13830*
X13829*
X13828Y-4925*
X13748*
X13747Y-4926*
X13746*
X13745*
X13835Y5077D02*
X13820Y5065D01*
X13743*
X13707Y5094*
Y5252*
X13720Y5263*
X13835Y5077*
X13856Y5252D02*
Y5094D01*
X13842Y5083*
X13728Y5269*
X13743Y5282*
X13820*
X13856Y5252*
X13864Y5258D02*
X13824Y5290D01*
X13823Y5291*
X13822*
X13821*
X13741*
X13740*
X13739*
X13738Y5290*
X13699Y5258*
X13698Y5257*
Y5256*
X13697Y5255*
Y5254*
Y5092*
Y5091*
X13698Y5090*
Y5089*
X13699Y5088*
X13738Y5056*
X13739*
X13740*
Y5055*
X13741*
X13821*
X13822*
X13823Y5056*
X13824*
X13864Y5088*
Y5089*
X13865*
Y5090*
X13866Y5091*
Y5092*
Y5254*
Y5255*
X13865Y5256*
Y5257*
X13864Y5258*
X13928Y-5015D02*
X13927Y-5013D01*
Y-5012*
Y-5011*
Y-4962*
Y-4961*
Y-4960*
X13928*
Y-4959*
X13969Y-4926*
X13970*
X13971*
X13972Y-4925*
X14091*
X14093Y-4926*
X14094Y-4927*
X14095Y-4928*
X14096Y-4930*
Y-5157*
X14095Y-5159*
X14094Y-5160*
X14093Y-5161*
X14091*
X14089*
X14088Y-5160*
X14086Y-5159*
Y-5157*
Y-5048*
X13975*
X13936Y-5158*
X13935Y-5160*
X13934Y-5161*
X13932*
X13930*
X13929Y-5160*
X13928Y-5159*
X13927Y-5157*
Y-5155*
X13966Y-5045*
X13928Y-5015*
X13936Y-5510D02*
X13949Y-5494D01*
X13969Y-5511*
X13970*
Y-5512*
X13971*
X13972*
X14051*
X14052*
X14053Y-5511*
X14054*
X14094Y-5479*
Y-5478*
X14095Y-5477*
Y-5476*
X14096Y-5475*
Y-5313*
X14095Y-5312*
Y-5311*
Y-5310*
X14094Y-5309*
X14054Y-5277*
X14053Y-5276*
X14052*
X14051*
X13971*
X13970*
X13969*
X13968Y-5277*
X13929Y-5309*
X13928Y-5310*
Y-5311*
X13927Y-5312*
Y-5313*
Y-5475*
Y-5476*
X13928Y-5477*
Y-5478*
X13929Y-5479*
X13940Y-5488*
X13928Y-5504*
X13927Y-5506*
Y-5507*
X13928Y-5509*
X13929Y-5510*
X13931Y-5511*
X13932Y-5512*
X13933*
X13934Y-5511*
X13936Y-5510*
X13982Y-5453D02*
X13983Y-5452D01*
Y-5451*
Y-5449*
Y-5448*
X13981Y-5446*
X13980*
X13978Y-5445*
X13976*
X13974Y-5446*
X13947Y-5481*
X13936Y-5472*
Y-5315*
X13973Y-5285*
X14050*
X14086Y-5315*
Y-5472*
X14050Y-5502*
X13973*
X13955Y-5487*
X13982Y-5453*
X14047Y5065D02*
X14049Y5064D01*
X14050Y5063*
Y5062*
Y5060*
Y5058*
Y5056*
X14049Y5055*
X14047*
X13955*
X13953*
X13951Y5056*
Y5058*
Y5060*
Y5062*
Y5063*
X13953Y5064*
X13955Y5065*
X13996*
Y5287*
Y5288*
X13997Y5289*
X13998Y5290*
X14000*
X14001Y5291*
X14002*
X14003Y5290*
X14004Y5289*
X14050Y5224*
X14051Y5223*
Y5221*
X14050Y5220*
X14049Y5219*
X14048Y5218*
X14046Y5217*
X14045*
X14044*
X14043Y5219*
X14005Y5272*
Y5065*
X14047*
X14086Y-4935D02*
X13973D01*
X13936Y-4965*
Y-5009*
X13973Y-5039*
X14086*
Y-4935*
X14112Y85D02*
X14097Y73D01*
X14021*
X13984Y103*
Y260*
X13998Y271*
X14112Y85*
X14133Y260D02*
Y103D01*
X14119Y91*
X14005Y277*
X14021Y290*
X14097*
X14133Y260*
X14137Y5201D02*
X14136Y5202D01*
Y5203*
X14135Y5204*
Y5206*
Y5254*
Y5255*
X14136Y5256*
Y5257*
X14137Y5258*
X14177Y5290*
X14178Y5291*
X14179*
X14180*
X14299*
X14301*
X14303Y5290*
X14304Y5288*
Y5287*
Y5060*
Y5058*
X14303Y5057*
X14301Y5056*
X14299*
X14298*
X14296Y5057*
X14295Y5058*
X14294Y5060*
Y5168*
X14183*
X14144Y5058*
Y5057*
X14142Y5056*
X14140*
X14139*
X14137Y5057*
X14136Y5058*
Y5060*
Y5061*
X14174Y5171*
X14137Y5201*
X14141Y266D02*
X14101Y298D01*
X14100Y299*
X14099*
X14098*
X14019*
X14018*
X14017*
X14016Y298*
X13976Y266*
X13975Y265*
Y264*
Y263*
X13974Y262*
Y100*
X13975Y99*
Y98*
Y97*
X13976Y96*
X14016Y64*
X14017*
X14018Y63*
X14019*
X14098*
X14099*
X14100Y64*
X14101*
X14141Y96*
X14142Y97*
Y98*
X14143Y99*
Y100*
Y262*
Y263*
X14142Y264*
Y265*
X14141Y266*
X14294Y5282D02*
X14181D01*
X14144Y5252*
Y5208*
X14181Y5178*
X14294*
Y5282*
X14335Y85D02*
X14320Y73D01*
X14244*
X14207Y103*
Y260*
X14221Y271*
X14335Y85*
X14356Y260D02*
Y103D01*
X14343Y91*
X14228Y277*
X14244Y290*
X14320*
X14356Y260*
X14364Y266D02*
X14324Y298D01*
X14323Y299*
X14322*
X14242*
X14241*
X14240*
X14239Y298*
X14199Y266*
X14198Y265*
Y264*
Y263*
Y262*
Y100*
Y99*
Y98*
Y97*
X14199Y96*
X14239Y64*
X14240*
X14241Y63*
X14242*
X14322*
X14323Y64*
X14324*
X14364Y96*
X14365Y97*
Y98*
X14366Y99*
Y100*
Y262*
Y263*
X14365Y264*
Y265*
X14364Y266*
X14558Y85D02*
X14543Y73D01*
X14467*
X14430Y103*
Y260*
X14444Y271*
X14558Y85*
X14580Y260D02*
Y103D01*
X14566Y91*
X14451Y277*
X14467Y290*
X14543*
X14580Y260*
X14587Y266D02*
X14548Y298D01*
X14547Y299*
X14546*
X14545*
X14465*
X14464*
X14463*
X14462Y298*
X14422Y266*
Y265*
X14421Y264*
Y263*
Y262*
Y100*
Y99*
Y98*
X14422Y97*
Y96*
X14462Y64*
X14463*
X14464*
Y63*
X14465*
X14545*
X14546*
X14547Y64*
X14548*
X14587Y96*
X14588Y97*
X14589Y98*
Y99*
Y100*
Y262*
Y263*
Y264*
X14588Y265*
X14587Y266*
X14680Y-10379D02*
Y-10381D01*
X14679Y-10382*
X14677Y-10383*
X14676*
X14674*
X14672Y-10382*
X14671Y-10381*
Y-10379*
Y-10307*
X14660*
X14658*
X14657Y-10306*
X14656Y-10304*
Y-10302*
Y-10301*
X14657Y-10299*
X14658Y-10298*
X14660Y-10297*
X14671*
Y-10159*
Y-10157*
X14672Y-10156*
X14673*
X14674Y-10155*
X14675Y-10154*
X14677*
X14678*
X14679Y-10155*
X14822Y-10299*
X14823Y-10300*
X14824Y-10302*
Y-10303*
X14823Y-10305*
X14822Y-10306*
X14821*
X14820Y-10307*
X14819*
X14680*
Y-10379*
X14770Y64D02*
X14810Y96D01*
X14811Y97*
Y98*
X14812Y99*
Y100*
Y262*
Y263*
X14811Y264*
Y265*
X14810Y266*
X14770Y298*
Y299*
X14769*
X14768*
X14688*
X14687*
X14686*
X14685Y298*
X14645Y266*
X14644Y265*
Y263*
Y262*
Y260*
X14645Y259*
X14646Y258*
X14648*
X14649*
X14650*
X14651*
X14690Y290*
X14766*
X14802Y260*
Y103*
X14766Y73*
X14690*
X14651Y104*
X14650Y105*
X14649*
X14648*
X14646Y104*
X14645Y103*
X14644Y102*
Y100*
Y99*
Y98*
X14645Y96*
X14685Y64*
X14686*
Y63*
X14687*
X14688*
X14768*
X14769*
X14770Y64*
X14807Y-10297D02*
X14680Y-10171D01*
Y-10297*
X14807*
X14882Y-8145D02*
X14890Y-8168D01*
X14882Y-8190*
Y-8191*
Y-8192*
Y-8265*
Y-8266*
Y-8267*
X14883Y-8268*
X14907Y-8293*
X14908Y-8294*
X14909*
X14910*
X14997*
X14998*
X14999*
X15000Y-8293*
X15024Y-8268*
X15025Y-8267*
Y-8265*
Y-8192*
Y-8191*
Y-8190*
X15017Y-8168*
X15025Y-8145*
Y-8143*
Y-8087*
Y-8086*
Y-8085*
X15024Y-8083*
X15000Y-8059*
X14999Y-8058*
X14998*
X14997*
X14910*
X14909*
X14908*
X14907Y-8059*
X14883Y-8083*
X14882Y-8085*
Y-8086*
Y-8087*
Y-8143*
Y-8144*
Y-8145*
X14920Y-10148D02*
X14880Y-10181D01*
X14879Y-10182*
Y-10183*
X14878*
Y-10184*
Y-10217*
Y-10218*
X14879Y-10219*
Y-10220*
X14880Y-10221*
X15037Y-10349*
Y-10374*
X14883*
X14881*
X14880Y-10375*
X14879Y-10377*
Y-10379*
Y-10380*
X14880Y-10382*
X14881Y-10383*
X14883*
X15042*
X15044*
X15045Y-10382*
X15046Y-10381*
X15047Y-10379*
Y-10346*
X15046Y-10344*
Y-10343*
X15045*
Y-10342*
X14888Y-10214*
Y-10187*
X14924Y-10157*
X15001*
X15039Y-10188*
X15041Y-10189*
X15043*
X15044Y-10188*
X15045Y-10186*
X15046Y-10185*
Y-10183*
Y-10182*
X15045Y-10181*
X15005Y-10148*
X15004*
X15003Y-10147*
X15002*
X14923*
X14922*
X14921Y-10148*
X14920*
X15016Y-8193D02*
Y-8263D01*
X14994Y-8284*
X14912*
X14891Y-8263*
Y-8193*
X14898Y-8173*
X15009*
X15016Y-8193*
Y-8089D02*
Y-8143D01*
X15009Y-8163*
X14898*
X14891Y-8143*
Y-8089*
X14912Y-8068*
X14994*
X15016Y-8089*
X15039Y-5045D02*
X15079Y-5013D01*
X15080Y-5012*
Y-5010*
Y-5009*
X15079Y-5007*
X15078Y-5006*
X15077Y-5005*
X15075*
X15074*
X15035Y-5036*
X14959*
X14922Y-5007*
Y-4922*
X14954Y-4948*
X14955*
Y-4949*
X14956*
X14957*
X15036*
X15037*
X15039Y-4948*
X15079Y-4916*
X15080Y-4915*
Y-4914*
X15081Y-4913*
Y-4912*
Y-4847*
Y-4846*
X15080Y-4845*
Y-4844*
X15079Y-4843*
X15039Y-4811*
X15038*
Y-4810*
X15037*
X15036*
X14957*
X14956*
X14955*
Y-4811*
X14954*
X14914Y-4843*
X14913Y-4844*
Y-4845*
Y-4846*
X14912Y-4847*
Y-5009*
X14913Y-5010*
Y-5011*
Y-5012*
X14914Y-5013*
X14954Y-5045*
X14955Y-5046*
X14956*
X14957*
X15036*
X15037*
X15038*
X15039Y-5045*
X15071Y-4849D02*
Y-4909D01*
X15035Y-4939*
X14959*
X14922Y-4909*
Y-4849*
X14959Y-4820*
X15035*
X15071Y-4849*
X15143Y-10148D02*
X15103Y-10181D01*
X15102Y-10182*
Y-10183*
X15101Y-10184*
Y-10217*
X15102Y-10218*
Y-10219*
Y-10220*
X15103Y-10221*
X15260Y-10349*
Y-10374*
X15106*
X15104*
X15103Y-10375*
X15102Y-10377*
Y-10379*
Y-10380*
X15103Y-10382*
X15104Y-10383*
X15106*
X15265*
X15267*
X15268Y-10382*
X15270Y-10381*
Y-10379*
Y-10346*
X15269Y-10344*
Y-10343*
X15268Y-10342*
X15111Y-10214*
Y-10187*
X15148Y-10157*
X15224*
X15263Y-10188*
X15264Y-10189*
X15266*
X15267Y-10188*
X15268Y-10186*
X15269Y-10185*
Y-10183*
Y-10182*
Y-10181*
X15268*
X15228Y-10148*
X15227*
X15226Y-10147*
X15225*
X15146*
X15145*
X15144Y-10148*
X15143*
X15221Y-8284D02*
X15223Y-8285D01*
X15225Y-8286*
Y-8288*
Y-8289*
Y-8291*
Y-8293*
X15223Y-8294*
X15221*
X15129*
X15128*
X15126Y-8293*
Y-8291*
X15125Y-8289*
X15126Y-8288*
Y-8286*
X15128Y-8285*
X15129Y-8284*
X15171*
Y-8063*
Y-8061*
X15172Y-8060*
X15173Y-8059*
X15175*
X15176*
X15177*
X15178*
X15179Y-8060*
X15225Y-8125*
Y-8126*
X15226*
Y-8128*
X15225Y-8129*
X15224Y-8131*
X15222Y-8132*
X15221*
X15220*
X15219*
X15218Y-8130*
X15180Y-8078*
Y-8284*
X15221*
X15262Y-5036D02*
X15264Y-5037D01*
X15265Y-5038*
X15266Y-5039*
Y-5041*
Y-5043*
X15265Y-5045*
X15264Y-5046*
X15262*
X15170*
X15168*
X15167Y-5045*
X15166Y-5043*
Y-5041*
Y-5039*
X15167Y-5038*
X15168Y-5037*
X15170Y-5036*
X15211*
Y-4815*
X15212Y-4813*
Y-4812*
X15214Y-4811*
X15215*
X15216*
X15218*
X15219*
Y-4812*
X15266Y-4877*
Y-4878*
Y-4880*
Y-4881*
X15264Y-4883*
X15263Y-4884*
X15261*
X15260*
X15258Y-4882*
X15221Y-4829*
Y-5036*
X15262*
X15326Y-10237D02*
X15325D01*
Y-10235*
Y-10234*
X15324Y-10233*
Y-10184*
X15325Y-10183*
Y-10182*
X15326Y-10181*
X15366Y-10148*
X15367*
X15368Y-10147*
X15369*
X15488*
X15490Y-10148*
X15492Y-10149*
X15493Y-10150*
X15494Y-10152*
Y-10379*
X15493Y-10381*
X15492Y-10382*
X15490Y-10383*
X15489*
X15487*
X15485Y-10382*
X15484Y-10381*
Y-10379*
Y-10270*
X15373*
X15334Y-10380*
X15333Y-10382*
X15331Y-10383*
X15330*
X15328*
X15327Y-10382*
X15325Y-10381*
Y-10379*
Y-10377*
X15364Y-10267*
X15326Y-10237*
X15351Y-8059D02*
X15312Y-8091D01*
X15311Y-8092*
Y-8093*
X15310Y-8094*
Y-8095*
Y-8127*
Y-8128*
X15311Y-8130*
Y-8131*
X15312*
X15469Y-8259*
Y-8284*
X15315*
X15313Y-8285*
X15312Y-8286*
X15311Y-8288*
Y-8289*
Y-8291*
X15312Y-8293*
X15313Y-8294*
X15315*
X15474*
X15476*
X15477Y-8292*
X15478Y-8291*
X15479Y-8289*
Y-8257*
X15478Y-8256*
Y-8255*
Y-8254*
X15477*
Y-8253*
X15319Y-8125*
Y-8097*
X15356Y-8068*
X15433*
X15471Y-8099*
X15473*
X15474*
X15476*
X15477Y-8097*
X15478Y-8096*
Y-8094*
Y-8092*
X15477*
Y-8091*
X15437Y-8059*
X15436*
X15435Y-8058*
X15434*
X15354*
X15353*
X15352Y-8059*
X15351*
X15392Y-4811D02*
X15352Y-4843D01*
Y-4844*
X15351Y-4845*
Y-4846*
Y-4847*
Y-4879*
Y-4880*
Y-4882*
X15352Y-4883*
X15510Y-5011*
Y-5036*
X15355*
X15354Y-5037*
X15352Y-5038*
Y-5039*
X15351Y-5041*
X15352Y-5043*
Y-5045*
X15354Y-5046*
X15355*
X15515*
X15516*
X15518Y-5044*
X15519Y-5043*
Y-5041*
Y-5009*
Y-5008*
Y-5007*
X15518Y-5006*
Y-5005*
X15517*
X15360Y-4877*
Y-4849*
X15397Y-4820*
X15473*
X15512Y-4851*
X15513*
X15515*
X15516*
X15518Y-4849*
Y-4848*
X15519Y-4846*
X15518Y-4844*
X15517Y-4843*
X15477Y-4811*
X15476*
Y-4810*
X15475*
X15395*
X15394*
X15393Y-4811*
X15392*
X15484Y-10157D02*
X15371D01*
X15334Y-10187*
Y-10231*
X15371Y-10261*
X15484*
Y-10157*
X15535Y-8148D02*
X15534Y-8147D01*
Y-8146*
X15533Y-8145*
Y-8144*
Y-8095*
Y-8094*
X15534Y-8093*
Y-8092*
X15535Y-8091*
X15575Y-8059*
X15576Y-8058*
X15577*
X15578*
X15697*
X15699*
X15701Y-8060*
X15702Y-8061*
Y-8063*
Y-8289*
Y-8291*
X15701Y-8292*
X15699Y-8293*
X15697*
X15696*
X15694Y-8292*
X15693Y-8291*
X15692Y-8289*
Y-8181*
X15581*
X15542Y-8291*
Y-8292*
X15540Y-8293*
X15538Y-8294*
X15537Y-8293*
X15535Y-8292*
X15534Y-8291*
Y-8290*
Y-8288*
X15572Y-8178*
X15535Y-8148*
X15575Y-4900D02*
Y-4899D01*
X15574Y-4898*
Y-4897*
Y-4896*
Y-4847*
Y-4846*
Y-4845*
Y-4844*
X15575*
Y-4843*
X15615Y-4811*
X15617Y-4810*
X15618*
X15738*
X15740*
X15741Y-4812*
X15742Y-4813*
X15743Y-4815*
Y-5041*
X15742Y-5043*
X15741Y-5044*
X15740Y-5045*
X15738*
X15736*
X15734Y-5044*
X15733Y-5043*
Y-5041*
Y-4933*
X15622*
X15583Y-5043*
X15582Y-5044*
X15580Y-5045*
X15579Y-5046*
X15577Y-5045*
X15576Y-5044*
X15575Y-5043*
X15574Y-5042*
Y-5040*
X15613Y-4930*
X15575Y-4900*
X15692Y-8068D02*
X15579D01*
X15542Y-8097*
Y-8141*
X15579Y-8171*
X15692*
Y-8068*
X15733Y-4820D02*
X15620D01*
X15583Y-4849*
Y-4893*
X15620Y-4923*
X15733*
Y-4820*
X16098Y-5487D02*
X16097Y-5489D01*
X16096Y-5491*
X16094*
X16093*
X16091*
X16090*
X16089Y-5489*
X16088Y-5487*
Y-5416*
X16077*
X16075Y-5415*
X16074Y-5414*
X16073Y-5413*
Y-5411*
Y-5409*
X16074Y-5408*
X16075Y-5406*
X16077*
X16088*
Y-5267*
Y-5266*
X16089Y-5265*
X16090Y-5264*
X16091*
X16093Y-5263*
X16094*
X16095*
X16096Y-5264*
X16240Y-5407*
X16241Y-5409*
Y-5410*
Y-5412*
X16240Y-5413*
Y-5414*
X16239Y-5415*
X16238Y-5416*
X16236*
X16098*
Y-5487*
X16138Y-10388D02*
X16140Y-10389D01*
X16141*
X16142Y-10391*
Y-10393*
Y-10395*
X16141Y-10396*
X16140Y-10397*
X16138Y-10398*
X16046*
X16045Y-10397*
X16043Y-10396*
Y-10395*
X16042Y-10393*
X16043Y-10391*
Y-10389*
X16045*
X16046Y-10388*
X16088*
Y-10166*
Y-10165*
X16089Y-10163*
X16090*
X16092Y-10162*
X16093*
X16094*
X16095Y-10163*
X16096Y-10164*
X16142Y-10228*
Y-10229*
X16143Y-10230*
Y-10232*
X16142Y-10233*
X16141Y-10234*
X16139Y-10235*
X16138Y-10236*
X16137*
X16136Y-10235*
X16135Y-10234*
X16097Y-10181*
Y-10388*
X16138*
X16213Y-5160D02*
Y-5162D01*
Y-5163*
X16212Y-5165*
X16210Y-5166*
X16209*
X16207*
X16206*
X16205Y-5164*
X16077Y-4938*
Y-4937*
Y-4936*
Y-4935*
Y-4934*
X16078Y-4932*
X16079Y-4931*
X16080*
X16081*
X16241*
X16242*
X16244Y-4932*
Y-4934*
X16245Y-4936*
X16244Y-4937*
Y-4939*
X16242Y-4940*
X16241*
X16089*
X16213Y-5160*
X16225Y-5406D02*
X16098Y-5280D01*
Y-5406*
X16225*
X16268Y-10162D02*
X16229Y-10195D01*
X16228Y-10196*
Y-10197*
X16227Y-10198*
Y-10199*
Y-10231*
Y-10232*
X16228Y-10233*
Y-10234*
X16229Y-10235*
X16386Y-10363*
Y-10388*
X16232*
X16230Y-10389*
X16229*
X16228Y-10391*
Y-10393*
Y-10395*
X16229Y-10396*
X16230Y-10397*
X16232Y-10398*
X16391*
X16393Y-10397*
X16394Y-10396*
X16395Y-10395*
X16396Y-10393*
Y-10361*
X16395Y-10360*
Y-10358*
X16394*
Y-10357*
X16236Y-10229*
Y-10201*
X16273Y-10171*
X16350*
X16388Y-10203*
X16390*
X16391*
X16393Y-10202*
X16394Y-10201*
X16395Y-10199*
Y-10198*
Y-10196*
X16394Y-10195*
X16354Y-10162*
X16353*
X16352*
X16351Y-10161*
X16271*
X16270Y-10162*
X16269*
X16268*
X16426Y-5157D02*
X16428Y-5158D01*
X16429Y-5159*
X16430Y-5160*
Y-5162*
Y-5164*
X16429Y-5166*
X16428Y-5167*
X16426*
X16334*
X16332*
X16331Y-5166*
X16330Y-5164*
Y-5162*
Y-5160*
X16331Y-5159*
X16332Y-5158*
X16334Y-5157*
X16376*
Y-4935*
Y-4934*
X16377Y-4933*
X16378Y-4932*
X16379*
X16381Y-4931*
X16382*
X16383Y-4932*
X16384Y-4933*
X16430Y-4998*
Y-4999*
Y-5001*
Y-5002*
X16429Y-5003*
X16427Y-5004*
X16425Y-5005*
X16424*
X16423Y-5003*
X16385Y-4950*
Y-5157*
X16426*
X16433Y-5471D02*
X16418Y-5483D01*
X16342*
X16305Y-5453*
Y-5295*
X16319Y-5284*
X16433Y-5471*
X16454Y-5295D02*
Y-5453D01*
X16441Y-5465*
X16326Y-5278*
X16342Y-5266*
X16418*
X16454Y-5295*
X16462Y-5289D02*
X16422Y-5257D01*
X16421*
Y-5256*
X16420*
X16340*
X16339*
X16338Y-5257*
X16337*
X16297Y-5289*
X16296Y-5290*
Y-5291*
Y-5292*
Y-5293*
Y-5455*
Y-5456*
Y-5457*
Y-5458*
X16297Y-5459*
X16337Y-5491*
X16338*
X16339Y-5492*
X16340*
X16420*
X16421*
X16422Y-5491*
X16462Y-5459*
X16463Y-5458*
Y-5457*
X16464Y-5456*
Y-5455*
Y-5293*
Y-5292*
X16463Y-5291*
Y-5290*
X16462Y-5289*
X16492Y-10162D02*
X16452Y-10195D01*
X16451Y-10196*
Y-10197*
X16450Y-10198*
Y-10199*
Y-10231*
Y-10232*
X16451Y-10233*
Y-10234*
X16452Y-10235*
X16609Y-10363*
Y-10388*
X16455*
X16453Y-10389*
X16452*
X16451Y-10391*
Y-10393*
Y-10395*
X16452Y-10396*
X16453Y-10397*
X16455Y-10398*
X16614*
X16616Y-10397*
X16617Y-10396*
X16618Y-10395*
X16619Y-10393*
Y-10361*
Y-10360*
X16618Y-10358*
X16617Y-10357*
X16460Y-10229*
Y-10201*
X16497Y-10171*
X16573*
X16611Y-10203*
X16613*
X16615*
X16616Y-10202*
X16617Y-10201*
X16618Y-10199*
Y-10198*
Y-10196*
X16617Y-10195*
X16577Y-10162*
X16576*
X16575*
X16574Y-10161*
X16495*
X16494Y-10162*
X16493*
X16492*
X16556Y-4932D02*
X16516Y-4964D01*
Y-4965*
X16515Y-4966*
Y-4967*
Y-4968*
Y-5000*
Y-5001*
Y-5003*
X16516Y-5004*
X16674Y-5132*
Y-5157*
X16519*
X16518Y-5158*
X16516Y-5159*
Y-5160*
X16515Y-5162*
X16516Y-5164*
Y-5166*
X16518*
X16519Y-5167*
X16679*
X16681Y-5166*
X16682Y-5165*
X16683Y-5164*
Y-5162*
Y-5130*
Y-5129*
Y-5127*
X16682*
Y-5126*
X16681*
X16524Y-4998*
Y-4970*
X16561Y-4940*
X16637*
X16676Y-4972*
X16677*
X16679*
X16681Y-4971*
X16682Y-4970*
Y-4969*
X16683Y-4967*
X16682Y-4965*
Y-4964*
X16681*
X16642Y-4932*
X16641Y-4931*
X16640*
X16639*
X16559*
X16558*
X16557*
X16556Y-4932*
X16560Y-5257D02*
X16520Y-5289D01*
Y-5290*
X16519Y-5291*
Y-5292*
Y-5293*
Y-5325*
Y-5326*
Y-5328*
X16520Y-5329*
X16678Y-5457*
Y-5483*
X16523*
X16522*
X16520Y-5484*
Y-5486*
X16519Y-5487*
X16520Y-5489*
Y-5491*
X16522Y-5492*
X16523*
X16683*
X16685*
X16686Y-5491*
X16687Y-5489*
Y-5487*
Y-5455*
Y-5454*
Y-5453*
X16686Y-5452*
X16685Y-5451*
X16528Y-5323*
Y-5295*
X16565Y-5266*
X16641*
X16680Y-5297*
X16681Y-5298*
X16683Y-5297*
X16685*
X16686Y-5295*
Y-5294*
X16687Y-5292*
X16686Y-5290*
X16685Y-5289*
X16646Y-5257*
X16645*
X16644Y-5256*
X16643*
X16563*
X16562*
X16561Y-5257*
X16560*
X16675Y-10251D02*
X16674D01*
Y-10250*
X16673Y-10248*
Y-10247*
Y-10199*
Y-10197*
X16674*
Y-10196*
X16675*
Y-10195*
X16715Y-10162*
X16716*
X16717*
X16718Y-10161*
X16837*
X16839Y-10162*
X16841Y-10163*
X16842Y-10165*
Y-10166*
Y-10393*
Y-10395*
X16841Y-10396*
X16839Y-10397*
X16838*
X16836*
X16834Y-10396*
X16833Y-10395*
X16832Y-10393*
Y-10284*
X16721*
X16683Y-10394*
X16682Y-10396*
X16680Y-10397*
X16678*
X16677*
X16675Y-10396*
X16674Y-10395*
Y-10393*
Y-10391*
X16713Y-10281*
X16675Y-10251*
X16739Y-5020D02*
X16738Y-5019D01*
Y-5018*
Y-5016*
Y-4968*
Y-4967*
Y-4966*
Y-4965*
X16739*
Y-4964*
X16780Y-4932*
X16781Y-4931*
X16782*
X16783*
X16902*
X16904*
X16905Y-4932*
X16906Y-4934*
X16907Y-4935*
Y-5162*
X16906Y-5164*
X16905Y-5165*
X16904Y-5166*
X16902*
X16900*
X16899Y-5165*
X16897Y-5164*
Y-5162*
Y-5054*
X16786*
X16747Y-5164*
X16746Y-5165*
X16745Y-5166*
X16743*
X16741*
X16740Y-5165*
X16739Y-5164*
X16738Y-5162*
Y-5161*
X16777Y-5050*
X16739Y-5020*
X16750Y-5491D02*
X16764Y-5475D01*
X16784Y-5491*
X16785Y-5492*
X16786*
X16787*
X16866*
X16867*
X16868*
X16869Y-5491*
X16909Y-5459*
Y-5458*
X16910Y-5457*
Y-5456*
X16911Y-5455*
Y-5293*
X16910Y-5292*
Y-5291*
Y-5290*
X16909Y-5289*
X16869Y-5257*
X16868*
X16867Y-5256*
X16866*
X16786*
X16785*
X16784Y-5257*
X16783*
X16744Y-5289*
X16743Y-5290*
Y-5291*
X16742Y-5292*
Y-5293*
Y-5455*
Y-5456*
X16743Y-5457*
Y-5458*
X16744Y-5459*
X16755Y-5469*
X16743Y-5484*
X16742Y-5486*
Y-5487*
X16743Y-5489*
X16744Y-5491*
X16746*
X16747Y-5492*
X16748*
X16749*
X16750Y-5491*
X16797Y-5433D02*
X16798Y-5432D01*
Y-5431*
Y-5430*
X16797Y-5428*
X16796Y-5427*
X16795Y-5426*
X16793Y-5425*
X16791Y-5426*
X16789Y-5427*
X16762Y-5461*
X16751Y-5453*
Y-5295*
X16788Y-5266*
X16865*
X16901Y-5295*
Y-5453*
X16865Y-5483*
X16788*
X16770Y-5467*
X16797Y-5433*
X16832Y-10171D02*
X16720D01*
X16683Y-10201*
Y-10245*
X16720Y-10275*
X16832*
Y-10171*
X16897Y-4940D02*
X16784D01*
X16747Y-4970*
Y-5014*
X16784Y-5044*
X16897*
Y-4940*
G54D12*
X-22169Y-5126D02*
X-22480D01*
Y4480*
X-22281*
X-22480*
Y-5126*
X-22169*
X-16358Y-7087D02*
X-15571D01*
Y-5748*
X-16358*
Y-7087*
X-15472D02*
X-14685D01*
Y-5748*
X-15472*
Y-7087*
Y5020D02*
X-14134D01*
Y5807*
X-15472*
Y5020*
X-15453Y5945D02*
X-14114D01*
Y6732*
X-15453*
Y5945*
X-10856Y6093D02*
X-10069D01*
Y7431*
X-10856*
Y6093*
X-7559Y9752D02*
Y10835D01*
X-17165*
Y9756*
Y10835*
X-7559*
Y9752*
X-7520Y8031D02*
X-17126D01*
Y9095*
Y8031*
X-7520*
Y9114*
Y8031*
X-7461Y-3465D02*
X-6122D01*
Y-2677*
X-7461*
Y-3465*
Y-2559D02*
X-6122D01*
Y-1772*
X-7461*
Y-2559*
X-7382Y1260D02*
X-6043D01*
Y2047*
X-7382*
Y1260*
X-6988Y-531D02*
X-6201D01*
Y807*
X-6988*
Y-531*
X-4626Y-1516D02*
Y-2697D01*
X-4193Y-3130*
X-3839*
X-3406Y-2697*
Y-1516*
X-4626*
X-4232Y-1417D02*
X-3445D01*
Y-79*
X-4232*
Y-1417*
X-3642Y-6378D02*
X-2303D01*
Y-5591*
X-3642*
Y-6378*
Y-5453D02*
X-2303D01*
Y-4665*
X-3642*
Y-5453*
Y-4567D02*
X-2303D01*
Y-3780*
X-3642*
Y-4567*
X-2244Y39D02*
X-906D01*
Y827*
X-2244*
Y39*
Y945D02*
X-906D01*
Y1732*
X-2244*
Y945*
X-2106Y-4941D02*
X-768D01*
Y-4154*
X-2106*
Y-4941*
Y-4035D02*
X-768D01*
Y-3248*
X-2106*
Y-4035*
X945Y-3248D02*
X-236D01*
X-669Y-3681*
Y-4035*
X-236Y-4469*
X945*
Y-3248*
X1043Y-4587D02*
X1831D01*
Y-3248*
X1043*
Y-4587*
X1949D02*
X2736D01*
Y-3248*
X1949*
Y-4587*
X2165Y-8642D02*
X-709D01*
Y-7064*
Y-8642*
X2165*
Y-5138*
X-709*
Y-6480*
Y-5138*
X2165*
Y-8642*
X4291Y-10197D02*
X5079D01*
Y-8858*
X4291*
Y-10197*
X5354Y-7638D02*
X6142D01*
Y-6299*
X5354*
Y-7638*
X5591Y-10079D02*
X6929D01*
Y-9291*
X5591*
Y-10079*
X6260Y-7638D02*
X7047D01*
Y-6299*
X6260*
Y-7638*
X7047Y-10079D02*
X8386D01*
Y-9291*
X7047*
Y-10079*
X7165Y-7638D02*
X7953D01*
Y-6299*
X7165*
Y-7638*
X8071D02*
X8858D01*
Y-6299*
X8071*
Y-7638*
X8219Y-128D02*
X9006D01*
Y1211*
X8219*
Y-128*
X8976Y-7638D02*
X9764D01*
Y-6299*
X8976*
Y-7638*
X9213Y-128D02*
X10000D01*
Y1211*
X9213*
Y-128*
X9882Y-7638D02*
X10669D01*
Y-6299*
X9882*
Y-7638*
X10079Y-10079D02*
X11417D01*
Y-9291*
X10079*
Y-10079*
X10512Y5437D02*
X12323D01*
Y6343*
X10512*
Y5437*
Y7563D02*
X12323D01*
Y8469*
X10512*
Y7563*
X10787Y-7638D02*
X11575D01*
Y-6299*
X10787*
Y-7638*
X11575Y-10079D02*
X12913D01*
Y-9291*
X11575*
Y-10079*
X11693Y-7638D02*
X12480D01*
Y-6299*
X11693*
Y-7638*
X12047Y2264D02*
X13386D01*
Y3051*
X12047*
Y2264*
X12579Y-7638D02*
X13366D01*
Y-6299*
X12579*
Y-7638*
X12992Y3996D02*
X14803D01*
Y4902*
X12992*
Y3996*
X13465Y-6476D02*
X14803D01*
Y-5689*
X13465*
Y-6476*
X13524Y-6594D02*
Y-7776D01*
X13957Y-8209*
X14311*
X14744Y-7776*
Y-6594*
X13524*
X13996Y394D02*
X14783D01*
Y1732*
X13996*
Y394*
X14390Y-10079D02*
X15728D01*
Y-9291*
X14390*
Y-10079*
X14921Y-7953D02*
X15709D01*
Y-6614*
X14921*
Y-7953*
Y-6496D02*
X15709D01*
Y-5157*
X14921*
Y-6496*
X15827Y-6476D02*
X17165D01*
Y-5689*
X15827*
Y-6476*
X15846Y-10079D02*
X17185D01*
Y-9291*
X15846*
Y-10079*
X15886Y-6594D02*
Y-7776D01*
X16319Y-8209*
X16673*
X17106Y-7776*
Y-6594*
X15886*
M02*
