*
G04 Job   : X:\MG\projects\L02-0101\PCB\L02-0101.pcb*
G04 User  : DESKTOP-LPE9H33:User*
G04 Layer : L02-0101_11_L2.gbr*
G04 Date  : Tue Mar 14 15:44:52 2017*
%ICAS*%
%MOIN*%
%FSLAX24Y24*%
%OFA0.0000B0.0000*%
G90*
G74*
%AMVB_RECTANGLE*
21,1,$1,$2,0,0,$3*
%
%AMVB_RCRECTANGLE*
$3=$3X2*
21,1,$1-$3,$2,0,0,0*
21,1,$1,$2-$3,0,0,0*
$1=$1/2*
$2=$2/2*
$3=$3/2*
$1=$1-$3*
$2=$2-$3*
1,1,$3X2,0-$1,0-$2*
1,1,$3X2,0-$1,$2*
1,1,$3X2,$1,$2*
1,1,$3X2,$1,0-$2*
%
%ADD15C,0.00591*%
%ADD14C,0.00787*%
%ADD16C,0.01181*%
%ADD13C,0.01575*%
%ADD19C,0.01772*%
%ADD17C,0.02362*%
%ADD18C,0.03150*%
%ADD70C,0.03543*%
%ADD10C,0.03937*%
%ADD33C,0.04724*%
%ADD11C,0.04921*%
%ADD12C,0.05906*%
%ADD22C,0.06299*%
%ADD28C,0.07087*%
%ADD21C,0.09449*%
%ADD72VB_RECTANGLE,0.04921X0.04921X180.00000*%
%ADD29VB_RECTANGLE,0.05906X0.05906X270.00000*%
%ADD27VB_RECTANGLE,0.07087X0.07087X90.00000*%
%ADD20VB_RECTANGLE,0.09843X0.09843X270.00000*%
%ADD23VB_RECTANGLE,0.15354X0.09843X0.00000*%
%ADD71VB_RECTANGLE,0.15354X0.09843X270.00000*%
%ADD73VB_RCRECTANGLE,0.05276X0.02362X0.00787*%
%ADD30VB_RCRECTANGLE,0.02362X0.05276X0.00787*%
%ADD24VB_RCRECTANGLE,0.05709X0.04331X0.01181*%
%ADD25VB_RCRECTANGLE,0.04331X0.05709X0.01181*%
%ADD26VB_RCRECTANGLE,0.04724X0.07087X0.01575*%
%ADD32VB_RCRECTANGLE,0.04921X0.07087X0.01181*%
%ADD31VB_RCRECTANGLE,0.14961X0.07874X0.01969*%
G01*
G36*
X-22579Y4331D02*
G03X-22618Y4370I39D01*
G01X-33346*
G03X-33386Y4331J39*
G01Y512*
G03X-33346Y472I40*
G01X-22691*
G03X-22652Y512J40*
X-22664Y540I39*
G01X-22799Y675*
G02X-22819Y700I97J98*
G03X-22832Y713I33J21*
G02X-22958Y933I130J220*
X-22702Y1189I256*
X-22629Y1178J256*
G03X-22618Y1177I11J38*
X-22579Y1216J39*
G01Y1608*
G03X-22618Y1648I39*
G01X-22735*
G03X-22746Y1646J40*
G02X-22785Y1640I39J132*
G01X-22864*
G03X-22895Y1625J39*
G02X-23100Y1522I205J153*
X-23356Y1778J256*
X-23100Y2034I256*
X-22895Y1932J256*
G03X-22864Y1916I31J23*
G01X-22828*
G03X-22817Y1918J39*
G02X-22778Y1923I39J133*
G01X-22618*
G03X-22579Y1963J40*
G01Y2431*
G03X-22618Y2471I39*
X-22655Y2445J40*
G02X-22894Y2282I239J93*
X-23149Y2538J256*
X-22894Y2794I255*
X-22857Y2791J256*
G03X-22852I5J39*
X-22824Y2802J39*
G01X-22644Y2982*
G03X-22633Y3010I28J28*
G01Y3048*
G02X-22593Y3146I138*
G01X-22590Y3148*
G03X-22579Y3176I28J28*
G01Y4331*
X-17224Y-5000D02*
G02X-17185Y-4961I39D01*
G01X-16756*
Y-5776*
G03X-16500Y-6032I256*
X-16386Y-6005J256*
G02X-16368Y-6001I18J35*
X-16329Y-6040J39*
G01Y-6870*
G03X-16132Y-7067I197*
G01X-15797*
G03X-15600Y-6870J197*
G01Y-6673*
G03X-15797Y-6476I197*
G01X-16132*
G03X-16329Y-6673J197*
G01Y-6161*
G03X-16132Y-6358I197*
G01X-15797*
G03X-15612Y-6227J197*
G02X-15575Y-6201I37J13*
G01X-15469*
G02X-15443Y-6210J39*
G01Y-6870*
G03X-15246Y-7067I197*
G01X-14911*
G03X-14726Y-6936J197*
G02X-14689Y-6909I37J13*
G01X-13484*
G02X-13456Y-6921J40*
G01X-13243Y-7135*
G02X-13231Y-7163I27J28*
G01Y-9582*
G03X-13191Y-9680I138*
G01X-12526Y-10345*
G03X-12428Y-10385I98J98*
G01X-7730*
G02X-7698Y-10401J39*
G03X-7494Y-10503I204J154*
X-7238Y-10247J256*
X-7494Y-9991I256*
X-7698Y-10094J256*
G02X-7730Y-10109I32J24*
G01X-12355*
G02X-12383Y-10098J39*
G01X-12944Y-9537*
G02X-12955Y-9509I28J28*
G01Y-7089*
G03X-12996Y-6992I138*
G01X-13313Y-6674*
G03X-13411Y-6634I98J98*
G01X-13619*
G02X-13658Y-6594J40*
X-13646Y-6566I39*
G03X-13541Y-6319I240J247*
X-13886Y-5974I345*
X-14230Y-6319J345*
X-14126Y-6566I344*
G02X-14114Y-6594I27J28*
X-14153Y-6634I39*
G01X-14689*
G02X-14726Y-6608J40*
G03X-14911Y-6476I185J65*
G01X-15246*
G03X-15443Y-6673J197*
G01Y-6210*
G02X-15432Y-6227I26J30*
G03X-15246Y-6358I186J66*
G01X-14911*
G03X-14715Y-6161J197*
G01Y-5965*
G03X-14911Y-5768I196*
G01X-15246*
G03X-15432Y-5899J197*
G02X-15469Y-5925I37J13*
G01X-15575*
G02X-15612Y-5899J39*
G03X-15797Y-5768I185J66*
G01X-16118*
G02X-16145Y-5756J40*
G01X-16223Y-5679*
G03X-16270Y-5648I97J97*
G02X-16288Y-5633I15J37*
G03X-16500Y-5520I212J143*
X-16756Y-5776J256*
G01Y-4961*
X-13211*
Y-6565*
G03X-13132Y-6644I79*
G01X-12872*
Y-9252*
G03X-12528Y-9596I344*
X-12183Y-9252J344*
X-12528Y-8907I345*
X-12872Y-9252J345*
G01Y-6644*
X-12640*
G03X-12561Y-6565J79*
G01Y-6073*
G03X-12640Y-5994I79*
G01X-13132*
G03X-13211Y-6073J79*
G01Y-4961*
X-11852*
Y-9498*
G03X-11774Y-9577I78*
G01X-11281*
G03X-11203Y-9498J79*
G01Y-9006*
G03X-11281Y-8927I78*
G01X-11774*
G03X-11852Y-9006J79*
G01Y-4961*
X-10531*
X-10512Y5118*
X-14131*
G02X-14171Y5157J39*
X-14168Y5172I40*
G03X-14154Y5246I182J74*
G01Y5581*
G03X-14285Y5766I196*
G02X-14311Y5803I13J37*
G01Y5805*
G02X-14307Y5823I39*
G03X-14291Y5886I122J63*
G01Y5949*
G02X-14265Y5986I39*
G03X-14137Y6135I66J185*
G02X-14099Y6167I38J8*
X-14079Y6162J40*
G03X-13955Y6130I124J223*
X-13699Y6385J255*
X-13955Y6641I256*
X-14104Y6594J256*
G02X-14127Y6586I23J32*
X-14161Y6606J40*
G03X-14331Y6703I170J100*
G01X-14528*
G03X-14724Y6506J197*
G01Y6171*
G03X-14593Y5986I196*
G02X-14567Y5949I13J37*
G01Y5947*
G02X-14571Y5929I39*
G03X-14587Y5866I122J63*
G01Y5803*
G02X-14613Y5766I39*
G03X-14744Y5581I66J185*
G01Y5246*
G03X-14730Y5172I197*
G02X-14727Y5157I36J15*
X-14766Y5118I39*
G01X-14840*
G02X-14879Y5157J39*
X-14877Y5172I39*
G03X-14862Y5246I182J74*
G01Y5581*
G03X-15059Y5778I197*
G01X-15256*
G03X-15453Y5581J197*
G01Y5246*
G03X-15438Y5172I197*
G02X-15436Y5157I37J15*
X-15475Y5118I39*
G01X-17087*
G02X-17126Y5157J39*
G01Y8006*
G02X-17087Y8045I39*
X-17071Y8042J39*
G03X-17039Y8035I32J72*
G01X-16120*
G02X-16102Y8031J39*
G01X-15433*
Y6171*
G03X-15236Y5974I197*
G01X-15039*
G03X-14843Y6171J197*
G01Y6506*
G03X-14974Y6691I196*
G02X-15000Y6729I13J38*
G01Y6816*
G02X-14986Y6846I39*
G03X-14897Y7040I167J194*
X-15153Y7296I256*
X-15409Y7040J256*
X-15293Y6826I256*
G02X-15276Y6793I22J33*
G01Y6729*
G02X-15302Y6691I39*
G03X-15433Y6506I66J185*
G01Y8031*
X-14531*
G02X-14492Y7992J39*
X-14502Y7966I39*
G03X-14566Y7796I192J170*
X-14310Y7540I256*
X-14055Y7796J256*
X-14119Y7966I255*
G02X-14129Y7992I29J26*
X-14090Y8031I39*
G01X-12602*
G02X-12562Y7992J39*
X-12567Y7974I40*
G03X-12597Y7854I226J120*
X-12341Y7598I256*
X-12085Y7854J256*
X-12114Y7974I256*
G02X-12119Y7992I34J18*
X-12080Y8031I39*
G01X-10827*
Y6309*
G03X-10638Y6112I197*
G02X-10600Y6073I2J39*
G01Y5989*
G03X-10560Y5891I137*
G01X-10549Y5881*
G02X-10538Y5853I28J28*
Y5847I39*
G03X-10541Y5811I253J36*
X-10285Y5555I256*
X-10080Y5658J256*
G02X-10049Y5673I31J24*
G01X-9940*
G02X-9912Y5662J39*
G01X-9770Y5520*
G03X-9673Y5480I97J97*
G01X-9118*
Y-1661*
G03X-9078Y-1759I138*
G01X-8574Y-2263*
G03X-8476Y-2303I98J98*
G01X-8183*
Y-8757*
G03X-7927Y-9013I256*
X-7722Y-8911J256*
G02X-7691Y-8895I31J23*
G01X-7129*
G03X-7032Y-8855J138*
G01X-6933Y-8756*
G02X-6905Y-8744I28J28*
G01X-6599*
G02X-6568Y-8760J40*
G03X-6363Y-8862I205J154*
X-6107Y-8606J256*
X-6363Y-8351I256*
X-6568Y-8453J255*
G02X-6599Y-8469I31J24*
G01X-6978*
G03X-7076Y-8509J137*
G01X-7175Y-8608*
G02X-7202Y-8619I27J28*
G01X-7691*
G02X-7722Y-8604J39*
G03X-7927Y-8501I205J153*
X-8183Y-8757J256*
G01Y-2303*
X-7888*
Y-3043*
G03X-7632Y-3299I256*
X-7495Y-3259J256*
G02X-7474Y-3253I21J33*
X-7436Y-3283J39*
G03X-7244Y-3435I192J45*
G01X-7047*
G03X-6850Y-3238J197*
G01Y-2904*
G03X-7047Y-2707I197*
G01X-7244*
G03X-7423Y-2821J197*
G02X-7458Y-2843I35J17*
X-7481Y-2836J39*
G03X-7632Y-2787I151J207*
X-7888Y-3043J256*
G01Y-2303*
X-7480*
G02X-7441Y-2341J40*
G03X-7244Y-2530I197J8*
G01X-7047*
G03X-6850Y-2333J197*
G01Y-1998*
G03X-7047Y-1801I197*
G01X-7244*
G03X-7441Y-1990J197*
G02X-7480Y-2028I39J2*
G01X-8403*
G02X-8431Y-2016J40*
G01X-8831Y-1616*
G02X-8842Y-1588I28J28*
G01Y-1290*
G02X-8803Y-1250I39*
X-8765Y-1279J40*
G03X-8386Y-1567I379J106*
X-7992Y-1173J394*
X-8386Y-780I394*
X-8765Y-1067J393*
G02X-8803Y-1096I38J10*
X-8842Y-1057J39*
G01Y159*
G02X-8831Y187I39*
G01X-8760Y258*
Y-173*
G03X-8386Y-547I374*
X-8012Y-173J374*
X-8386Y201I374*
X-8760Y-173J374*
G01Y258*
X-8577Y441*
G02X-8549Y453I28J28*
G01X-8091*
G03X-8012Y531J78*
G01Y1122*
G03X-8091Y1201I79*
G01X-8681*
G03X-8760Y1122J79*
G01Y664*
G02X-8771Y636I39*
G01X-9078Y330*
G03X-9118Y233I98J97*
G01Y5480*
X-8115*
G02X-8083Y5464J40*
G03X-7879Y5362I204J153*
X-7780Y5382J255*
G01Y-1173*
G03X-7386Y-1567I394*
X-6992Y-1173J394*
X-7386Y-780I394*
X-7780Y-1173J393*
G01Y5382*
G03X-7760Y5391I99J235*
G01Y827*
G03X-7386Y453I374*
X-7067Y632J374*
G02X-7033Y651I34J21*
X-7005Y639J40*
G01X-6970Y604*
G02X-6959Y576I28J28*
G01Y394*
G03X-6762Y197I197*
G01X-6427*
G03X-6405Y198J197*
G02X-6401I4J39*
X-6361Y159J39*
X-6373Y131I40*
G01X-6414Y90*
G02X-6441Y79I27J28*
G01X-6762*
G03X-6952Y-66J197*
G02X-6990Y-95I38J11*
X-7027Y-67J40*
G03X-7386Y201I359J106*
X-7760Y-173J374*
X-7386Y-547I374*
X-7035Y-303J374*
G02X-6998Y-277I37J13*
X-6959Y-316J39*
G03X-6762Y-512I197J1*
G01X-6427*
G03X-6236Y-364J197*
G02X-6198Y-334I38J9*
X-6173Y-343J39*
G03X-6010Y-402I163J197*
X-5867Y-359J256*
G02X-5845Y-352I22J32*
X-5810Y-375J39*
G03X-5453Y-602I357J166*
X-5199Y-510J393*
G02X-5174Y-501I25J30*
X-5135Y-540J39*
G01Y-903*
G02X-5174Y-943I39*
X-5201Y-932J40*
G03X-5453Y-835I252J277*
X-5827Y-1209J374*
X-5808Y-1325I374*
G02X-5806Y-1338I37J13*
X-5845Y-1377I39*
G01X-5855*
G03X-5953Y-1417J138*
G01X-6325Y-1790*
G02X-6353Y-1801I28J28*
G01X-6535*
G03X-6732Y-1998J197*
G01Y-2333*
G03X-6535Y-2530I197*
G01X-6339*
G03X-6142Y-2333J197*
G01Y-2012*
G02X-6130Y-1985I40*
G01X-5810Y-1664*
G02X-5782Y-1653I28J28*
G01X-5759*
G03X-5662Y-1612J138*
G01X-5619Y-1570*
G02X-5592Y-1559I27J28*
X-5578Y-1561J39*
G03X-5453Y-1583I125J352*
X-5201Y-1485J374*
G02X-5174Y-1475I27J29*
X-5135Y-1514J39*
G01Y-1903*
G02X-5174Y-1943I39*
X-5201Y-1932J40*
G03X-5453Y-1835I252J277*
X-5827Y-2209J374*
X-5808Y-2325I374*
G02X-5806Y-2338I37J13*
X-5845Y-2377I39*
G01X-5881*
G03X-5978Y-2417J138*
G01X-6261Y-2700*
G02X-6289Y-2712I28J27*
X-6297Y-2711J39*
G03X-6339Y-2707I42J193*
G01X-6535*
G03X-6732Y-2904J197*
G01Y-3238*
G03X-6535Y-3435I197*
G01X-6339*
G03X-6142Y-3238J197*
G01Y-2987*
G02X-6130Y-2959I40*
G01X-5835Y-2664*
G02X-5808Y-2653I27J28*
G01X-5759*
G03X-5662Y-2612J138*
G01X-5619Y-2570*
G02X-5592Y-2559I27J28*
X-5578Y-2561J39*
G03X-5453Y-2583I125J352*
X-5201Y-2485J374*
G02X-5174Y-2475I27J29*
X-5135Y-2514J39*
G01Y-2741*
G02X-5146Y-2769I39*
G01X-5708Y-3331*
G02X-5720Y-3339I28J28*
G03X-5872Y-3573I104J234*
X-5616Y-3829I256*
X-5382Y-3677J256*
G02X-5374Y-3665I36J16*
G01X-4882Y-3173*
Y-6772*
G03X-4567Y-7087I315*
X-4334Y-6984J315*
G01Y-8094*
G03X-4019Y-8409I315*
X-3704Y-8094J315*
X-4019Y-7779I315*
X-4334Y-8094J315*
G01Y-6984*
G03X-4252Y-6772I233J212*
X-4567Y-6457I315*
X-4882Y-6772J315*
G01Y-3173*
X-4731Y-3023*
G03X-4662Y-2856I167J167*
G01Y-2167*
G02X-4623Y-2128I39*
X-4588Y-2148J39*
G03X-4449Y-2232I139J73*
G01X-4370*
G03X-4228Y-2143J157*
G02X-4193Y-2121I35J18*
X-4154Y-2161J40*
G01Y-2430*
G02X-4165Y-2458I39*
G03X-4213Y-2571I110J113*
G01Y-2887*
G02X-4224Y-2915I39*
G01X-4404Y-3095*
G02X-4427Y-3106I28J28*
G03X-4653Y-3360I30J254*
X-4397Y-3616I256*
X-4394J256*
G01X-4393*
G02X-4354Y-3656J40*
Y-3658I39*
G03Y-3674I256J16*
X-4334Y-3773I256*
G01Y-5449*
G03X-4019Y-5764I315*
X-3704Y-5449J315*
X-3715Y-5368I315*
G02X-3716Y-5358I38J10*
X-3705Y-5330I39*
G01X-3669Y-5294*
G02X-3641Y-5283I28J28*
X-3605Y-5306J39*
G03X-3491Y-5412I180J80*
G02X-3465Y-5449I13J37*
G01Y-5594*
G02X-3491Y-5631I39*
G03X-3622Y-5817I66J186*
G01Y-6152*
G03X-3425Y-6348I197*
G01X-3228*
G03X-3031Y-6152J196*
G01Y-5817*
G03X-3163Y-5631I197*
G02X-3189Y-5594I13J37*
G01Y-5449*
G02X-3163Y-5412I39*
G03X-3031Y-5226I65J186*
G01Y-4892*
G03X-3228Y-4695I197*
G01X-3425*
G03X-3622Y-4886J197*
G02X-3654Y-4924I39J1*
G03X-3726Y-4962I25J135*
G01X-3900Y-5135*
G02X-3927Y-5146I27J28*
X-3938Y-5145J39*
G03X-4019Y-5134I81J304*
X-4334Y-5449J315*
G01Y-3773*
G03X-4098Y-3930I236J99*
X-3842Y-3674J256*
X-3855Y-3595I256*
G02X-3857Y-3583I38J12*
X-3845Y-3555I40*
G01X-3745Y-3456*
G02X-3717Y-3444I28J27*
X-3712J39*
G03X-3676Y-3447I36J253*
X-3622Y-3441J256*
G01Y-4341*
G03X-3425Y-4537I197*
G01X-3228*
G03X-3031Y-4341J196*
G01Y-4006*
G03X-3228Y-3809I197*
G01X-3425*
G03X-3622Y-4006J197*
G01Y-3441*
G03X-3420Y-3191I54J250*
X-3676Y-2935I256*
X-3766Y-2952J256*
G02X-3780Y-2954I14J37*
X-3819Y-2915J39*
G01Y-2571*
G03X-3866Y-2458I157*
G02X-3878Y-2430I27J28*
G01Y-2161*
G02X-3839Y-2121I39*
X-3803Y-2143J40*
G03X-3669Y-2232I142J68*
G02X-3631Y-2271I1J39*
X-3633Y-2282I39*
G03X-3642Y-2352I247J70*
X-3386Y-2608I256*
X-3130Y-2352J256*
X-3353Y-2098I256*
G02X-3376Y-2087I5J39*
G01X-3414Y-2049*
G02X-3425Y-2021I28J28*
G01Y-1705*
G03X-3583Y-1547I158*
G01X-3661*
G03X-3667J158*
G01X-3669*
G02X-3708Y-1508J39*
X-3707Y-1497I39*
G03X-3701Y-1457I132J40*
G01Y-1437*
G02X-3663Y-1397I40*
G03X-3474Y-1201I8J196*
G01Y-1004*
G03X-3671Y-807I197*
G01X-4006*
G03X-4203Y-1004J197*
G01Y-1201*
G03X-4053Y-1392I197*
G02X-4023Y-1430I10J38*
X-4035Y-1458I40*
G01X-4113Y-1536*
G03X-4153Y-1623I97J98*
G02X-4192Y-1659I39J3*
X-4228Y-1637J39*
G03X-4370Y-1547I142J68*
G01X-4449*
G03X-4588Y-1631J158*
G02X-4623Y-1652I35J18*
X-4662Y-1613J39*
G01Y-229*
G02X-4623Y-190I39*
X-4597Y-199J39*
G03X-4431Y-260I166J195*
X-4257Y-191J256*
G02X-4230Y-181I27J29*
X-4191Y-220J39*
X-4193Y-233I39*
G03X-4203Y-295I187J62*
G01Y-492*
G03X-4006Y-689I197*
G01X-3671*
G03X-3486Y-558J197*
G02X-3449Y-531I37J13*
G01X-3415*
G03X-3380Y-527J137*
G02X-3369Y-525I11J38*
X-3330Y-565J40*
Y-569I39*
G03X-3331Y-595I254J26*
X-3076Y-850I255*
X-2913Y-793J255*
G01Y-4341*
G03X-2782Y-4526I196*
G02X-2756Y-4563I13J37*
G01Y-4669*
G02X-2782Y-4706I39*
G03X-2913Y-4892I65J186*
G01Y-6152*
G03X-2717Y-6348I196*
G01X-2520*
G03X-2323Y-6152J196*
G01Y-5817*
G03X-2520Y-5620I197*
G01X-2717*
G03X-2913Y-5817J197*
G01Y-5226*
G03X-2717Y-5423I196*
G01X-2520*
G03X-2323Y-5226J197*
G01Y-4892*
G03X-2454Y-4706I197*
G02X-2480Y-4669I13J37*
G01Y-4563*
G02X-2454Y-4526I39*
G03X-2323Y-4341I66J185*
G01Y-4006*
G03X-2454Y-3820I197*
G02X-2480Y-3783I13J37*
G01Y-3654*
G02X-2469Y-3626I39*
G01X-1861Y-3018*
G02X-1833Y-3006I28J28*
G01X-1378*
Y-3809*
G03X-1181Y-4006I197*
G01X-984*
G03X-928Y-3998J197*
G02X-917Y-3996I11J37*
G01X-621*
G02X-593Y-4008J39*
G03X-480Y-4055I113J110*
G01X-110*
G03X47Y-3898J157*
G01Y-3819*
G03X-110Y-3661I157*
G01X-480*
G03X-593Y-3709J158*
G02X-621Y-3720I28J28*
G01X-748*
G02X-787Y-3681J39*
G01Y-3474*
G03X-984Y-3278I197*
G01X-1181*
G03X-1378Y-3474J196*
G01Y-3006*
X2202*
G02X2230Y-3018J40*
G01X2413Y-3201*
G02X2424Y-3228I28J27*
X2385Y-3268I39*
G01X2175*
G03X1978Y-3465J197*
G01Y-3661*
G03X1990Y-3727I197*
G02X1992Y-3740I38J13*
X1952Y-3780I40*
G01X1934*
G02X1906Y-3768J40*
G01X1813Y-3675*
G02X1801Y-3647I28J28*
G01Y-3465*
G03X1604Y-3268I197*
G01X1270*
G03X1073Y-3465J197*
G01Y-3531*
G02X1033Y-3570I40*
X1006Y-3559J39*
G01X925Y-3478*
G02X913Y-3450I28J28*
G01Y-3425*
G03X756Y-3268I157*
G01X386*
G03X228Y-3425J157*
G01Y-3504*
G03X386Y-3661I158*
G01X702*
G02X730Y-3673J40*
G01X864Y-3807*
G02X876Y-3835I27J28*
G01Y-3917*
G03X916Y-4015I138*
G01X1061Y-4160*
G02X1073Y-4188I28J28*
G01Y-4370*
G03X1270Y-4567I197*
G01X1604*
G03X1790Y-4436J197*
G02X1827Y-4409I37J13*
G01X1952*
G02X1990Y-4436J40*
G03X2175Y-4567I185J66*
G01X2244*
G02X2283Y-4606J39*
G01Y-5308*
G02X2244Y-5347I39*
X2233Y-5346J39*
G03X2156Y-5335I77J264*
G01X1985*
G02X1947Y-5308J40*
G03X1762Y-5177I185J66*
G01X1506*
G03X1495J197*
G02X1493I2J39*
X1456Y-5150J39*
G03X1422Y-5096I131J43*
G01X820Y-4493*
G02X808Y-4465I28J28*
X829Y-4431I40*
G03X913Y-4291I73J140*
G01Y-4213*
G03X756Y-4055I157*
G01X386*
G03X228Y-4213J158*
G01Y-4291*
G03X241Y-4354I158*
G02X245Y-4370I36J16*
X205Y-4409I40*
G01X-748*
G02X-788Y-4372J39*
G03X-984Y-4183I196J8*
G01X-1181*
G03X-1378Y-4380J197*
G01Y-4715*
G03X-1377Y-4737I197*
G02X-1376Y-4741I39J4*
X-1416Y-4780I40*
X-1444Y-4769J39*
G01X-1485Y-4728*
G02X-1496Y-4700I28J28*
G01Y-4380*
G03X-1627Y-4194I197*
G02X-1654Y-4157I13J37*
G01Y-4032*
G02X-1627Y-3995I40*
G03X-1496Y-3809I66J186*
G01Y-3474*
G03X-1693Y-3278I197*
G01X-1890*
G03X-2087Y-3474J196*
G01Y-3809*
G03X-1955Y-3995I197*
G02X-1929Y-4032I14J37*
G01Y-4157*
G02X-1955Y-4194I40*
G03X-2087Y-4380I65J186*
G01Y-4715*
G03X-1890Y-4911I197*
G01X-1707*
G02X-1679Y-4923J40*
G01X-1534Y-5068*
G03X-1502Y-5092I97J98*
G02X-1481Y-5127I19J35*
X-1505Y-5162I40*
G03X-1553Y-5190I130J287*
G02X-1575Y-5197I22J33*
G01X-2047*
G03X-2126Y-5276J79*
G01Y-8740*
G03X-2047Y-8819I79*
G01X1772*
G03X1850Y-8740J79*
G01Y-6543*
G02X1859Y-6518I40*
G03X1918Y-6348I217J170*
X1911Y-6283I276*
G02X1909Y-6274I38J9*
G01Y-5991*
G02X1918Y-5967I40*
G03X1947Y-5912I156J121*
G02X1985Y-5886I38J13*
G01X2025*
G02X2053Y-5897J39*
G01X2168Y-6012*
G03X2259Y-6073I194J195*
G02X2283Y-6109I15J36*
G01Y-7047*
X3654*
Y-9265*
G03X3910Y-9521I256*
X4155Y-9339J256*
G02X4193Y-9311I38J11*
G01X4295*
G02X4321Y-9321J39*
G01Y-9980*
G03X4518Y-10177I197*
G01X4852*
G03X5049Y-9980J197*
G01Y-9783*
G03X4852Y-9587I197*
G01X4518*
G03X4321Y-9783J196*
G01Y-9321*
G02X4332Y-9337I26J29*
G03X4518Y-9469I186J65*
G01X4852*
G03X5049Y-9272J197*
G01Y-9075*
G03X4852Y-8878I197*
G01X4518*
G03X4332Y-9009J197*
G02X4295Y-9035I37J13*
G01X4031*
G02X4015Y-9032J39*
G03X3910Y-9009I105J233*
X3654Y-9265J256*
G01Y-7047*
X5087*
G02X5127Y-7087J40*
G01Y-7381*
G02X5115Y-7409I40*
G01X5019Y-7505*
G02X4991Y-7516I28J28*
X4986J39*
G03X4950Y-7513I36J253*
X4694Y-7769J256*
X4950Y-8025I256*
X5205Y-7769J256*
X5203Y-7733I255*
G02X5202Y-7727I39J6*
X5214Y-7700I40*
G01X5362Y-7552*
G03X5368Y-7545I98J98*
G02X5398Y-7531I30J26*
X5428Y-7546J40*
G03X5581Y-7618I153J125*
G01X5915*
G03X5997Y-7600J197*
G02X6013Y-7597I16J36*
X6053Y-7636J39*
G01Y-7750*
G02X6037Y-7781I40*
G03X5935Y-7986I153J205*
X6010Y-8168I255*
G02X6022Y-8196I27J28*
X5989Y-8235I39*
G03X5630Y-8661I74J426*
X5901Y-9063I433*
G02X5925Y-9099I15J36*
G01Y-9281*
G02X5886Y-9321I39*
G01X5807*
G03X5610Y-9518J197*
G01Y-9852*
G03X5807Y-10049I197*
G01X6004*
G03X6201Y-9852J197*
G01Y-9099*
G02X6225Y-9063I39*
G03X6319Y-9011I162J402*
G01Y-9852*
G03X6516Y-10049I197*
G01X6713*
G03X6909Y-9852J197*
G01Y-9518*
G03X6713Y-9321I196*
G01X6516*
G03X6319Y-9518J197*
G01Y-9011*
G03X6496Y-8661I256J350*
X6287Y-8291I433*
G02X6268Y-8257I20J34*
X6292Y-8221I39*
G03X6446Y-7986I102J235*
X6344Y-7781I256*
G02X6328Y-7750I24J31*
G01Y-7626*
G02X6368Y-7586I40*
X6387Y-7592J40*
G03X6486Y-7618I99J171*
G01X6821*
G03X7018Y-7421J197*
G01Y-7224*
G03X6821Y-7028I197*
G01X6486*
G03X6388Y-7054J196*
G02X6368Y-7059I20J34*
X6329Y-7020J39*
G01Y-6917*
G02X6368Y-6878I39*
X6388Y-6883J39*
G03X6486Y-6909I98J170*
G01X6821*
G03X7006Y-6778J196*
G02X7044Y-6752I38J13*
G01X7067*
Y-9852*
G03X7264Y-10049I197*
G01X7461*
G03X7657Y-9852J197*
G01Y-9518*
G03X7461Y-9321I196*
G01X7264*
G03X7067Y-9518J197*
G01Y-6752*
X7130*
Y-8661*
G03X7563Y-9094I433*
X7732Y-9060J433*
G02X7747Y-9057I15J36*
X7775Y-9069J39*
G01X7922Y-9215*
G02X7933Y-9243I28J28*
G01Y-9295*
G02X7907Y-9332I39*
G03X7776Y-9518I65J186*
G01Y-9852*
G03X7972Y-10049I196*
G01X8169*
G03X8366Y-9852J197*
G01Y-9518*
G03X8235Y-9332I197*
G02X8209Y-9295I13J37*
G01Y-9169*
G03X8168Y-9072I138*
G01X7970Y-8874*
G02X7959Y-8846I28J28*
X7962Y-8830I39*
G03X7996Y-8661I399J169*
X7563Y-8228I433*
X7130Y-8661J433*
G01Y-6752*
X7169*
G02X7195Y-6762J39*
G01Y-7421*
G03X7392Y-7618I197*
G01X7726*
G03X7923Y-7421J197*
G01Y-7224*
G03X7726Y-7028I197*
G01X7392*
G03X7195Y-7224J196*
G01Y-6762*
G02X7206Y-6778I26J29*
G03X7392Y-6909I186J65*
G01X7726*
G03X7912Y-6778J196*
G02X7949Y-6752I37J13*
G01X8075*
G02X8100Y-6762J39*
G01Y-7421*
G03X8289Y-7618I197*
G02X8327Y-7657I2J39*
G01Y-8063*
G03X8367Y-8160I138*
G01X8656Y-8449*
G02X8667Y-8477I28J28*
X8664Y-8492I39*
G03X8630Y-8661I399J169*
X9063Y-9094I433*
X9496Y-8661J433*
X9063Y-8228I433*
X8894Y-8263J433*
G02X8879Y-8266I15J37*
X8851Y-8254J40*
G01X8614Y-8017*
G02X8602Y-7990I28J27*
G01Y-7657*
G02X8640Y-7618I40*
G03X8829Y-7421I8J197*
G01Y-7224*
G03X8632Y-7028I197*
G01X8297*
G03X8100Y-7224J196*
G01Y-6762*
G02X8112Y-6778I25J29*
G03X8297Y-6909I185J65*
G01X8632*
G03X8829Y-6713J196*
G01Y-6516*
G03X8632Y-6319I197*
G01X8297*
G03X8112Y-6450J197*
G02X8075Y-6476I37J13*
G01X7949*
G02X7912Y-6450J39*
G03X7735Y-6319I186J66*
G02X7697Y-6280I1J39*
G01Y-6189*
G03X7656Y-6091I138*
G01X7536Y-5971*
G02X7524Y-5943I28J28*
G01Y-5866*
G02X7540Y-5835I40*
G03X7643Y-5630I153J205*
X7387Y-5374I256*
X7131Y-5630J256*
X7233Y-5835I256*
G02X7249Y-5866I24J31*
G01Y-6016*
G03X7289Y-6114I138*
G01X7410Y-6234*
G02X7421Y-6262I28J28*
G01Y-6280*
G02X7384Y-6319I39*
G03X7206Y-6450I8J197*
G02X7169Y-6476I37J13*
G01X7044*
G02X7006Y-6450J39*
G03X6821Y-6319I185J66*
G01X6486*
G03X6471J197*
G02X6468Y-6320I3J39*
X6429Y-6280J40*
G01Y-6134*
G02X6445Y-6102I39*
G03X6547Y-5898I154J204*
X6291Y-5642I256*
X6270Y-5643J256*
G02X6267I3J40*
X6228Y-5603J40*
X6239Y-5575I39*
G01X7835Y-3980*
Y-5472*
G03X8209Y-5846I374*
X8583Y-5472J374*
X8209Y-5098I374*
X7835Y-5472J374*
G01Y-3980*
X8789Y-3025*
Y-5988*
G03X9045Y-6244I256*
X9081Y-6241J256*
G02X9087I6J39*
X9115Y-6253J39*
G01X9134Y-6272*
G02X9146Y-6300I27J28*
X9123Y-6336I39*
G03X9006Y-6516I80J180*
G01Y-7421*
G03X9203Y-7618I197*
G01X9537*
G03X9734Y-7421J197*
G01Y-7224*
G03X9537Y-7028I197*
G01X9203*
G03X9006Y-7224J196*
G01Y-6713*
G03X9203Y-6909I197*
G01X9537*
G03X9723Y-6778J196*
G02X9760Y-6752I37J13*
G01X9886*
G02X9911Y-6762J39*
G01Y-7421*
G03X10108Y-7618I197*
G01X10360*
G02X10388Y-7630J39*
G01X10414Y-7656*
G02X10425Y-7684I28J28*
G01Y-8223*
G02X10401Y-8260I39*
G03X10130Y-8661I162J401*
X10401Y-9063I433*
G02X10425Y-9099I15J36*
G01Y-9281*
G02X10386Y-9321I39*
G01X10295*
G03X10098Y-9518J197*
G01Y-9852*
G03X10295Y-10049I197*
G01X10492*
G03X10689Y-9852J197*
G01Y-9749*
G02X10692Y-9735I39*
G03X10701Y-9685I129J50*
G01Y-9099*
G02X10725Y-9063I39*
G03X10807Y-9019I162J402*
G01Y-9852*
G03X11004Y-10049I197*
G01X11201*
G03X11398Y-9852J197*
G01Y-9518*
G03X11201Y-9321I197*
G01X11004*
G03X10807Y-9518J197*
G01Y-9019*
G03X10996Y-8661I244J358*
X10725Y-8260I433*
G02X10701Y-8223I15J37*
G01Y-7610*
G03X10660Y-7513I138*
G01X10646Y-7498*
G02X10635Y-7471I28J27*
Y-7462I39*
G03X10640Y-7421I192J41*
G01Y-7224*
G03X10443Y-7028I197*
G01X10108*
G03X9911Y-7224J196*
G01Y-6762*
G02X9923Y-6778I25J29*
G03X10108Y-6909I185J65*
G01X10443*
G03X10640Y-6713J196*
G01Y-6516*
G03X10616Y-6422I197*
G02X10611Y-6403I34J19*
X10650Y-6364I39*
X10678Y-6375J39*
G01X10805Y-6502*
G02X10817Y-6530I27J28*
G01Y-7421*
G03X11014Y-7618I197*
G01X11348*
G03X11545Y-7421J197*
G01Y-7224*
G03X11348Y-7028I197*
G01X11014*
G03X10817Y-7224J196*
G01Y-6713*
G03X11014Y-6909I197*
G01X11348*
G03X11545Y-6713J196*
G01Y-6516*
G03X11348Y-6319I197*
G01X11028*
G02X11000Y-6307J39*
G01X10737Y-6044*
G03X10640Y-6004I97J97*
G01X10362*
G02X10331Y-5988J40*
G03X10126Y-5886I205J153*
X9870Y-6141J255*
X9955Y-6332I256*
G02X9969Y-6362I26J30*
X9959Y-6387I40*
G03X9923Y-6450I149J129*
G02X9886Y-6476I37J13*
G01X9760*
G02X9723Y-6450J39*
G03X9543Y-6319I186J66*
G02X9505Y-6287I1J39*
G03X9468Y-6216I135J26*
G01X9310Y-6058*
G02X9298Y-6030I28J28*
X9299Y-6024I40*
G03X9301Y-5988I254J36*
X9045Y-5732I256*
X8789Y-5988J256*
G01Y-3025*
X9801Y-2013*
G03X9882Y-1819I195J194*
G01Y-96*
G02X9897Y-65I39*
G03X9970Y89I123J154*
G01Y285*
G03X9774Y482I196*
G01X9439*
G03X9242Y285J197*
G01Y89*
G03X9316Y-65I197*
G02X9331Y-96I25J31*
G01Y-1688*
G02X9319Y-1716I40*
G01X5505Y-5530*
G02X5477Y-5542I28J28*
G01X5157*
G02X5118Y-5502J40*
G01Y-4331*
X5087*
G02X5047Y-4291J40*
X5059Y-4263I40*
G01X5152Y-4170*
G03X5193Y-4073I97J97*
G01Y-2325*
G02X5194Y-2314I39*
G03X5200Y-2275I132J39*
G01Y-2131*
G02X5216Y-2100I39*
G03X5278Y-2032I154J205*
G02X5311Y-2014I33J21*
X5335Y-2022J39*
G03X5488Y-2073I153J205*
X5744Y-1817J256*
X5642Y-1612I256*
G02X5626Y-1581I23J31*
G01Y-1381*
G02X5637Y-1353I39*
G01X6567Y-424*
Y-3182*
G03X6843Y-3458I276*
X7037Y-3377J276*
G01X8800Y-1615*
G03X8881Y-1420I195J195*
G01Y-372*
G02Y-364I39*
G03X8888Y-305I269J59*
G01Y-96*
G02X8903Y-65I39*
G03X8976Y89I123J154*
G01Y285*
G03X8780Y482I196*
G01X8445*
G03X8248Y285J197*
G01Y89*
G03X8322Y-65I197*
G02X8337Y-96I25J31*
G01Y-245*
G02X8336Y-253I40*
G03X8329Y-312I269J59*
G01Y-1289*
G02X8318Y-1317I39*
G01X6648Y-2987*
G03X6567Y-3182I195J195*
G01Y-424*
X7201Y210*
G03X7241Y308I98J98*
G01Y3035*
G02X7253Y3063I39*
G01X7400Y3210*
G02X7427Y3221I27J28*
G01X7509*
G02X7540Y3205J39*
G03X7745Y3103I205J154*
X8001Y3359J256*
X7745Y3615I256*
X7540Y3512J256*
G02X7509Y3497I31J24*
G01X7354*
G03X7257Y3456J138*
G01X7006Y3206*
G03X6965Y3108I97J98*
G01Y743*
G02X6926Y704I39*
X6908Y709J39*
G03X6788Y738I120J227*
X6535Y518J256*
G02X6524Y496I39J6*
G01X6385Y357*
G03X6338Y283I139J139*
G02X6329Y269I37J14*
G01X5361Y-699*
X5360Y-701*
G03X5353Y-707I132J145*
G01X5163Y-896*
G02X5141Y-908I27J27*
G03X4921Y-1161I36J253*
X5177Y-1417I256*
X5293Y-1389J256*
G02X5311Y-1385I18J35*
X5350Y-1424J39*
G01Y-1581*
G02X5334Y-1612I39*
G03X5272Y-1680I154J205*
G02X5239Y-1698I33J21*
X5215Y-1690J39*
G03X5062Y-1639I153J205*
X4806Y-1895J256*
X4909Y-2100I256*
G02X4924Y-2131I24J31*
G01Y-2233*
G02X4923Y-2244I39*
G03X4917Y-2282I132J38*
G01Y-3657*
G02X4878Y-3696I39*
X4859Y-3691J39*
G03X4735Y-3659I124J224*
X4538Y-3752J256*
G02X4508Y-3766I30J25*
X4469Y-3727J39*
G01Y-2146*
X4094*
Y-3738*
G02X4055Y-3777I39*
G01X3674*
G02X3646Y-3766J39*
G01X2454Y-2573*
G03X2356Y-2533I98J98*
G01X-609*
G02X-637Y-2521J40*
G01X-737Y-2421*
G02X-749Y-2394I28J27*
X-748Y-2388I40*
G03X-746Y-2352I254J36*
X-1002Y-2096I256*
X-1258Y-2352J256*
X-1002Y-2608I256*
X-965Y-2605J256*
G02X-960I5J39*
X-932Y-2616J39*
G01X-885Y-2664*
G02X-873Y-2691I28J27*
X-913Y-2731I40*
G01X-1906*
G03X-2004Y-2771J138*
G01X-2716Y-3483*
G03X-2756Y-3580I98J97*
G01Y-3783*
G02X-2782Y-3820I39*
G03X-2913Y-4006I65J186*
G01Y-793*
G03X-2871Y-748I163J198*
G02X-2839Y-732I32J24*
G01X82*
G02X110Y-744J40*
G01X582Y-1216*
G03X679Y-1256I97J98*
G01X1142*
G02X1181Y-1295J39*
Y-1300I39*
G03X1179Y-1329I254J29*
X1435Y-1585I256*
X1691Y-1329J256*
X1435Y-1073I256*
X1399Y-1075J256*
G02X1393Y-1076I6J39*
X1366Y-1064J40*
G01X1322Y-1021*
G03X1316Y-1015I98J97*
G02X1303Y-986I26J29*
X1315Y-958I39*
G01X1645Y-627*
G02X1673Y-616I28J28*
G01X3076*
G03X3118Y-609J138*
G01Y-2868*
G03X3374Y-3124I256*
X3630Y-2868J256*
X3528Y-2663I256*
G02X3512Y-2632I23J31*
G01Y-2408*
G02X3523Y-2380I39*
G01X3726Y-2178*
G02X3753Y-2167I27J28*
X3759J39*
G03X3795Y-2170I36J253*
X4051Y-1914J256*
X3795Y-1658I256*
X3539Y-1914J256*
X3542Y-1950I256*
G02Y-1956I39J6*
X3531Y-1983I39*
G01X3277Y-2237*
G03X3236Y-2335I97J98*
G01Y-2632*
G02X3220Y-2663I39*
G03X3118Y-2868I154J205*
G01Y-609*
G03X3173Y-575I42J131*
G01X3320Y-428*
G02X3348Y-417I28J28*
G01X4170*
G03X4267Y-376J138*
G01X4444Y-200*
G02X4472Y-188I28J28*
X4477Y-189J40*
G03X4513Y-191I36J254*
X4769Y65J256*
X4546Y318I256*
G02X4512Y357I5J39*
Y365I39*
G03X4518Y417I250J52*
X4262Y673I256*
X4057Y571J256*
G02X4026Y555I31J23*
G01X3380*
G03X3283Y514J138*
G01X2869Y101*
G02X2841Y89I28J28*
G01X2180*
G02X2140Y129J40*
X2152Y156I40*
G01X2180Y184*
G02X2208Y196I28J27*
X2213Y195J39*
G03X2249Y193I36J254*
X2505Y449J256*
X2249Y705I256*
X1994Y449J256*
X1996Y413I255*
G02X1997Y407I39J6*
X1985Y379I40*
G01X1922Y316*
G02X1894Y305I28J28*
G01X644*
G03X547Y265J138*
G01X427Y145*
G02X399Y133I28J28*
G01X-905*
G02X-944Y173J40*
X-941Y188I39*
G03X-925Y266I181J78*
G01Y510*
G02X-886Y549I39*
X-864Y543J39*
G03X-725Y501I139J214*
X-469Y757J256*
X-567Y959I256*
G02X-582Y990I24J31*
X-568Y1019I39*
G03X-479Y1213I167J194*
X-735Y1469I256*
X-786Y1464J256*
G02X-794Y1463I8J39*
X-809Y1466J40*
G03X-861Y1476I52J127*
G01X-886*
G02X-925Y1514J40*
G03X-1122Y1703I197J8*
G01X-1319*
G03X-1341Y1702J197*
G02X-1345Y1701I4J39*
X-1385Y1741J40*
X-1373Y1768I40*
G01X-585Y2557*
G03X-544Y2655I97J98*
G01Y2742*
G02X-533Y2770I39*
G01X-529Y2773*
G02X-501Y2785I28J27*
X-495J39*
G03X-459Y2782I36J253*
X-203Y3038J256*
X-459Y3294I256*
X-715Y3038J256*
X-713Y3002I256*
G02X-712Y2996I39J6*
X-724Y2968I40*
G01X-779Y2913*
G03X-820Y2815I97J98*
G01Y2728*
G02X-831Y2700I39*
G01X-1817Y1714*
G02X-1845Y1703I28J28*
G01X-2028*
G03X-2158Y1654J197*
G02X-2184Y1644I26J29*
X-2223Y1683J39*
G01Y2556*
G02X-2211Y2584I39*
G01X-577Y4219*
G03X-496Y4414I195J195*
G01Y5552*
G03X-497Y5578I276*
G02Y5581I39J3*
G01Y6188*
G03X-773Y6463I276*
X-1049Y6188J275*
G01Y5553*
G03X-1047Y5528I276*
G02Y5524I40J4*
G01Y4544*
G02X-1059Y4516I40*
G01X-2654Y2921*
G03X-2735Y2726I195J195*
X-2700Y2593I276*
G02X-2695Y2574I35J19*
G01Y1737*
G02X-2735Y1698I40*
X-2756Y1704J39*
G03X-2892Y1743I136J217*
X-3148Y1487J256*
X-3145Y1451I256*
G02Y1445I39J6*
X-3157Y1417I39*
G01X-3364Y1210*
G02X-3392Y1198I28J27*
G01X-4428*
G02X-4456Y1209J39*
G01X-4653Y1407*
G02X-4665Y1435I28J28*
G01Y1549*
G02X-4649Y1580I40*
G03X-4546Y1785I153J205*
X-4802Y2041I256*
X-5008Y1937J256*
G02X-5039Y1922I31J24*
X-5079Y1961J39*
G01Y2087*
G03X-5157Y2165I78*
G01X-5739*
G02X-5778Y2205J40*
G01Y3863*
G03X-5824Y3974I158*
G01X-5918Y4068*
G03X-6029Y4114I111J111*
G01X-6916*
G02X-6945Y4127J40*
G03X-7136Y4213I191J170*
X-7392Y3957J256*
X-7362Y3837I256*
G01Y1486*
G03X-7165Y1289I197*
G01X-6969*
G03X-6772Y1486J197*
G01Y1821*
G03X-6969Y2018I197*
G01X-7165*
G03X-7362Y1821J197*
G01Y3837*
G03X-7136Y3701I226J120*
X-6945Y3786J256*
G02X-6916Y3799I29J26*
G01X-6133*
G02X-6093Y3760J39*
G01Y2020*
G02X-6133Y1981I40*
X-6154Y1987J39*
G03X-6260Y2018I106J166*
G01X-6457*
G03X-6654Y1821J197*
G01Y1486*
G03X-6522Y1301I197*
G02X-6496Y1264I13J37*
G01Y1202*
G02X-6512Y1170I39*
G03X-6616Y965I152J205*
X-6586Y845I256*
G02X-6581Y827I35J18*
X-6621Y787I40*
G01X-6747*
G02X-6775Y799J40*
G01X-6901Y924*
G03X-6998Y965I97J97*
G01X-7012*
G02X-7048Y987J39*
G03X-7386Y1201I338J160*
X-7760Y827J374*
G01Y5391*
G03X-7623Y5617I119J226*
X-7879Y5873I256*
X-8083Y5771J256*
G02X-8115Y5755I32J24*
G01X-9599*
G02X-9627Y5767J40*
G01X-9769Y5909*
G03X-9866Y5949I97J98*
G01X-10049*
G02X-10080Y5965J39*
G03X-10210Y6056I205J154*
G02X-10238Y6094I11J38*
X-10215Y6129I39*
G03X-10098Y6309I80J180*
G01Y6506*
G03X-10295Y6703I197*
G01X-10630*
G03X-10827Y6506J197*
G01Y7018*
G03X-10630Y6821I197*
G01X-10295*
G03X-10098Y7018J197*
G01Y7215*
G03X-10295Y7411I197*
G01X-10630*
G03X-10827Y7215J196*
G01Y8031*
X-10543*
G02X-10504Y7992J39*
G01Y7958*
G02X-10506Y7945I39*
G03X-10523Y7854I239J91*
X-10267Y7598I256*
X-10011Y7854J256*
X-10041Y7974I256*
G02X-10045Y7992I35J18*
X-10006Y8031I39*
G01X-9260*
G02X-9221Y7992J39*
X-9232Y7964I39*
G01X-9298Y7899*
G02X-9326Y7887I28J28*
X-9331Y7888J40*
G03X-9367Y7890I36J254*
X-9623Y7634J256*
X-9367Y7378I256*
X-9111Y7634J256*
X-9114Y7670I256*
G02Y7676I39J6*
X-9103Y7704I39*
G01X-8890Y7917*
G03X-8877Y7931I97J97*
G02X-8874Y7935I31J24*
G01X-8789Y8020*
G02X-8761Y8031I28J28*
G01X-8268*
G02X-8251Y8035I17J35*
G01X-7906*
G03X-7827Y8114J79*
G01Y9017*
G02X-7791Y9056I40*
G03X-7539Y9331I24J275*
G01Y9528*
G03X-7794Y9802I276*
G02X-7831Y9842I3J40*
G01Y10709*
G02X-7791Y10748I40*
G01X-7126*
Y7598*
G03X-7103Y7543I79*
G01X-7059Y7499*
G02X-7047Y7471I28J28*
G01Y6594*
G03X-6969Y6516I78*
G01X-1594*
G03X-1516Y6594J78*
G01Y7657*
G03X-1594Y7736I78*
G01X-1609*
G02X-1649Y7776J40*
G01Y8219*
G02X-1637Y8247I40*
G01X-1487Y8397*
G02X-1459Y8408I28J28*
X-1454J39*
G03X-1417Y8406I37J253*
X-1161Y8661J255*
X-1417Y8917I256*
X-1673Y8661J256*
X-1671Y8625I256*
G02X-1670Y8620I39J5*
X-1682Y8592I40*
G01X-1884Y8390*
G03X-1924Y8292I97J98*
G01Y7776*
G02X-1964Y7736I40*
G01X-3858*
G02X-3898Y7776J40*
G01Y8110*
G03X-3976Y8189I78*
G01X-7047*
G03X-7126Y8110J79*
G01Y10748*
X303*
Y1696*
G03X559Y1440I256*
X582Y1441J256*
G02X586I4J39*
X625Y1402J39*
Y1399I39*
G03Y1381I255J18*
X880Y1125I255*
X1092Y1236J256*
G02X1111Y1251I32J22*
G03X1162Y1283I47J130*
G01X2019Y2141*
G02X2047Y2152I28J28*
G01X2785*
G02X2789J39*
G03X2802Y2151I13J137*
G01X2881*
G02X2912Y2136J39*
G03X3117Y2033I205J153*
X3373Y2289J256*
X3133Y2545I256*
G02X3096Y2584I2J39*
Y2589I39*
G03X3099Y2625I253J36*
X2843Y2880I256*
X2638Y2778J255*
G02X2607Y2762I31J24*
G01X2528*
G03X2431Y2722J137*
G01X2355Y2646*
G02X2327Y2635I28J28*
G01X1898*
G03X1800Y2594J138*
G01X1051Y1845*
G02X1023Y1834I28J28*
G01X795*
G02X764Y1849J39*
G03X559Y1952I205J153*
X303Y1696J256*
G01Y10748*
X11043*
G02X11083Y10709J39*
G01Y8462*
G02X11043Y8422I40*
X11026Y8426J40*
G03X10925Y8449I101J213*
G01X10768*
G03X10531Y8213J236*
G01Y7819*
G03X10768Y7583I237*
G01X10925*
G03X11026Y7605J236*
G02X11043Y7609I17J35*
X11083Y7570J39*
G01Y6768*
G02X11043Y6729I40*
X11015Y6740J39*
G01X10935Y6821*
G02X10924Y6845I28J27*
G03X10581Y7188I373J30*
G02X10557Y7199I4J39*
G01X10435Y7321*
G02X10423Y7349I27J28*
G01Y7495*
G03X10342Y7690I275*
G01X9495Y8538*
G02X9483Y8566I27J28*
G01Y8924*
G03X9207Y9200I276*
X8932Y8924J276*
G01Y8435*
G03X9013Y8240I275*
G01X9860Y7393*
G02X9872Y7365I27J28*
G01Y7219*
G03X9888Y7126I276*
G02X9890Y7113I37J13*
X9873Y7080I39*
G01X9865Y7075*
G02X9843Y7068I22J33*
X9815Y7080J40*
G03X9551Y7189I264J265*
X9178Y6845J374*
G02X9167Y6821I39J3*
G01X8949Y6602*
G02X8921Y6591I28J28*
X8882Y6630J39*
X8886Y6648I39*
G03X8925Y6815I335J167*
X8551Y7189I374*
X8177Y6815J374*
X8551Y6441I374*
X8718Y6480J374*
G02X8736Y6485I18J35*
X8775Y6445J40*
X8764Y6417I39*
G01X8678Y6331*
G02X8650Y6320I28J28*
G01X8340*
G02X8334J39*
G03X8289Y6324I45J272*
G01X3315*
G02X3287Y6335J39*
G01X2638Y6984*
G03X2443Y7064I195J195*
X2168Y6789J275*
X2248Y6594I275*
G01X2989Y5853*
G03X3184Y5773I195J195*
G01X4257*
Y2625*
G03X4513Y2369I256*
X4707Y2457J256*
G02X4736Y2471I29J25*
X4766Y2457J39*
G03X4870Y2385I194J168*
G02X4896Y2348I14J37*
X4872Y2312I40*
G03X4646Y1969I148J343*
X5020Y1594I374*
X5394Y1969J375*
X5103Y2333I374*
G02X5073Y2371I9J38*
X5092Y2405I39*
G03X5216Y2625I132J220*
X5114Y2829I256*
G02X5098Y2861I23J32*
G01Y3096*
G02X5109Y3124I39*
G01X5172Y3187*
G02X5200Y3198I28J28*
X5206J39*
G03X5242Y3195I36J253*
X5498Y3451J256*
X5397Y3655I256*
G02X5381Y3686I24J31*
X5397Y3718I40*
G03X5498Y3922I155J204*
X5242Y4178I256*
X4987Y3922J256*
X4989Y3886I255*
G02X4990Y3880I39J6*
X4978Y3852I40*
G01X4944Y3818*
G02X4938Y3813I28J28*
G03X4918Y3797I77J114*
G01X4415Y3294*
G03X4375Y3197I98J97*
G01Y2861*
G02X4359Y2829I39*
G03X4257Y2625I154J204*
G01Y5773*
X8238*
G02X8245Y5772J40*
G03X8248Y5771I44J272*
G01Y797*
G03X8445Y600I197*
G01X8780*
G03X8976Y797J197*
G01Y994*
G03X8903Y1148I196*
G02X8888Y1178I24J30*
G01Y1475*
G03X8807Y1670I276*
G01X8790Y1687*
G03X8596Y1767I194J195*
X8320Y1492J275*
X8335Y1403I276*
G02X8337Y1391I38J12*
G01Y1178*
G02X8322Y1148I40*
G03X8248Y994I123J154*
G01Y5771*
G03X8289Y5768I41J273*
G01X8780*
G03X8975Y5849J276*
G01X9557Y6431*
G02X9581Y6442I28J28*
G03X9925Y6815I30J373*
X9895Y6962I374*
G02X9892Y6977I36J15*
X9909Y7010I39*
G01X9917Y7015*
G02X9939Y7021I22J33*
X9966Y7010J39*
G01X10167Y6809*
G02X10178Y6785I28J27*
G03X10521Y6442I373J30*
G02X10546Y6431I3J39*
G01X10559Y6417*
G02X10571Y6389I28J28*
G01Y6229*
G02X10565Y6208I40*
G03X10554Y6188I203J121*
G02X10519Y6165I35J17*
G01X10335*
G03X10140Y6085J275*
G01X9753Y5698*
G03X9672Y5503I195J195*
G01Y5343*
G02X9661Y5316I39*
G01X9411Y5066*
G03X9331Y4871I195J195*
G01Y1178*
G02X9316Y1148I40*
G03X9242Y994I123J154*
G01Y797*
G03X9439Y600I197*
G01X9774*
G03X9970Y797J197*
G01Y994*
G03X9897Y1148I196*
G02X9882Y1178I24J30*
G01Y4741*
G02X9893Y4769I39*
G01X10143Y5018*
G03X10224Y5213I195J195*
G01Y5373*
G02X10235Y5400I39*
G01X10437Y5603*
G02X10465Y5614I28J28*
G01X10519*
G02X10554Y5592J39*
G03X10768Y5457I214J101*
G01X10925*
G03X11026Y5479J236*
G02X11043Y5483I17J35*
X11083Y5444J39*
G01Y-3327*
X11594*
Y-9852*
G03X11791Y-10049I197*
G01X11988*
G03X12185Y-9852J197*
G01Y-9518*
G03X11988Y-9321I197*
G01X11791*
G03X11594Y-9518J197*
G01Y-3327*
X11630*
Y-8661*
G03X12063Y-9094I433*
X12232Y-9060J433*
G02X12247Y-9057I15J36*
X12275Y-9069J39*
G01X12449Y-9242*
G02X12461Y-9270I28J28*
G01Y-9295*
G02X12434Y-9332I40*
G03X12303Y-9518I66J186*
G01Y-9852*
G03X12500Y-10049I197*
G01X12697*
G03X12894Y-9852J197*
G01Y-9518*
G03X12762Y-9332I197*
G02X12736Y-9295I14J37*
G01Y-9197*
G03X12696Y-9099I138*
G01X12470Y-8874*
G02X12459Y-8846I28J28*
X12462Y-8830I39*
G03X12496Y-8661I399J169*
X12063Y-8228I433*
X11630Y-8661J433*
G01Y-3327*
X11722*
Y-7421*
G03X11919Y-7618I197*
G01X12240*
G02X12267Y-7630J39*
G01X12412Y-7775*
G03X12510Y-7815I98J98*
G01X13130*
Y-8661*
G03X13563Y-9094I433*
X13996Y-8661J433*
X13962Y-8492I433*
G02X13959Y-8477I36J15*
X13970Y-8449I39*
G01X14024Y-8396*
G02X14051Y-8384I27J28*
G01X14409*
Y-9852*
G03X14606Y-10049I197*
G01X14803*
G03X15000Y-9852J197*
G01Y-9518*
G03X14869Y-9332I197*
G02X14843Y-9295I13J37*
G01Y-9098*
G02X14882Y-9058I39*
X14897Y-9061J40*
G03X15063Y-9094I166J400*
X15118Y-9091J433*
G01Y-9852*
G03X15315Y-10049I197*
G01X15512*
G03X15709Y-9852J197*
G01Y-9518*
G03X15512Y-9321I197*
G01X15315*
G03X15118Y-9518J197*
G01Y-9091*
G03X15496Y-8661I55J430*
X15063Y-8228I433*
X14630Y-8661J433*
X14664Y-8830I433*
G02X14667Y-8846I36J16*
X14656Y-8874I39*
G01X14607Y-8922*
G03X14567Y-9020I98J98*
G01Y-9295*
G02X14541Y-9332I39*
G03X14409Y-9518I65J186*
G01Y-8384*
X14451*
G03X14548Y-8344J138*
G01X14735Y-8156*
G02X14763Y-8145I28J28*
G01X15613*
G03X15711Y-8105J138*
G01X15829Y-7986*
G02X15857Y-7975I28J28*
G01X15866*
Y-9852*
G03X16063Y-10049I197*
G01X16260*
G03X16457Y-9852J197*
G01Y-9518*
G03X16260Y-9321I197*
G01X16063*
G03X15866Y-9518J197*
G01Y-7975*
X16134*
G03X16156Y-7973J138*
G02X16163Y-7972I7J39*
G01X16260*
G02X16299Y-8012J40*
G01Y-8020*
G03X16376Y-8155I158*
G02X16396Y-8189I20J34*
X16356Y-8228I40*
G01X16209*
G03X16130Y-8307J79*
G01Y-9016*
G03X16209Y-9094I79*
G01X16681*
G02X16720Y-9134J40*
G01Y-9154*
G03X16730Y-9203I138*
G02X16732Y-9217I37J14*
G01Y-9295*
G02X16706Y-9332I39*
G03X16575Y-9518I66J186*
G01Y-9852*
G03X16772Y-10049I197*
G01X16969*
G03X17165Y-9852J197*
G01Y-9518*
G03X17034Y-9332I196*
G02X17008Y-9295I13J37*
G01Y-9165*
G03X16999Y-9116I138*
G02X16996Y-9102I36J14*
G01Y-8307*
G03X16917Y-8228I79*
G01X16636*
G02X16597Y-8189J39*
X16616Y-8155I39*
G03X16693Y-8020I81J135*
G01Y-7650*
G03X16535Y-7492I158*
G01X16457*
G03X16299Y-7650J158*
G01Y-7657*
G02X16260Y-7697I39*
G01X16137*
G03X16115Y-7699J138*
G02X16108I7J39*
G01X15784*
G03X15733Y-7709J138*
G02X15719Y-7712I14J37*
X15679Y-7672J40*
G01Y-7539*
G03X15482Y-7343I197*
G01X15148*
G03X14962Y-7474J196*
G02X14925Y-7500I37J13*
G01X14587*
G03X14489Y-7540J138*
G01X14394Y-7636*
G02X14366Y-7648I28J28*
X14327Y-7616J40*
G03X14173Y-7492I154J34*
G01X14094*
G03X13937Y-7650J158*
G01Y-8020*
G03X13946Y-8071I157*
G02X13948Y-8084I38J13*
X13924Y-8120I40*
G03X13881Y-8149I54J126*
G01X13775Y-8254*
G02X13747Y-8266I28J28*
X13732Y-8263J40*
G03X13563Y-8228I169J398*
X13130Y-8661J433*
G01Y-7815*
X13427*
G03X13524Y-7775J138*
G01X13806Y-7493*
G02X13813Y-7487I28J27*
G03X13878Y-7370I73J117*
G01Y-7294*
G02X13890Y-7266I39*
G03X13937Y-7154I110J112*
G01Y-6837*
G02X13949Y-6809I39*
G01X14072Y-6686*
G02X14100Y-6674I28J28*
G01X14304*
G02X14344Y-6714J40*
X14341Y-6728I40*
G03X14331Y-6783I147J55*
G01Y-7154*
G03X14488Y-7311I157*
G01X14567*
G03X14724Y-7154J157*
G01Y-6783*
G03X14714Y-6728I157*
G02X14712Y-6714I37J14*
X14751Y-6674I39*
G01X14891*
G03X14935Y-6667J138*
G02X14947Y-6665I12J37*
X14978Y-6680J39*
G01X14979*
G02X14987Y-6705I31J25*
X14981Y-6726I39*
G03X14951Y-6831I167J105*
G01Y-7028*
G03X15148Y-7224I197*
G01X15482*
G03X15668Y-7093J196*
G02X15705Y-7067I37J13*
G01X15735*
G02X15760Y-7076J39*
G03X15846Y-7106I86J107*
G01X15866*
G02X15906Y-7146J40*
G01Y-7154*
G03X16063Y-7311I157*
G01X16142*
G03X16299Y-7154J157*
G01Y-6783*
G03X16252Y-6671I157*
G02X16240Y-6643I28J28*
G01Y-6628*
G02X16249Y-6603I40*
G03X16280Y-6517I107J86*
G01Y-6473*
G02X16306Y-6436I39*
G03X16437Y-6250I66J186*
G01Y-5915*
G03X16240Y-5719I197*
G01X16043*
G03X15846Y-5915J196*
G01Y-6250*
G03X15965Y-6431I197*
G02X15989Y-6467I16J36*
X15983Y-6487I40*
G03X15965Y-6556I119J69*
G01Y-6643*
G02X15953Y-6671I40*
G03X15906Y-6767I110J112*
G02X15867Y-6802I39J4*
X15854Y-6800J39*
G03X15807Y-6791I47J129*
G01X15705*
G02X15668Y-6765J39*
G03X15482Y-6634I186J66*
G01X15148*
G03X15084Y-6644J197*
G02X15071Y-6647I13J37*
X15040Y-6632J40*
G01Y-6631*
G02X15032Y-6607I31J24*
X15043Y-6579I39*
G01X15134Y-6488*
G02X15162Y-6476I28J28*
G01X15482*
G03X15679Y-6280J196*
G01Y-6083*
G03X15482Y-5886I197*
G01X15148*
G03X14951Y-6083J197*
G01Y-6265*
G02X14939Y-6293I40*
G01X14845Y-6387*
G02X14817Y-6399I28J28*
G01X14796*
G02X14757Y-6359J40*
X14761Y-6341I39*
G03X14783Y-6250I174J91*
G01Y-5915*
G03X14700Y-5754I196*
G02X14683Y-5722I22J32*
X14708Y-5685I39*
G03X14871Y-5447I93J238*
X14615Y-5191I256*
X14359Y-5447J256*
X14364Y-5497I256*
G02Y-5505I39J8*
X14361Y-5520I39*
G03X14350Y-5574I127J54*
G01Y-5693*
G02X14324Y-5730I39*
G03X14193Y-5915I66J185*
G01Y-6250*
G03X14215Y-6341I197*
G02X14220Y-6359I35J18*
X14180Y-6399I40*
G01X14087*
G02X14048Y-6359J40*
X14052Y-6341I39*
G03X14075Y-6250I174J91*
G01Y-5915*
G03X13878Y-5719I197*
G01X13681*
G03X13484Y-5915J196*
G01Y-6250*
G03X13681Y-6447I197*
G01X13826*
G02X13866Y-6486J39*
X13854Y-6514I40*
G01X13754Y-6614*
G02X13726Y-6626I28J27*
G01X13701*
G03X13543Y-6783J157*
G01Y-7154*
G03X13589Y-7264I158*
G02X13600Y-7292I28J28*
X13589Y-7320I39*
G01X13395Y-7514*
G02X13367Y-7526I28J28*
X13327Y-7486J40*
X13329Y-7476I40*
G03X13337Y-7421I189J55*
G01Y-7224*
G03X13140Y-7028I197*
G01X12805*
G03X12608Y-7224J196*
G01Y-7421*
G03X12619Y-7486I197*
G02X12621Y-7499I37J13*
X12582Y-7538I39*
X12554Y-7527J39*
G01X12462Y-7435*
G02X12451Y-7407I28J28*
G01Y-7224*
G03X12254Y-7028I197*
G01X11919*
G03X11722Y-7224J196*
G01Y-6713*
G03X11919Y-6909I197*
G01X12254*
G03X12451Y-6713J196*
G01Y-6516*
G03X12262Y-6319I197*
G02X12224Y-6280I2J39*
G01Y-5935*
G03X12215Y-5884I137*
G02X12212Y-5869I36J15*
G01Y-5519*
G02X12228Y-5487I39*
G03X12330Y-5282I154J205*
X12074Y-5027I256*
X11818Y-5282J255*
X11920Y-5487I256*
G02X11936Y-5519I23J32*
G01Y-5922*
G03X11946Y-5973I138*
G02X11949Y-5988I37J15*
G01Y-6280*
G02X11911Y-6319I40*
G03X11722Y-6516I8J197*
G01Y-3327*
X12545*
Y-6137*
G03X12643Y-6339I256*
G02X12658Y-6370I24J31*
X12650Y-6394I39*
G03X12608Y-6516I155J122*
G01Y-6713*
G03X12805Y-6909I197*
G01X13140*
G03X13337Y-6713J196*
G01Y-6516*
G03X13148Y-6319I197*
G02X13110Y-6280I2J39*
G01Y-6260*
G03X13070Y-6162I138*
G01X13068Y-6161*
G02X13057Y-6134I28J28*
G03X12801Y-5882I256J3*
X12545Y-6137J255*
G01Y-3327*
X14951*
Y-5571*
G03X15148Y-5768I197*
G01X15482*
G03X15679Y-5571J197*
G01Y-5374*
G03X15482Y-5177I197*
G01X15148*
G03X14951Y-5374J197*
G01Y-3327*
X16555*
Y-6250*
G03X16572Y-6329I197*
G02X16575Y-6344I37J15*
G01Y-6517*
G03X16609Y-6650I275*
G02X16614Y-6669I34J19*
G01Y-6969*
G03X16684Y-7152I276*
G02X16694Y-7174I29J27*
G03X16850Y-7311I156J20*
G01X16875*
G02X16903Y-7323J39*
G01X16950Y-7369*
G02X16961Y-7397I28J28*
X16955Y-7418I39*
G03X16916Y-7553I217J135*
X17172Y-7809I256*
X17428Y-7553J256*
X17302Y-7333I256*
G02X17291Y-7322I20J34*
G03X17277Y-7307I111J82*
G01X17131Y-7160*
G02X17119Y-7133I28J27*
X17125Y-7112I40*
G03X17165Y-6969I235J143*
G01Y-6556*
G03X17131Y-6423I275*
G02X17126Y-6404I34J19*
G01Y-6344*
G02X17129Y-6329I39*
G03X17146Y-6250I180J79*
G01Y-5915*
G03X16949Y-5719I197*
G01X16752*
G03X16555Y-5915J196*
G01Y-3327*
X17208*
Y-5512*
G03X18701Y-7004I1493*
X19882Y-6424J1492*
G01Y-6811*
G03X20157Y-7087I275*
X20433Y-6811J276*
X20157Y-6535I276*
X19882Y-6811J276*
G01Y-6424*
G03X20193Y-5512I1181J912*
X18701Y-4019I1492*
X17208Y-5512J1493*
G01Y-3327*
X20492*
G02X20531Y-3366J39*
G01Y-7500*
G02X20492Y-7539I39*
G01X17579*
Y-10670*
G02X17539Y-10709I40*
G01X-13386Y-10728*
G02X-13425Y-10689J39*
G01Y-7559*
X-17185*
G02X-17224Y-7520J39*
G01Y-5000*
X-2047Y-5305D02*
G02X-2018Y-5276I29D01*
G01X-1687*
G02X-1658Y-5305J29*
X-1661Y-5317I29*
G03X-1689Y-5449I286J132*
G01Y-8094*
G03X-1375Y-8409I314*
X-1060Y-8094J315*
X-1375Y-7779I315*
X-1689Y-8094J315*
G01Y-5449*
G03X-1375Y-5764I314*
X-1142Y-5661J315*
G01Y-6772*
G03X-827Y-7087I315*
X-512Y-6772J315*
X-827Y-6457I315*
X-1142Y-6772J315*
G01Y-5661*
G03X-1060Y-5449I233J212*
X-1088Y-5317I315*
G02X-1091Y-5305I26J12*
X-1062Y-5276I29*
G01X-611*
G02X-590Y-5284J29*
G01X-511Y-5363*
G02X-502Y-5384I20J21*
G01Y-5846*
G03X-305Y-6043I197*
G01X-98*
Y-8327*
G03X177Y-8602I275*
G01X1280*
G03X1555Y-8327J275*
G01Y-7933*
G03X1280Y-7657I275*
G01X177*
G03X-98Y-7933J276*
G01Y-6043*
X-49*
G03X148Y-5846J197*
G01Y-5374*
G03X138Y-5314I197*
G02X137Y-5305I28J9*
X166Y-5276I29*
G01X385*
G02X414Y-5305J29*
X413Y-5314I29*
G03X404Y-5374I187J60*
G01Y-5846*
G03X600Y-6043I196*
G01X856*
G03X1053Y-5846J197*
G01Y-5374*
G03X1044Y-5314I197*
G02X1042Y-5305I28J9*
X1072Y-5276I30*
G01X1158*
G02X1187Y-5304J29*
G03X1228Y-5399I138J3*
G01X1300Y-5472*
G02X1309Y-5493I20J21*
G01Y-5846*
G03X1352Y-5969I197*
G02X1358Y-5987I23J18*
G01Y-6339*
G03X1439Y-6534I276*
G01X1448Y-6542*
G03X1642Y-6623I194J194*
X1732Y-6608J275*
G02X1742Y-6606I10J28*
X1772Y-6636J30*
G01Y-8711*
G02X1742Y-8740I30*
G01X-2018*
G02X-2047Y-8711J29*
G01Y-5305*
X-1594Y7628D02*
G03X-1624Y7657I30D01*
G01X-6939*
G03X-6969Y7628J29*
G01Y6624*
G03X-6939Y6594I30*
G01X-1624*
G03X-1594Y6624J30*
G01Y7628*
X3487Y-4291D02*
G03X3476Y-4263I39D01*
G01X3114Y-3902*
G03X3086Y-3890I28J28*
X3047Y-3927J40*
G02X2792Y-4164I255J18*
X2752Y-4161J255*
G03X2746I6J39*
X2707Y-4200J39*
G01Y-4291*
G03X2746Y-4331I39*
G01X3448*
G03X3487Y-4291J40*
G01X11969Y-1132D02*
Y5427D01*
G02X11999Y5457I30*
G01X12067*
G03X12303Y5693J236*
G01Y5977*
G02X12312Y5997I30*
G01X12333Y6019*
G02X12354Y6028I21J21*
X12384Y5998J30*
G01Y3381*
G02X12375Y3360I30*
G01X12244Y3229*
G03X12195Y3110I118J119*
G01Y3029*
G02X12178Y3002I30*
G03X12067Y2825I86J177*
G01Y2490*
G03X12204Y2303I197*
G02X12224Y2275I9J28*
G01Y2020*
G03X12258Y1930I138*
G02X12265Y1910I22J20*
G01Y1681*
G02X12253Y1657I29*
G03X12147Y1449I150J208*
X12403Y1193I256*
X12659Y1449J256*
X12553Y1657I256*
G02X12541Y1681I17J24*
G01Y1979*
G03X12507Y2069I138*
G02X12500Y2088I23J19*
G01Y2275*
G02X12521Y2303I30*
G03X12657Y2490I60J187*
G01Y2825*
G03X12546Y3002I196*
G02X12530Y3029I13J27*
X12538Y3050I29*
G01X12669Y3181*
G03X12719Y3299I118J118*
G01Y6353*
G02X12726Y6373I29*
G03X12776Y6458I175J158*
G01Y2490*
G03X12972Y2293I196*
G01X13169*
G03X13366Y2490J197*
G01Y2825*
G03X13169Y3022I197*
G01X12972*
G03X12776Y2825J197*
G01Y6458*
G03X12787Y6515I225J73*
G02X12797Y6535I29J2*
G03X12925Y6817I246J282*
X12913Y6912I374*
G02X12912Y6919I29J7*
X12942Y6949I30*
G01X13161*
G02X13190Y6919J30*
X13189Y6912I29*
G03X13177Y6817I362J95*
X13519Y6444I374*
G02X13546Y6415I3J29*
G01X13552Y4885*
Y4884*
G02X13522Y4855I30*
X13509Y4858J29*
G03X13406Y4882I103J212*
G01X13248*
G03X13012Y4646J236*
G01Y4252*
G03X13248Y4016I236*
G01X13406*
G03X13512Y4041J236*
G02X13526Y4044I14J26*
X13555Y4015J29*
G01X13564Y1713*
X14070*
G02X14099Y1683J30*
X14090Y1661I29*
G03X14026Y1516I132J145*
G01Y610*
G03X14222Y413I196*
G01X14557*
G03X14754Y610J197*
G01Y807*
G03X14557Y1004I197*
G01X14222*
G03X14026Y807J197*
G01Y1319*
G03X14222Y1122I196*
G01X14557*
G03X14754Y1319J197*
G01Y1439*
G02X14783Y1468I29*
X14793Y1467J29*
G03X14878Y1452I85J241*
X15014Y1492J256*
G02X15030Y1496I16J25*
X15059Y1467J29*
G01Y-1132*
G02X15030Y-1161I29*
G01X11998*
G02X11969Y-1132J29*
G01X14350Y7766D02*
G02X14380Y7795I30D01*
G01X15177*
Y6817*
G03X15551Y6443I374*
X15925Y6817J374*
X15551Y7191I374*
X15177Y6817J374*
G01Y7795*
X16177*
Y6817*
G03X16551Y6443I374*
X16925Y6817J374*
X16551Y7191I374*
X16177Y6817J374*
G01Y7795*
X17096*
G02X17126Y7766J29*
G01Y3770*
G02X17096Y3740I30*
G01X16280*
Y2215*
G02X16250Y2185I30*
G01X14380*
G02X14350Y2215J30*
G01Y3986*
G02X14380Y4016I30*
G01X14381*
G03X14390I9J236*
G01X14547*
G03X14783Y4252J236*
G01Y4646*
G03X14547Y4882I236*
G01X14390*
G03X14381J236*
G01X14380*
G02X14350Y4911J29*
G01Y7766*
X14380Y3989D02*
G03X14355Y4018I30D01*
G02X14276Y4045I35J234*
G03X14262Y4049I14J26*
X14232Y4019J30*
G01Y2195*
G03X14262Y2165I30*
G01X14350*
G03X14380Y2195J30*
G01Y3989*
Y7648D02*
G03X14350Y7677I30D01*
G01X14262*
G03X14232Y7648J29*
G01Y4879*
G03X14262Y4849I30*
X14276Y4853J30*
G02X14355Y4879I114J207*
G03X14380Y4908I5J29*
G01Y7648*
G37*
G54D10*
X-20315Y7520D03*
X-19331Y-7323D03*
X-2459Y2726D02*
X-772Y4414D01*
Y5044*
Y5552*
X-773Y5553*
Y6188*
X1642Y-6348D02*
X1634Y-6339D01*
Y-5610*
X2443Y6789D02*
X3184Y6048D01*
X8289*
Y6044*
X8596Y1492D02*
X8612Y1475D01*
Y896*
Y187D02*
Y-305D01*
X8605Y-312*
Y-1420*
X6843Y-3182*
X9551Y6815D02*
X8780Y6044D01*
X8289*
X9606Y187D02*
Y-1819D01*
X5608Y-5817*
X2362*
X2156Y-5610*
X1634*
X9606Y896D02*
Y4871D01*
X9948Y5213*
Y5503*
X10335Y5890*
X10846*
X10551Y6815D02*
X10148Y7219D01*
Y7495*
X9207Y8435*
Y8924*
X10846Y5890D02*
Y6520D01*
X10551Y6815*
X15865Y7592D02*
X14305D01*
X14302Y7589*
X12919*
X12500Y8008*
Y8016*
X11988*
X16850Y-6083D02*
Y-6517D01*
X16890Y-6556*
Y-6969*
X20157Y-6811D03*
G54D11*
X-22835Y-4685D03*
X-20098Y-3622D03*
Y-630D03*
Y650D03*
Y3642D03*
X-16122Y-3622D03*
Y-630D03*
Y650D03*
Y3642D03*
X-15138Y-3622D03*
Y650D03*
X-13886Y-6319D03*
X-12528Y-9252D03*
G54D12*
X-29252Y-4528D03*
Y-2480D03*
Y-512D03*
X-20098Y-3622D02*
X-18992Y-2516D01*
X-12323*
X-20098Y-630D02*
Y-3622D01*
Y650D02*
Y3642D01*
X-15138Y-3622D02*
X-13051D01*
X-12657Y-4016*
X-12323*
X-15138Y-630D02*
X-13437D01*
X-13051Y-1016*
X-12323*
X-15138Y650D02*
X-13051D01*
X-12717Y984*
X-12323*
X-15138Y3642D02*
X-13394D01*
X-13051Y3984*
X-12323*
Y2484D02*
X-18941D01*
X-20098Y3642*
X-8386Y-1173D03*
Y-173D03*
X-7386Y-1173D03*
Y-173D03*
Y827D03*
X-5453Y-2209D03*
Y-1209D03*
Y-209D03*
Y791D03*
X2707Y-5207D03*
X4675D03*
X5020Y1969D03*
X8209Y-5472D03*
X8551Y6815D03*
X9551D03*
X10551D03*
X12551Y6817D03*
X13551D03*
X15551D03*
X16551D03*
G54D13*
X-16272Y8193D02*
Y7996D01*
X-16132Y-6870D02*
X-16299Y-7037D01*
X-16132Y-6673D02*
X-16299Y-6506D01*
X-15797Y-6870D02*
X-15630Y-7037D01*
X-15797Y-6673D02*
X-15630Y-6506D01*
X-15256Y5246D02*
X-15491Y5224D01*
X-15256Y5581D02*
X-15423Y5748D01*
X-15059Y5246D02*
X-14824Y5224D01*
X-15059Y5581D02*
X-14892Y5748D01*
X-10630Y7018D02*
X-10797Y6851D01*
X-10630Y7215D02*
X-10797Y7382D01*
X-10295Y7018D02*
X-10128Y6851D01*
X-10295Y7215D02*
X-10128Y7382D01*
X-7165Y1654D02*
X-7402D01*
X-7067Y1486D02*
Y1250D01*
Y1821D02*
Y2057D01*
X-6969Y1654D02*
X-6732D01*
X-6010Y-146D02*
Y-7D01*
X-5936Y67*
Y637*
X-5920Y652*
Y888*
X-5936Y903*
Y3863*
X-6029Y3957*
X-7136*
X-4567Y-6772D02*
Y-6417D01*
Y-6772D02*
X-4213D01*
X-4567D02*
X-4921D01*
X-4567D02*
Y-7126D01*
X-4449Y-2075D02*
X-4520Y-2258D01*
X-4449Y-1705D02*
X-4520Y-1521D01*
X-4370Y-2075D02*
X-4296Y-2257D01*
X-4370Y-1705D02*
X-4284Y-1528D01*
X-3425Y-4173D02*
X-3661D01*
X-3327Y-4341D02*
Y-4577D01*
Y-4006D02*
Y-3770D01*
X-3228Y-4173D02*
X-2992D01*
X-2717Y-6152D02*
X-2884Y-6319D01*
X-2717Y-5817D02*
X-2884Y-5650D01*
X-2520Y-6152D02*
X-2353Y-6319D01*
X-2520Y-5817D02*
X-2353Y-5650D01*
X-1375Y-8094D02*
X-1030D01*
X-1375D02*
X-1719D01*
X-1375D02*
Y-8438D01*
Y-8094D02*
Y-7750D01*
Y-5449D02*
Y-5794D01*
Y-5449D02*
X-1030D01*
X-1375D02*
X-1719D01*
X-827Y-6772D02*
Y-7116D01*
Y-6772D02*
X-1171D01*
X-827D02*
X-482D01*
X-827D02*
Y-6427D01*
X177Y-8130D02*
X-128D01*
X386Y-4291D02*
X190Y-4308D01*
X386Y-4213D02*
X247Y-4073D01*
X600Y-5846D02*
X440Y-6007D01*
X600Y-5374D02*
X374Y-5366D01*
X728Y-8327D02*
Y-8632D01*
Y-7933D02*
Y-7628D01*
X756Y-4291D02*
X895Y-4431D01*
X756Y-4213D02*
X783Y-4018D01*
X856Y-5846D02*
X1016Y-6007D01*
X856Y-5374D02*
X1083Y-5366D01*
X1280Y-8130D02*
X1585D01*
X2175Y-3563D02*
X1939D01*
X2241Y-3465D02*
Y-3228D01*
X4518Y-9980D02*
X4351Y-10147D01*
X4518Y-9783D02*
X4351Y-9616D01*
X4852Y-9980D02*
X5019Y-10147D01*
X4852Y-9783D02*
X5019Y-9616D01*
X5581Y-7421D02*
X5486Y-7638D01*
X5915Y-7421D02*
X5942Y-7656D01*
X6486Y-7421D02*
X6450Y-7655D01*
X6486Y-7224D02*
X6450Y-6991D01*
X6516Y-9852D02*
X6349Y-10019D01*
X6516Y-9518D02*
X6349Y-9351D01*
X6713Y-9852D02*
X6880Y-10019D01*
X6713Y-9518D02*
X6880Y-9351D01*
X6821Y-7421D02*
X6988Y-7588D01*
X6821Y-7224D02*
X6988Y-7057D01*
X7264Y-9685D02*
X7028D01*
X7362Y-9852D02*
Y-10089D01*
Y-9518D02*
Y-9281D01*
X7392Y-7421D02*
X7225Y-7588D01*
X7392Y-7224D02*
X7225Y-7057D01*
X7461Y-9685D02*
X7697D01*
X7726Y-7421D02*
X7893Y-7588D01*
X7726Y-7224D02*
X7893Y-7057D01*
X8551Y6815D02*
Y6402D01*
Y6815D02*
X8965D01*
X8551D02*
Y7228D01*
Y6815D02*
X8138D01*
X9203Y-7421D02*
X9036Y-7588D01*
X9203Y-7224D02*
X9036Y-7057D01*
X9537Y-7421D02*
X9704Y-7588D01*
X9537Y-7224D02*
X9704Y-7057D01*
X10768Y7819D02*
X10573Y7624D01*
X10768Y8213D02*
X10573Y8407D01*
X10925Y7819D02*
X10961Y7546D01*
X10925Y8213D02*
X10961Y8486D01*
X11004Y-9852D02*
X10837Y-10019D01*
X11004Y-9518D02*
X10837Y-9351D01*
X11014Y-7421D02*
X10847Y-7588D01*
X11014Y-7224D02*
X10847Y-7057D01*
X11201Y-9852D02*
X11368Y-10019D01*
X11201Y-9518D02*
X11368Y-9351D01*
X11348Y-7421D02*
X11515Y-7588D01*
X11348Y-7224D02*
X11515Y-7057D01*
X11791Y-9685D02*
X11555D01*
X11890Y-9852D02*
Y-10089D01*
Y-9518D02*
Y-9281D01*
X11988Y-9685D02*
X12224D01*
X12805Y-7323D02*
X12569D01*
X12972Y2657D02*
X12746D01*
X13071Y2490D02*
Y2264D01*
Y2825D02*
Y3051D01*
X13140Y-7323D02*
X13376D01*
X13169Y2657D02*
X13396D01*
X13248Y4252D02*
X13060Y4064D01*
X13248Y4646D02*
X13060Y4834D01*
X13406Y4252D02*
X13437Y3988D01*
X13406Y4646D02*
X13435Y4910D01*
X13551Y6817D02*
X13442Y6428D01*
X13551Y6817D02*
X13148Y6839D01*
X13681Y-6250D02*
X13514Y-6417D01*
X13681Y-5915D02*
X13514Y-5748D01*
X13878Y-6250D02*
X14112Y-6282D01*
X13878Y-5915D02*
X14045Y-5748D01*
X14222Y709D02*
X13996D01*
X14390Y610D02*
Y384D01*
Y807D02*
Y1033D01*
X14488Y-7154D02*
X14349Y-7293D01*
X14488Y-6783D02*
X14292Y-6770D01*
X14557Y709D02*
X14783D01*
X14567Y-7154D02*
X14706Y-7293D01*
X14567Y-6783D02*
X14763Y-6770D01*
X15148Y-5571D02*
X14981Y-5738D01*
X15148Y-5374D02*
X14981Y-5207D01*
X15315Y-9852D02*
X15148Y-10019D01*
X15315Y-9518D02*
X15148Y-9351D01*
X15482Y-5571D02*
X15649Y-5738D01*
X15482Y-5374D02*
X15649Y-5207D01*
X15512Y-9852D02*
X15679Y-10019D01*
X15512Y-9518D02*
X15679Y-9351D01*
X16063Y-9685D02*
X15827D01*
X16161Y-9852D02*
Y-10089D01*
Y-9518D02*
Y-9281D01*
X16260Y-9685D02*
X16496D01*
X16551Y6817D02*
Y7220D01*
Y6817D02*
X16148D01*
X16551D02*
X16955D01*
X16551D02*
Y6413D01*
G54D14*
X-13886Y-6319D02*
X-13614Y-6047D01*
X-13886Y-6319D02*
X-14157Y-6047D01*
X-13886Y-6319D02*
X-14178Y-6568D01*
X-13886Y-6319D02*
X-13594Y-6568D01*
X-12528Y-9252D02*
X-12911D01*
X-12528D02*
Y-9636D01*
Y-9252D02*
X-12144D01*
X-12528D02*
Y-8868D01*
X-8386Y-1173D02*
X-8692Y-1479D01*
X-8386Y-1173D02*
X-8692Y-867D01*
X-8386Y-1173D02*
X-8080Y-1479D01*
X-8386Y-1173D02*
X-8080Y-867D01*
X-7386Y-1173D02*
Y-1606D01*
Y-1173D02*
X-6953D01*
X-7386D02*
X-7819D01*
X-7386D02*
Y-740D01*
X-5453Y-209D02*
X-5813Y-449D01*
X-5453Y-209D02*
X-5228Y-579D01*
X14390Y4252D02*
X14306Y4000D01*
X14390Y4646D02*
X14306Y4898D01*
X14547Y4252D02*
X14735Y4064D01*
X14547Y4646D02*
X14735Y4834D01*
G54D15*
X11952Y10443D02*
X11873Y10378D01*
X11871Y10376*
Y10374*
X11870Y10372*
Y10371*
Y10306*
Y10304*
X11871Y10301*
Y10299*
X11873Y10298*
X12188Y10042*
Y9992*
X11879*
X11876Y9991*
X11873Y9989*
X11871Y9986*
Y9982*
Y9978*
X11873Y9975*
X11876Y9973*
X11879Y9972*
X12197*
X12201Y9973*
X12204Y9976*
X12206Y9978*
X12207Y9982*
Y10046*
X12206Y10048*
Y10051*
X12205Y10053*
X12204Y10054*
X12203*
X11889Y10311*
Y10366*
X11962Y10425*
X12115*
X12192Y10363*
X12195Y10362*
X12198*
X12201Y10363*
X12204Y10366*
X12205Y10369*
X12206Y10372*
X12205Y10376*
X12204Y10377*
X12203Y10378*
X12123Y10443*
X12121*
X12120Y10444*
X12118Y10445*
X11958*
X11957Y10444*
X11956*
X11954Y10443*
X11952*
G54D16*
X-23739Y-4251D02*
X-23326D01*
X-23040Y-3965*
X-23100Y1778D02*
X-22785D01*
X-22778Y1785*
X-22535*
X-22419Y1669*
X-21906*
X-23040Y-3965D02*
X-23402Y-3602D01*
Y555*
X-23319Y638*
X-22852*
X-23040Y-3965D02*
X-22768Y-4236D01*
X-21906*
X-22894Y2538D02*
X-22495Y2936D01*
Y3048*
X-21906Y3638*
X-22702Y933D02*
Y773D01*
X-21906Y-24*
Y-299*
Y-2268D02*
X-22535D01*
X-22540Y-2272*
X-23088*
X-17206Y8606D02*
X-17234Y8635D01*
Y8985*
X-17441Y9192*
Y9666*
X-17181Y9926*
Y10260*
X-16276*
X-17206Y8606D02*
X-16272D01*
X-17038Y7897D02*
X-17206Y8065D01*
Y8606*
X-15965Y-6063D02*
X-16033D01*
X-16320Y-5776*
X-16500*
X-15138Y6339D02*
Y7024D01*
X-15153Y7040*
X-15079Y-6772D02*
X-13411D01*
X-13093Y-7089*
Y-9582*
X-12428Y-10247*
X-7494*
X-15079Y-6063D02*
X-15965D01*
X-14429Y6339D02*
X-14002D01*
X-13955Y6385*
X-14429Y6339D02*
Y5886D01*
X-14449Y5866*
Y5413*
X-14303Y8606D02*
Y7803D01*
X-14310Y7796*
X-12335Y8606D02*
Y7860D01*
X-12341Y7854*
X-10463Y6407D02*
Y5989D01*
X-10285Y5811*
X-9866*
X-9673Y5617*
X-7879*
X-10267Y7854D02*
X-10366Y7953D01*
Y8606*
X-8398D02*
X-8987Y8017D01*
Y8014*
X-9367Y7634*
X-8386Y827D02*
X-8980Y233D01*
Y-1661*
X-8476Y-2165*
X-7146*
X-7927Y-8757D02*
X-7129D01*
X-6978Y-8606*
X-6363*
X-7386Y827D02*
X-6998D01*
X-6663Y492*
X-6594*
X-7146Y-3071D02*
X-7604D01*
X-7632Y-3043*
X-6594Y-217D02*
X-6526D01*
X-6171Y138*
Y776*
X-6358Y963*
X-6437Y-2165D02*
Y-2096D01*
X-5855Y-1515*
X-5759*
X-5453Y-1209*
X-6358Y963D02*
X-6360Y965D01*
X-6358Y963D02*
Y1654D01*
X-5453Y-2209D02*
X-5759Y-2515D01*
X-5881*
X-6437Y-3071*
X-4016Y-2756D02*
Y-1634D01*
X-3839Y-1457*
Y-1102*
X-4016Y-2756D02*
Y-2902D01*
X-4397Y-3283*
Y-3360*
X-3676Y-3191D02*
X-4098Y-3614D01*
Y-3674*
X-3622Y-1890D02*
Y-2035D01*
X-3386Y-2271*
Y-2352*
X-3327Y-5984D02*
Y-5059D01*
X-3629*
X-4019Y-5449*
X-3076Y-595D02*
X156D01*
X679Y-1118*
X1224*
X1435Y-1329*
X-2892Y1487D02*
X-3319Y1060D01*
X-4501*
X-4802Y1361*
Y1785*
X-2618Y-5059D02*
Y-4173D01*
Y-3580*
X-1906Y-2869*
X2276*
X3637Y-4230*
X4897*
X5055Y-4073*
Y-2282*
X5062Y-2275*
Y-1895*
X-1929Y433D02*
X-2283D01*
X-2399Y317*
X-2852*
X-1929Y1339D02*
Y433D01*
X-1791Y-3642D02*
Y-4547D01*
X-1417Y8661D02*
X-1787Y8292D01*
Y7446*
X-1220Y433D02*
Y502D01*
X-941Y781*
X-749*
X-725Y757*
X-1220Y1339D02*
X-861D01*
X-735Y1213*
X-1083Y-3642D02*
Y-3858D01*
X-295*
X-1002Y-2352D02*
X-683Y-2671D01*
X2356*
X3601Y-3915*
X4735*
X-459Y3038D02*
X-682Y2815D01*
Y2655*
X-1929Y1407*
Y1339*
X-177Y-5610D02*
Y-5502D01*
X-709Y-4970*
X-1437*
X-1791Y-4616*
Y-4547*
X571Y-3465D02*
X717D01*
X1014Y-3762*
Y-3917*
X1368Y-4272*
X1437*
X691Y-232D02*
X1006D01*
X1189Y-49*
X2915*
X3380Y417*
X4262*
X1082Y-547D02*
X1364Y-264D01*
X2983*
X3305Y58*
X4008*
X1634Y-5610D02*
X1325Y-5301D01*
Y-5193*
X679Y-4547*
X-1083*
X2249Y449D02*
X1968Y167D01*
X644*
X472Y-4*
X-4431*
X2343Y-4272D02*
X1437D01*
X2792Y-3909D02*
X2783Y-3917D01*
X1860*
X1506Y-3563*
X1437*
X2843Y2625D02*
X2528D01*
X2400Y2497*
X1898*
X1097Y1696*
X559*
X3117Y2289D02*
X2802D01*
X2801Y2290*
X1973*
X1064Y1381*
X880*
X3795Y-1914D02*
X3374Y-2335D01*
Y-2868*
X4513Y2625D02*
Y3197D01*
X5015Y3699*
X5020*
X5242Y3922*
X4513Y65D02*
X4170Y-279D01*
X3274*
X3076Y-478*
X1600*
X1159Y-919*
X886*
X247Y-280*
X-3301*
X-3415Y-394*
X-3839*
X4685Y-9173D02*
X4002D01*
X3910Y-9265*
X4950Y-7769D02*
X5264Y-7454D01*
Y-7029*
X5679Y-6614*
X5748*
X4960Y2625D02*
Y3169D01*
X5242Y3451*
X5488Y-1817D02*
Y-1308D01*
X7103Y308*
Y3108*
X7354Y3359*
X7745*
X6063Y-8661D02*
Y-9685D01*
X5906*
X6190Y-7986D02*
Y-7606D01*
X6191Y-7605*
Y-6410*
X6291Y-6310*
Y-5898*
X7559Y-6614D02*
Y-6189D01*
X7387Y-6016*
Y-5630*
X7559Y-6614D02*
X6654D01*
X8071Y-9685D02*
Y-9169D01*
X7563Y-8661*
X8465Y-7323D02*
Y-8063D01*
X9063Y-8661*
X8465Y-6614D02*
X7559D01*
X9045Y-5988D02*
X9370Y-6313D01*
Y-6614*
X10276*
Y-7323D02*
X10563Y-7610D01*
Y-8661*
Y-9685*
X10394*
X11181Y-6614D02*
X11112D01*
X10640Y-6141*
X10126*
X12074Y-5282D02*
Y-5922D01*
X12087Y-5935*
Y-6614*
X12403Y1449D02*
Y1979D01*
X12362Y2020*
Y2657*
X12598Y-9685D02*
Y-9197D01*
X12063Y-8661*
X12801Y-6137D02*
X12850D01*
X12972Y-6260*
Y-6614*
X13563Y-8661D02*
X13978Y-8246D01*
X14451*
X14690Y-8007*
X15613*
X15784Y-7837*
X15873*
X16134*
X16137Y-7835*
X16496*
X13740Y-6969D02*
Y-7370D01*
X13734*
X13427Y-7677*
X12510*
X12156Y-7323*
X12087*
X14390Y1417D02*
X14459D01*
X14750Y1708*
X14878*
X14448Y217D02*
X14390Y275D01*
Y709*
X14488Y-6083D02*
Y-5574D01*
X14615Y-5447*
X15063Y-8661D02*
X14705Y-9020D01*
Y-9685*
X15315Y-7638D02*
X14587D01*
X14390Y-7835*
X14134*
X15315Y-6181D02*
X15246D01*
X14891Y-6536*
X14027*
X13740Y-6823*
Y-6969*
X16102D02*
X15846D01*
X15807Y-6929*
X15315*
X16102Y-6969D02*
Y-6556D01*
X16142Y-6517*
Y-6083*
X16563Y-8661D02*
X16858D01*
Y-9154*
X16870Y-9165*
Y-9685*
X16890Y-6969D02*
Y-7114D01*
X17180Y-7404*
Y-7546*
X17172Y-7553*
G54D17*
X3315Y-5164D02*
Y-4446D01*
Y-4353*
X3138Y-4176*
X5177Y-1161D02*
X5492Y-846D01*
X5493*
X6524Y185*
Y218*
X6788Y482*
G54D18*
X-5616Y-3573D02*
X-4898Y-2856D01*
Y503*
X-4676Y726*
X-3041*
X-2459Y1307*
Y2726*
X12551Y6531D02*
X12512D01*
X11988Y6008*
Y5890*
G54D19*
X12362Y2657D02*
Y3110D01*
X12551Y3299*
Y6531*
Y6817D02*
Y6531D01*
G54D20*
X-21906Y3638D03*
X-8402Y10260D03*
X-8398Y8606D03*
G54D21*
X-31585Y-3770D03*
Y-1250D03*
G54D22*
X-30128Y-4510D03*
Y-2510D03*
Y-510D03*
G54D23*
X-16276Y10260D03*
X-16272Y8606D03*
X-14307Y10260D03*
X-14303Y8606D03*
X-12339Y10260D03*
X-12335Y8606D03*
X-10370Y10260D03*
X-10366Y8606D03*
G54D24*
X-15965Y-6772D03*
Y-6063D03*
X-15079Y-6772D03*
Y-6063D03*
X-10463Y6407D03*
Y7116D03*
X-6594Y-217D03*
Y492D03*
X-3839Y-1102D03*
Y-394D03*
X1437Y-4272D03*
Y-3563D03*
X2343Y-4272D03*
Y-3563D03*
X4685Y-9882D03*
Y-9173D03*
X5748Y-7323D03*
Y-6614D03*
X6654Y-7323D03*
Y-6614D03*
X7559Y-7323D03*
Y-6614D03*
X8465Y-7323D03*
Y-6614D03*
X8612Y187D03*
Y896D03*
X9370Y-7323D03*
Y-6614D03*
X9606Y187D03*
Y896D03*
X10276Y-7323D03*
Y-6614D03*
X11181Y-7323D03*
Y-6614D03*
X12087Y-7323D03*
Y-6614D03*
X12972Y-7323D03*
Y-6614D03*
X14390Y709D03*
Y1417D03*
X15315Y-7638D03*
Y-6929D03*
Y-6181D03*
Y-5472D03*
G54D25*
X-15157Y5413D03*
X-15138Y6339D03*
X-14449Y5413D03*
X-14429Y6339D03*
X-7146Y-3071D03*
Y-2165D03*
X-7067Y1654D03*
X-6437Y-3071D03*
Y-2165D03*
X-6358Y1654D03*
X-3327Y-5984D03*
Y-5059D03*
Y-4173D03*
X-2618Y-5984D03*
Y-5059D03*
Y-4173D03*
X-1929Y433D03*
Y1339D03*
X-1791Y-4547D03*
Y-3642D03*
X-1220Y433D03*
Y1339D03*
X-1083Y-4547D03*
Y-3642D03*
X5906Y-9685D03*
X6614D03*
X7362D03*
X8071D03*
X10394D03*
X11102D03*
X11890D03*
X12362Y2657D03*
X12598Y-9685D03*
X13071Y2657D03*
X13780Y-6083D03*
X14488D03*
X14705Y-9685D03*
X15413D03*
X16142Y-6083D03*
X16161Y-9685D03*
X16850Y-6083D03*
X16870Y-9685D03*
G54D26*
X10846Y5890D03*
Y8016D03*
X11988Y5890D03*
Y8016D03*
X13327Y4449D03*
X14469D03*
G54D27*
X-12323Y-4016D03*
Y984D03*
X16563Y-8661D03*
X18524Y2815D03*
G54D28*
X-12323Y-2516D03*
Y-1016D03*
Y2484D03*
Y3984D03*
X6063Y-8661D03*
X7563D03*
X9063D03*
X10563D03*
X12063D03*
X13563D03*
X15063D03*
X18524Y-1685D03*
Y-185D03*
Y1315D03*
G54D29*
X-8386Y827D03*
X-5453Y1791D03*
G54D30*
X-4409Y-1890D03*
X-4016Y-2756D03*
X-3622Y-1890D03*
X13740Y-6969D03*
X14134Y-7835D03*
X14528Y-6969D03*
X16102D03*
X16496Y-7835D03*
X16890Y-6969D03*
G54D31*
X728Y-8130D03*
G54D32*
X-177Y-5610D03*
X728D03*
X1634D03*
G54D33*
X-4567Y-6772D03*
X-4019Y-8094D03*
Y-5449D03*
X-1375Y-8094D03*
Y-5449D03*
X-827Y-6772D03*
G54D70*
X-33140Y917D03*
X-33127Y4156D03*
X-30152Y1929D03*
X-30150Y4173D03*
X-30138Y3020D03*
X-27983Y4173D03*
X-27979Y3035D03*
X-27970Y1935D03*
X-25834Y1925D03*
X-25828Y3009D03*
X-25817Y4137D03*
X-23739Y-4251D03*
X-23566Y1289D03*
X-23516Y2201D03*
X-23491Y4191D03*
X-23100Y1778D03*
X-23088Y-2272D03*
X-22894Y2538D03*
X-22702Y933D03*
X-16534Y-6631D03*
X-16500Y-5776D03*
X-15628Y6243D03*
X-15153Y7040D03*
X-14310Y7796D03*
X-13955Y6385D03*
X-12341Y7854D03*
X-10896Y7853D03*
X-10285Y5811D03*
X-10267Y7854D03*
X-9367Y7634D03*
X-8937Y-9156D03*
X-8757Y6929D03*
X-8153Y-7351D03*
X-7927Y-8757D03*
X-7879Y5617D03*
X-7632Y-3043D03*
X-7494Y-10247D03*
X-7136Y3957D03*
X-6871Y4719D03*
X-6742Y6997D03*
X-6363Y-8606D03*
X-6360Y965D03*
X-6162Y6785D03*
X-6010Y-146D03*
X-5616Y-3573D03*
X-5401Y6789D03*
X-4802Y1785D03*
X-4688Y6785D03*
X-4431Y-4D03*
X-4397Y-3360D03*
X-4198Y5681D03*
X-4194Y3978D03*
X-4184Y1674D03*
X-4098Y-3674D03*
X-4063Y6899D03*
X-3676Y-3191D03*
X-3464Y8737D03*
X-3386Y-2352D03*
X-3087Y8347D03*
X-3076Y-595D03*
X-2892Y1487D03*
X-2852Y317D03*
X-2839Y8771D03*
X-2454Y8352D03*
X-2280Y8760D03*
X-1835Y9262D03*
X-1794Y6958D03*
X-1787Y7446D03*
X-1417Y8661D03*
X-1002Y-2352D03*
X-1001Y-1675D03*
X-773Y6188D03*
X-735Y1213D03*
X-725Y757D03*
X-459Y3038D03*
X-258Y-3183D03*
X219Y-2322D03*
X559Y1696D03*
X691Y-232D03*
X880Y1381D03*
X999Y-9646D03*
X1082Y-547D03*
X1435Y-1329D03*
X1642Y-6348D03*
X2041Y8406D03*
X2249Y449D03*
X2357Y-1950D03*
X2412Y8152D03*
X2443Y6789D03*
X2517Y-8831D03*
X2771Y7665D03*
X2776Y8971D03*
X2792Y-3909D03*
X2813Y-7216D03*
X2843Y2625D03*
X3016Y682D03*
X3117Y2289D03*
X3138Y-4176D03*
X3156Y7990D03*
X3290Y-1205D03*
X3315Y-5164D03*
X3374Y-2868D03*
X3570Y9328D03*
X3671Y1581D03*
X3721Y8006D03*
X3795Y-1914D03*
X3863Y-3600D03*
X3910Y-9265D03*
X3912Y9646D03*
X4008Y58D03*
X4011Y9148D03*
X4127Y-7808D03*
X4228Y-594D03*
X4262Y417D03*
X4513Y2625D03*
Y65D03*
X4677Y-1628D03*
X4735Y-3915D03*
X4950Y-7769D03*
X4960Y2625D03*
X5043Y341D03*
X5062Y-1895D03*
X5075Y9648D03*
X5177Y-1161D03*
X5242Y3451D03*
Y3922D03*
X5488Y-1817D03*
X5492Y9381D03*
X5568Y5209D03*
X5652Y-126D03*
X6039Y892D03*
X6050Y5362D03*
X6052Y-2281D03*
X6190Y-7986D03*
X6255Y4976D03*
X6291Y-5898D03*
X6295Y-4385D03*
X6522Y5496D03*
X6788Y482D03*
X6829Y-3754D03*
X6843Y-3182D03*
X6864Y-5857D03*
X7055Y5492D03*
X7056Y-2160D03*
X7387Y-5630D03*
X7653Y5453D03*
X7745Y3359D03*
X7894Y124D03*
X8096Y-4316D03*
X8289Y6044D03*
X8596Y1492D03*
X8806Y5313D03*
X8825Y2003D03*
X9045Y-5988D03*
X9087Y-238D03*
X9123Y4412D03*
X9143Y5687D03*
X9166Y-7870D03*
X9207Y8924D03*
X9471Y5376D03*
X9599Y5795D03*
X10096Y4114D03*
Y4626D03*
X10126Y-6141D03*
X10178Y-1328D03*
X10504Y5332D03*
X11678Y-4728D03*
X12074Y-5282D03*
X12207Y3770D03*
X12403Y1449D03*
X12801Y-6137D03*
X12896Y3774D03*
X13087Y-8051D03*
X13527Y-5258D03*
X14144Y-775D03*
X14363Y3769D03*
X14369Y2329D03*
X14448Y217D03*
X14482Y2761D03*
X14508Y3313D03*
X14615Y-5447D03*
X14878Y1708D03*
X16004Y-7522D03*
X16485Y7536D03*
X16895Y6322D03*
X16936Y7368D03*
X17172Y-7553D03*
X17867Y-4107D03*
G54D71*
X-21906Y-4236D03*
Y-2268D03*
Y-299D03*
Y1669D03*
G54D72*
X-15138Y-630D03*
Y3642D03*
X-12886Y-6319D03*
X-11528Y-9252D03*
G54D73*
X-295Y-3858D03*
X571Y-4252D03*
Y-3465D03*
M02*
