*
G04 Job   : X:\MG\projects\L02-0101\PCB\L02-0101.pcb*
G04 User  : DESKTOP-LPE9H33:User*
G04 Layer : L02-0101_04_L1.gbr*
G04 Date  : Tue Mar 14 15:44:52 2017*
%ICAS*%
%MOIN*%
%FSLAX24Y24*%
%OFA0.0000B0.0000*%
G90*
G74*
%AMVB_RECTANGLE*
21,1,$1,$2,0,0,$3*
%
%AMVB_RCRECTANGLE*
$3=$3X2*
21,1,$1-$3,$2,0,0,0*
21,1,$1,$2-$3,0,0,0*
$1=$1/2*
$2=$2/2*
$3=$3/2*
$1=$1-$3*
$2=$2-$3*
1,1,$3X2,0-$1,0-$2*
1,1,$3X2,0-$1,$2*
1,1,$3X2,$1,$2*
1,1,$3X2,$1,0-$2*
%
%AMVB_Custom_sdr0805_pad*
4,1,6,-0.0512,-0.1535,0.0000,-0.1535,0.0512,-0.1024,0.0512,0.1024,0.0000,0.1535,-0.0512,0.1535,-0.0512,-0.1535,$1*
%
%AMVB_Custom_sdr0403_pad*
4,1,6,-0.0354,-0.0886,0.0000,-0.0886,0.0354,-0.0531,0.0354,0.0531,0.0000,0.0886,-0.0354,0.0886,-0.0354,-0.0886,$1*
%
%ADD16C,0.00591*%
%ADD14C,0.00787*%
%ADD15C,0.01181*%
%ADD13C,0.01575*%
%ADD19C,0.01772*%
%ADD17C,0.02362*%
%ADD18C,0.03150*%
%ADD70C,0.03543*%
%ADD10C,0.03937*%
%ADD68C,0.04724*%
%ADD11C,0.04921*%
%ADD12C,0.05906*%
%ADD26C,0.06299*%
%ADD42C,0.07087*%
%ADD25C,0.09449*%
%ADD53O,0.01772X0.05906*%
%ADD34O,0.07874X0.02362*%
%ADD37VB_RECTANGLE,0.03543X0.03543X270.00000*%
%ADD45VB_RECTANGLE,0.04921X0.04921X180.00000*%
%ADD44VB_RECTANGLE,0.05906X0.05906X270.00000*%
%ADD41VB_RECTANGLE,0.07087X0.07087X90.00000*%
%ADD21VB_RECTANGLE,0.07480X0.07480X270.00000*%
%ADD20VB_RECTANGLE,0.09843X0.09843X90.00000*%
%ADD67VB_RECTANGLE,0.27559X0.27559X270.00000*%
%ADD38VB_RECTANGLE,0.04331X0.01181X90.00000*%
%ADD22VB_RECTANGLE,0.05118X0.05906X0.00000*%
%ADD65VB_RECTANGLE,0.05315X0.02362X0.00000*%
%ADD72VB_RECTANGLE,0.05315X0.02362X270.00000*%
%ADD54VB_RECTANGLE,0.05906X0.01772X90.00000*%
%ADD24VB_RECTANGLE,0.06299X0.05512X270.00000*%
%ADD35VB_RECTANGLE,0.07874X0.02362X180.00000*%
%ADD50VB_RECTANGLE,0.07874X0.02756X180.00000*%
%ADD63VB_RECTANGLE,0.07874X0.06299X270.00000*%
%ADD51VB_RECTANGLE,0.07874X0.07087X180.00000*%
%ADD58VB_RECTANGLE,0.09252X0.08858X270.00000*%
%ADD66VB_RECTANGLE,0.09843X0.05906X0.00000*%
%ADD56VB_RECTANGLE,0.09843X0.07874X90.00000*%
%ADD62VB_RECTANGLE,0.14961X0.11024X90.00000*%
%ADD71VB_RECTANGLE,0.15354X0.09843X90.00000*%
%ADD46VB_Custom_sdr0403_pad,90.00000*%
%ADD47VB_Custom_sdr0403_pad,270.00000*%
%ADD31VB_Custom_sdr0805_pad,90.00000*%
%ADD30VB_Custom_sdr0805_pad,270.00000*%
%ADD36VB_RCRECTANGLE,0.03543X0.03543X0.00787*%
%ADD40VB_RCRECTANGLE,0.04331X0.01181X0.00394*%
%ADD39VB_RCRECTANGLE,0.01181X0.04331X0.00394*%
%ADD27VB_RCRECTANGLE,0.05276X0.02362X0.00787*%
%ADD29VB_RCRECTANGLE,0.02362X0.05276X0.00787*%
%ADD23VB_RCRECTANGLE,0.05512X0.01575X0.00394*%
%ADD49VB_RCRECTANGLE,0.05512X0.02362X0.00787*%
%ADD48VB_RCRECTANGLE,0.05512X0.03346X0.00787*%
%ADD28VB_RCRECTANGLE,0.05709X0.04331X0.01181*%
%ADD73VB_RCRECTANGLE,0.04331X0.05709X0.01181*%
%ADD33VB_RCRECTANGLE,0.07087X0.04724X0.01575*%
%ADD43VB_RCRECTANGLE,0.04724X0.07087X0.01575*%
%ADD60VB_RCRECTANGLE,0.07087X0.04921X0.01181*%
%ADD32VB_RCRECTANGLE,0.04921X0.07087X0.01181*%
%ADD64VB_RCRECTANGLE,0.06299X0.07874X0.01181*%
%ADD52VB_RCRECTANGLE,0.07874X0.07087X0.01181*%
%ADD57VB_RCRECTANGLE,0.08858X0.09252X0.01575*%
%ADD55VB_RCRECTANGLE,0.07874X0.09843X0.01575*%
%ADD59VB_RCRECTANGLE,0.07874X0.14961X0.01969*%
%ADD61VB_RCRECTANGLE,0.11024X0.14961X0.03937*%
G01*
G36*
X-33386Y4341D02*
G02X-33356Y4370I30D01*
G01X-33081*
Y2470*
G03X-33035Y2399I79*
G02X-33018Y2372I12J27*
X-33035Y2345I29*
G03X-33081Y2274I33J71*
G01Y1526*
G03X-33002Y1447I79*
G01X-32946*
G02X-32917Y1417J30*
X-32929Y1393I29*
G03X-32963Y1329I45J64*
G01Y738*
G03X-32884Y659I79*
G01X-32372*
G03X-32293Y738J79*
G01Y1329*
G03X-32327Y1393I79*
G02X-32339Y1417I17J24*
X-32310Y1447I29*
G01X-32254*
G03X-32175Y1526J79*
G01Y2274*
G03X-32221Y2345I79*
G02X-32238Y2372I12J27*
X-32221Y2399I29*
G03X-32175Y2470I33J71*
G01Y3219*
G03X-32254Y3297I79*
G01X-32310*
G02X-32339Y3327J30*
X-32327Y3351I29*
G03X-32293Y3415I45J64*
G01Y4006*
G03X-32372Y4085I79*
G01X-32884*
G03X-32963Y4006J79*
G01Y3415*
G03X-32929Y3351I79*
G02X-32917Y3327I17J24*
X-32946Y3297I29*
G01X-33002*
G03X-33081Y3219J78*
G01Y4370*
X-32018*
Y797*
G03X-31939Y719I79*
G01X-31388*
G03X-31309Y797J78*
G01Y1427*
G03X-31388Y1506I79*
G01X-31939*
G03X-32018Y1427J79*
G01Y3317*
G03X-31939Y3238I79*
G01X-31388*
G03X-31309Y3317J79*
G01Y3947*
G03X-31388Y4026I79*
G01X-31939*
G03X-32018Y3947J79*
G01Y4370*
X-25187*
Y3445*
G03X-24990Y3248I197*
G01X-24793*
G03X-24596Y3445J197*
G01Y3780*
G03X-24793Y3976I197*
G01X-24990*
G03X-25187Y3780J196*
G01Y4370*
X-22589*
G02X-22559Y4341J29*
G01Y3203*
G02X-22568Y3182I30*
G01X-22593Y3157*
G03X-22633Y3060I98J97*
G01Y3005*
G02X-22642Y2985I29*
G01X-22827Y2799*
G02X-22848Y2790I21J20*
X-22853J29*
G03X-22894Y2794I41J252*
X-23101Y2688J256*
G02X-23125Y2675I24J17*
G01X-23724*
G03X-23822Y2635J137*
G01X-23837Y2620*
G02X-23858Y2611I21J20*
X-23888Y2640J29*
G01Y2874*
G03X-24025Y3062I197*
G02X-24045Y3090I9J28*
G01Y3229*
G02X-24025Y3257I29*
G03X-23888Y3445I60J188*
G01Y3780*
G03X-24085Y3976I197*
G01X-24281*
G03X-24478Y3780J196*
G01Y3445*
G03X-24341Y3257I197*
G02X-24321Y3229I9J28*
G01Y3090*
G02X-24341Y3062I29*
G03X-24478Y2874I60J188*
G01Y2539*
G03X-24472Y2491I197*
G02X-24471Y2484I29J7*
X-24501Y2454I30*
X-24522Y2463J30*
G01X-24588Y2529*
G02X-24596Y2550I21J21*
G01Y2874*
G03X-24793Y3071I197*
G01X-24990*
G03X-25036Y3066J197*
G02X-25043Y3065I7J28*
X-25064Y3073J29*
G01X-25105Y3115*
G03X-25128Y3134I98J97*
G02X-25133Y3138I16J24*
G01X-25470Y3474*
G03X-25567Y3514I97J97*
G01X-30738*
G03X-30835Y3474J137*
G01X-31062Y3247*
G02X-31083Y3238I21J21*
G01X-31171*
G03X-31269Y3198J138*
G01X-31417Y3050*
G02X-31437Y3041I20J21*
G01X-31821*
G03X-31939Y2923J118*
G01Y2844*
G03X-31915Y2774I118*
G02X-31909Y2756I24J18*
X-31915Y2738I30*
G03X-31939Y2667I94J71*
G01Y2589*
G03X-31915Y2518I118*
G02X-31909Y2500I24J18*
X-31915Y2482I30*
G03X-31939Y2411I94J71*
G01Y2333*
G03X-31915Y2262I118*
G02X-31909Y2244I24J18*
X-31915Y2226I30*
G03X-31939Y2156I94J70*
G01Y2077*
G03X-31915Y2006I118*
G02X-31909Y1988I24J18*
X-31915Y1970I30*
G03X-31939Y1900I94J70*
G01Y1821*
G03X-31821Y1703I118*
G01X-31348*
G03X-31230Y1821J118*
G01Y1900*
G03X-31254Y1970I118*
G02X-31260Y1988I24J18*
X-31254Y2006I30*
G03X-31230Y2077I94J71*
G01Y2156*
G03X-31237Y2195I118*
G02X-31239Y2205I28J10*
X-31209Y2234I30*
G01X-25857*
G02X-25836Y2226J29*
G01X-25467Y1857*
G02X-25458Y1836I21J21*
G01Y1324*
G03X-25418Y1227I137*
G01X-25196Y1005*
G02X-25187Y984I21J21*
G01Y728*
G03X-24990Y531I197*
G01X-24793*
G03X-24596Y728J197*
G01Y1063*
G03X-24793Y1260I197*
G01X-24990*
G03X-25036Y1254J197*
G02X-25043I7J29*
X-25064Y1262J29*
G01X-25174Y1373*
G02X-25183Y1394I21J21*
G01Y1477*
G02X-25153Y1506I30*
X-25132Y1497J29*
G03X-24990Y1437I142J137*
G01X-24793*
G03X-24596Y1634J197*
G01Y1969*
G03X-24793Y2165I197*
G01X-24990*
G02X-25011Y2174J30*
G01X-25563Y2725*
G03X-25660Y2766I97J97*
G01X-31209*
G02X-31239Y2795J29*
X-31237Y2805I30*
G03X-31231Y2836I111J39*
G02X-31222Y2855I30J2*
G01X-31123Y2954*
G02X-31102Y2963I21J21*
G01X-31014*
G03X-30916Y3003J137*
G01X-30689Y3230*
G02X-30668Y3239I21J21*
G01X-25636*
G02X-25615Y3230J30*
G01X-25306Y2920*
G03X-25283Y2902I98J98*
G02X-25278Y2898I16J25*
G01X-25196Y2816*
G02X-25187Y2795I21J21*
G01Y2539*
G03X-24990Y2343I197*
G01X-24804*
G02X-24783Y2334J30*
G01X-24635Y2186*
G03X-24537Y2146I98J97*
G01X-24453*
G02X-24424Y2116J30*
X-24431Y2097I29*
G03X-24478Y1969I150J128*
G01Y1634*
G03X-24281Y1437I197*
G01X-24085*
G03X-23888Y1634J197*
G02X-23858Y1663I30*
G01X-23656*
G02X-23641Y1659J29*
G03X-23571Y1640I70J119*
G01X-23331*
G02X-23307Y1628J29*
G03X-23100Y1522I207J150*
X-22893Y1628J256*
G02X-22869Y1640I24J17*
G01X-22739*
G02X-22718Y1632J29*
G01X-22670Y1584*
G03X-22586Y1544I98J97*
G02X-22559Y1515I3J29*
G01Y1195*
G02X-22589Y1166I30*
X-22600Y1168J29*
G03X-22702Y1189I102J235*
X-22909Y1083J256*
G02X-22933Y1071I24J17*
G01X-23082*
G03X-23169Y1040J138*
G02X-23187Y1033I18J23*
G01X-23858*
G02X-23888Y1063J30*
G03X-24085Y1260I197*
G01X-24281*
G03X-24478Y1063J197*
G01Y728*
G03X-24281Y531I197*
G01X-24085*
G03X-23888Y728J197*
G02X-23858Y758I30*
G01X-23119*
G03X-23032Y789J138*
G02X-23014Y795I18J23*
G01X-22933*
G02X-22909Y783J29*
G03X-22820Y706I207J150*
G02X-22813Y701I14J26*
G01X-22596Y483*
G02X-22587Y463I21J20*
X-22617Y433I30*
G01X-33356*
G02X-33386Y463J30*
G01Y4341*
X-22559Y2606D02*
G03X-22589Y2636I30D01*
X-22609Y2627J30*
G01X-22633Y2604*
G03X-22641Y2583I21J21*
Y2578I29*
G02X-22638Y2538I253J40*
X-22894Y2282I256*
X-23101Y2388J256*
G03X-23125Y2400I24J18*
G01X-23655*
G03X-23676Y2391J30*
G01X-23881Y2186*
G02X-23932Y2154I98J97*
G03X-23952Y2126I10J28*
X-23943Y2105I30*
G02X-23888Y1969I142J136*
G03X-23858Y1939I30*
G01X-23594*
G02X-23524Y1920J138*
G03X-23509Y1916I15J26*
G01X-23331*
G03X-23307Y1928J30*
G02X-23100Y2034I207J150*
X-22893Y1928J256*
G03X-22869Y1916I24J18*
G01X-22669*
G02X-22603Y1899J138*
G03X-22589Y1895I14J26*
X-22559Y1925J30*
G01Y2606*
X-7618Y10620D02*
G02X-7589Y10650I29D01*
G01X-7085*
G02X-7055Y10620J30*
G01X-7047Y6643*
G03X-6880Y6476I167J1*
G01X-6781*
Y5709*
G03X-6585Y5512I196*
G01X-6250*
G03X-6053Y5709J197*
G01Y5906*
G03X-6250Y6102I197*
G01X-6585*
G03X-6781Y5906J196*
G01Y6476*
X-5846*
Y5315*
G03X-5768Y5236I78*
G01X-4783*
G03X-4705Y5315J79*
G01Y5906*
G03X-4783Y5984I78*
G01X-5768*
G03X-5846Y5906J78*
G01Y6476*
X-4557*
G02X-4528Y6447J29*
G01Y5010*
G02X-4557Y4980I29*
G01X-5974*
G02X-6004Y5010J30*
G01Y5433*
X-7234*
G02X-7264Y5463J30*
G01Y5791*
X-7610Y6149*
G02X-7618Y6169I21J20*
G01Y8968*
G02X-7604Y8994I29*
G03X-7417Y9331I211J337*
G01Y9528*
G03X-7604Y9865I398*
G02X-7618Y9890I15J25*
G01Y10620*
X-7085D02*
G02X-7055Y10650I30D01*
G01X-7008*
Y9154*
G03X-6929Y9075I79*
G01X-3858*
G03X-3780Y9154J79*
G01Y9665*
G03X-3803Y9721I78*
G01X-4314Y10233*
G03X-4370Y10256I56J56*
G01X-6417*
G03X-6473Y10233J79*
G01X-6985Y9721*
G03X-7008Y9665I56J56*
G01Y10650*
X-3652*
Y9843*
G03X-3455Y9646I197*
G01X-3120*
G03X-2923Y9843J197*
G01Y10039*
G03X-3120Y10236I197*
G01X-3455*
G03X-3652Y10039J197*
G01Y10650*
X-2766*
Y9843*
G03X-2569Y9646I197*
G01X-2234*
G03X-2037Y9843J197*
G01Y10039*
G03X-2234Y10236I197*
G01X-2569*
G03X-2766Y10039J197*
G01Y10650*
X-2150*
G02X-1949Y10448J202*
G01Y9734*
G02X-2115Y9567I166*
G01X-3393*
G03X-3661Y9298J269*
G01Y8911*
G02X-3667Y8893I30*
G03X-3720Y8737I203J156*
X-3667Y8582I256*
G02X-3661Y8564I24J18*
G01Y8533*
G02X-3691Y8504I30*
G01X-7051*
G02X-7080Y8533J29*
G01X-7085Y10620*
X-3819Y7435D02*
G03X-3848Y7465I29D01*
X-3869Y7456J30*
G01X-4314Y7011*
G02X-4370Y6988I56J56*
G01X-6417*
G02X-6473Y7011J79*
G01X-6918Y7456*
G03X-6939Y7465I21J21*
X-6969Y7435J30*
G01Y6811*
X-6968Y6695*
G03Y6693I29*
X-6842Y6575I126J9*
G01X-4188*
G03X-3819Y6944J369*
G01Y7435*
X-3661Y6863D02*
G02X-3632Y6893I29D01*
X-3619Y6890J30*
G03X-3533Y6870I86J177*
G01X-3199*
G03X-3002Y7067J197*
G01Y7264*
G03X-3018Y7341I197*
G02X-3020Y7352I28J11*
X-2990Y7382I30*
G01X-2856*
G02X-2826Y7352J30*
X-2829Y7341I30*
G03X-2844Y7264I181J77*
G01Y7067*
G03X-2648Y6870I196*
G01X-2313*
G03X-2159Y6944J197*
G02X-2136Y6956I23J18*
X-2106Y6926J30*
G01Y6673*
X-1398*
Y6927*
G02X-1368Y6957I30*
X-1360Y6955J30*
G03X-1315Y6949I45J151*
G01X-945*
G03X-787Y7106J157*
G01Y7185*
G03X-798Y7243I158*
G02X-801Y7254I27J11*
X-771Y7283I30*
G01X-676*
G02X-655Y7275J29*
G01X-591Y7210*
Y5551*
G03X-512Y5472I79*
G01X2559*
G03X2638Y5551J79*
G01Y6063*
G03X2615Y6119I79*
G01X2103Y6630*
G03X2047Y6654I56J55*
G01X0*
G03X-56Y6630J79*
G01X-567Y6119*
G03X-591Y6063I55J56*
G01Y7210*
X-520Y7140*
G02X-512Y7119I21J21*
G01Y7106*
G03X-354Y6949I158*
G01X16*
G03X173Y7106J157*
G01Y7185*
G03X162Y7243I157*
G02X160Y7254I28J11*
X190Y7283I30*
G01X413*
G02X443Y7254J29*
G01Y7126*
G03X640Y6929I197*
G01X974*
G03X1171Y7126J197*
G01Y7254*
G02X1201Y7283I30*
G01X1270*
G02X1299Y7254J29*
G01Y6831*
X1339*
Y7352*
G02X1368Y7382I29*
G01X1498*
G02X1528Y7352J30*
X1527Y7349I30*
G03X1526Y7323I195J26*
G01Y7126*
G03X1722Y6929I196*
G01X2057*
G03X2254Y7126J197*
G01Y7323*
G03X2252Y7349I197*
G02Y7352I30J3*
X2282Y7382I30*
G01X2726*
G02X2756Y7352J30*
G01Y5364*
G02X2726Y5335I30*
G01X-935*
G02X-965Y5364J29*
G01Y6378*
X-3632*
G02X-3661Y6407J29*
G01Y6863*
X-866Y7608D02*
G03X-896Y7638I30D01*
G01X-1959*
G03X-1988Y7608J30*
G01Y6781*
G03X-1959Y6752I29*
G01X-1624*
G03X-1594Y6781J29*
G01Y7382*
X-896*
G03X-866Y7411J29*
G01Y7608*
X-807Y8268D02*
G03X-837Y8297I30D01*
G01X-1024*
G02X-1165Y8357J197*
G03X-1186Y8366I21J20*
G01X-1614*
Y8488*
G03X-1620Y8506I30*
G02X-1673Y8661I203J155*
X-1620Y8817I256*
G03X-1614Y8835I24J18*
G01Y9439*
G03X-1644Y9469I30*
G01X-2035*
G03X-2065Y9439J30*
X-2061Y9425I30*
G02X-2037Y9331I173J94*
G01Y9134*
G02X-2234Y8937I197*
G01X-2569*
G02X-2766Y9134J197*
G01Y9331*
G02X-2742Y9425I197*
G03X-2738Y9439I26J14*
X-2768Y9469I30*
G01X-2921*
G03X-2951Y9439J30*
X-2947Y9425I30*
G02X-2923Y9331I173J94*
G01Y9134*
G02X-3120Y8937I197*
G01X-3455*
G02X-3540Y8957J197*
G03X-3553Y8960I13J27*
X-3583Y8930J30*
G01Y8504*
G02X-3597Y8459I78*
G03X-3602Y8442I24J17*
G01Y8195*
G03X-3573Y8166I29*
X-3568J29*
G02X-3533Y8169I35J194*
G01X-3199*
G02X-3002Y7972J197*
G01Y7785*
G03X-2972Y7756I30*
G01X-2874*
G03X-2844Y7785J29*
G01Y7972*
G02X-2648Y8169I196*
G01X-2313*
G02X-2116Y7972J197*
G01Y7785*
G03X-2087Y7756I29*
G01X-1504*
G03X-1474Y7785J29*
G01Y8012*
G02X-1396Y8091I78*
G01X-864*
G02X-844Y8088J79*
G03X-837Y8087I7J29*
X-807Y8117J30*
G01Y8268*
X-709Y4754D02*
G02X-679Y4783I30D01*
G01X-591*
Y3976*
G03X-567Y3921I79*
G01X-56Y3409*
G03X0Y3386I56J56*
G01X2047*
G03X2103Y3409J79*
G01X2615Y3921*
G03X2638Y3976I56J55*
G01Y4488*
G03X2559Y4567I79*
G01X-512*
G03X-591Y4488J79*
G01Y4783*
X2913*
Y6407*
G02X2943Y6437I30*
G01X3071*
Y5512*
G03X3150Y5433I79*
G01X3406*
Y3789*
G03X3602Y3593I196*
G01X3799*
G03X3996Y3789J196*
G01Y4124*
G03X3799Y4321I197*
G01X3602*
G03X3406Y4124J197*
G01Y5433*
X3937*
G03X4016Y5512J79*
G01Y6220*
G03X3937Y6299I79*
G01X3150*
G03X3071Y6220J79*
G01Y6437*
X4111*
G02X4128Y6432J30*
G03X4173Y6417I45J64*
G01X4715*
G02X4744Y6388J29*
G01Y6132*
G02X4715Y6102I29*
G01X4567*
G03X4488Y6024J78*
G01Y5433*
G03X4567Y5354I79*
G01X4715*
G02X4744Y5325J29*
G01Y4814*
G02X4715Y4784I29*
G01X4154*
Y4252*
G02X4148Y4235I30*
G03X4114Y4124I163J111*
G01Y3789*
G03X4148Y3678I197*
G02X4154Y3662I24J16*
G01Y3304*
G02X4124Y3274I30*
G01X82*
G03X64Y3273J236*
G02X62I2J30*
X60J30*
G03X42Y3274I18J235*
G01X-355*
G02X-366Y3276J30*
G03X-459Y3294I93J238*
X-553Y3276J256*
G02X-563Y3274I10J28*
G01X-679*
G02X-709Y3304J30*
G01Y4754*
X1437Y8236D02*
G02X1446Y8257I30D01*
G01X1526Y8337*
Y7835*
G03X1722Y7638I196*
G01X2057*
G03X2254Y7835J197*
G01Y8031*
G03X2057Y8228I197*
G01X1722*
G03X1526Y8031J197*
G01Y8337*
X3071Y9882*
Y7126*
G03X3268Y6929I197*
G01X3819*
G03X4016Y7126J197*
G01Y7598*
G03X3819Y7795I197*
G01X3268*
G03X3071Y7598J197*
G01Y9882*
X3079Y9890*
G02X3100Y9898I21J21*
G01X4163*
Y9331*
G03X4360Y9134I197*
G01X4695*
G03X4892Y9331J197*
G01Y9528*
G03X4695Y9724I197*
G01X4360*
G03X4163Y9528J196*
G01Y9898*
X6112*
G02X6142Y9869J29*
G01Y9813*
G02X6112Y9783I30*
G01X5876*
G03X5679Y9587J196*
G01Y9390*
G03X5876Y9193I197*
G01X6112*
G02X6142Y9163J30*
G01Y9104*
G02X6112Y9075I30*
G01X5876*
G03X5743Y9023J197*
G02X5724Y9016I19J22*
G01X4094*
Y6880*
G02X4065Y6850I29*
G01X2884*
G02X2854Y6880J30*
G01Y7520*
X1467*
G02X1437Y7549J29*
G01Y8236*
X4173Y7943D02*
G02X4203Y7972I30D01*
G01X4715*
G02X4744Y7943J29*
G01Y7776*
G02X4715Y7747I29*
X4706Y7748J29*
G03X4656Y7756I50J159*
X4488Y7589J167*
G01Y7175*
G03X4656Y7008I168*
X4764Y7048J167*
G02X4783Y7055I19J22*
X4803Y7048J29*
G03X4911Y7008I108J127*
X5020Y7048J167*
G02X5039Y7055I19J22*
X5059Y7048J29*
G03X5167Y7008I108J127*
X5276Y7048J167*
G02X5295Y7055I19J22*
X5314Y7048J29*
G03X5423Y7008I109J127*
X5557Y7075J167*
G02X5581Y7087I24J18*
G01X5689*
Y7215*
G02X5719Y7244I30*
G01X6053*
Y6791*
G03X6250Y6594I197*
G01X6585*
G03X6781Y6791J197*
G01Y6988*
G03X6585Y7185I196*
G01X6250*
G03X6053Y6988J197*
G01Y7244*
X6100*
G03X6198Y7284J138*
G01X6515Y7602*
G03X6534Y7626I98J97*
G02X6559Y7639I25J16*
X6574Y7635J29*
G03X6673Y7608I99J170*
G01X6870*
G03X7047Y7719J197*
G01Y7028*
G03X7283Y6791I236*
G01X7677*
G03X7913Y7028J237*
G01Y7185*
G03X7677Y7421I236*
G01X7283*
G03X7047Y7185J236*
G01Y7719*
G03X7067Y7805I177J86*
G01Y8140*
G03X6870Y8337I197*
G01X6673*
G03X6596Y8321J197*
G02X6585Y8319I11J27*
X6555Y8348J29*
G01Y8457*
G02X6564Y8477I30*
G01X6716Y8630*
G02X6719Y8632I21J21*
G03X6734Y8645I83J110*
G01X6840Y8751*
G02X6861Y8760I21J21*
G01X7116*
G03X7304Y8897J197*
G02X7332Y8917I28J9*
G01X7471*
G02X7499Y8897J29*
G03X7687Y8760I188J60*
G01X8022*
G03X8219Y8957J197*
G01Y9104*
G02X8248Y9134I29*
G01X8902*
G02X8932Y9104J30*
G01Y8924*
G03X9207Y8648I275*
X9483Y8924J276*
G01Y9104*
G02X9513Y9134I30*
G01X11053*
G02X11083Y9104J30*
G01Y8170*
G02X11053Y8140I30*
X11039Y8144J30*
G03X10925Y8173I114J207*
G01X10768*
G03X10531Y7937J236*
G01Y7543*
G03X10768Y7307I237*
G01X10925*
G03X11039Y7336J236*
G02X11053Y7340I14J26*
X11083Y7310J30*
G01Y6526*
G02X11053Y6496I30*
G01X10832*
G02X10803Y6526J30*
X10812Y6547I29*
G03X10925Y6815I261J268*
X10551Y7189I374*
X10177Y6815J374*
X10290Y6547I374*
G02X10299Y6526I20J21*
X10270Y6496I29*
G01X9832*
G02X9803Y6526J30*
X9812Y6547I29*
G03X9925Y6815I261J268*
X9551Y7189I374*
X9177Y6815J374*
X9290Y6547I374*
G02X9299Y6526I20J21*
X9270Y6496I29*
G01X8832*
G02X8803Y6526J30*
X8812Y6547I29*
G03X8925Y6815I261J268*
X8551Y7189I374*
X8177Y6815J374*
X8290Y6547I374*
G02X8299Y6526I20J21*
X8270Y6496I29*
G01X4203*
G02X4173Y6526J30*
G01Y7943*
X5020Y8907D02*
G03X4990Y8937I30D01*
G01X4328*
G03X4313Y8933J30*
X4232Y8790I86J143*
G01Y8650*
G03X4397Y8485I166*
G01X4617Y8484*
G02X4761Y8417J186*
G01X4774Y8401*
G02X4803Y8321I96J80*
G01Y8035*
G03X4809Y8018I30*
G02X4823Y7972I65J46*
G01Y7195*
G03X4852Y7165I29*
G01X4970*
G03X5000Y7195J30*
G01Y7589*
G02X5017Y7662I167*
G03X5020Y7674I27J12*
G01Y8907*
X5236Y3159D02*
G02X5266Y3189I30D01*
G01X5502*
Y2303*
G03X5699Y2106I197*
G01X6033*
G03X6230Y2303J197*
G01Y2500*
G03X6033Y2697I197*
G01X5699*
G03X5502Y2500J197*
G01Y3189*
X6254*
G02X6274Y3180J30*
G01X6954Y2501*
G03X6969Y2488I97J97*
G01Y778*
G03X7165Y581I196*
G01X7500*
G03X7697Y778J197*
G01Y974*
G03X7500Y1171I197*
G01X7165*
G03X6969Y974J197*
G01Y2488*
G03X7002Y2470I82J110*
G02X7021Y2442I10J28*
X7018Y2429I29*
G03X6998Y2343I177J86*
G01Y2146*
G03X7195Y1949I197*
G01X7530*
G03X7610Y1966J197*
G02X7622Y1969I12J27*
G01X8008*
G02X8020Y1966J30*
G03X8100Y1949I80J180*
G01X8230*
G02X8251Y1940J30*
G01X8421Y1770*
G03X8616Y1689I195J195*
G01X8634*
G03X8768Y1724J276*
G02X8782Y1727I14J26*
G01X8825*
G03X8838Y1728J276*
G01X8840*
G02X8858Y1722J30*
G01X8985Y1623*
G02X8996Y1600I18J23*
G01Y325*
G02X8967Y295I29*
G01X8956*
G02X8935Y304J30*
G01X8920Y319*
G03X8725Y400I195J195*
G01X7894*
G03X7723Y340J276*
G02X7704Y333I19J23*
X7678Y350J30*
G03X7500Y463I178J84*
G01X7165*
G03X6978Y326J197*
G02X6950Y305I28J9*
G01X6506*
G02X6476Y335J30*
G01Y1240*
G03X6398Y1319I78*
G01X6033*
G02X6004Y1348J29*
G01Y1368*
G02X6033Y1398I29*
G03X6230Y1594J196*
G01Y1791*
G03X6033Y1988I197*
G01X5420*
G02X5391Y2014J30*
G03X5248Y2265I371J45*
G02X5236Y2288I18J23*
G01Y3159*
X5335Y6342D02*
G02X5348Y6401I134D01*
X5375Y6417I27J13*
G01X6051*
G02X6081Y6388J29*
X6077Y6374I30*
G03X6053Y6280I173J94*
G01Y6083*
G03X6250Y5886I197*
G01X6585*
G03X6781Y6083J197*
G01Y6280*
G03X6758Y6374I196*
G02X6754Y6388I25J14*
X6783Y6417I29*
G01X7047*
Y5886*
G03X7283Y5650I236*
G01X7677*
G03X7913Y5886J236*
G01Y6043*
G03X7677Y6280I236*
G01X7283*
G03X7047Y6043J237*
G01Y6417*
X7991*
G02X8018Y6401J29*
X8031Y6342I121J59*
G01Y5489*
G02X7897Y5354I134*
G01X6770*
G03X6437Y5021J333*
G01Y4805*
G02X6407Y4775I30*
X6396Y4778J30*
G03X6319Y4793I77J182*
G01X6122*
G03X5943Y4678J197*
G02X5916Y4661I27J12*
X5896Y4669J29*
G01X5344Y5188*
G02X5335Y5210I20J22*
G01Y5334*
G02X5364Y5363I29*
X5373Y5362J29*
G03X5423Y5354I50J160*
X5591Y5522J168*
G01Y5935*
G03X5423Y6102I168*
X5373Y6095J167*
G02X5364Y6093I9J28*
X5335Y6123J30*
G01Y6342*
X6398Y1211D02*
G03X6368Y1240I30D01*
G01X5706*
G03X5676Y1211J29*
X5681Y1195I30*
G02X5699Y1132I100J63*
G01Y778*
G02X5581Y659I118*
G01X5541*
G02X5478Y678J119*
G03X5463Y682I15J25*
X5447Y678J29*
G02X5384Y659I63J100*
G01X5344*
G02X5281Y678J119*
G03X5266Y682I15J25*
X5250Y678J29*
G02X5187Y659I63J100*
G01X5148*
G02X5085Y678J119*
G03X5069Y682I16J25*
X5053Y678J29*
G02X4990Y659I63J100*
G01X4951*
G02X4888Y678J119*
G03X4872Y682I16J25*
X4856Y678J29*
G02X4793Y659I63J100*
G01X4754*
G02X4746Y660J119*
G01X4744*
G03X4715Y630J30*
G01Y233*
G03X4720Y215I29*
G02X4769Y65I207J150*
X4513Y-191I256*
X4288Y-57J256*
G03X4262Y-42I26J14*
X4236Y-58J29*
G02X4008Y-198I228J116*
X3752Y58J256*
X3755Y99I256*
G03X3756Y103I29J4*
X3747Y124I30*
G01X3692Y180*
G02X3652Y277I97J97*
G01Y630*
G03X3622Y660I30*
G01X3620*
G02X3612Y659I8J118*
G01X3573*
G02X3510Y678J119*
G03X3494Y682I16J25*
X3478Y678J29*
G02X3415Y659I63J100*
G01X3376*
G02X3258Y778J119*
G01Y787*
G03X3228Y817I30*
G01X3189*
G02X3092Y857J138*
G01X2717Y1232*
G03X2696Y1240I21J21*
G01X2569*
G03X2539Y1211J29*
G01Y531*
G03X2569Y502I30*
G01X2982*
G02X3100Y384J118*
G01Y344*
G02X3082Y281I118*
G03X3078Y266I25J15*
X3082Y250I29*
G02X3100Y187I100J63*
G01Y148*
G02X3082Y85I118*
G03X3078Y69I25J16*
X3082Y53I29*
G02X3100Y-10I100J63*
G01Y-49*
G02X3082Y-112I118*
G03X3078Y-128I25J16*
X3082Y-144I29*
G02X3100Y-207I100J63*
G01Y-246*
G02X3082Y-309I118*
G03X3078Y-325I25J16*
X3082Y-341I29*
G02X3100Y-404I100J63*
G01Y-443*
G02X3082Y-506I118*
G03X3078Y-522I25J16*
X3082Y-537I29*
G02X3100Y-600I100J63*
G01Y-640*
G02X3082Y-703I118*
G03X3078Y-719I25J16*
X3082Y-734I29*
G02X3100Y-797I100J63*
G01Y-837*
G02X3082Y-900I118*
G03X3078Y-915I25J15*
X3082Y-931I29*
G02X3100Y-994I100J63*
G01Y-1033*
G02X3082Y-1096I118*
G03X3078Y-1112I25J16*
X3082Y-1128I29*
G02X3100Y-1191I100J63*
G01Y-1230*
G02X3082Y-1293I118*
G03X3078Y-1309I25J16*
X3082Y-1325I29*
G02X3100Y-1388I100J63*
G01Y-1427*
G02X3082Y-1490I118*
G03X3078Y-1506I25J16*
X3082Y-1522I29*
G02X3100Y-1585I100J63*
G01Y-1624*
G02Y-1632I118*
G01Y-1634*
G03X3130Y-1663I30*
G01X3168*
G02X3199Y-1667J138*
G03X3206Y-1668I7J29*
X3227Y-1659J30*
G01X3864Y-1022*
G02X4003Y-964I139J139*
G01X5004*
G03X5021Y-958J29*
G02X5177Y-905I156J203*
X5433Y-1161J256*
X5177Y-1417I256*
X5021Y-1364J256*
G03X5004Y-1358I17J23*
G01X4097*
G03X4076Y-1366J29*
G01X3829Y-1613*
G03X3821Y-1634I21J21*
X3845Y-1663I29*
G02X4002Y-1764I50J251*
G03X4026Y-1776I24J18*
G01X4453*
G02X4551Y-1816J138*
G01X4674Y-1940*
G02X4715Y-2037I97J97*
G01Y-2067*
G03X4744Y-2097I29*
G01X4746*
G02X4754Y-2096I8J118*
G01X4793*
G02X4831Y-2103J119*
G03X4840Y-2104I9J28*
X4870Y-2075J29*
X4863Y-2056I30*
G02X4806Y-1895I199J161*
X5062Y-1639I256*
X5223Y-1696J256*
G03X5241Y-1703I18J23*
X5267Y-1688J30*
G02X5488Y-1561I221J129*
X5744Y-1817J256*
X5703Y-1955I256*
G03X5699Y-1971I25J16*
G01Y-2569*
G03X5728Y-2598I29*
G01X6368*
G03X6398Y-2569J29*
G01Y-1969*
G03X6368Y-1939I30*
G01X5974*
G02X5856Y-1821J118*
G01Y-1781*
G02X5874Y-1719I118*
G03X5879Y-1703I24J16*
X5874Y-1687I29*
G02X5856Y-1624I100J63*
G01Y-1585*
G02X5874Y-1522I118*
G03X5879Y-1506I24J16*
X5874Y-1490I29*
G02X5856Y-1427I100J63*
G01Y-1388*
G02X5874Y-1325I118*
G03X5879Y-1309I24J16*
X5874Y-1293I29*
G02X5856Y-1230I100J63*
G01Y-1191*
G02X5874Y-1128I118*
G03X5879Y-1112I24J16*
X5874Y-1096I29*
G02X5856Y-1033I100J63*
G01Y-994*
G02X5874Y-931I118*
G03X5879Y-915I24J16*
X5874Y-900I29*
G02X5856Y-837I100J63*
G01Y-797*
G02X5874Y-734I118*
G03X5879Y-719I24J15*
X5874Y-703I29*
G02X5856Y-640I100J63*
G01Y-600*
G02X5874Y-537I118*
G03X5879Y-522I24J15*
X5874Y-506I29*
G02X5856Y-443I100J63*
G01Y-404*
G02X5874Y-341I118*
G03X5879Y-325I24J16*
X5874Y-309I29*
G02X5856Y-246I100J63*
G01Y-207*
G02X5874Y-144I118*
G03X5879Y-128I24J16*
X5874Y-112I29*
G02X5856Y-49I100J63*
G01Y-10*
G02X5874Y53I118*
G03X5879Y69I24J16*
X5874Y85I29*
G02X5856Y148I100J63*
G01Y187*
G02X5874Y250I118*
G03X5879Y266I24J16*
X5874Y281I29*
G02X5856Y344I100J63*
G01Y384*
G02X5974Y502I118*
G01X6368*
G03X6398Y531J29*
G01Y1211*
X11083Y5876D02*
G03X11053Y5906I30D01*
G01X8671*
G03X8642Y5876J30*
G01Y4222*
G03X8671Y4193I29*
G01X9041*
G02X9139Y4153J138*
G01X9306Y3985*
G03X9327Y3976I21J21*
G01X10579*
G03X10608Y4006J30*
X10600Y4027I29*
G02X10531Y4193I168J166*
G01Y4587*
G02X10768Y4823I237*
G01X10925*
G02X11039Y4794J236*
G03X11053Y4790I14J26*
X11083Y4820J30*
G01Y5876*
X13445Y3925D02*
G02X13454Y3946I29D01*
G01X13456Y3948*
G02X13477Y3957I21J21*
G01X13524*
Y2835*
G03X13720Y2638I196*
G01X14114*
G03X14311Y2835J197*
G01Y3386*
G03X14114Y3583I197*
G01X13720*
G03X13524Y3386J197*
G01Y3957*
X14754*
G02X14783Y3927J30*
G01Y2215*
G02X14754Y2185I29*
G01X13792*
G02X13771Y2194J30*
G01X13454Y2511*
G02X13445Y2532I20J21*
G01Y3925*
X17047Y6089D02*
G02X17067Y6133I59D01*
G03X17104Y6176I172J189*
G02X17153Y6201I49J34*
G01X17257*
G02X17317Y6142J59*
X17312Y6118I60*
G03X17185Y5512I1389J606*
X18701Y3996I1516*
X20217Y5512J1516*
X18701Y7028I1516*
X17791Y6724J1516*
G02X17756Y6713I35J48*
X17697Y6772J59*
G01Y7736*
G02X17756Y7795I59*
G01X20512*
G02X20571Y7736J59*
G01Y-2303*
G02X20512Y-2362I59*
G01X17677*
G02X17618Y-2303J59*
G01Y-1102*
G02X17677Y-1043I59*
G01X18071*
Y-1685*
G03X18524Y-2138I453*
X18976Y-1685J453*
X18524Y-1232I452*
X18071Y-1685J453*
G01Y-1043*
X19724*
X19739Y3701*
X17106*
G02X17047Y3760J59*
G01Y6089*
X17756Y7766D02*
G03X17726Y7795I30D01*
G01X16211*
G03X16181Y7766J29*
G01Y7033*
G03X16211Y7004I30*
X16236Y7018J29*
G02X16551Y7191I315J201*
X16925Y6817J374*
X16551Y6443I374*
X16236Y6616J374*
G03X16211Y6630I25J16*
X16181Y6600J30*
G01Y6171*
G03X16211Y6142I30*
G01X17303*
G03X17330Y6159J29*
G02X17745Y6688I1371J647*
G03X17756Y6711I19J23*
G01Y7766*
G37*
G54D10*
X-20315Y7047D03*
X-19803Y-7323D03*
X-15984Y-6654D02*
X-16512D01*
X-16534Y-6631*
X-15197Y6417D02*
X-15453D01*
X-15628Y6243*
X-8071Y-8031D02*
Y-7433D01*
X-8153Y-7351*
X-7087Y-4094D02*
X-6137D01*
X-5616Y-3573*
X-6866Y4719D02*
X-6855D01*
X-6486Y4350*
X-6417*
X-6866Y4719D02*
X-6871D01*
X-6417Y5098D02*
X-6486D01*
X-6866Y4719*
X-4184Y1674D02*
X-4160Y1651D01*
Y1480*
X-4439Y1201*
X-4508*
X-3524Y1276D02*
Y772D01*
X-2559Y4705D02*
X-3535Y5681D01*
X-4198*
X-2559Y4705D02*
X-3286Y3978D01*
X-4194*
X783Y10383D02*
X767Y10400D01*
X-1982*
X999Y-9646D02*
X1713D01*
X1642Y-6348D02*
Y-6662D01*
X1713Y-6733*
Y-7717*
X1722Y-2175D02*
X817D01*
X2971Y-10473D02*
X9063D01*
X2971D02*
X-6511D01*
X-7047Y-9937*
Y-6102*
X4065Y-6624D02*
X3317D01*
X6171Y-3868D02*
X6715D01*
X6829Y-3754*
X6171Y-3868D02*
X5285D01*
X6295Y-4385D02*
X6864Y-4954D01*
Y-5857*
X6843Y-3182D02*
X6820Y-3159D01*
X6171*
X7056Y-2160D02*
X7798D01*
X8096Y-2459*
Y-4316*
X7894Y124D02*
X8725D01*
X9087Y-238*
X8268Y2244D02*
X7362D01*
X8268D02*
X8337D01*
X8616Y1965*
X8634*
X8672Y2003*
X8825*
Y2027*
X9022Y2224*
X9445*
X9063Y-10473D02*
X15849D01*
X17193Y-9130*
Y-8193*
X17172Y-8172*
Y-7553*
X9087Y-238D02*
X9857Y-1008D01*
X10178Y-1328*
X9207Y8924D02*
Y9312D01*
X8136Y10383*
X783*
X9267Y-7350D02*
Y-7287D01*
X9075Y-7094*
Y-6949*
X9267Y-7350D02*
X9166Y-7451D01*
Y-7870*
X10827Y-2126D02*
Y-2648D01*
X11091Y-2912*
Y-3110*
Y-4606*
X11678Y-4728D02*
X11557Y-4606D01*
X11091*
X13071Y-6949D02*
Y-7350D01*
X13087Y-7366*
Y-8051*
X14075Y-5295D02*
X13564D01*
X13527Y-5258*
X15354Y6620D02*
X15551Y6817D01*
X14794Y7574*
X12784*
X12618Y7740*
X11988*
X17867Y-4107D02*
X17703Y-4272D01*
X16850*
X20157Y-7362D03*
G54D11*
X-23425Y-4685D03*
X-20098Y-3622D03*
Y-630D03*
Y650D03*
Y3642D03*
X-16122Y-3622D03*
Y-630D03*
Y650D03*
Y3642D03*
X-15138Y-3622D03*
Y650D03*
X-13886Y-6319D03*
X-12528Y-9252D03*
G54D12*
X-29252Y-4528D03*
Y-2480D03*
Y-512D03*
X-8386Y-1173D03*
Y-173D03*
X-7386Y-1173D03*
Y-173D03*
Y827D03*
X-5453Y-2209D03*
Y-1209D03*
Y-209D03*
Y791D03*
X2707Y-5207D03*
X4675D03*
X5020Y1969D03*
X8209Y-5472D03*
X8551Y6815D03*
X9551D03*
X10551D03*
X12551Y6817D03*
X13551D03*
X15354Y6620D02*
X15026D01*
X13720Y5315*
Y5118*
X15551Y6817D03*
X15571Y3110D02*
X16260D01*
X16555Y2815*
X18524*
X15571Y3110D02*
Y4252D01*
X16240Y4921*
Y5118*
X16551Y6817D03*
G54D13*
X-32923Y1604D02*
X-33079Y1449D01*
X-32923Y2195D02*
X-33079Y2350D01*
X-32923Y2549D02*
X-33079Y2394D01*
X-32923Y3140D02*
X-33079Y3295D01*
X-32805Y817D02*
X-32960Y662D01*
X-32805Y1250D02*
X-32992Y1314D01*
X-32805Y3494D02*
X-32992Y3430D01*
X-32805Y3927D02*
X-32960Y4082D01*
X-32451Y817D02*
X-32295Y662D01*
X-32451Y1250D02*
X-32264Y1314D01*
X-32451Y3494D02*
X-32264Y3430D01*
X-32451Y3927D02*
X-32295Y4082D01*
X-32333Y1604D02*
X-32177Y1449D01*
X-32333Y2195D02*
X-32177Y2350D01*
X-32333Y2549D02*
X-32177Y2394D01*
X-32333Y3140D02*
X-32177Y3295D01*
X-31860Y1112D02*
X-32047D01*
X-31860Y3632D02*
X-32047D01*
X-31781Y1860D02*
X-31969D01*
X-31663Y876D02*
Y689D01*
Y1348D02*
Y1535D01*
Y3396D02*
Y3209D01*
Y3868D02*
Y4055D01*
X-31585Y1860D02*
Y1673D01*
X-31467Y1112D02*
X-31280D01*
X-31467Y3632D02*
X-31280D01*
X-31388Y1860D02*
X-31201D01*
X-24990Y3612D02*
X-25217D01*
X-24892Y3445D02*
Y3219D01*
Y3780D02*
Y4006D01*
X-24793Y3612D02*
X-24567D01*
X-7136Y3957D02*
X-7454Y4274D01*
Y5675*
X-7733Y5955*
X-8022*
X-8228Y6161*
X-6756Y7405D02*
X-6832Y7329D01*
X-6375Y10074D02*
X-6459Y10277D01*
X-5854Y9154D02*
Y9045D01*
X-5394Y7067D02*
Y6959D01*
X-4933Y10177D02*
Y10285D01*
X-4032Y7405D02*
X-3955Y7329D01*
X-3937Y9232D02*
X-3782Y9077D01*
X-3533Y7067D02*
X-3555Y6842D01*
X-3455Y9134D02*
X-3476Y8908D01*
X-3455Y9843D02*
X-3615Y9682D01*
X-3455Y10039D02*
X-3615Y10199D01*
X-3366Y7972D02*
Y8199D01*
X-3199Y7067D02*
X-3039Y6907D01*
X-3199Y7264D02*
X-2973Y7281D01*
X-3199Y7874D02*
X-2972D01*
X-3120Y9134D02*
X-2960Y8974D01*
X-3120Y9331D02*
X-2895Y9356D01*
X-3120Y9843D02*
X-2960Y9682D01*
X-3120Y10039D02*
X-2960Y10199D01*
X-2648Y7067D02*
X-2808Y6907D01*
X-2648Y7264D02*
X-2873Y7281D01*
X-2648Y7874D02*
X-2874D01*
X-2569Y9134D02*
X-2729Y8974D01*
X-2569Y9331D02*
X-2794Y9356D01*
X-2569Y9843D02*
X-2729Y9682D01*
X-2569Y10039D02*
X-2729Y10199D01*
X-2480Y7972D02*
Y8199D01*
X-2313Y7067D02*
X-2251Y6849D01*
X-2313Y7874D02*
X-2087D01*
X-2234Y9134D02*
X-2074Y8974D01*
X-2234Y9331D02*
X-2009Y9356D01*
X-2234Y9843D02*
X-2074Y9682D01*
X-2234Y10039D02*
X-2074Y10199D01*
X-1317Y7854D02*
X-1504Y7844D01*
X-1317Y7933D02*
X-1472Y8088D01*
X-1315Y7106D02*
X-1317Y6919D01*
X-945Y7106D02*
X-813Y6974D01*
X-945Y7185D02*
X-758Y7193D01*
X-943Y7933D02*
X-907Y8120D01*
X-409Y4019D02*
X-612Y3935D01*
X-409Y6020D02*
X-612Y6104D01*
X640Y7126D02*
X480Y6966D01*
X974Y7126D02*
X1134Y6966D01*
X1024Y3465D02*
Y3356D01*
Y4488D02*
Y4596D01*
Y5551D02*
Y5443D01*
Y6575D02*
Y6683D01*
X1722Y7224D02*
X1496D01*
X1722Y7835D02*
X1562Y7675D01*
X1722Y8031D02*
X1562Y8192D01*
X1890Y7126D02*
Y6900D01*
X2057Y7224D02*
X2283D01*
X2057Y7835D02*
X2217Y7675D01*
X2057Y8031D02*
X2217Y8192D01*
X2456Y4019D02*
X2659Y3935D01*
X2456Y6020D02*
X2659Y6104D01*
X3228Y5866D02*
X3041D01*
X3268Y7126D02*
X3108Y6966D01*
X3268Y7598D02*
X3108Y7758D01*
X3543Y5591D02*
Y5404D01*
Y6142D02*
Y6329D01*
X3602Y3957D02*
X3376D01*
X3701Y3789D02*
Y3563D01*
Y4124D02*
Y4350D01*
X3799Y3957D02*
X4026D01*
X3819Y7126D02*
X3979Y6966D01*
X3819Y7598D02*
X3979Y7758D01*
X3858Y5866D02*
X4045D01*
X4360Y9429D02*
X4134D01*
X4409Y3957D02*
Y4026D01*
X4911Y4528*
Y5728*
X4528Y9331D02*
Y9104D01*
Y9528D02*
Y9754D01*
X4646Y5728D02*
X4459D01*
X4656Y5512D02*
Y5325D01*
Y5945D02*
Y6132D01*
Y7175D02*
Y6978D01*
Y7382D02*
X4459D01*
X4656Y7589D02*
Y7785D01*
X4695Y9429D02*
X4921D01*
X5423Y5522D02*
Y5325D01*
Y5728D02*
X5620D01*
X5423Y5935D02*
Y6132D01*
X5876Y9488D02*
X5650D01*
X6043Y9390D02*
Y9163D01*
Y9587D02*
Y9813D01*
X6122Y4596D02*
X5962Y4757D01*
X6250Y6083D02*
X6090Y5923D01*
X6250Y6280D02*
X6025Y6305D01*
X6250Y6791D02*
X6090Y6631D01*
X6250Y6988D02*
X6047Y7089D01*
X6319Y4596D02*
X6336Y4822D01*
X6585Y6083D02*
X6745Y5923D01*
X6585Y6280D02*
X6810Y6305D01*
X6585Y6791D02*
X6745Y6631D01*
X6585Y6988D02*
X6745Y7148D01*
X6673Y7805D02*
X6638Y7581D01*
X6673Y8140D02*
X6656Y8366D01*
X6870Y7805D02*
X7030Y7645D01*
X6870Y8140D02*
X7030Y8300D01*
X7283Y5965D02*
X7018D01*
X7283Y7106D02*
X7018D01*
X7480Y5886D02*
Y5620D01*
Y6043D02*
Y6309D01*
Y7028D02*
Y6762D01*
Y7185D02*
Y7451D01*
X7677Y5965D02*
X7943D01*
X7677Y7106D02*
X7943D01*
X10768Y7543D02*
X10580Y7355D01*
X10768Y7937D02*
X10580Y8125D01*
X10925Y7543D02*
X10960Y7280D01*
X10925Y7937D02*
X10960Y8200D01*
X13720Y2835D02*
X13560Y2675D01*
X13720Y3386D02*
X13560Y3546D01*
X14114Y2835D02*
X14274Y2675D01*
X14114Y3386D02*
X14274Y3546D01*
X16551Y6817D02*
X16837Y7102D01*
X16551Y6817D02*
X16299Y7132D01*
X16551Y6817D02*
X16837Y6532D01*
X16551Y6817D02*
X16299Y6502D01*
X16895Y6322D02*
X17131Y6114D01*
X18524Y-1685D02*
Y-2197D01*
Y-1685D02*
X18012D01*
X18524D02*
X19035D01*
X18524D02*
Y-1173D01*
G54D14*
X5699Y2402D02*
X5472D01*
X5866Y2303D02*
Y2077D01*
Y2500D02*
Y2726D01*
X6033Y2402D02*
X6260D01*
X7165Y876D02*
X6939D01*
X7333Y778D02*
Y551D01*
Y974D02*
Y1201D01*
X7500Y876D02*
X7726D01*
G54D15*
X-31663Y1112D02*
Y1565D01*
X-31585Y1644*
Y1860*
Y2884D02*
X-31388D01*
X-31171Y3100*
X-31014*
X-30738Y3377*
X-25567*
X-25208Y3018*
X-25203*
X-24892Y2707*
X-30128Y-4510D02*
X-30110Y-4528D01*
X-29252*
X-29971Y658D02*
X-29970Y657D01*
Y110*
X-30128Y-48*
Y-510*
X-29252Y-512D02*
X-30126D01*
X-30128Y-510*
X-24892Y896D02*
X-25321Y1324D01*
Y1905*
X-25788Y2372*
X-31585*
X-24892Y1801D02*
Y1860D01*
X-25660Y2628*
X-31585*
X-24892Y2707D02*
Y2638D01*
X-24537Y2283*
X-23979*
X-23724Y2538*
X-22894*
X-24183Y896D02*
X-23119D01*
X-23082Y933*
X-22741*
X-24183Y3612D02*
Y2707D01*
X-23100Y1778D02*
X-22669D01*
X-22572Y1681*
X-21906*
X-23100Y1778D02*
X-23571D01*
X-23594Y1801*
X-24183*
X-23088Y-2272D02*
Y-3138D01*
X-24477Y-4528*
X-29252*
X-22741Y933D02*
X-22702D01*
X-21906Y-4224D02*
X-22661D01*
X-22702Y-4183*
X-23257*
X-23325Y-4251*
X-23739*
X-21906Y-2256D02*
X-22646D01*
X-22662Y-2272*
X-23088*
X-21906Y-287D02*
Y-12D01*
X-22741Y824*
Y933*
X-21906Y3650D02*
X-22495Y3060D01*
Y2936*
X-22894Y2538*
X-15984Y-5866D02*
X-16410D01*
X-16500Y-5776*
X-14409Y6417D02*
X-13987D01*
X-13955Y6385*
X-14310Y7796D02*
X-13996Y7481D01*
X-13956*
X-13408Y6933*
X-11933*
X-11654Y6654*
X-12341Y7854D02*
X-11342D01*
X-10935Y7447*
Y7301*
X-11654Y6654D02*
Y6304D01*
X-7844Y2494*
X-5009*
X-4639Y2123*
X-1172*
X-215Y1167*
X453*
X2043Y-423*
X2805*
X-10935Y6341D02*
Y5864D01*
X-7764Y2693*
X-4924*
X-4552Y2321*
X-1070*
X-130Y1381*
X880*
X-10561Y6341D02*
Y6742D01*
X-10965*
X-11585Y7362*
X-11654*
X-10561Y6341D02*
Y5939D01*
X-10433Y5811*
X-10285*
X-10561Y7301D02*
Y7703D01*
X-10711Y7853*
X-10896*
X-10492Y-8248D02*
X-10638D01*
X-10830Y-8441*
Y-9760*
X-10315Y-10276*
Y-9370D02*
Y-9225D01*
X-10074Y-8984*
Y-7770*
X-9695Y-7392*
Y-7008*
X-9567*
X-10267Y7854D02*
X-10187Y7774D01*
Y7301*
Y6341D02*
Y6195D01*
X-9970Y5978*
Y5178*
X-7686Y2894*
X-4845*
X-4474Y2523*
X-990*
X-164Y1697*
X178*
X179Y1696*
X559*
X-9606Y-9370D02*
Y-8917D01*
X-9626Y-8898*
Y-8642*
X-9567Y-5197D02*
X-9675D01*
X-10115Y-5636*
Y-7516*
X-10492Y-7894*
Y-8248*
X-9480Y-7854D02*
X-9213Y-8122D01*
Y-8986*
X-9252Y-9025*
Y-9852*
Y-9853*
Y-9922*
X-9606Y-10276*
X-9480Y-7854D02*
X-9626D01*
X-9367Y7634D02*
Y7649D01*
X-9365*
X-9336Y7677*
X-8740*
X-9094Y6555D02*
X-9417D01*
X-9575Y6713*
Y7151*
X-9367Y7359*
Y7634*
X-8819Y-10276D02*
X-9253Y-10709D01*
X-10047*
X-10315Y-10442*
Y-10276*
X-8760Y-9547D02*
Y-9291D01*
X-8896Y-9156*
X-8937*
X-8760Y-8760D02*
Y-8474D01*
X-8780Y-8455*
Y-8031*
X-8386Y-173D02*
X-8841Y-629D01*
Y-1640*
X-7753Y-2728*
X-5988*
X-5355Y-3360*
X-4397*
X-8386Y827D02*
X-8779Y434D01*
X-8781*
X-9093Y122*
Y-1709*
X-7759Y-3043*
X-7632*
X-8228Y6949D02*
X-8031D01*
Y7677*
X-8228Y6949D02*
X-8738D01*
X-8757Y6929*
X-7927Y-8757D02*
X-8299D01*
X-8302Y-8760*
X-8760*
X-7894Y-9154D02*
Y-9409D01*
X-8110Y-9626*
Y-10276*
X-7879Y5617D02*
X-7760Y5498D01*
Y4105*
X-7296Y3642*
X-7115*
X-6417*
X-7494Y-10247D02*
Y-9802D01*
X-7492Y-9800*
Y-9573*
Y-7952*
X-7579Y-7865*
Y-5413*
X-7171Y-5005*
X-5430*
X-4098Y-3674*
X-7087Y-4094D02*
X-8241Y-5249D01*
Y-6615*
X-9480Y-7854*
X-6585Y5709D02*
X-6745Y5549D01*
X-6585Y5906D02*
X-6745Y6066D01*
X-6339Y-9823D02*
X-2574D01*
X1012Y-6236*
Y-5243*
X2986Y-3269*
X3419*
X3789Y-2898*
Y-2392*
X-6339Y-9114D02*
Y-8631D01*
X-6363Y-8606*
X-6250Y5709D02*
X-6090Y5549D01*
X-6250Y5906D02*
X-6090Y6066D01*
X-6010Y-146D02*
Y-264D01*
X-5544Y-730*
X-5318*
X-4772Y-1276*
X-4281*
X-4114Y-1443*
Y-2167*
X-3929Y-2352*
X-3386*
X-5709Y5610D02*
X-5876D01*
X-5453Y-1209D02*
X-5120Y-1541D01*
X-4748*
X-4469Y-1821*
Y-1890*
X-5453Y1791D02*
X-7421D01*
X-8386Y827*
X-5276Y5374D02*
Y5207D01*
Y5846D02*
Y6014D01*
X-4843Y5610D02*
X-4675D01*
X-4802Y1785D02*
Y2001D01*
X-5097Y2296*
X-7926*
X-12359Y6729*
X-13524*
X-13835Y7040*
X-15153*
X-4508Y492D02*
X-4577D01*
X-4975Y891*
Y1314*
X-5453Y1791*
X-4469Y-551D02*
Y8D01*
X-4456Y20*
X-4682*
X-5453Y791*
X-4455Y20D02*
Y22D01*
X-4456Y20*
X-4455D02*
X-4456D01*
X-4431Y-4D02*
Y-3D01*
X-4455Y20*
X-4184Y1674D02*
X-4082Y1776D01*
X-3524*
X-4019Y-5449D02*
Y-8094D01*
X-3760Y-551D02*
Y-396D01*
X-3524Y-160*
Y272*
X-3676Y-3191D02*
X-1096D01*
X274Y-1821*
X1956*
X2369Y-1407*
X2805*
X-3524Y272D02*
X-2898D01*
X-2852Y317*
X-3524Y272D02*
X-3799D01*
X-4022Y494*
X-4023*
X-4025Y492*
X-4508*
X-3524Y1276D02*
Y1776D01*
X-3248*
X-3222Y1802*
X-2751*
X-2724Y1776*
X-1516*
X-3386Y-2352D02*
X-1002D01*
X-3076Y-595D02*
X-2537Y-56D01*
Y451*
X-2892Y806*
Y1487*
X-2421Y-571D02*
X-2844Y-994D01*
X-4677*
X-4857Y-815*
X-4902Y-770*
Y-43*
X-5236Y291*
X-5571*
X-6039Y760*
Y1226*
X-6206Y1393*
X-6604*
X-6751Y1246*
Y462*
X-7386Y-173*
X-1835Y9262D02*
X-1230D01*
X-906Y9587*
X-1713Y-571D02*
X-1384D01*
X-1306Y-492*
X-906*
X-1516Y1276D02*
Y1776D01*
X-1002Y-2352D02*
X-779Y-2129D01*
X-614*
X334Y-1181*
X591*
X-925Y8661D02*
X-1417D01*
X-906Y-1201D02*
Y-1161D01*
X-477*
X-458Y-1181*
X-197*
X-906Y-1201D02*
Y-1579D01*
X-1001Y-1675*
X-906Y-492D02*
X-482D01*
X-305Y-315*
X197*
X-735Y1213D02*
X-958Y991D01*
X-1021*
X-1240Y772*
X-1516*
X-735Y1213D02*
X-476Y954D01*
X381*
X1955Y-620*
X2805*
X-725Y757D02*
X-947Y535D01*
X-977*
X-1240Y272*
X-1516*
X-217Y8661D02*
Y8228D01*
X-157Y8169*
Y7894*
X-169*
Y7146D02*
X-331D01*
X-515Y7330*
X-571Y7386*
Y9213*
X-197Y9587*
X-169Y7520D02*
X315D01*
X728Y7933*
X807*
X66Y3022D02*
Y2651D01*
X69Y2648*
Y2333*
X197Y-315D02*
X607D01*
X691Y-232*
X650Y9134D02*
X571D01*
X118Y9587*
X-197*
X650Y9843D02*
Y10197D01*
X783Y10330*
Y10383*
X1082Y-547D02*
X912Y-717D01*
X-502*
X-632Y-846*
X-1179*
X-1220*
X-1222Y-844*
X-1358*
X-2056Y-1541*
X-3480*
X-3760Y-1821*
Y-1890*
X1291Y6772D02*
Y8315D01*
X3012Y10036*
X6253*
X6526Y9764*
X6949*
X1435Y-1329D02*
X2142D01*
X2260Y-1211*
X2805*
X1663Y2313D02*
X1156D01*
X1137Y2333*
X659*
X1722Y-2884D02*
X817D01*
X1722D02*
X2280D01*
X3267Y-1897*
X2608Y-5808D02*
Y-6624D01*
X2657Y-5689D02*
G03X2608Y-5808I119J119D01*
G01X2707Y-5570D02*
G02X2657Y-5689I168D01*
G01X2707Y-5207D02*
Y-5049D01*
X2908Y-4848*
X2707Y-5207D02*
Y-5570D01*
X2805Y-1801D02*
X3168D01*
X3264Y-1897*
X3267*
X2805Y-1604D02*
X2451D01*
X2357Y-1698*
Y-1950*
X2805Y-1014D02*
X1289D01*
X720Y-1583*
X215*
X-979Y-2776*
X-4255*
X-5309Y-1722*
X-5585*
X-6436Y-871*
Y669*
X-6360Y746*
Y965*
X2805Y-817D02*
X1845D01*
X270Y757*
X-725*
X2805Y-226D02*
X2135D01*
X1240Y669*
Y1498*
X720Y2018*
X-171*
X-878Y2724*
X-4391*
X-4757Y3091*
X-7599*
X-8630Y4121*
Y6424*
X-8761Y6555*
X-9094*
X2805Y-30D02*
X2220D01*
X1663Y527*
Y1604*
X2805Y364D02*
X2334D01*
X2249Y449*
X2908Y-4848D02*
G02X3393Y-4647I485J485D01*
G01X2963Y-1604D02*
X3130D01*
X2972Y-9882D02*
Y-10236D01*
X2971Y-10238*
Y-10473*
X3117Y2289D02*
X3512D01*
X3986Y1815*
Y955*
X3169Y-7520D02*
Y-7374D01*
X3429Y-7114*
X6239*
X7409Y-5945*
X8363*
X8642Y-5667*
Y-2239*
X8007Y-1604*
X6152*
X3374Y-2868D02*
X2677D01*
X2025Y-3521*
X-3792*
X-4797Y-2515*
X-5147*
X-5453Y-2209*
X3393Y-4647D02*
X3634D01*
X3396Y-2392D02*
Y-2026D01*
X3267Y-1897*
X3396Y955D02*
X3189D01*
X2470Y1673*
Y1742*
X3563Y-8386D02*
Y-8531D01*
X3819Y-8787*
X4224*
X4625Y-8386*
X4882*
X3593Y797D02*
Y630D01*
Y955D02*
Y1542D01*
X3663Y1612*
X3634Y-4647D02*
G03X4022Y-4486J549D01*
G01X3663Y1612D02*
X3533Y1742D01*
X3179*
X3671Y1581D02*
Y1612D01*
X3663*
X3789Y955D02*
Y277D01*
X4008Y58*
X3910Y-9265D02*
X3169Y-8524D01*
Y-7520*
X3910Y-9265D02*
X4133D01*
X4225Y-9173*
X4685*
X3986Y-2392D02*
Y-3019D01*
X3533Y-3472*
X3228*
X2792Y-3909*
X4022Y-4486D02*
G03X4183Y-4098I388J388D01*
G01X4094Y-8386D02*
Y-7840D01*
X4127Y-7808*
X4183Y-4098D02*
Y-2392D01*
Y955D02*
Y1921D01*
X3479Y2625*
X2843*
X4380Y-4120D02*
Y-2392D01*
Y955D02*
Y535D01*
X4262Y417*
X4513Y2625D02*
X4380Y2492D01*
Y955*
X4528Y-4477D02*
G02X4380Y-4120I356J357D01*
G01X4577Y-2392D02*
Y-2037D01*
X4453Y-1914*
X3795*
X4577Y955D02*
Y2241D01*
X4960Y2625*
X4577Y955D02*
Y128D01*
X4513Y65*
X4675Y-5570D02*
G03X4724Y-5689I168D01*
G01X4675Y-5207D02*
Y-5570D01*
Y-5207D02*
Y-4833D01*
G03X4528Y-4477I504*
G01X4685Y-9882D02*
X4964Y-9603D01*
X5122*
X6063Y-8661*
X4724Y-5689D02*
X4747Y-5712D01*
X4735Y-3915D02*
Y-3947D01*
X6290Y-5501*
Y-5582*
X6291Y-5583*
Y-5898*
X4747Y-5712D02*
G02X4774Y-5775I63J63D01*
G01Y-6624*
Y-2392D02*
Y-3356D01*
X5285Y-3868*
X4774Y-2234D02*
Y-2067D01*
Y955D02*
Y1722D01*
X5020Y1969*
X4882Y-8386D02*
X5194D01*
X5594Y-7986*
X6190*
X4950Y-7769D02*
X4700Y-7520D01*
X4488*
X4950Y-7769D02*
X5186Y-7533D01*
X6104*
X7337Y-6299*
X7756*
X4970Y-2392D02*
Y-2844D01*
X5285Y-3159*
X5167Y5728D02*
X5177D01*
Y4843*
X5512Y4508*
Y4429*
X5242Y3451D02*
X6198D01*
X7051Y2598*
X9919*
X10191Y2327*
X10433*
X5242Y3922D02*
X7795D01*
X7929Y4055*
X9041*
X9415Y3681*
X9445*
X5364Y-2392D02*
Y-2141D01*
X5118Y-1895*
X5062*
X5423Y7382D02*
X6100D01*
X6417Y7699*
Y8474*
X6392Y8500*
X5561Y-2392D02*
Y-1890D01*
X5488Y-1817*
X5994Y167D02*
X5827D01*
X6039Y892D02*
X5866Y1065D01*
Y1693*
X6063Y7972D02*
X5325D01*
X5167Y7815*
Y7382*
X6152Y-1407D02*
X8090D01*
X8841Y-2158*
Y-5747*
X8289Y-6299*
X7756*
X6152Y-620D02*
X8434D01*
X9650Y-1835*
Y-5079*
X10054Y-5484*
X11255*
X11450Y-5679*
X14383*
X14615Y-5447*
X6152Y-423D02*
X8518D01*
X9856Y-1761*
Y-1864*
X10118Y-2126*
X6152Y-226D02*
X8602D01*
X10060Y-1684*
X11024*
X11476Y-2137*
Y-3807*
X12074Y-4405*
Y-5282*
X6152Y167D02*
X7333D01*
X6152D02*
X5797D01*
X5652Y22*
Y-126*
X6171Y-3159D02*
X5285D01*
X6392Y8500D02*
X6112Y8780D01*
X6043*
X6788Y482D02*
X6670Y364D01*
X6152*
X6949Y9055D02*
X6636Y8742D01*
X6634*
X6392Y8500*
X7362Y2953D02*
Y3307D01*
X7414Y3359*
X7745*
X7362Y2953D02*
Y2913D01*
X8268*
Y2953*
X7387Y-5630D02*
X7204Y-5447D01*
Y-3035*
X6915Y-2746*
X5271*
X5167Y-2642*
Y-2392*
X7756Y-7008D02*
Y-7362D01*
X7760Y-7366*
Y-8002*
X7563Y-8199*
Y-8661*
X7854Y9055D02*
X6949D01*
X8209Y-5472D02*
Y-5039D01*
X8445Y-4803*
Y-2325*
X7921Y-1801*
X6152*
X8268Y3701D02*
Y2953D01*
Y4409D02*
Y5947D01*
X8289Y5968*
Y6044*
X9045Y-5988D02*
X9140Y-6083D01*
X9469*
X9045Y-5988D02*
Y-2077D01*
X8179Y-1211*
X6152*
X9862Y-6949D02*
Y-6803D01*
X9606Y-6547*
X8162*
X8056Y-6654*
X7265*
X6250Y-7669*
Y-7671*
X6190Y-7730*
Y-7986*
X10091Y-4606D02*
Y-3110D01*
X10118Y-2126D02*
Y-2549D01*
X10091Y-2577*
Y-3110*
X10126Y-6141D02*
X9247Y-5262D01*
Y-1998*
X8262Y-1014*
X6152*
X10126Y-6141D02*
X10565D01*
X10624Y-6083*
X11043*
X10433Y2327D02*
X10709D01*
X10970Y2065*
Y1498*
X10906Y1433*
Y941*
X10433Y2831D02*
X9902D01*
Y2939*
X9868Y2972*
X9445*
X10433Y2831D02*
X10709D01*
X10980Y3102*
Y3745*
X10846Y3878*
Y4390*
X10433Y3331D02*
X10157D01*
X9977Y3512*
Y3679*
X10096Y3799*
Y4114*
X10650Y-6949D02*
Y-7094D01*
X10394Y-7350*
X9267*
X11437Y-6949D02*
X11180D01*
X10779Y-6547*
X10118*
X9862Y-6803*
X11437Y-6949D02*
Y-6843D01*
X11629Y-6650*
X11633Y-6654*
X12836*
X12942Y-6547*
X13602*
X13858Y-6803*
Y-6949*
X12047Y941D02*
X12736Y252D01*
X13563*
X12063Y-8661D02*
Y-8144D01*
X12205Y-8002*
Y-7008*
Y-6299D02*
X11781D01*
X11565Y-6083*
X11043*
X12441Y1827D02*
Y1487D01*
X12403Y1449*
X12441Y2327D02*
X12165D01*
X11909Y2071*
Y1652*
X12047Y1514*
Y941*
X12441Y2831D02*
X12165D01*
X11852Y3144*
Y4390*
X11988*
X12441Y3331D02*
Y3587D01*
X12257Y3770*
X12207*
X12801Y-6137D02*
X12547Y-5884D01*
X11375*
X11172Y-5681*
X9962*
X9448Y-5168*
Y-1919*
X8346Y-817*
X6152*
X12801Y-6137D02*
X13135D01*
X13190Y-6083*
X13465*
X12896Y3774D02*
X12897Y3773D01*
Y3512*
X12717Y3331*
X12441*
X13287Y1256D02*
X12717Y1827D01*
X12441*
X13287Y1256D02*
X13563D01*
X13287D02*
X13106Y1075D01*
Y933*
X13287Y752*
X13563*
X13465Y-6083D02*
X14235D01*
X14451Y-6299*
X14567*
X13563Y1256D02*
X14425D01*
X14878Y1708*
X13563Y1756D02*
Y1895D01*
X12853Y2605*
X12627Y2831*
X12441*
X13858Y-6949D02*
X14114D01*
Y-6821*
X14281Y-6654*
X14919*
X15040*
X15147Y-6547*
X15483*
X15885Y-6949*
X16063*
X15063Y-8661D02*
Y-7504D01*
X14567Y-7008*
X15276Y-6949D02*
X15431D01*
X16004Y-7522*
X15295Y252D02*
X14764Y-280D01*
Y-768*
X15295Y252D02*
X14905D01*
X14870Y217*
X14448*
X15512Y-2717D02*
X16052D01*
X16758Y-2011*
Y-955*
X17526Y-186*
X18030*
X18031Y-185*
X18524*
X15571Y252D02*
X15295D01*
X15571Y752D02*
X15846D01*
X16102Y496*
Y-49*
X15980Y-172*
X15872*
X15630Y-413*
X15571Y1756D02*
X14925D01*
X14878Y1708*
X15630Y-1122D02*
X16365Y-387D01*
Y738*
X16029Y1075*
X16027*
X15846Y1256*
X15571*
X15669Y-6083D02*
Y-5937D01*
X15179Y-5447*
X14615*
X15669Y-6083D02*
X16400D01*
X16636Y-6319*
X16791*
X16063Y-6949D02*
Y-6749D01*
X16319*
X16395Y-6673*
X17065*
X17216Y-6522*
Y-6037*
X15884Y-4705*
X15197*
Y-4272*
X16791Y-7028D02*
Y-8078D01*
X16700Y-8169*
Y-8661*
X16563*
X18524Y1315D02*
X16383Y-826D01*
Y-1314*
X15768Y-1929*
X15512*
G54D16*
X11551Y9992D02*
X11547Y9991D01*
X11545Y9989*
X11544Y9986*
X11543Y9982*
X11544Y9978*
X11545Y9975*
X11547Y9973*
X11551Y9972*
X11735*
X11738Y9973*
X11741Y9975*
X11743Y9978*
Y9982*
Y9986*
X11741Y9989*
X11738Y9991*
X11735Y9992*
X11652*
Y10435*
X11651Y10439*
X11650Y10441*
X11648Y10442*
X11644Y10443*
X11642*
X11640*
X11638Y10442*
X11636Y10440*
X11544Y10311*
X11542Y10308*
Y10304*
X11544Y10302*
X11546Y10299*
X11549Y10297*
X11552Y10296*
X11554*
X11555Y10297*
X11558Y10300*
X11633Y10406*
Y9992*
X11551*
G54D17*
X-11528Y-9252D02*
Y-7697D01*
X-11378*
X-11142Y-7461*
X-5276Y3799D02*
X-5787D01*
X-5965Y3622*
X-6398*
X-6417Y3642*
X-258Y-3183D02*
X219Y-2706D01*
Y-2322*
X365Y-2175*
X817*
X2357Y-1950D02*
Y-1964D01*
X2146Y-2175*
X1722*
X2458Y3038D02*
Y2979D01*
X2469Y2968*
Y2470*
X2470Y2468*
Y1742*
X2776Y-8386D02*
Y-8572D01*
X2517Y-8831*
X2972Y-9173D02*
X2904D01*
X2562Y-8831*
X2517*
X3138Y-4176D02*
X3492Y-3823D01*
X3640*
X3863Y-3600*
X3315Y-5164D02*
Y-5479D01*
X3317Y-5481*
Y-6624*
Y-6693*
X2813Y-7196*
Y-7216*
X5177Y-1161D02*
X4003D01*
X3267Y-1897*
X7854Y9764D02*
X6949D01*
X8596Y1492D02*
X7237D01*
X6788Y1043*
Y482*
X9063Y-10473D02*
Y-8661D01*
X9445Y1516D02*
X8619D01*
X8596Y1492*
X9445Y1516D02*
X9967D01*
X10433Y1827D02*
X10197D01*
X9967Y1596*
Y1516*
X13445Y-3760D02*
X12100D01*
X11766Y-3426*
Y-2012*
X10194Y-440*
Y1288*
X9967Y1516*
G54D18*
X-16977Y-5323D02*
X-16993Y-5338D01*
Y-7006*
X-16735Y-7264*
X-11870*
X-11673Y-7461*
X-11142*
X-16977Y-5323D02*
X-16992Y-5308D01*
Y-1500*
X-16122Y-630*
X-16977Y-5323D02*
X-16965Y-5335D01*
X-15866*
X-16772Y4528D02*
Y1299D01*
X-16122Y650*
Y-630D02*
Y650D01*
Y3642D02*
Y4350D01*
X-15906Y4567*
Y4921*
X-15118Y-6260D02*
Y-5907D01*
X-14608Y-5397*
Y-5187*
X-14854Y-4941*
X-15000*
X-16142*
X-16366Y-4717*
Y-4377*
X-16122Y-4133*
Y-3622*
X-14803Y5551D02*
X-15474D01*
X-15906Y5120*
Y4921*
X-11142Y-6161D02*
X-11299Y-6319D01*
X-12886*
X-8228Y-4094D02*
Y-4646D01*
X-8866Y-5283*
Y-6683*
X-9190Y-7008*
X-9567*
X-7087Y-4094D02*
Y-3976D01*
X-7559Y-3504*
X-8739*
X-10410Y-5174*
Y-5699*
X-10675Y-5965*
X-10945*
X-11142Y-6161*
X-5276Y3799D02*
X-5033D01*
X-4278Y3045*
X-879*
X-873Y3038*
X-459*
X42*
X58Y3022*
X66*
X82Y3038*
X2458*
X5397Y3036D02*
X5394Y3038D01*
X2458*
X14075Y-4587D02*
X14154Y-4508D01*
Y-4272*
X14566*
X14567*
X15197*
X14075Y-4587D02*
Y-4213D01*
X14154Y-4134*
Y-3760*
G54D19*
X12953Y-2717D02*
X13954D01*
X15244Y-1427*
X15325*
X15630Y-1122*
X14144Y-775D02*
X14151Y-768D01*
X14764*
X15630Y-413D02*
X15259Y-784D01*
Y-858*
X14188Y-1929*
X12953*
G54D20*
X-21906Y3650D03*
G54D21*
X-32628Y1900D03*
Y2844D03*
G54D22*
Y1033D03*
Y3711D03*
G54D23*
X-31585Y1860D03*
Y2116D03*
Y2372D03*
Y2628D03*
Y2884D03*
G54D24*
X-31663Y1112D03*
Y3632D03*
G54D25*
X-31585Y-3770D03*
Y-1250D03*
G54D26*
X-30128Y-4510D03*
Y-2510D03*
Y-510D03*
G54D27*
X-16772Y4528D03*
Y5315D03*
X-15984Y-6654D03*
Y-5866D03*
X-15906Y4921D03*
X-15866Y-5335D03*
Y-4547D03*
X-15118Y-6260D03*
X-15000Y-4941D03*
X-10492Y-8248D03*
X-9626Y-8642D03*
Y-7854D03*
X-9094Y6555D03*
X-8760Y-9547D03*
Y-8760D03*
X-8228Y6161D03*
Y6949D03*
X-7894Y-9154D03*
X-1130Y7146D03*
Y7520D03*
X-169Y7146D03*
Y7520D03*
Y7894D03*
G54D28*
X-11654Y6654D03*
Y7362D03*
X-6417Y3642D03*
Y4350D03*
Y5098D03*
Y5807D03*
X-6339Y-9823D03*
Y-9114D03*
X-4508Y492D03*
Y1201D03*
X-3366Y7165D03*
Y7874D03*
X-3287Y9232D03*
Y9941D03*
X-2480Y7165D03*
Y7874D03*
X-2402Y9232D03*
Y9941D03*
X-906Y-1201D03*
Y-492D03*
X650Y9134D03*
Y9843D03*
X807Y7224D03*
Y7933D03*
X817Y-2884D03*
Y-2175D03*
X1663Y1604D03*
Y2313D03*
X1722Y-2884D03*
Y-2175D03*
X1890Y7224D03*
Y7933D03*
X2972Y-9882D03*
Y-9173D03*
X4528Y8720D03*
Y9429D03*
X4685Y-9882D03*
Y-9173D03*
X5285Y-3868D03*
Y-3159D03*
X5866Y1693D03*
Y2402D03*
X6043Y8780D03*
Y9488D03*
X6171Y-3868D03*
Y-3159D03*
X6417Y6181D03*
Y6890D03*
X6949Y9055D03*
Y9764D03*
X7333Y167D03*
Y876D03*
X7362Y2244D03*
Y2953D03*
X7756Y-7008D03*
Y-6299D03*
X7854Y9055D03*
Y9764D03*
X8268Y2244D03*
Y2953D03*
Y3701D03*
Y4409D03*
X9445Y1516D03*
Y2224D03*
Y2972D03*
Y3681D03*
X12205Y-7008D03*
Y-6299D03*
X14075Y-5295D03*
Y-4587D03*
X14567Y-7008D03*
Y-6299D03*
X16791Y-7028D03*
Y-6319D03*
G54D29*
X-15197Y6417D03*
X-14803Y5551D03*
X-14409Y6417D03*
X-10935Y6341D03*
Y7301D03*
X-10561Y6341D03*
Y7301D03*
X-10187Y6341D03*
X-197Y-1181D03*
X197Y-315D03*
X591Y-1181D03*
X2776Y-8386D03*
X3169Y-7520D03*
X3563Y-8386D03*
X4094D03*
X4488Y-7520D03*
X4882Y-8386D03*
X9075Y-6949D03*
X9469Y-6083D03*
X9862Y-6949D03*
X10650D03*
X11043Y-6083D03*
X11437Y-6949D03*
X13071D03*
X13465Y-6083D03*
X13858Y-6949D03*
X15276D03*
X15669Y-6083D03*
X16063Y-6949D03*
G54D30*
X-5394Y7579D03*
X1024Y3976D03*
G54D31*
X-5394Y9665D03*
X1024Y6063D03*
G54D32*
X10091Y-4606D03*
Y-3110D03*
X11091Y-4606D03*
Y-3110D03*
G54D33*
X7480Y5965D03*
Y7106D03*
G54D34*
X-3524Y272D03*
Y772D03*
Y1276D03*
Y1776D03*
X-1516Y772D03*
Y1276D03*
Y1776D03*
X10433Y1827D03*
Y2327D03*
Y2831D03*
Y3331D03*
X12441Y2327D03*
Y2831D03*
Y3331D03*
X13563Y252D03*
Y752D03*
Y1256D03*
X15571Y252D03*
Y752D03*
Y1256D03*
Y1756D03*
G54D35*
X-1516Y272D03*
X12441Y1827D03*
X13563Y1756D03*
G54D36*
X69Y2333D03*
G54D37*
X659D03*
G54D38*
X3396Y-2392D03*
G54D39*
Y955D03*
X3593Y-2392D03*
Y955D03*
X3789Y-2392D03*
Y955D03*
X3986Y-2392D03*
Y955D03*
X4183Y-2392D03*
Y955D03*
X4380Y-2392D03*
Y955D03*
X4577Y-2392D03*
Y955D03*
X4774Y-2392D03*
Y955D03*
X4970Y-2392D03*
Y955D03*
X5167Y-2392D03*
Y955D03*
X5364Y-2392D03*
Y955D03*
X5561Y-2392D03*
Y955D03*
G54D40*
X2805Y-1801D03*
Y-1604D03*
Y-1407D03*
Y-1211D03*
Y-1014D03*
Y-817D03*
Y-620D03*
Y-423D03*
Y-226D03*
Y-30D03*
Y167D03*
Y364D03*
X6152Y-1801D03*
Y-1604D03*
Y-1407D03*
Y-1211D03*
Y-1014D03*
Y-817D03*
Y-620D03*
Y-423D03*
Y-226D03*
Y-30D03*
Y167D03*
Y364D03*
G54D41*
X-12323Y-4016D03*
Y984D03*
X16563Y-8661D03*
X18524Y2815D03*
G54D42*
X-12323Y-2516D03*
Y-1016D03*
Y2484D03*
Y3984D03*
X6063Y-8661D03*
X7563D03*
X9063D03*
X10563D03*
X12063D03*
X13563D03*
X15063D03*
X18524Y-1685D03*
Y-185D03*
Y1315D03*
G54D43*
X-8228Y-4094D03*
X-7087D03*
X10846Y4390D03*
Y7740D03*
X10906Y941D03*
X11988Y4390D03*
Y7740D03*
X12047Y941D03*
G54D44*
X-8386Y827D03*
X-5453Y1791D03*
G54D45*
X-15138Y-630D03*
Y3642D03*
X-12886Y-6319D03*
X-11528Y-9252D03*
G54D46*
X-11142Y-6161D03*
G54D47*
Y-7461D03*
G54D48*
X15630Y-1122D03*
Y-413D03*
G54D49*
X14764Y-768D03*
G54D50*
X12953Y-2717D03*
Y-1929D03*
X15512Y-2717D03*
Y-1929D03*
G54D51*
X3543Y5866D03*
G54D52*
Y7362D03*
G54D53*
X4656Y7382D03*
X4911Y5728D03*
Y7382D03*
X5167Y5728D03*
Y7382D03*
X5423Y5728D03*
Y7382D03*
G54D54*
X4656Y5728D03*
G54D55*
X16850Y-4272D03*
G54D56*
X15197D03*
G54D57*
X1713Y-9646D03*
G54D58*
Y-7717D03*
G54D59*
X-7047Y-6102D03*
G54D60*
X-9567Y-7008D03*
Y-6102D03*
Y-5197D03*
G54D61*
X16240Y5118D03*
G54D62*
X13720D03*
G54D63*
X15571Y3110D03*
G54D64*
X13917D03*
G54D65*
X-1130Y7894D03*
G54D66*
X-5276Y3799D03*
Y5610D03*
G54D67*
X-2559Y4705D03*
G54D68*
X-4567Y-6772D03*
X-4019Y-8094D03*
Y-5449D03*
X-1375Y-8094D03*
Y-5449D03*
X-827Y-6772D03*
G54D70*
X-33140Y917D03*
X-33127Y4156D03*
X-30152Y1929D03*
X-30150Y4173D03*
X-30138Y3020D03*
X-27983Y4173D03*
X-27979Y3035D03*
X-27970Y1935D03*
X-25834Y1925D03*
X-25828Y3009D03*
X-25817Y4137D03*
X-23739Y-4251D03*
X-23566Y1289D03*
X-23516Y2201D03*
X-23491Y4191D03*
X-23100Y1778D03*
X-23088Y-2272D03*
X-22894Y2538D03*
X-22702Y933D03*
X-16534Y-6631D03*
X-16500Y-5776D03*
X-15628Y6243D03*
X-15153Y7040D03*
X-14310Y7796D03*
X-13955Y6385D03*
X-12341Y7854D03*
X-10896Y7853D03*
X-10285Y5811D03*
X-10267Y7854D03*
X-9367Y7634D03*
X-8937Y-9156D03*
X-8757Y6929D03*
X-8153Y-7351D03*
X-7927Y-8757D03*
X-7879Y5617D03*
X-7632Y-3043D03*
X-7494Y-10247D03*
X-7136Y3957D03*
X-6871Y4719D03*
X-6742Y6997D03*
X-6363Y-8606D03*
X-6360Y965D03*
X-6162Y6785D03*
X-6010Y-146D03*
X-5616Y-3573D03*
X-5401Y6789D03*
X-4802Y1785D03*
X-4688Y6785D03*
X-4431Y-4D03*
X-4397Y-3360D03*
X-4198Y5681D03*
X-4194Y3978D03*
X-4184Y1674D03*
X-4098Y-3674D03*
X-4063Y6899D03*
X-3676Y-3191D03*
X-3464Y8737D03*
X-3386Y-2352D03*
X-3087Y8347D03*
X-3076Y-595D03*
X-2892Y1487D03*
X-2852Y317D03*
X-2839Y8771D03*
X-2454Y8352D03*
X-2280Y8760D03*
X-1835Y9262D03*
X-1794Y6958D03*
X-1787Y7446D03*
X-1417Y8661D03*
X-1002Y-2352D03*
X-1001Y-1675D03*
X-773Y6188D03*
X-735Y1213D03*
X-725Y757D03*
X-459Y3038D03*
X-258Y-3183D03*
X219Y-2322D03*
X559Y1696D03*
X691Y-232D03*
X880Y1381D03*
X999Y-9646D03*
X1082Y-547D03*
X1435Y-1329D03*
X1642Y-6348D03*
X2041Y8406D03*
X2249Y449D03*
X2357Y-1950D03*
X2412Y8152D03*
X2443Y6789D03*
X2517Y-8831D03*
X2771Y7665D03*
X2776Y8971D03*
X2792Y-3909D03*
X2813Y-7216D03*
X2843Y2625D03*
X3016Y682D03*
X3117Y2289D03*
X3138Y-4176D03*
X3156Y7990D03*
X3290Y-1205D03*
X3315Y-5164D03*
X3374Y-2868D03*
X3570Y9328D03*
X3671Y1581D03*
X3721Y8006D03*
X3795Y-1914D03*
X3863Y-3600D03*
X3910Y-9265D03*
X3912Y9646D03*
X4008Y58D03*
X4011Y9148D03*
X4127Y-7808D03*
X4228Y-594D03*
X4262Y417D03*
X4513Y2625D03*
Y65D03*
X4677Y-1628D03*
X4735Y-3915D03*
X4950Y-7769D03*
X4960Y2625D03*
X5043Y341D03*
X5062Y-1895D03*
X5075Y9648D03*
X5177Y-1161D03*
X5242Y3451D03*
Y3922D03*
X5488Y-1817D03*
X5492Y9381D03*
X5568Y5209D03*
X5652Y-126D03*
X6039Y892D03*
X6050Y5362D03*
X6052Y-2281D03*
X6190Y-7986D03*
X6255Y4976D03*
X6291Y-5898D03*
X6295Y-4385D03*
X6522Y5496D03*
X6788Y482D03*
X6829Y-3754D03*
X6843Y-3182D03*
X6864Y-5857D03*
X7055Y5492D03*
X7056Y-2160D03*
X7387Y-5630D03*
X7653Y5453D03*
X7745Y3359D03*
X7894Y124D03*
X8096Y-4316D03*
X8289Y6044D03*
X8596Y1492D03*
X8806Y5313D03*
X8825Y2003D03*
X9045Y-5988D03*
X9087Y-238D03*
X9123Y4412D03*
X9143Y5687D03*
X9166Y-7870D03*
X9207Y8924D03*
X9471Y5376D03*
X9599Y5795D03*
X10096Y4114D03*
Y4626D03*
X10126Y-6141D03*
X10178Y-1328D03*
X10504Y5332D03*
X11678Y-4728D03*
X12074Y-5282D03*
X12207Y3770D03*
X12403Y1449D03*
X12801Y-6137D03*
X12896Y3774D03*
X13087Y-8051D03*
X13527Y-5258D03*
X14144Y-775D03*
X14363Y3769D03*
X14369Y2329D03*
X14448Y217D03*
X14482Y2761D03*
X14508Y3313D03*
X14615Y-5447D03*
X14878Y1708D03*
X16004Y-7522D03*
X16485Y7536D03*
X16895Y6322D03*
X16936Y7368D03*
X17172Y-7553D03*
X17867Y-4107D03*
G54D71*
X-21906Y-4224D03*
Y-2256D03*
Y-287D03*
Y1681D03*
G54D72*
X-10187Y7301D03*
G54D73*
X-24892Y896D03*
Y1801D03*
Y2707D03*
Y3612D03*
X-24183Y896D03*
Y1801D03*
Y2707D03*
Y3612D03*
X-10315Y-10276D03*
Y-9370D03*
X-9606Y-10276D03*
Y-9370D03*
X-8819Y-10276D03*
X-8780Y-8031D03*
X-8740Y7677D03*
X-8110Y-10276D03*
X-8071Y-8031D03*
X-8031Y7677D03*
X-4469Y-1890D03*
Y-551D03*
X-3760Y-1890D03*
Y-551D03*
X-2421Y-571D03*
X-1713D03*
X-925Y8661D03*
X-906Y9587D03*
X-217Y8661D03*
X-197Y9587D03*
X2470Y1742D03*
X2608Y-6624D03*
X3179Y1742D03*
X3317Y-6624D03*
X3701Y3957D03*
X4065Y-6624D03*
X4409Y3957D03*
X4774Y-6624D03*
X5512Y4429D03*
X6063Y7972D03*
X6220Y4429D03*
X6772Y7972D03*
X10118Y-2126D03*
X10827D03*
X13445Y-3760D03*
X14154D03*
M02*
