*
G04 Job   : X:\MG\projects\L02-0101\PCB\L02-0101.pcb*
G04 User  : DESKTOP-LPE9H33:User*
G04 Layer : L02-0101_03SMT.gbr*
G04 Date  : Tue Mar 14 15:44:52 2017*
%ICAS*%
%MOIN*%
%FSLAX24Y24*%
%OFA0.0000B0.0000*%
G90*
G74*
%AMVB_RECTANGLE*
21,1,$1,$2,0,0,$3*
%
%AMVB_RCRECTANGLE*
$3=$3X2*
21,1,$1-$3,$2,0,0,0*
21,1,$1,$2-$3,0,0,0*
$1=$1/2*
$2=$2/2*
$3=$3/2*
$1=$1-$3*
$2=$2-$3*
1,1,$3X2,0-$1,0-$2*
1,1,$3X2,0-$1,$2*
1,1,$3X2,$1,$2*
1,1,$3X2,$1,0-$2*
%
%AMVB_Custom_sdr0805_msk*
4,1,14,0.0531,-0.1032,0.0526,-0.1037,0.0526,-0.1038,0.0014,-0.1549,0.0014,-0.1549,0.0008,-0.1555,-0.0531,-0.1555,-0.0531,0.1555,0.0008,0.1555,0.0014,0.1549,0.0014,0.1549,0.0526,0.1038,0.0526,0.1037,0.0531,0.1032,0.0531,-0.1032,$1*
%
%AMVB_Custom_sdr0403_msk*
4,1,14,0.0374,-0.0540,0.0368,-0.0545,0.0368,-0.0545,0.0014,-0.0900,0.0014,-0.0900,0.0008,-0.0906,-0.0374,-0.0906,-0.0374,0.0906,0.0008,0.0906,0.0014,0.0900,0.0014,0.0900,0.0368,0.0545,0.0368,0.0545,0.0374,0.0540,0.0374,-0.0540,$1*
%
%ADD59C,0.05118*%
%ADD37C,0.05315*%
%ADD12C,0.06299*%
%ADD19C,0.06693*%
%ADD33C,0.07480*%
%ADD10C,0.07874*%
%ADD18C,0.09843*%
%ADD45O,0.02165X0.06299*%
%ADD27O,0.08268X0.02756*%
%ADD72VB_RECTANGLE,0.03937X0.03937X270.00000*%
%ADD36VB_RECTANGLE,0.05315X0.05315X180.00000*%
%ADD35VB_RECTANGLE,0.06299X0.06299X270.00000*%
%ADD32VB_RECTANGLE,0.07480X0.07480X90.00000*%
%ADD11VB_RECTANGLE,0.07874X0.07874X0.00000*%
%ADD14VB_RECTANGLE,0.10236X0.10236X90.00000*%
%ADD73VB_RECTANGLE,0.04724X0.01575X90.00000*%
%ADD15VB_RECTANGLE,0.05512X0.06299X0.00000*%
%ADD57VB_RECTANGLE,0.05709X0.02756X0.00000*%
%ADD21VB_RECTANGLE,0.05709X0.02756X270.00000*%
%ADD46VB_RECTANGLE,0.06299X0.02165X90.00000*%
%ADD17VB_RECTANGLE,0.06693X0.05906X270.00000*%
%ADD28VB_RECTANGLE,0.08268X0.02756X180.00000*%
%ADD42VB_RECTANGLE,0.08268X0.03150X180.00000*%
%ADD55VB_RECTANGLE,0.08268X0.06693X270.00000*%
%ADD43VB_RECTANGLE,0.08268X0.07480X180.00000*%
%ADD50VB_RECTANGLE,0.09646X0.09252X270.00000*%
%ADD58VB_RECTANGLE,0.10236X0.06299X0.00000*%
%ADD48VB_RECTANGLE,0.10236X0.08268X90.00000*%
%ADD54VB_RECTANGLE,0.15354X0.11417X90.00000*%
%ADD13VB_RECTANGLE,0.15748X0.10236X90.00000*%
%ADD38VB_Custom_sdr0403_msk,90.00000*%
%ADD39VB_Custom_sdr0403_msk,270.00000*%
%ADD24VB_Custom_sdr0805_msk,90.00000*%
%ADD23VB_Custom_sdr0805_msk,270.00000*%
%ADD29VB_RCRECTANGLE,0.03937X0.03937X0.00787*%
%ADD31VB_RCRECTANGLE,0.04724X0.01575X0.00394*%
%ADD30VB_RCRECTANGLE,0.01575X0.04724X0.00394*%
%ADD70VB_RCRECTANGLE,0.05669X0.02756X0.00787*%
%ADD20VB_RCRECTANGLE,0.02756X0.05669X0.00787*%
%ADD16VB_RCRECTANGLE,0.05906X0.01969X0.00394*%
%ADD41VB_RCRECTANGLE,0.05906X0.02756X0.00787*%
%ADD40VB_RCRECTANGLE,0.05906X0.03740X0.00787*%
%ADD71VB_RCRECTANGLE,0.06102X0.04724X0.01181*%
%ADD22VB_RCRECTANGLE,0.04724X0.06102X0.01181*%
%ADD26VB_RCRECTANGLE,0.07480X0.05118X0.01575*%
%ADD34VB_RCRECTANGLE,0.05118X0.07480X0.01575*%
%ADD52VB_RCRECTANGLE,0.07480X0.05315X0.01181*%
%ADD25VB_RCRECTANGLE,0.05315X0.07480X0.01181*%
%ADD56VB_RCRECTANGLE,0.06693X0.08268X0.01181*%
%ADD44VB_RCRECTANGLE,0.08268X0.07480X0.01181*%
%ADD49VB_RCRECTANGLE,0.09252X0.09646X0.01575*%
%ADD47VB_RCRECTANGLE,0.08268X0.10236X0.01575*%
%ADD51VB_RCRECTANGLE,0.08268X0.15354X0.01969*%
%ADD53VB_RCRECTANGLE,0.11417X0.15354X0.03937*%
G01*
G36*
X-3346Y3642D02*
X-1181D01*
Y5768*
X-3346*
Y3642*
G37*
G54D10*
X-20315Y7047D03*
X-19803Y-7323D03*
X20157Y-7362D03*
G54D11*
X-32628Y1900D03*
Y2844D03*
X-23425Y-4685D03*
G54D12*
X-29252Y-4528D03*
Y-2480D03*
Y-512D03*
X-8386Y-1173D03*
Y-173D03*
X-7386Y-1173D03*
Y-173D03*
Y827D03*
X-5453Y-2209D03*
Y-1209D03*
Y-209D03*
Y791D03*
X2707Y-5207D03*
X4675D03*
X5020Y1969D03*
X8209Y-5472D03*
X8551Y6815D03*
X9551D03*
X10551D03*
X12551Y6817D03*
X13551D03*
X15551D03*
X16551D03*
G54D13*
X-21906Y-4224D03*
Y-2256D03*
Y-287D03*
Y1681D03*
G54D14*
Y3650D03*
G54D15*
X-32628Y1033D03*
Y3711D03*
G54D16*
X-31585Y1860D03*
Y2116D03*
Y2372D03*
Y2628D03*
Y2884D03*
G54D17*
X-31663Y1112D03*
Y3632D03*
G54D18*
X-31585Y-3770D03*
Y-1250D03*
G54D19*
X-30128Y-4510D03*
Y-2510D03*
Y-510D03*
G54D20*
X-15197Y6417D03*
X-14803Y5551D03*
X-14409Y6417D03*
X-10935Y6341D03*
Y7301D03*
X-10561Y6341D03*
Y7301D03*
X-10187Y6341D03*
X-197Y-1181D03*
X197Y-315D03*
X591Y-1181D03*
X2776Y-8386D03*
X3169Y-7520D03*
X3563Y-8386D03*
X4094D03*
X4488Y-7520D03*
X4882Y-8386D03*
X9075Y-6949D03*
X9469Y-6083D03*
X9862Y-6949D03*
X10650D03*
X11043Y-6083D03*
X11437Y-6949D03*
X13071D03*
X13465Y-6083D03*
X13858Y-6949D03*
X15276D03*
X15669Y-6083D03*
X16063Y-6949D03*
G54D21*
X-10187Y7301D03*
G54D22*
X-24892Y896D03*
Y1801D03*
Y2707D03*
Y3612D03*
X-24183Y896D03*
Y1801D03*
Y2707D03*
Y3612D03*
X-10315Y-10276D03*
Y-9370D03*
X-9606Y-10276D03*
Y-9370D03*
X-8819Y-10276D03*
X-8780Y-8031D03*
X-8740Y7677D03*
X-8110Y-10276D03*
X-8071Y-8031D03*
X-8031Y7677D03*
X-4469Y-1890D03*
Y-551D03*
X-3760Y-1890D03*
Y-551D03*
X-2421Y-571D03*
X-1713D03*
X-925Y8661D03*
X-906Y9587D03*
X-217Y8661D03*
X-197Y9587D03*
X2470Y1742D03*
X2608Y-6624D03*
X3179Y1742D03*
X3317Y-6624D03*
X3701Y3957D03*
X4065Y-6624D03*
X4409Y3957D03*
X4774Y-6624D03*
X5512Y4429D03*
X6063Y7972D03*
X6220Y4429D03*
X6772Y7972D03*
X10118Y-2126D03*
X10827D03*
X13445Y-3760D03*
X14154D03*
G54D23*
X-5394Y7579D03*
X1024Y3976D03*
G54D24*
X-5394Y9665D03*
X1024Y6063D03*
G54D25*
X10091Y-4606D03*
Y-3110D03*
X11091Y-4606D03*
Y-3110D03*
G54D26*
X7480Y5965D03*
Y7106D03*
G54D27*
X-3524Y272D03*
Y772D03*
Y1276D03*
Y1776D03*
X-1516Y772D03*
Y1276D03*
Y1776D03*
X10433Y1827D03*
Y2327D03*
Y2831D03*
Y3331D03*
X12441Y2327D03*
Y2831D03*
Y3331D03*
X13563Y252D03*
Y752D03*
Y1256D03*
X15571Y252D03*
Y752D03*
Y1256D03*
Y1756D03*
G54D28*
X-1516Y272D03*
X12441Y1827D03*
X13563Y1756D03*
G54D29*
X69Y2333D03*
G54D30*
X3396Y955D03*
X3593Y-2392D03*
Y955D03*
X3789Y-2392D03*
Y955D03*
X3986Y-2392D03*
Y955D03*
X4183Y-2392D03*
Y955D03*
X4380Y-2392D03*
Y955D03*
X4577Y-2392D03*
Y955D03*
X4774Y-2392D03*
Y955D03*
X4970Y-2392D03*
Y955D03*
X5167Y-2392D03*
Y955D03*
X5364Y-2392D03*
Y955D03*
X5561Y-2392D03*
Y955D03*
G54D31*
X2805Y-1801D03*
Y-1604D03*
Y-1407D03*
Y-1211D03*
Y-1014D03*
Y-817D03*
Y-620D03*
Y-423D03*
Y-226D03*
Y-30D03*
Y167D03*
Y364D03*
X6152Y-1801D03*
Y-1604D03*
Y-1407D03*
Y-1211D03*
Y-1014D03*
Y-817D03*
Y-620D03*
Y-423D03*
Y-226D03*
Y-30D03*
Y167D03*
Y364D03*
G54D32*
X-12323Y-4016D03*
Y984D03*
X16563Y-8661D03*
X18524Y2815D03*
G54D33*
X-12323Y-2516D03*
Y-1016D03*
Y2484D03*
Y3984D03*
X6063Y-8661D03*
X7563D03*
X9063D03*
X10563D03*
X12063D03*
X13563D03*
X15063D03*
X18524Y-1685D03*
Y-185D03*
Y1315D03*
G54D34*
X-8228Y-4094D03*
X-7087D03*
X10846Y4390D03*
Y7740D03*
X10906Y941D03*
X11988Y4390D03*
Y7740D03*
X12047Y941D03*
G54D35*
X-8386Y827D03*
X-5453Y1791D03*
G54D36*
X-15138Y-630D03*
Y3642D03*
X-12886Y-6319D03*
X-11528Y-9252D03*
G54D37*
X-20098Y-3622D03*
Y-630D03*
Y650D03*
Y3642D03*
X-16122Y-3622D03*
Y-630D03*
Y650D03*
Y3642D03*
X-15138Y-3622D03*
Y650D03*
X-13886Y-6319D03*
X-12528Y-9252D03*
G54D38*
X-11142Y-6161D03*
G54D39*
Y-7461D03*
G54D40*
X15630Y-1122D03*
Y-413D03*
G54D41*
X14764Y-768D03*
G54D42*
X12953Y-2717D03*
Y-1929D03*
X15512Y-2717D03*
Y-1929D03*
G54D43*
X3543Y5866D03*
G54D44*
Y7362D03*
G54D45*
X4656Y7382D03*
X4911Y5728D03*
Y7382D03*
X5167Y5728D03*
Y7382D03*
X5423Y5728D03*
Y7382D03*
G54D46*
X4656Y5728D03*
G54D47*
X16850Y-4272D03*
G54D48*
X15197D03*
G54D49*
X1713Y-9646D03*
G54D50*
Y-7717D03*
G54D51*
X-7047Y-6102D03*
G54D52*
X-9567Y-7008D03*
Y-6102D03*
Y-5197D03*
G54D53*
X16240Y5118D03*
G54D54*
X13720D03*
G54D55*
X15571Y3110D03*
G54D56*
X13917D03*
G54D57*
X-1130Y7894D03*
G54D58*
X-5276Y3799D03*
Y5610D03*
G54D59*
X-4567Y-6772D03*
X-4019Y-8094D03*
Y-5449D03*
X-1375Y-8094D03*
Y-5449D03*
X-827Y-6772D03*
G54D70*
X-16772Y4528D03*
Y5315D03*
X-15984Y-6654D03*
Y-5866D03*
X-15906Y4921D03*
X-15866Y-5335D03*
Y-4547D03*
X-15118Y-6260D03*
X-15000Y-4941D03*
X-10492Y-8248D03*
X-9626Y-8642D03*
Y-7854D03*
X-9094Y6555D03*
X-8760Y-9547D03*
Y-8760D03*
X-8228Y6161D03*
Y6949D03*
X-7894Y-9154D03*
X-1130Y7146D03*
Y7520D03*
X-169Y7146D03*
Y7520D03*
Y7894D03*
G54D71*
X-11654Y6654D03*
Y7362D03*
X-6417Y3642D03*
Y4350D03*
Y5098D03*
Y5807D03*
X-6339Y-9823D03*
Y-9114D03*
X-4508Y492D03*
Y1201D03*
X-3366Y7165D03*
Y7874D03*
X-3287Y9232D03*
Y9941D03*
X-2480Y7165D03*
Y7874D03*
X-2402Y9232D03*
Y9941D03*
X-906Y-1201D03*
Y-492D03*
X650Y9134D03*
Y9843D03*
X807Y7224D03*
Y7933D03*
X817Y-2884D03*
Y-2175D03*
X1663Y1604D03*
Y2313D03*
X1722Y-2884D03*
Y-2175D03*
X1890Y7224D03*
Y7933D03*
X2972Y-9882D03*
Y-9173D03*
X4528Y8720D03*
Y9429D03*
X4685Y-9882D03*
Y-9173D03*
X5285Y-3868D03*
Y-3159D03*
X5866Y1693D03*
Y2402D03*
X6043Y8780D03*
Y9488D03*
X6171Y-3868D03*
Y-3159D03*
X6417Y6181D03*
Y6890D03*
X6949Y9055D03*
Y9764D03*
X7333Y167D03*
Y876D03*
X7362Y2244D03*
Y2953D03*
X7756Y-7008D03*
Y-6299D03*
X7854Y9055D03*
Y9764D03*
X8268Y2244D03*
Y2953D03*
Y3701D03*
Y4409D03*
X9445Y1516D03*
Y2224D03*
Y2972D03*
Y3681D03*
X12205Y-7008D03*
Y-6299D03*
X14075Y-5295D03*
Y-4587D03*
X14567Y-7008D03*
Y-6299D03*
X16791Y-7028D03*
Y-6319D03*
G54D72*
X659Y2333D03*
G54D73*
X3396Y-2392D03*
M02*
